<?xml version="1.0" encoding="utf-8"?>
<!-- Generator: Adobe Illustrator 26.0.3, SVG Export Plug-In . SVG Version: 6.00 Build 0)  -->
<svg version="1.1" id="Layer_1" xmlns="http://www.w3.org/2000/svg" xmlns:xlink="http://www.w3.org/1999/xlink" x="0px" y="0px"
	 width="100px" height="50px" viewBox="0 0 100 50" style="enable-background:new 0 0 100 50;" xml:space="preserve">
<style type="text/css">
	.st0{fill:#FFFFFF;}
	.st1{fill:none;stroke:#FFFFFF;stroke-miterlimit:10;}
	.st2{fill:#C1282D;stroke:#FFFFFF;stroke-width:0.25;stroke-miterlimit:10;}
	.st3{clip-path:url(#SVGID_00000062895138914134747700000002740416324327410072_);}
	.st4{fill:#010101;stroke:#FFFFFF;stroke-width:0.25;stroke-miterlimit:10;}
	.st5{fill:#EC2227;stroke:#FFFFFF;stroke-width:0.25;stroke-miterlimit:10;}
	.st6{clip-path:url(#SVGID_00000083800193762516479980000011211545428834365064_);}
	.st7{fill:#FBB03C;stroke:#FFFFFF;stroke-width:0.25;stroke-miterlimit:10;}
	.st8{clip-path:url(#SVGID_00000173134091911042892850000011203009797028562346_);}
	.st9{fill:#F79421;stroke:#FFFFFF;stroke-width:0.25;stroke-miterlimit:10;}
	.st10{clip-path:url(#SVGID_00000000208525959998953730000010390875577874824602_);}
	.st11{fill:#F15B27;stroke:#FFFFFF;stroke-width:0.25;stroke-miterlimit:10;}
	.st12{clip-path:url(#SVGID_00000130622374716567205630000013325246787708789397_);}
</style>
<g>
	<g>
		<path class="st0" d="M10.45,7.08c0.98-0.22,2.27-0.36,3.61-0.36c2.2,0,3.59,0.45,4.55,1.41c0.67,0.67,1.01,1.53,1.01,2.66
			c0,1.6-1.22,3.04-2.85,3.59v0.07c1.17,0.24,3.52,1.32,3.52,4.05c0,1.32-0.48,2.3-1.22,3.04c-1.12,1.12-2.97,1.6-5.58,1.6
			c-1.25,0-2.32-0.1-3.04-0.14V7.08z M11.62,14h2.83c2.54,0,3.97-1.41,3.97-3.16c0-2.47-2.04-3.14-4.43-3.14
			c-1.27,0-1.96,0.1-2.37,0.19V14z M11.62,22.02c0.55,0.12,1.32,0.14,2.27,0.14c2.54,0,5.17-0.74,5.17-3.62
			c0-2.54-2.3-3.59-5.03-3.59h-2.42V22.02z"/>
		<path class="st0" d="M30.53,23l-0.19-1.77h-0.05c-0.6,0.89-2.06,2.06-4.17,2.06c-2.61,0-3.66-1.77-3.66-3.16
			c0-2.61,2.42-4.31,7.78-4.24v-0.26c0-0.86-0.19-3.45-3.26-3.42c-1.15,0-2.35,0.29-3.3,0.96l-0.38-0.84
			c1.27-0.84,2.68-1.1,3.78-1.1c3.9,0,4.33,3.02,4.33,4.84v4.17c0,0.93,0.05,1.84,0.19,2.78H30.53z M30.25,16.87
			c-3.04-0.1-6.54,0.38-6.54,3.04c0,1.63,1.17,2.42,2.51,2.42c2.23,0,3.42-1.32,3.88-2.35c0.1-0.24,0.14-0.48,0.14-0.67V16.87z"/>
		<path class="st0" d="M44.3,22.45c-0.5,0.24-1.89,0.84-3.85,0.84c-3.66,0-6.08-2.54-6.08-5.87c0-3.83,2.85-6.2,6.54-6.2
			c1.7,0,3.02,0.48,3.5,0.81l-0.43,0.96c-0.67-0.38-1.68-0.77-3.16-0.77c-3.42,0-5.27,2.25-5.27,5.05c0,2.99,2.15,5,5.08,5
			c1.65,0,2.68-0.48,3.35-0.77L44.3,22.45z"/>
	</g>
	<g>
		<path class="st0" d="M54.41,7.03c1.03-0.17,2.35-0.31,3.83-0.31c2.15,0,3.71,0.53,4.67,1.44c0.81,0.77,1.29,1.82,1.29,3.14
			c0,1.41-0.43,2.51-1.25,3.33c-1.1,1.15-2.94,1.75-5.08,1.75c-0.84,0-1.63-0.02-2.3-0.24V23h-1.17V7.03z M55.59,15.1
			c0.67,0.22,1.53,0.29,2.44,0.29c3.21,0,5-1.46,5-3.95c0-2.78-2.2-3.73-4.81-3.73c-1.22,0-2.15,0.12-2.63,0.22V15.1z"/>
		<path class="st0" d="M77.94,17.11c0,4.31-3.35,6.18-6.18,6.18c-3.42,0-5.91-2.51-5.91-5.91c0-3.83,2.87-6.15,6.08-6.15
			C75.62,11.22,77.94,13.83,77.94,17.11z M67.03,17.3c0,3.21,2.32,5.03,4.81,5.03c2.54,0,4.93-1.84,4.93-5.15c0-2.18-1.46-5-4.84-5
			C68.68,12.18,67.03,14.62,67.03,17.3z"/>
		<path class="st0" d="M81.08,15.22c0-1.25-0.02-2.47-0.1-3.71h1.13l0.1,2.39h0.05c0.86-1.56,2.44-2.68,4.84-2.68
			c3.38,0,5.53,2.68,5.53,5.79c0,4.02-2.68,6.27-5.82,6.27c-1.8,0-3.54-0.74-4.5-2.35h-0.05v6.85h-1.17V15.22z M82.25,18.38
			c0,0.31,0.05,0.62,0.12,0.91c0.48,1.63,2.18,3.04,4.33,3.04c2.92,0,4.74-2.06,4.74-5.27c0-2.61-1.72-4.88-4.6-4.88
			c-1.89,0-3.74,1.08-4.38,3.16c-0.1,0.31-0.21,0.69-0.21,1.01V18.38z"/>
	</g>
	<g>
		<path class="st0" d="M44.45,23.96l8.55-17.38h1.22L45.6,23.96H44.45z"/>
	</g>
</g>
<line class="st1" x1="0" y1="31.78" x2="100" y2="31.78"/>
<g>
	
		<ellipse transform="matrix(0.9951 -0.0994 0.0994 0.9951 -3.9546 2.7293)" class="st2" cx="25.42" cy="41.07" rx="2.72" ry="2.65"/>
	
		<ellipse transform="matrix(0.9951 -0.0994 0.0994 0.9951 -4.1208 3.1387)" class="st2" cx="29.45" cy="42.94" rx="2.72" ry="2.65"/>
	
		<ellipse transform="matrix(0.9951 -0.0994 0.0994 0.9951 -3.8374 3.5089)" class="st2" cx="33.31" cy="40.28" rx="2.72" ry="2.65"/>
	<g>
		<defs>
			
				<ellipse id="SVGID_1_" transform="matrix(0.9951 -0.0994 0.0994 0.9951 -4.0243 3.0708)" cx="28.82" cy="41.94" rx="10.76" ry="6.4"/>
		</defs>
		<clipPath id="SVGID_00000084489133092347145390000000867719736071478153_">
			<use xlink:href="#SVGID_1_"  style="overflow:visible;"/>
		</clipPath>
		<g style="clip-path:url(#SVGID_00000084489133092347145390000000867719736071478153_);">
			<g>
				<path class="st4" d="M54.7,37.81c0.13-0.03,0.26-0.05,0.39-0.07c0.06-0.2,0.14-0.39,0.24-0.56c0.23-0.41,0.57-0.76,0.97-1.01
					c-0.38-0.42-0.63-0.97-0.69-1.58c-0.1-1.04,0.38-2.04,1.25-2.61c-0.33-0.41-0.54-0.91-0.6-1.46c-0.15-1.47,0.88-2.8,2.34-3.03
					c-0.06-0.18-0.09-0.36-0.11-0.55c-0.15-1.53,0.97-2.9,2.5-3.05c1.53-0.15,2.9,0.97,3.05,2.5c0.15,1.47-0.88,2.81-2.34,3.03
					c0.06,0.18,0.09,0.37,0.11,0.55c0.1,1.04-0.38,2.04-1.25,2.61c0.34,0.42,0.54,0.93,0.6,1.46c0.11,1.07-0.41,2.1-1.32,2.66
					c0.14,0.16,0.27,0.34,0.37,0.54c1.53-0.15,2.9,0.97,3.05,2.5c0.15,1.53-0.97,2.9-2.5,3.05c-1.05,0.1-2.06-0.39-2.62-1.26
					c-0.15-0.23-0.09-0.23-0.19,0.03c-0.38,0.97-1.28,1.65-2.32,1.75c-1.59,0.16-2.99-1.05-3.06-2.65
					c-0.13,0.03-0.26,0.05-0.39,0.07c-0.77,0.08-1.49-0.16-2.04-0.62c-0.55-0.45-0.93-1.12-1.01-1.88c-0.02-0.2-0.02-0.41,0.01-0.62
					c-1.48,0.07-2.76-1.03-2.91-2.51c-0.13-1.29,0.65-2.5,1.88-2.92c-0.19-0.23-0.35-0.5-0.46-0.79c-0.3-0.01-0.59-0.07-0.87-0.17
					c-0.08,0.5-0.29,0.95-0.6,1.33c-0.45,0.55-1.12,0.93-1.88,1.01c-1.16,0.12-2.26-0.5-2.78-1.54c-0.3,0.16-0.64,0.26-1.01,0.3
					c-1.53,0.15-2.9-0.97-3.06-2.5c0-0.02,0-0.04,0-0.05c-0.21,0.08-0.44,0.13-0.68,0.15c-1.53,0.15-2.9-0.97-3.06-2.5
					s0.97-2.9,2.5-3.06c1.56-0.16,2.94,1,3.06,2.56c0.22-0.08,0.45-0.13,0.68-0.15c1.16-0.12,2.27,0.5,2.78,1.54
					c0.31-0.16,0.65-0.26,1.01-0.3c0.44-0.04,0.86,0.02,1.25,0.16c0.2-1.25,1.22-2.21,2.48-2.34c1.26-0.13,2.45,0.61,2.89,1.79
					c1.39,0.05,2.52,1.13,2.66,2.51c0.13,1.29-0.65,2.5-1.88,2.92c0.35,0.43,0.57,0.95,0.62,1.5c0.02,0.21,0.02,0.42-0.01,0.62
					c0.69-0.03,1.34,0.19,1.85,0.59C54.28,36.24,54.66,36.99,54.7,37.81L54.7,37.81z M29.42,17.66c-0.01-0.14,0.2-0.16,0.21-0.02
					c0.09,0.89-0.75,0.89-0.5,1.76c0.04,0.14-0.17,0.2-0.21,0.06C28.63,18.45,29.5,18.45,29.42,17.66z M44.96,16.51
					c0.02-0.14,0.23-0.11,0.21,0.03c-0.13,0.77-0.63,0.59-0.88,0.99c-0.07,0.12-0.26,0.01-0.18-0.11
					C44.38,16.99,44.86,17.14,44.96,16.51L44.96,16.51z M48.34,11.61c-0.09-0.1,0.06-0.25,0.16-0.14c0.29,0.32,0.46,0.7,0.47,1.14
					c0,0.14-0.21,0.15-0.21,0.01C48.75,12.23,48.6,11.9,48.34,11.61z M52.72,17.64c-0.05-0.13,0.15-0.21,0.2-0.08
					c0.16,0.39,0.05,0.91-0.24,1.2c-0.1,0.1-0.25-0.05-0.15-0.15C52.76,18.37,52.85,17.94,52.72,17.64L52.72,17.64z M53.3,12.25
					c-0.14-0.01-0.13-0.22,0.01-0.21c0.42,0.02,0.72,0.16,0.8,0.6c0.04,0.22,0.04,0.45,0.21,0.59c0.11,0.09-0.03,0.25-0.14,0.17
					c-0.24-0.2-0.24-0.47-0.28-0.69C53.85,12.35,53.64,12.26,53.3,12.25z M35.43,16.25c0.14-0.01,0.16,0.2,0.02,0.21
					c-0.3,0.03-0.63,0.26-0.78,0.52c-0.07,0.12-0.26,0.02-0.19-0.11C34.66,16.56,35.06,16.29,35.43,16.25z M43.79,8.36
					c0.02,0.14-0.2,0.16-0.21,0.03c-0.05-0.42,0.03-0.87,0.27-1.21c0.08-0.11,0.26,0.01,0.17,0.12C43.81,7.59,43.75,7.99,43.79,8.36
					L43.79,8.36z M49.5,2.95c0.08,0.12-0.1,0.24-0.18,0.12c-0.19-0.28-0.64-0.49-0.97-0.56c-0.14-0.03-0.09-0.24,0.04-0.21
					C48.78,2.38,49.28,2.62,49.5,2.95L49.5,2.95z M32,8.01c-0.02,0.14-0.24,0.1-0.21-0.04c0.1-0.55-0.49-0.6-0.54-1.16
					c-0.01-0.14,0.2-0.16,0.21-0.02C31.51,7.27,32.13,7.31,32,8.01L32,8.01z M26.24,10.24c0.12-0.06,0.22,0.13,0.1,0.19
					c-0.6,0.31-0.09,0.92-0.73,1.46c-0.11,0.09-0.25-0.07-0.14-0.16C26.04,11.24,25.48,10.63,26.24,10.24L26.24,10.24z M23.62,14.12
					c0.09-0.11,0.26,0.02,0.17,0.13c-0.23,0.31-0.33,0.81-0.19,1.17c0.05,0.13-0.15,0.21-0.2,0.08
					C23.24,15.06,23.34,14.48,23.62,14.12L23.62,14.12z M24.97,21.45c0.01,0.14-0.2,0.16-0.21,0.02c-0.06-0.64-0.94-0.54-0.85-1.55
					c0.01-0.14,0.23-0.12,0.21,0.02C24.04,20.81,24.89,20.69,24.97,21.45L24.97,21.45z M39.08,15.96c0.09-0.11,0.26,0.02,0.17,0.13
					c-0.44,0.57,0.13,1.04-0.2,1.69c-0.06,0.13-0.25,0.03-0.19-0.1C39.15,17.1,38.56,16.63,39.08,15.96L39.08,15.96z M48.7,18.72
					c0.03-0.14,0.24-0.08,0.21,0.05c-0.19,0.77-0.8,0.46-1.07,0.89c-0.08,0.12-0.26,0-0.18-0.12C47.98,19.05,48.54,19.34,48.7,18.72
					z M57.73,14.39c-0.04-0.14,0.17-0.19,0.21-0.05c0.15,0.59,0.88,0.53,0.95,1.24c0.01,0.14-0.2,0.16-0.21,0.02
					C58.61,15.02,57.9,15.05,57.73,14.39L57.73,14.39z M28.36,28.26c0.1,0.1-0.05,0.25-0.15,0.15c-0.22-0.21-0.63-0.21-0.89-0.07
					c-0.12,0.07-0.22-0.12-0.1-0.19C27.57,27.97,28.07,27.98,28.36,28.26z M23.6,34c-0.01,0.14-0.22,0.12-0.21-0.02
					c0.06-0.7-0.87-0.76-0.6-1.74c0.04-0.14,0.24-0.08,0.21,0.06C22.76,33.14,23.67,33.17,23.6,34L23.6,34z M23.65,41.07
					c-0.13,0.06-0.22-0.13-0.09-0.19c0.7-0.34,0.14-1.15,1.16-1.38c0.14-0.03,0.18,0.18,0.05,0.21
					C23.92,39.89,24.46,40.68,23.65,41.07L23.65,41.07z M30.5,43.68c-0.04-0.14,0.17-0.19,0.21-0.05c0.11,0.41-0.08,0.58-0.41,0.76
					c-0.15,0.08-0.32,0.18-0.3,0.42c0.01,0.14-0.2,0.16-0.21,0.02c-0.04-0.38,0.2-0.51,0.41-0.62
					C30.43,44.07,30.58,43.99,30.5,43.68L30.5,43.68z M34.92,39.67c0.05,0.13-0.15,0.21-0.2,0.07c-0.18-0.48-0.44-0.85-0.97-0.94
					c-0.14-0.02-0.11-0.23,0.03-0.21C34.4,38.68,34.72,39.11,34.92,39.67L34.92,39.67z M62.99,26.7c-0.03,0.14-0.24,0.09-0.21-0.04
					c0.07-0.31-0.1-0.73-0.38-0.88c-0.12-0.07-0.02-0.26,0.1-0.19C62.87,25.78,63.08,26.3,62.99,26.7L62.99,26.7z M58.2,28.87
					c0.04-0.14,0.24-0.08,0.21,0.06c-0.11,0.37-0.44,0.35-0.69,0.51c-0.24,0.16-0.28,0.31-0.23,0.59c0.02,0.14-0.19,0.18-0.21,0.04
					c-0.06-0.36,0.01-0.6,0.33-0.81C57.79,29.14,58.14,29.1,58.2,28.87L58.2,28.87z M57.47,35.46c0.01,0.14-0.2,0.16-0.21,0.02
					c-0.02-0.19-0.69-0.3-0.52-0.95c0.04-0.14,0.24-0.08,0.21,0.05C56.81,35.09,57.43,35.11,57.47,35.46z M61.89,39.55
					c-0.05-0.13,0.16-0.2,0.2-0.07c0.17,0.51,0.07,1.23-0.37,1.58c-0.11,0.09-0.24-0.08-0.13-0.17
					C61.96,40.6,62.04,39.98,61.89,39.55L61.89,39.55z M58.69,37.75c-0.01-0.14,0.2-0.16,0.21-0.02c0.05,0.47,0.59,0.43,0.5,1.03
					c-0.02,0.14-0.23,0.11-0.21-0.03C59.26,38.29,58.74,38.3,58.69,37.75z M55.19,42.05c0.14-0.01,0.16,0.2,0.02,0.21
					c-0.74,0.07-0.65-0.55-1.07-0.59c-0.14-0.01-0.12-0.22,0.02-0.21C54.72,41.51,54.6,42.11,55.19,42.05z M52.94,36.96
					c-0.11-0.08,0.02-0.26,0.13-0.17c0.48,0.36,0.1,0.59,0.35,0.85c0.15,0.16,0.24,0.36,0.18,0.58c-0.04,0.14-0.24,0.08-0.21-0.05
					c0.04-0.14-0.03-0.28-0.13-0.38C52.93,37.44,53.3,37.23,52.94,36.96L52.94,36.96z M47.99,35.93c0.11,0.08-0.02,0.26-0.13,0.17
					c-0.31-0.23-0.49-0.68-0.5-1.06c0-0.14,0.21-0.15,0.21-0.01C47.59,35.35,47.74,35.74,47.99,35.93L47.99,35.93z M51.33,30.08
					c-0.06-0.13,0.13-0.22,0.19-0.1c0.41,0.8-0.21,0.8-0.13,1.42c0.02,0.14-0.2,0.16-0.21,0.03C51.09,30.75,51.66,30.74,51.33,30.08
					z M48.32,27.11c-0.04-0.13,0.16-0.2,0.21-0.06c0.1,0.34,0.72,0.25,0.78,0.94c0.01,0.14-0.2,0.16-0.21,0.02
					C49.04,27.45,48.46,27.58,48.32,27.11L48.32,27.11z M45.33,31.42c-0.01-0.14,0.2-0.16,0.21-0.02c0.09,0.86-1.04,0.59-1.18,1.06
					c-0.04,0.14-0.25,0.07-0.21-0.06C44.34,31.78,45.39,32.06,45.33,31.42L45.33,31.42z M41.84,29.52
					c-0.03-0.14,0.17-0.19,0.21-0.05c0.15,0.62-0.43,0.69-0.38,1.2c0.01,0.14-0.2,0.16-0.21,0.02C41.39,30.09,41.96,30,41.84,29.52
					L41.84,29.52z M35.63,28.44c0.01,0.06-0.04,0.12-0.11,0.12c-0.06,0-0.1-0.04-0.11-0.1c-0.06-0.58-0.88-0.69-0.68-1.53
					c0.03-0.14,0.24-0.09,0.21,0.05C34.78,27.66,35.56,27.78,35.63,28.44L35.63,28.44z M27.98,31.98c1.3-0.13,2.25-1.29,2.12-2.59
					c-0.13-1.3-1.29-2.25-2.59-2.12s-2.25,1.29-2.12,2.59C25.52,31.16,26.68,32.11,27.98,31.98L27.98,31.98z M28.02,32.4
					c-0.24,0.02-0.47,0.02-0.69-0.02c0.19,1.55-0.95,2.96-2.5,3.11c-1.53,0.15-2.9-0.97-3.06-2.5c-0.15-1.54,0.97-2.9,2.5-3.06
					c0.23-0.02,0.47-0.02,0.69,0.02c-0.19-1.55,0.94-2.96,2.5-3.11c1.53-0.15,2.9,0.97,3.06,2.5C30.67,30.88,29.55,32.25,28.02,32.4
					L28.02,32.4z M26.88,32.28C26,32,25.32,31.29,25.06,30.41c-0.25-0.05-0.49-0.07-0.74-0.04c-1.3,0.13-2.25,1.29-2.12,2.59
					c0.13,1.3,1.29,2.25,2.59,2.12C26.17,34.93,27.13,33.64,26.88,32.28L26.88,32.28z M37.88,29.55c0,0.02,0,0.03,0,0.05
					c0,0.05,0.01,0.1,0.01,0.16c0.13,1.3,1.29,2.25,2.59,2.12c1.3-0.13,2.25-1.29,2.12-2.59s-1.29-2.25-2.59-2.12
					c-0.25,0.03-0.49,0.09-0.72,0.19c-0.05,0.57-0.27,1.1-0.62,1.53C38.45,29.15,38.19,29.38,37.88,29.55L37.88,29.55z M36.75,29.47
					c0.65-0.06,1.21-0.39,1.59-0.86c1.34-1.63,0.01-4.06-2.06-3.85c-1.3,0.13-2.25,1.29-2.12,2.59
					C34.29,28.65,35.45,29.6,36.75,29.47L36.75,29.47z M41.9,31.78c0.43,0.9,1.38,1.44,2.37,1.34c0.65-0.06,1.21-0.39,1.59-0.86
					c0.38-0.47,0.59-1.08,0.52-1.73c-0.13-1.3-1.29-2.25-2.59-2.12c-0.31,0.03-0.61,0.12-0.89,0.27c0.06,0.18,0.1,0.37,0.12,0.56
					C43.13,30.23,42.69,31.19,41.9,31.78z M46.83,30.76c0.37,0.16,0.77,0.22,1.17,0.18c0.65-0.06,1.21-0.39,1.59-0.86
					c1.34-1.63,0.01-4.06-2.06-3.85c-1.11,0.11-2,0.99-2.12,2.1c0.79,0.45,1.31,1.25,1.4,2.15C46.82,30.58,46.83,30.67,46.83,30.76
					L46.83,30.76z M48.11,31.36c0.42,0.92,1.38,1.48,2.39,1.38c1.3-0.13,2.24-1.29,2.11-2.58c-0.11-1.12-0.99-2-2.11-2.12
					c0.16,0.82-0.05,1.67-0.58,2.32C49.49,30.89,48.85,31.27,48.11,31.36L48.11,31.36z M58.77,27.89c-1.28,0.15-2.21,1.3-2.08,2.58
					c0.06,0.65,0.39,1.21,0.85,1.59c0.47,0.38,1.08,0.59,1.73,0.52c1.3-0.13,2.24-1.29,2.11-2.58c-0.02-0.19-0.06-0.38-0.13-0.56
					C60.2,29.44,59.24,28.83,58.77,27.89z M61.5,29c1.3-0.13,2.24-1.29,2.11-2.58s-1.29-2.24-2.58-2.11
					c-1.3,0.13-2.24,1.29-2.11,2.58C59.05,28.18,60.2,29.13,61.5,29L61.5,29z M57.16,32.29c-0.78,0.47-1.21,1.35-1.12,2.25
					c0.06,0.65,0.39,1.21,0.85,1.59c0.47,0.38,1.08,0.59,1.73,0.52c1.3-0.13,2.24-1.29,2.11-2.58c-0.05-0.48-0.24-0.93-0.55-1.3
					c-0.27,0.12-0.56,0.2-0.87,0.23C58.52,33.09,57.74,32.83,57.16,32.29L57.16,32.29z M56.62,36.47c-0.39,0.21-0.71,0.53-0.92,0.91
					c-0.23,0.41-0.34,0.89-0.29,1.39c0.06,0.65,0.39,1.21,0.85,1.59c0.47,0.38,1.08,0.59,1.73,0.52c0.65-0.06,1.21-0.39,1.59-0.85
					c0.59-0.72,0.7-1.72,0.29-2.55c-0.11-0.22-0.25-0.42-0.42-0.59c-0.25,0.1-0.51,0.17-0.79,0.2
					C57.9,37.16,57.17,36.92,56.62,36.47L56.62,36.47z M54.99,38.18c-0.1,0.02-0.21,0.04-0.31,0.07c-0.06,0.54-0.28,1.04-0.61,1.45
					c-0.28,0.34-0.65,0.62-1.07,0.8c0,1.4,1.19,2.5,2.6,2.36c0.82-0.08,1.53-0.58,1.89-1.32c0.13-0.28,0.11-0.2-0.16-0.24
					c-0.5-0.08-0.96-0.29-1.34-0.6c-0.55-0.45-0.93-1.12-1.01-1.88C54.96,38.6,54.96,38.39,54.99,38.18L54.99,38.18z M58.66,41.49
					c0.5,0.61,1.27,0.94,2.07,0.86c1.3-0.13,2.24-1.29,2.11-2.58c-0.12-1.25-1.19-2.18-2.44-2.12c0.31,0.91,0.13,1.92-0.48,2.67
					c-0.3,0.37-0.7,0.66-1.16,0.84C58.46,41.26,58.41,41.18,58.66,41.49L58.66,41.49z M26.65,43.75c-0.29,0.13-0.6,0.21-0.91,0.24
					c-1.61,0.16-3.05-1.02-3.21-2.63c-0.16-1.61,1.02-3.05,2.63-3.21c1.42-0.14,2.74,0.76,3.12,2.14c0.28-0.13,0.59-0.21,0.91-0.24
					c0.4-0.04,0.81,0,1.19,0.13c0.05-1.46,1.18-2.66,2.64-2.81c1.61-0.16,3.05,1.02,3.21,2.63c0.16,1.61-1.02,3.05-2.63,3.21
					c-0.42,0.04-0.82-0.01-1.19-0.13c-0.05,1.46-1.18,2.66-2.64,2.81C28.34,46.03,27.02,45.13,26.65,43.75L26.65,43.75z M27.89,40.5
					c-0.28-1.23-1.44-2.05-2.69-1.92c-1.38,0.14-2.38,1.37-2.24,2.74c0.14,1.38,1.37,2.38,2.74,2.25c0.3-0.03,0.59-0.11,0.87-0.25
					C26.43,42.2,26.94,41.11,27.89,40.5L27.89,40.5z M33.56,42.78c1.38-0.14,2.38-1.37,2.24-2.74c-0.14-1.38-1.37-2.38-2.74-2.25
					c-1.27,0.13-2.24,1.19-2.26,2.45C30.78,41.73,32.05,42.93,33.56,42.78L33.56,42.78z M30.39,40.64c-0.37-0.15-0.77-0.2-1.17-0.16
					c-1.38,0.14-2.38,1.37-2.24,2.74c0.14,1.38,1.37,2.38,2.74,2.25c1.31-0.13,2.29-1.25,2.26-2.56
					C31.11,42.46,30.51,41.62,30.39,40.64L30.39,40.64z M48.3,7.39C47,7.45,45.79,6.7,45.26,5.51c-1.43,0.22-2.44,1.53-2.3,2.98
					c0.24,2.45,3.32,3.33,4.85,1.46C48.4,9.24,48.58,8.27,48.3,7.39z M45.11,5.1c-0.05-0.18-0.09-0.37-0.11-0.56
					c-0.17-1.74,1.1-3.29,2.84-3.47c1.74-0.17,3.29,1.1,3.47,2.84c0.16,1.64-0.96,3.14-2.58,3.43c0.25,0.86,0.12,1.78-0.35,2.54
					c0.68,0.34,1.22,0.92,1.51,1.63c0.53-0.67,1.31-1.09,2.16-1.17c1.58-0.16,3.02,0.88,3.39,2.4c0.07,0.3-0.01,0.27,0.27,0.17
					c0.22-0.07,0.45-0.12,0.69-0.15c1.74-0.17,3.29,1.1,3.47,2.84c0.17,1.74-1.1,3.29-2.84,3.47c-0.96,0.1-1.9-0.25-2.57-0.93
					c-0.36-0.37-0.21-0.38-0.32,0.14c-0.28,1.35-1.41,2.37-2.79,2.51c-0.76,0.08-1.52-0.12-2.14-0.56
					c-0.42,0.28-0.91,0.47-1.45,0.52c-1.44,0.14-2.79-0.71-3.29-2.06c-0.25,0.09-0.52,0.14-0.79,0.16
					c-0.51,0.87-1.41,1.45-2.42,1.55c-0.88,0.09-1.75-0.19-2.42-0.78c-0.5,0.92-1.42,1.53-2.47,1.63c-0.87,0.09-1.69-0.19-2.32-0.7
					c-0.09-0.08-0.19-0.16-0.27-0.25c-0.46,1.05-1.45,1.78-2.59,1.89c-0.96,0.1-1.9-0.25-2.57-0.93c-0.5,0.92-1.42,1.54-2.47,1.64
					c-1.74,0.17-3.29-1.1-3.47-2.84c-0.08-0.85,0.17-1.69,0.72-2.35c-0.01-0.01-0.02-0.01-0.02-0.02c-0.63-0.51-1.06-1.27-1.15-2.14
					c-0.08-0.77,0.13-1.51,0.54-2.1c0.38-0.55,0.93-0.98,1.59-1.21c-0.14-0.89,0.11-1.79,0.68-2.5c0.47-0.58,1.15-0.99,1.93-1.12
					c-0.01-0.07-0.02-0.14-0.03-0.21c-0.17-1.74,1.1-3.29,2.84-3.47c1.74-0.17,3.29,1.1,3.47,2.84c0.09,0.87-0.19,1.69-0.7,2.32
					c-0.47,0.58-1.15,0.99-1.93,1.12c0.26,1.53-0.63,3.02-2.1,3.53c0.14,0.9-0.11,1.82-0.7,2.52c0.1,0.08,0.19,0.16,0.27,0.25
					c0.5-0.92,1.42-1.54,2.47-1.64c0.97-0.1,1.92,0.25,2.59,0.95c0.46-1.05,1.45-1.78,2.59-1.89c0.88-0.09,1.75,0.19,2.42,0.78
					c0.51-0.94,1.48-1.57,2.56-1.64c0.63-1.08,1.83-1.68,3.07-1.55c0.03-0.52,0.19-1.03,0.47-1.47c-0.97-0.49-1.62-1.43-1.73-2.52
					C42.37,6.9,43.5,5.4,45.11,5.1L45.11,5.1z M48.43,6.95c1.51-0.15,2.6-1.49,2.45-3c-0.15-1.51-1.49-2.61-3-2.45
					c-1.51,0.15-2.6,1.49-2.45,3C45.58,6.01,46.93,7.1,48.43,6.95L48.43,6.95z M48.14,10.24c-0.84,1.02-2.23,1.41-3.47,0.98
					c-0.34,0.52-0.49,1.14-0.43,1.76c0.15,1.51,1.49,2.61,3,2.45c0.75-0.08,1.4-0.45,1.85-0.99C50.2,13.08,49.74,11,48.14,10.24
					L48.14,10.24z M28.11,14.87c-0.1,0.02-0.2,0.03-0.3,0.04c-1.51,0.15-2.92-0.79-3.35-2.25c-0.55,0.2-1.01,0.56-1.33,1.03
					c-0.35,0.51-0.53,1.15-0.46,1.82c0.08,0.75,0.45,1.4,0.99,1.85c0.54,0.44,1.25,0.68,2.01,0.61
					C27.22,17.82,28.32,16.41,28.11,14.87L28.11,14.87z M27.08,9.05c-0.69,0.11-1.28,0.47-1.7,0.97c-0.49,0.6-0.7,1.36-0.59,2.12
					c0.21,1.45,1.52,2.49,2.98,2.34c1.58-0.16,2.7-1.65,2.42-3.21C28.78,11.32,27.5,10.4,27.08,9.05L27.08,9.05z M30.38,10.83
					c0.75-0.08,1.4-0.45,1.85-0.99c0.44-0.54,0.68-1.25,0.61-2.01c-0.15-1.51-1.49-2.61-3-2.45c-1.51,0.15-2.6,1.49-2.45,3
					S28.87,10.98,30.38,10.83L30.38,10.83z M27.53,17.59c-0.49,0.44-1.11,0.74-1.82,0.81c-0.71,0.07-1.38-0.1-1.94-0.44
					c-0.49,0.57-0.72,1.31-0.65,2.06c0.15,1.51,1.49,2.61,3,2.45c0.97-0.1,1.8-0.69,2.21-1.57c-0.32-0.44-0.54-0.97-0.6-1.56
					c-0.05-0.49,0.02-0.97,0.18-1.4C27.8,17.81,27.67,17.69,27.53,17.59L27.53,17.59z M33.01,17.29c-0.58-0.71-1.47-1.08-2.39-0.99
					c-1.51,0.15-2.6,1.49-2.45,3c0.15,1.51,1.49,2.61,3,2.45c1.07-0.11,1.97-0.83,2.32-1.84c-0.31-0.43-0.51-0.95-0.56-1.51
					C32.88,18.02,32.91,17.65,33.01,17.29L33.01,17.29z M37.99,16.13c-0.58-0.57-1.38-0.85-2.19-0.77c-1.51,0.15-2.6,1.49-2.45,3
					c0.08,0.75,0.45,1.4,0.99,1.85c0.54,0.44,1.25,0.68,2.01,0.61c0.95-0.09,1.78-0.67,2.19-1.53c-0.46-0.54-0.72-1.22-0.75-1.93
					C37.77,16.93,37.85,16.51,37.99,16.13L37.99,16.13z M40.51,14.54c-1.36,0.22-2.35,1.43-2.29,2.81c0.06,1.58,1.44,2.78,3.01,2.62
					c0.79-0.08,1.49-0.49,1.96-1.13c-1.51-0.13-2.72-1.33-2.87-2.84C40.26,15.48,40.34,14.98,40.51,14.54L40.51,14.54z M46.63,15.87
					c-0.07,1.14-0.74,2.15-1.76,2.65c0.42,1.18,1.6,1.92,2.85,1.8c1.51-0.15,2.6-1.49,2.45-3c-0.09-0.86-0.57-1.62-1.31-2.07
					c-0.45,0.34-0.99,0.56-1.59,0.62C47.06,15.89,46.84,15.89,46.63,15.87L46.63,15.87z M43.8,12.96c-1.73-0.21-3.24,1.23-3.06,2.99
					c0.15,1.51,1.49,2.61,3,2.45c1.36-0.14,2.41-1.25,2.47-2.61C44.88,15.47,43.91,14.32,43.8,12.96z M49.21,14.95
					c0.79,0.53,1.3,1.38,1.4,2.32c0.1,1.01-0.28,2-1.03,2.67c0.52,0.33,1.13,0.47,1.74,0.41c1.22-0.12,2.17-1.02,2.41-2.15
					c0.13-0.59,0.05-1.21-0.21-1.75c-0.97,0.38-2.08,0.25-2.94-0.35c-0.5-0.34-0.9-0.83-1.14-1.41c-0.01,0.01-0.01,0.02-0.02,0.02
					C49.35,14.8,49.28,14.88,49.21,14.95L49.21,14.95z M50.06,12.02c0.17,0.76,0.06,1.55-0.32,2.23c0.18,0.62,0.57,1.15,1.08,1.5
					c1.17,0.8,2.78,0.57,3.67-0.52c1.52-1.86,0.05-4.71-2.39-4.46C51.26,10.85,50.51,11.31,50.06,12.02z M55.53,13.64
					c-0.02,0.71-0.28,1.33-0.71,1.86c-0.23,0.28-0.51,0.52-0.82,0.71c0.08,0.74,0.45,1.38,0.99,1.82c0.54,0.44,1.25,0.68,2.01,0.61
					c1.51-0.15,2.6-1.49,2.45-3c-0.15-1.51-1.49-2.61-3-2.45c-0.24,0.02-0.46,0.08-0.68,0.16C55.53,13.43,55.54,13.42,55.53,13.64
					L55.53,13.64z M48.46,32.51c-1.14,0.28-1.91,1.36-1.79,2.53c0.13,1.3,1.29,2.24,2.58,2.11c0.65-0.06,1.21-0.39,1.59-0.85
					c0.38-0.47,0.59-1.08,0.52-1.73c-0.05-0.54-0.29-1.04-0.67-1.43c-0.05,0.01-0.1,0.01-0.15,0.02
					C49.79,33.24,49.04,33.01,48.46,32.51L48.46,32.51z M49.59,37.54c-0.04,0.21-0.04,0.42-0.02,0.63c0.06,0.65,0.39,1.21,0.85,1.59
					c0.47,0.38,1.08,0.59,1.73,0.52c0.65-0.06,1.21-0.39,1.59-0.85c0.35-0.42,0.55-0.97,0.53-1.55c-0.02-0.71-0.34-1.37-0.9-1.8
					c-0.46-0.36-1.05-0.54-1.68-0.49c-0.11,0.36-0.28,0.7-0.52,0.99C50.78,37.06,50.23,37.41,49.59,37.54z"/>
			</g>
		</g>
	</g>
</g>
<g>
	<circle class="st5" cx="92.79" cy="40.18" r="2.41"/>
	<circle class="st5" cx="94.99" cy="44.02" r="2.41"/>
	<g>
		<defs>
			
				<rect id="SVGID_00000129194789307191966660000009019567656449794731_" x="87.46" y="37.35" transform="matrix(0.1508 -0.9886 0.9886 0.1508 38.4628 128.9494)" width="13.66" height="9.48"/>
		</defs>
		<clipPath id="SVGID_00000089560111760778911600000016465225325896280194_">
			<use xlink:href="#SVGID_00000129194789307191966660000009019567656449794731_"  style="overflow:visible;"/>
		</clipPath>
		<g style="clip-path:url(#SVGID_00000089560111760778911600000016465225325896280194_);">
			<g>
				<path class="st4" d="M80.38,68.13c0,0.13-0.01,0.26-0.03,0.39c0.18,0.11,0.34,0.23,0.49,0.37c0.34,0.33,0.6,0.74,0.74,1.19
					c0.5-0.26,1.09-0.37,1.7-0.28c1.03,0.16,1.88,0.87,2.22,1.86c0.47-0.21,1.01-0.3,1.57-0.21c1.46,0.22,2.5,1.55,2.36,3.02
					c0.19-0.01,0.37,0,0.56,0.03c1.52,0.23,2.57,1.66,2.34,3.18s-1.66,2.57-3.18,2.34c-1.46-0.22-2.5-1.55-2.36-3.02
					c-0.19,0.01-0.38,0-0.56-0.03c-1.03-0.16-1.89-0.88-2.22-1.86c-0.49,0.22-1.03,0.3-1.57,0.21c-1.06-0.16-1.93-0.91-2.25-1.93
					c-0.19,0.1-0.4,0.18-0.61,0.23c-0.23,1.52-1.66,2.56-3.18,2.33c-1.52-0.23-2.57-1.66-2.34-3.18c0.16-1.04,0.89-1.9,1.88-2.23
					c0.26-0.09,0.24-0.03,0.02-0.19c-0.84-0.61-1.28-1.65-1.12-2.68c0.24-1.58,1.76-2.64,3.32-2.31c0-0.13,0.01-0.26,0.03-0.39
					c0.12-0.76,0.53-1.4,1.11-1.83c0.58-0.42,1.31-0.63,2.07-0.51c0.2,0.03,0.4,0.09,0.6,0.16c0.3-1.45,1.69-2.42,3.15-2.19
					c1.28,0.2,2.26,1.25,2.36,2.54c0.27-0.13,0.57-0.21,0.88-0.25c0.08-0.28,0.21-0.55,0.38-0.8c-0.46-0.2-0.85-0.52-1.14-0.91
					c-0.42-0.58-0.63-1.31-0.51-2.08c0.18-1.15,1.05-2.07,2.18-2.31c-0.08-0.33-0.09-0.69-0.04-1.05c0.23-1.52,1.66-2.57,3.18-2.34
					c0.02,0,0.04,0.01,0.05,0.01c-0.02-0.23-0.02-0.46,0.02-0.69c0.23-1.52,1.66-2.57,3.18-2.34c1.53,0.23,2.57,1.66,2.34,3.18
					c-0.24,1.55-1.7,2.6-3.24,2.33c0.02,0.23,0.02,0.46-0.02,0.69c-0.18,1.15-1.05,2.07-2.18,2.31c0.08,0.34,0.09,0.7,0.04,1.05
					c-0.07,0.44-0.23,0.83-0.47,1.17c1.16,0.5,1.84,1.73,1.65,2.98c-0.19,1.25-1.2,2.22-2.46,2.36c-0.4,1.33-1.72,2.17-3.09,1.96
					c-1.28-0.2-2.26-1.25-2.36-2.54c-0.5,0.24-1.06,0.32-1.61,0.23c-0.21-0.03-0.41-0.09-0.6-0.16c-0.14,0.67-0.52,1.25-1.03,1.65
					C82.01,68.11,81.18,68.29,80.38,68.13L80.38,68.13z M106.17,48.64c0.14,0.02,0.11,0.23-0.03,0.21
					c-0.88-0.13-0.68-0.95-1.58-0.92c-0.14,0-0.15-0.21-0.01-0.21C105.6,47.68,105.39,48.52,106.17,48.64z M103.43,63.98
					c0.13,0.06,0.04,0.25-0.09,0.2c-0.72-0.31-0.42-0.76-0.74-1.09c-0.1-0.1,0.06-0.25,0.15-0.15
					C103.11,63.29,102.85,63.72,103.43,63.98L103.43,63.98z M107.33,68.47c0.12-0.07,0.22,0.12,0.1,0.19
					c-0.39,0.2-0.8,0.27-1.22,0.17c-0.14-0.03-0.09-0.24,0.05-0.21C106.63,68.71,106.99,68.65,107.33,68.47z M100.41,71.22
					c0.14-0.02,0.17,0.19,0.03,0.21c-0.41,0.06-0.89-0.18-1.1-0.54c-0.07-0.12,0.11-0.23,0.18-0.11
					C99.69,71.07,100.08,71.26,100.41,71.22L100.41,71.22z M105.48,73.12c0.04-0.13,0.25-0.07,0.21,0.06
					c-0.12,0.4-0.34,0.66-0.78,0.63c-0.22-0.01-0.44-0.07-0.62,0.06c-0.11,0.08-0.24-0.09-0.13-0.17c0.25-0.19,0.51-0.12,0.74-0.1
					C105.25,73.62,105.39,73.44,105.48,73.12z M106.05,54.8c-0.02,0.14-0.23,0.11-0.21-0.03c0.05-0.3-0.1-0.68-0.31-0.89
					c-0.1-0.1,0.05-0.25,0.15-0.15C105.94,53.99,106.1,54.44,106.05,54.8z M111.62,64.87c-0.14-0.02-0.11-0.23,0.03-0.21
					c0.42,0.05,0.83,0.24,1.11,0.56c0.09,0.11-0.07,0.25-0.16,0.14C112.35,65.08,111.98,64.91,111.62,64.87L111.62,64.87z
					 M115.44,71.74c-0.13,0.05-0.2-0.15-0.07-0.2c0.32-0.11,0.64-0.5,0.78-0.8c0.06-0.13,0.25-0.03,0.19,0.09
					C116.17,71.19,115.81,71.61,115.44,71.74L115.44,71.74z M114.88,53.54c-0.13-0.06-0.04-0.25,0.09-0.19
					c0.51,0.23,0.71-0.32,1.25-0.24c0.14,0.02,0.11,0.23-0.03,0.21C115.72,53.24,115.53,53.83,114.88,53.54L114.88,53.54z
					 M114.15,47.4c0.03,0.14-0.18,0.18-0.21,0.05c-0.15-0.66-0.86-0.32-1.23-1.07c-0.06-0.13,0.13-0.22,0.19-0.09
					C113.24,46.96,113.96,46.57,114.15,47.4L114.15,47.4z M111.05,43.9c0.09,0.11-0.08,0.24-0.17,0.13c-0.24-0.3-0.7-0.52-1.09-0.47
					c-0.14,0.02-0.16-0.2-0.02-0.21C110.23,43.29,110.76,43.54,111.05,43.9L111.05,43.9z M103.6,43.38
					c-0.14-0.02-0.11-0.23,0.03-0.21c0.63,0.1,0.76-0.78,1.71-0.44c0.13,0.05,0.06,0.25-0.07,0.2
					C104.45,42.64,104.36,43.5,103.6,43.38L103.6,43.38z M105.42,58.42c0.09,0.11-0.08,0.24-0.17,0.13
					c-0.44-0.56-1.04-0.13-1.59-0.62c-0.11-0.09,0.04-0.25,0.14-0.16C104.3,58.21,104.9,57.75,105.42,58.42L105.42,58.42z
					 M100.36,67.05c0.12,0.07,0.02,0.25-0.1,0.19c-0.7-0.38-0.25-0.89-0.59-1.26c-0.1-0.1,0.06-0.25,0.16-0.15
					C100.22,66.27,99.8,66.75,100.36,67.05z M102.32,76.87c0.14,0,0.14,0.21,0,0.21c-0.61,0-0.73,0.72-1.43,0.61
					c-0.14-0.02-0.11-0.23,0.03-0.21C101.48,77.57,101.63,76.88,102.32,76.87L102.32,76.87z M96.17,44.98
					c-0.12,0.07-0.23-0.11-0.11-0.18c0.26-0.16,0.36-0.56,0.29-0.85c-0.03-0.14,0.17-0.19,0.21-0.05
					C96.65,44.28,96.51,44.77,96.17,44.98z M91.79,38.95c-0.13-0.05-0.06-0.25,0.07-0.2c0.67,0.23,0.95-0.65,1.83-0.15
					c0.12,0.07,0.02,0.26-0.11,0.19C92.83,38.35,92.57,39.22,91.79,38.95L91.79,38.95z M84.93,37.24c-0.03-0.14,0.18-0.18,0.21-0.04
					c0.15,0.76,1.08,0.43,1.05,1.47c0,0.14-0.22,0.13-0.21-0.01C86,37.79,85.11,38.12,84.93,37.24L84.93,37.24z M80.7,43.23
					c0.14,0,0.14,0.21,0,0.21c-0.43,0-0.54-0.22-0.64-0.59c-0.04-0.17-0.09-0.36-0.33-0.39c-0.14-0.02-0.11-0.23,0.03-0.21
					c0.37,0.06,0.44,0.32,0.5,0.55C80.34,43.06,80.38,43.23,80.7,43.23L80.7,43.23z M83.49,48.5c-0.14,0.01-0.16-0.2-0.02-0.21
					c0.51-0.05,0.94-0.21,1.15-0.71c0.05-0.13,0.25-0.05,0.2,0.08C84.57,48.24,84.08,48.45,83.49,48.5L83.49,48.5z M89.09,78.92
					c-0.13-0.06-0.03-0.25,0.1-0.19c0.28,0.14,0.73,0.09,0.95-0.15c0.1-0.1,0.25,0.04,0.16,0.15C90.01,79.03,89.45,79.1,89.09,78.92
					L89.09,78.92z M88.17,73.74c0.12,0.07,0.01,0.26-0.11,0.18c-0.33-0.19-0.23-0.51-0.32-0.79c-0.09-0.28-0.23-0.35-0.52-0.37
					c-0.14-0.01-0.12-0.22,0.02-0.21c0.37,0.03,0.58,0.16,0.7,0.52C88.01,73.27,87.97,73.62,88.17,73.74L88.17,73.74z M81.97,71.39
					c-0.14-0.02-0.11-0.23,0.03-0.21c0.19,0.03,0.46-0.59,1.05-0.27c0.12,0.07,0.02,0.25-0.1,0.19
					C82.49,70.85,82.32,71.44,81.97,71.39z M76.91,74.66c0.14-0.01,0.16,0.2,0.02,0.21c-0.54,0.04-1.21-0.23-1.44-0.75
					c-0.06-0.13,0.14-0.22,0.2-0.09C75.87,74.47,76.46,74.69,76.91,74.66L76.91,74.66z M79.44,72c0.14,0.02,0.11,0.23-0.03,0.21
					c-0.46-0.07-0.56,0.47-1.13,0.23c-0.13-0.05-0.05-0.25,0.08-0.2C78.78,72.42,78.9,71.92,79.44,72z M76.15,67.55
					c-0.02,0.14-0.23,0.11-0.21-0.03c0.11-0.73,0.7-0.49,0.84-0.89c0.04-0.13,0.25-0.07,0.2,0.07
					C76.79,67.23,76.24,66.96,76.15,67.55z M81.64,66.63c0.11-0.09,0.24,0.08,0.13,0.17c-0.46,0.37-0.59-0.05-0.91,0.13
					c-0.19,0.1-0.41,0.14-0.6,0.03c-0.12-0.07-0.02-0.26,0.1-0.19c0.13,0.07,0.28,0.04,0.4-0.03C81.18,66.5,81.28,66.91,81.64,66.63
					L81.64,66.63z M83.86,62.09c-0.11,0.09-0.24-0.08-0.13-0.17c0.3-0.24,0.78-0.3,1.15-0.22c0.14,0.03,0.09,0.24-0.05,0.21
					C84.53,61.85,84.11,61.9,83.86,62.09L83.86,62.09z M88.7,66.77c0.14-0.03,0.18,0.18,0.05,0.21c-0.87,0.2-0.72-0.4-1.34-0.48
					c-0.14-0.02-0.11-0.23,0.03-0.21C88.11,66.38,87.98,66.93,88.7,66.77z M92.33,64.6c0.14-0.01,0.15,0.21,0.01,0.21
					c-0.36,0.02-0.42,0.63-1.1,0.52c-0.14-0.02-0.11-0.23,0.03-0.21C91.82,65.21,91.84,64.62,92.33,64.6L92.33,64.6z M88.89,60.63
					c0.14,0.02,0.11,0.23-0.03,0.21c-0.85-0.13-0.31-1.15-0.74-1.4c-0.12-0.07-0.01-0.26,0.11-0.18
					C88.79,59.59,88.26,60.53,88.89,60.63L88.89,60.63z M91.6,57.73c0.14,0,0.14,0.22,0,0.21c-0.64-0.01-0.57-0.59-1.07-0.67
					c-0.14-0.02-0.11-0.23,0.03-0.21C91.16,57.15,91.11,57.72,91.6,57.73L91.6,57.73z M94.19,51.98c-0.06-0.01-0.1-0.07-0.09-0.13
					c0.01-0.05,0.07-0.09,0.12-0.08c0.57,0.09,0.89-0.68,1.65-0.28c0.12,0.07,0.03,0.25-0.1,0.19
					C95.16,51.35,94.84,52.08,94.19,51.98L94.19,51.98z M92.66,43.69c-0.2,1.29,0.69,2.5,1.98,2.69s2.5-0.69,2.69-1.98
					s-0.69-2.5-1.98-2.69C94.07,41.51,92.86,42.4,92.66,43.69L92.66,43.69z M92.24,43.62c0.04-0.23,0.1-0.46,0.19-0.67
					c-1.55-0.2-2.63-1.65-2.4-3.19c0.23-1.52,1.66-2.57,3.18-2.34c1.53,0.23,2.57,1.66,2.34,3.18c-0.03,0.23-0.1,0.45-0.19,0.67
					c1.55,0.21,2.63,1.64,2.4,3.19c-0.23,1.52-1.66,2.57-3.18,2.34C93.05,46.57,92.01,45.15,92.24,43.62L92.24,43.62z M92.64,42.55
					c0.49-0.78,1.34-1.26,2.26-1.29c0.11-0.22,0.19-0.46,0.23-0.71c0.2-1.29-0.69-2.5-1.98-2.69c-1.29-0.2-2.5,0.69-2.69,1.98
					C90.25,41.2,91.26,42.46,92.64,42.55L92.64,42.55z M92.55,53.88c-0.02,0-0.03-0.01-0.05-0.01c-0.05-0.01-0.1-0.02-0.15-0.03
					c-1.29-0.2-2.5,0.69-2.69,1.98c-0.2,1.29,0.69,2.5,1.98,2.69c1.29,0.2,2.5-0.69,2.69-1.98c0.04-0.25,0.04-0.5,0-0.74
					c-0.54-0.19-1-0.54-1.33-0.98C92.8,54.54,92.64,54.22,92.55,53.88L92.55,53.88z M92.91,52.8c-0.1,0.65,0.07,1.27,0.43,1.76
					c1.25,1.7,3.93,1.01,4.24-1.04c0.2-1.29-0.69-2.5-1.98-2.69C94.32,50.62,93.11,51.51,92.91,52.8L92.91,52.8z M89.4,57.22
					c-0.98,0.19-1.74,0.98-1.89,1.97c-0.1,0.65,0.07,1.27,0.43,1.76c0.36,0.49,0.9,0.84,1.55,0.94c1.29,0.2,2.5-0.69,2.69-1.98
					c0.05-0.31,0.03-0.62-0.04-0.93c-0.19,0.01-0.38,0-0.57-0.03C90.59,58.79,89.77,58.14,89.4,57.22z M89.16,62.25
					c-0.25,0.32-0.41,0.69-0.47,1.09c-0.1,0.65,0.07,1.27,0.43,1.76c1.25,1.7,3.93,1.01,4.24-1.04c0.17-1.11-0.46-2.18-1.51-2.57
					c-0.63,0.65-1.53,0.96-2.43,0.82C89.34,62.29,89.25,62.27,89.16,62.25L89.16,62.25z M88.26,63.35c-1,0.17-1.78,0.97-1.93,1.97
					c-0.2,1.29,0.69,2.49,1.98,2.69c1.11,0.17,2.19-0.47,2.57-1.52c-0.84-0.05-1.6-0.46-2.1-1.13
					C88.37,64.79,88.17,64.08,88.26,63.35L88.26,63.35z M88.98,74.53c0.18-1.28-0.71-2.46-1.98-2.66c-0.64-0.1-1.27,0.07-1.75,0.43
					c-0.49,0.36-0.84,0.9-0.94,1.55c-0.2,1.29,0.69,2.49,1.98,2.69c0.19,0.03,0.38,0.03,0.58,0.02
					C87.12,75.53,87.95,74.75,88.98,74.53z M87.23,76.9c-0.2,1.29,0.69,2.49,1.98,2.69c1.29,0.2,2.49-0.69,2.69-1.98
					c0.2-1.29-0.69-2.49-1.98-2.69C88.63,74.73,87.42,75.61,87.23,76.9L87.23,76.9z M85.11,71.87c-0.27-0.87-1-1.51-1.9-1.65
					c-0.64-0.1-1.27,0.07-1.75,0.43s-0.84,0.9-0.94,1.55c-0.2,1.29,0.69,2.49,1.98,2.69c0.48,0.07,0.96,0,1.39-0.21
					c-0.05-0.29-0.05-0.59-0.01-0.9C84,73,84.45,72.31,85.11,71.87L85.11,71.87z M81.2,70.31c-0.11-0.43-0.34-0.82-0.66-1.12
					c-0.34-0.32-0.78-0.55-1.28-0.63c-0.64-0.1-1.27,0.07-1.75,0.43c-0.49,0.36-0.84,0.9-0.94,1.55s0.07,1.27,0.43,1.75
					c0.55,0.75,1.5,1.1,2.4,0.91c0.24-0.05,0.47-0.14,0.68-0.26c-0.04-0.26-0.04-0.53,0.01-0.81C80.21,71.38,80.62,70.74,81.2,70.31
					L81.2,70.31z M79.95,68.31c0.01-0.1,0.01-0.21,0.01-0.31c-0.51-0.19-0.94-0.53-1.25-0.95c-0.26-0.36-0.44-0.78-0.51-1.23
					c-1.36-0.35-2.72,0.54-2.93,1.93c-0.12,0.81,0.18,1.63,0.81,2.16c0.24,0.2,0.17,0.15,0.28-0.1c0.2-0.47,0.52-0.86,0.91-1.15
					c0.58-0.42,1.31-0.63,2.07-0.51C79.55,68.18,79.75,68.24,79.95,68.31L79.95,68.31z M75.83,71.04c-0.72,0.33-1.23,1-1.35,1.79
					c-0.2,1.29,0.69,2.49,1.98,2.69c1.24,0.19,2.4-0.62,2.66-1.84c-0.96,0.07-1.89-0.35-2.46-1.13c-0.28-0.38-0.47-0.84-0.52-1.33
					C76.1,70.91,76.19,70.88,75.83,71.04L75.83,71.04z M81.59,39.47c-0.05-0.31-0.06-0.63-0.01-0.94c0.24-1.6,1.74-2.7,3.34-2.46
					c1.6,0.24,2.7,1.74,2.46,3.34c-0.22,1.41-1.42,2.47-2.85,2.49c0.05,0.3,0.06,0.62,0.01,0.94c-0.06,0.4-0.2,0.78-0.42,1.12
					c1.4,0.41,2.29,1.81,2.07,3.26c-0.24,1.6-1.74,2.7-3.34,2.46c-1.6-0.24-2.7-1.74-2.46-3.34c0.06-0.41,0.21-0.79,0.42-1.12
					c-1.4-0.41-2.29-1.81-2.07-3.26C78.96,40.55,80.16,39.5,81.59,39.47L81.59,39.47z M84.43,41.48c1.26,0.03,2.34-0.88,2.53-2.13
					c0.21-1.37-0.73-2.65-2.1-2.86c-1.37-0.21-2.65,0.73-2.86,2.1c-0.05,0.3-0.04,0.6,0.03,0.9C83.14,39.65,84.07,40.42,84.43,41.48
					L84.43,41.48z M80.81,46.41c-0.21,1.37,0.73,2.65,2.1,2.86c1.37,0.21,2.65-0.73,2.86-2.1c0.19-1.27-0.6-2.46-1.81-2.79
					C82.52,43.98,81.04,44.91,80.81,46.41L80.81,46.41z M83.67,43.88c0.23-0.32,0.39-0.7,0.45-1.09c0.21-1.37-0.73-2.65-2.1-2.86
					c-1.37-0.21-2.65,0.73-2.86,2.1c-0.2,1.3,0.64,2.53,1.92,2.82C81.73,44.12,82.7,43.75,83.67,43.88L83.67,43.88z M111.43,69.48
					c0.27-1.28,1.29-2.26,2.58-2.48c0.14-1.44-0.88-2.75-2.32-2.97c-2.43-0.37-4.05,2.39-2.62,4.33
					C109.62,69.11,110.51,69.53,111.43,69.48z M114.44,66.96c0.19-0.01,0.38,0.01,0.57,0.04c1.73,0.26,2.92,1.88,2.66,3.61
					c-0.26,1.73-1.88,2.92-3.61,2.65c-1.63-0.25-2.8-1.71-2.68-3.35c-0.89,0.02-1.75-0.32-2.37-0.97c-0.5,0.57-1.2,0.95-1.95,1.06
					c0.51,0.68,0.73,1.53,0.6,2.38c-0.24,1.57-1.6,2.71-3.17,2.69c-0.31,0-0.26-0.08-0.23,0.22c0.02,0.23,0.01,0.47-0.03,0.7
					c-0.26,1.73-1.88,2.92-3.61,2.65c-1.73-0.26-2.92-1.88-2.66-3.61c0.15-0.95,0.71-1.78,1.54-2.26c0.44-0.26,0.42-0.11-0.05-0.35
					c-1.24-0.61-1.95-1.95-1.74-3.32c0.11-0.75,0.5-1.44,1.08-1.93c-0.17-0.48-0.23-1-0.14-1.53c0.22-1.43,1.38-2.53,2.81-2.67
					c-0.02-0.27,0-0.54,0.04-0.8c-0.72-0.71-1.06-1.73-0.9-2.73c0.13-0.88,0.62-1.65,1.36-2.15c-0.77-0.72-1.13-1.76-0.97-2.79
					c0.13-0.86,0.6-1.59,1.26-2.07c0.1-0.07,0.2-0.14,0.31-0.2c-0.91-0.71-1.36-1.84-1.19-2.98c0.14-0.95,0.71-1.78,1.54-2.26
					c-0.77-0.71-1.14-1.76-0.98-2.8c0.26-1.73,1.88-2.92,3.61-2.65c0.84,0.13,1.6,0.59,2.09,1.28c0.01-0.01,0.02-0.01,0.03-0.02
					c0.65-0.48,1.49-0.71,2.36-0.58c0.77,0.12,1.43,0.5,1.9,1.04c0.44,0.5,0.72,1.15,0.78,1.84c0.9,0.09,1.71,0.55,2.25,1.28
					c0.44,0.6,0.67,1.36,0.6,2.15c0.07,0.01,0.14,0.01,0.21,0.03c1.73,0.26,2.92,1.88,2.66,3.61c-0.26,1.73-1.88,2.92-3.61,2.65
					c-0.87-0.13-1.6-0.6-2.08-1.26c-0.44-0.6-0.67-1.36-0.6-2.15c-1.54-0.13-2.77-1.36-2.9-2.91c-0.91-0.09-1.73-0.56-2.27-1.3
					c-0.1,0.07-0.2,0.14-0.31,0.2c0.77,0.71,1.14,1.76,0.98,2.8c-0.15,0.96-0.72,1.79-1.56,2.27c0.91,0.7,1.36,1.84,1.19,2.98
					c-0.13,0.88-0.62,1.65-1.36,2.15c0.78,0.73,1.15,1.83,0.96,2.88c0.89,0.88,1.17,2.19,0.74,3.36c0.5,0.16,0.95,0.44,1.31,0.82
					c0.71-0.82,1.79-1.21,2.87-1.05C113.39,63.86,114.55,65.32,114.44,66.96L114.44,66.96z M111.82,69.71
					c-0.23,1.5,0.8,2.89,2.3,3.12s2.89-0.8,3.12-2.3c0.23-1.5-0.8-2.89-2.3-3.12C113.45,67.19,112.05,68.22,111.82,69.71
					L111.82,69.71z M108.72,68.61c-0.78-1.06-0.81-2.51-0.09-3.61c-0.42-0.46-0.98-0.76-1.6-0.85c-1.5-0.23-2.89,0.8-3.12,2.3
					c-0.11,0.75,0.09,1.47,0.5,2.04C105.45,69.91,107.58,69.98,108.72,68.61L108.72,68.61z M109.2,48.06c0.01-0.1,0.02-0.2,0.03-0.3
					c0.23-1.5,1.49-2.63,3.01-2.69c-0.06-0.58-0.3-1.12-0.67-1.54c-0.41-0.47-0.98-0.8-1.65-0.9c-0.75-0.11-1.47,0.09-2.04,0.5
					c-0.56,0.42-0.97,1.05-1.09,1.79C106.57,46.47,107.66,47.88,109.2,48.06L109.2,48.06z M115.09,48.51
					c0.07-0.69-0.13-1.36-0.52-1.89c-0.46-0.62-1.14-1.02-1.91-1.1c-1.45-0.16-2.78,0.85-3.01,2.31c-0.24,1.57,0.92,3.03,2.51,3.15
					C112.48,49.59,113.68,48.58,115.09,48.51L115.09,48.51z M112.55,51.26c-0.11,0.75,0.09,1.47,0.5,2.04
					c0.42,0.56,1.05,0.97,1.79,1.09c1.5,0.23,2.89-0.8,3.12-2.3c0.23-1.5-0.8-2.89-2.3-3.12S112.78,49.76,112.55,51.26L112.55,51.26
					z M106.71,46.83c-0.31-0.58-0.44-1.26-0.33-1.96c0.11-0.7,0.44-1.31,0.9-1.78c-0.43-0.62-1.09-1.02-1.83-1.14
					c-1.5-0.23-2.89,0.8-3.12,2.3c-0.15,0.96,0.22,1.92,0.97,2.53c0.51-0.2,1.08-0.28,1.66-0.19c0.49,0.07,0.93,0.26,1.31,0.52
					C106.43,47.03,106.57,46.94,106.71,46.83L106.71,46.83z M105.64,52.2c0.83-0.39,1.41-1.16,1.55-2.07c0.23-1.5-0.8-2.89-2.3-3.12
					c-1.5-0.23-2.89,0.8-3.12,2.3c-0.16,1.06,0.31,2.12,1.21,2.71c0.49-0.19,1.04-0.26,1.6-0.17
					C104.96,51.9,105.32,52.03,105.64,52.2L105.64,52.2z M105.53,57.32c0.69-0.42,1.16-1.13,1.29-1.93c0.23-1.5-0.8-2.89-2.3-3.12
					c-0.75-0.11-1.47,0.09-2.04,0.5c-0.56,0.42-0.97,1.05-1.09,1.79c-0.14,0.94,0.21,1.89,0.94,2.5c0.64-0.31,1.36-0.4,2.05-0.25
					C104.81,56.91,105.19,57.08,105.53,57.32L105.53,57.32z M106.45,60.16c0.12-1.37-0.8-2.63-2.15-2.92
					c-1.55-0.33-3.05,0.7-3.29,2.26c-0.12,0.78,0.1,1.57,0.61,2.17c0.5-1.43,1.96-2.3,3.47-2.08
					C105.59,59.68,106.05,59.88,106.45,60.16L106.45,60.16z M103.64,65.75c-1.08-0.35-1.9-1.25-2.14-2.36
					c-1.25,0.12-2.26,1.07-2.45,2.32c-0.23,1.5,0.8,2.89,2.3,3.12c0.85,0.13,1.71-0.15,2.33-0.75c-0.22-0.52-0.3-1.1-0.21-1.7
					C103.51,66.16,103.57,65.95,103.64,65.75L103.64,65.75z M107.16,63.74c0.64-1.63-0.39-3.44-2.14-3.71
					c-1.5-0.23-2.89,0.8-3.12,2.3c-0.21,1.35,0.61,2.65,1.92,3.04C104.46,64.16,105.81,63.5,107.16,63.74z M103.88,68.48
					c-0.71,0.64-1.66,0.92-2.6,0.78c-1-0.15-1.86-0.77-2.33-1.67c-0.45,0.42-0.74,0.97-0.83,1.58c-0.18,1.21,0.45,2.35,1.49,2.87
					c0.54,0.27,1.16,0.35,1.75,0.23c-0.12-1.04,0.28-2.07,1.06-2.76c0.46-0.4,1.03-0.67,1.65-0.75c-0.01-0.01-0.01-0.02-0.02-0.02
					C104,68.65,103.94,68.57,103.88,68.48L103.88,68.48z M106.51,70.03c-0.78-0.02-1.52-0.33-2.08-0.87
					c-0.65,0.02-1.25,0.27-1.72,0.67c-1.07,0.93-1.25,2.55-0.41,3.69c1.43,1.94,4.55,1.22,4.92-1.21
					C107.35,71.48,107.09,70.64,106.51,70.03z M103.58,74.93c-0.68-0.2-1.22-0.61-1.62-1.15c-0.22-0.29-0.38-0.62-0.49-0.97
					c-0.74-0.11-1.45,0.09-2.01,0.5c-0.56,0.42-0.97,1.05-1.09,1.79c-0.23,1.5,0.8,2.89,2.3,3.12s2.89-0.8,3.12-2.3
					c0.04-0.23,0.04-0.47,0.02-0.7C103.79,74.98,103.79,74.99,103.58,74.93L103.58,74.93z M87.06,63.39
					c0.02-1.18-0.84-2.19-2.01-2.37c-1.29-0.2-2.49,0.69-2.69,1.98c-0.1,0.64,0.07,1.27,0.43,1.75c0.36,0.49,0.9,0.84,1.55,0.94
					c0.54,0.08,1.08-0.02,1.55-0.3c0-0.05,0.01-0.1,0.02-0.15C86.02,64.5,86.44,63.83,87.06,63.39L87.06,63.39z M81.91,63.24
					c-0.19-0.09-0.4-0.14-0.61-0.18c-0.64-0.1-1.27,0.07-1.75,0.43s-0.84,0.9-0.94,1.55s0.07,1.27,0.43,1.75
					c0.32,0.44,0.8,0.77,1.37,0.9c0.69,0.16,1.41,0.01,1.97-0.43c0.46-0.36,0.79-0.88,0.89-1.5c-0.33-0.19-0.61-0.45-0.83-0.75
					C82.08,64.51,81.88,63.89,81.91,63.24z"/>
			</g>
		</g>
	</g>
</g>
<g>
	<circle class="st7" cx="74.76" cy="41.8" r="2.41"/>
	<circle class="st7" cx="70.4" cy="42.61" r="2.41"/>
	<g>
		<defs>
			
				<rect id="SVGID_00000146496512589711914500000017368427349884790202_" x="65.63" y="37.84" transform="matrix(0.8834 0.4686 -0.4686 0.8834 28.4061 -28.9924)" width="13.66" height="9.48"/>
		</defs>
		<clipPath id="SVGID_00000015351515245129097800000013977175135322387377_">
			<use xlink:href="#SVGID_00000146496512589711914500000017368427349884790202_"  style="overflow:visible;"/>
		</clipPath>
		<g style="clip-path:url(#SVGID_00000015351515245129097800000013977175135322387377_);">
			<g>
				<path class="st4" d="M52.47,20.87c-0.12-0.04-0.24-0.1-0.36-0.16c-0.16,0.13-0.33,0.24-0.51,0.34c-0.42,0.22-0.89,0.32-1.37,0.3
					c0.08,0.56-0.01,1.15-0.3,1.69c-0.49,0.92-1.45,1.49-2.49,1.48c0.05,0.52-0.05,1.06-0.32,1.55c-0.69,1.31-2.29,1.85-3.63,1.23
					c-0.05,0.18-0.12,0.35-0.21,0.52c-0.72,1.36-2.41,1.88-3.77,1.16s-1.88-2.41-1.16-3.77c0.69-1.31,2.29-1.85,3.63-1.23
					c0.05-0.18,0.12-0.36,0.21-0.52c0.49-0.92,1.45-1.49,2.49-1.48c-0.05-0.54,0.06-1.07,0.31-1.55c0.5-0.95,1.5-1.52,2.57-1.48
					c-0.03-0.21-0.04-0.43-0.01-0.65c-1.36-0.72-1.87-2.41-1.15-3.77c0.72-1.36,2.41-1.88,3.77-1.16c0.93,0.49,1.5,1.46,1.48,2.5
					c0,0.27-0.05,0.24,0.17,0.08c0.86-0.59,1.98-0.66,2.9-0.17c1.41,0.75,1.91,2.53,1.08,3.9c0.12,0.04,0.24,0.1,0.36,0.16
					c0.68,0.36,1.15,0.96,1.36,1.65c0.21,0.68,0.16,1.45-0.2,2.13c-0.1,0.18-0.21,0.35-0.35,0.51c1.27,0.76,1.73,2.39,1.03,3.7
					c-0.61,1.15-1.93,1.72-3.18,1.39c0.03,0.3,0.01,0.61-0.05,0.91c0.24,0.17,0.45,0.38,0.63,0.62c0.34-0.37,0.77-0.63,1.23-0.77
					c0.68-0.21,1.45-0.16,2.13,0.2c1.03,0.54,1.61,1.67,1.46,2.82c0.34,0.04,0.68,0.14,1,0.31c1.36,0.72,1.88,2.41,1.16,3.78
					c-0.01,0.02-0.02,0.03-0.03,0.05c0.22,0.05,0.44,0.14,0.65,0.25c1.36,0.72,1.88,2.41,1.16,3.78c-0.72,1.36-2.41,1.88-3.78,1.16
					c-1.38-0.73-1.89-2.46-1.13-3.83c-0.22-0.06-0.44-0.14-0.65-0.25c-1.03-0.55-1.61-1.67-1.46-2.82c-0.35-0.04-0.69-0.14-1-0.31
					c-0.39-0.21-0.71-0.49-0.95-0.83c-0.86,0.93-2.24,1.17-3.36,0.57c-1.12-0.59-1.7-1.87-1.41-3.1c-1.12-0.81-1.48-2.34-0.83-3.57
					c0.61-1.15,1.93-1.72,3.18-1.39c-0.06-0.55,0.05-1.11,0.31-1.59c0.1-0.19,0.22-0.36,0.35-0.51c-0.59-0.36-1.01-0.9-1.21-1.51
					C51.96,22.41,52.05,21.56,52.47,20.87L52.47,20.87z M62.35,51.64c-0.07,0.12-0.26,0.02-0.19-0.1c0.42-0.79,1.12-0.32,1.39-1.19
					c0.04-0.13,0.25-0.07,0.2,0.06C63.45,51.42,62.73,50.94,62.35,51.64z M48.78,43.99c-0.1,0.1-0.25-0.04-0.16-0.15
					c0.53-0.58,0.86-0.14,1.28-0.34c0.13-0.06,0.22,0.13,0.09,0.19C49.53,43.92,49.21,43.53,48.78,43.99L48.78,43.99z M43.25,46.19
					c0.02,0.14-0.19,0.17-0.21,0.03c-0.07-0.43,0.01-0.84,0.24-1.21c0.07-0.12,0.26-0.01,0.18,0.11
					C43.26,45.45,43.2,45.82,43.25,46.19z M42.94,38.75c-0.03,0.14-0.24,0.09-0.21-0.04c0.08-0.41,0.46-0.78,0.87-0.86
					c0.14-0.03,0.18,0.18,0.04,0.21C43.32,38.12,43.01,38.43,42.94,38.75L42.94,38.75z M39.47,42.91c0.11,0.08-0.01,0.26-0.13,0.17
					c-0.34-0.25-0.51-0.53-0.34-0.95c0.09-0.21,0.22-0.39,0.15-0.61c-0.04-0.13,0.16-0.2,0.2-0.06c0.09,0.3-0.06,0.52-0.15,0.74
					C39.08,42.53,39.2,42.72,39.47,42.91z M56.58,49.49c-0.12-0.07-0.02-0.26,0.1-0.19c0.27,0.14,0.67,0.13,0.94,0
					c0.13-0.06,0.22,0.13,0.1,0.19C57.38,49.66,56.9,49.66,56.58,49.49z M45.24,51.43c0.06-0.13,0.25-0.03,0.19,0.1
					c-0.19,0.38-0.5,0.71-0.9,0.86c-0.13,0.05-0.21-0.15-0.08-0.2C44.8,52.05,45.07,51.76,45.24,51.43L45.24,51.43z M37.49,52.76
					c0-0.14,0.21-0.14,0.21,0c0,0.34,0.26,0.77,0.5,1c0.1,0.1-0.05,0.25-0.15,0.15C37.77,53.64,37.49,53.16,37.49,52.76L37.49,52.76
					z M54.86,58.25c0.1-0.1,0.25,0.05,0.15,0.15c-0.39,0.4,0.07,0.77-0.19,1.26c-0.07,0.12-0.26,0.02-0.19-0.1
					C54.85,59.13,54.36,58.76,54.86,58.25L54.86,58.25z M60.89,59.59c-0.14-0.02-0.12-0.23,0.02-0.21c0.68,0.07,0.58-0.71,1.41-0.81
					c0.14-0.02,0.16,0.2,0.02,0.21C61.61,58.87,61.74,59.68,60.89,59.59L60.89,59.59z M65.22,57.81c-0.13,0.05-0.2-0.16-0.07-0.2
					c0.36-0.12,0.72-0.49,0.81-0.87c0.03-0.14,0.24-0.09,0.21,0.05C66.06,57.24,65.65,57.66,65.22,57.81L65.22,57.81z M68.16,50.96
					c0.07-0.12,0.26-0.02,0.19,0.1c-0.3,0.57,0.48,0.97-0.15,1.76c-0.09,0.11-0.25-0.02-0.17-0.13C68.58,52,67.81,51.63,68.16,50.96
					L68.16,50.96z M53.37,47.71c-0.13,0.05-0.2-0.16-0.07-0.2c0.68-0.23,0.47-0.94,1.11-1.3c0.12-0.07,0.23,0.12,0.11,0.19
					C53.94,46.72,54.18,47.44,53.37,47.71L53.37,47.71z M46.89,40.08c-0.1,0.09-0.25-0.06-0.14-0.16c0.59-0.53,0.92,0.06,1.38-0.15
					c0.13-0.06,0.21,0.14,0.09,0.2C47.67,40.21,47.36,39.65,46.89,40.08z M36.97,38.69c-0.05,0.13-0.25,0.06-0.2-0.07
					c0.2-0.57-0.44-0.92-0.1-1.55c0.07-0.12,0.26-0.02,0.19,0.1C36.59,37.67,37.2,38.03,36.97,38.69L36.97,38.69z M69.11,43.41
					c-0.03-0.14,0.18-0.18,0.21-0.05c0.07,0.3,0.41,0.53,0.7,0.55c0.14,0.01,0.12,0.23-0.02,0.21C69.61,44.09,69.2,43.8,69.11,43.41
					z M76.25,41.27c0.09-0.11,0.25,0.02,0.17,0.13c-0.44,0.55,0.3,1.11-0.46,1.78c-0.11,0.09-0.25-0.07-0.14-0.16
					C76.47,42.45,75.74,41.92,76.25,41.27L76.25,41.27z M80.13,35.36c0.14,0.02,0.11,0.23-0.03,0.21c-0.77-0.11-0.76,0.88-1.73,0.5
					c-0.13-0.05-0.05-0.25,0.08-0.2C79.26,36.19,79.23,35.23,80.13,35.36L80.13,35.36z M75.87,29.38c-0.05,0.13-0.25,0.06-0.2-0.07
					c0.14-0.4,0.38-0.44,0.76-0.41c0.17,0.01,0.37,0.03,0.48-0.18c0.07-0.12,0.26-0.02,0.19,0.1c-0.18,0.33-0.45,0.31-0.69,0.29
					C76.14,29.1,75.98,29.08,75.87,29.38L75.87,29.38z M69.97,30.28c0.03-0.14,0.24-0.09,0.21,0.05c-0.12,0.5-0.11,0.95,0.29,1.32
					c0.1,0.09-0.04,0.25-0.14,0.16C69.86,31.39,69.83,30.85,69.97,30.28L69.97,30.28z M39.41,25.52c0.1-0.1,0.25,0.05,0.15,0.15
					c-0.23,0.22-0.32,0.66-0.17,0.94c0.07,0.12-0.12,0.22-0.19,0.1C39.01,26.35,39.12,25.81,39.41,25.52L39.41,25.52z M44.6,26.37
					c-0.11,0.09-0.25-0.07-0.14-0.16c0.29-0.25,0.56-0.05,0.86-0.04c0.29,0,0.41-0.11,0.52-0.36c0.06-0.13,0.25-0.04,0.2,0.09
					c-0.15,0.34-0.34,0.49-0.72,0.49C45.1,26.37,44.78,26.21,44.6,26.37L44.6,26.37z M48.87,21.28c0.07-0.12,0.26-0.02,0.19,0.1
					c-0.09,0.17,0.41,0.63-0.1,1.08c-0.1,0.09-0.25-0.07-0.14-0.16C49.21,21.96,48.7,21.6,48.87,21.28z M47.45,15.43
					c-0.04,0.14-0.24,0.08-0.21-0.05c0.14-0.52,0.62-1.06,1.18-1.11c0.14-0.01,0.16,0.2,0.02,0.21C47.98,14.52,47.57,15,47.45,15.43
					L47.45,15.43z M49.12,18.7c-0.07,0.12-0.26,0.02-0.19-0.1c0.22-0.41-0.26-0.68,0.15-1.14c0.09-0.1,0.25,0.04,0.16,0.14
					C48.95,17.94,49.38,18.22,49.12,18.7z M54.41,17.06c-0.12-0.07-0.02-0.26,0.1-0.19c0.65,0.35,0.23,0.82,0.57,1.08
					c0.11,0.09-0.02,0.26-0.13,0.17C54.51,17.77,54.94,17.34,54.41,17.06z M53.47,22.55c0.05,0.13-0.15,0.2-0.2,0.07
					c-0.2-0.56,0.24-0.54,0.18-0.9c-0.04-0.21,0-0.43,0.17-0.58c0.11-0.09,0.25,0.07,0.14,0.16c-0.11,0.1-0.13,0.25-0.1,0.39
					C53.74,22.16,53.32,22.12,53.47,22.55L53.47,22.55z M57.02,26.14c-0.05-0.13,0.15-0.2,0.2-0.07c0.13,0.36,0.03,0.84-0.17,1.16
					c-0.07,0.12-0.26,0.01-0.18-0.11C57.03,26.85,57.12,26.44,57.02,26.14L57.02,26.14z M51,29.16c-0.02,0.14-0.23,0.12-0.21-0.02
					c0.1-0.89,0.62-0.55,0.9-1.11c0.06-0.13,0.25-0.03,0.19,0.1C51.57,28.74,51.09,28.43,51,29.16z M51.86,33.31
					c-0.04,0.13-0.25,0.07-0.2-0.06c0.1-0.34-0.46-0.6-0.13-1.21c0.07-0.12,0.25-0.02,0.19,0.1C51.45,32.63,52,32.84,51.86,33.31
					L51.86,33.31z M56.74,31.37c-0.07,0.12-0.26,0.02-0.19-0.1c0.4-0.76,1.19,0.08,1.57-0.23c0.11-0.09,0.25,0.07,0.14,0.16
					C57.76,31.62,57.04,30.81,56.74,31.37L56.74,31.37z M58.59,34.89c-0.05,0.13-0.25,0.06-0.2-0.07c0.22-0.6,0.74-0.34,0.98-0.79
					c0.07-0.12,0.25-0.02,0.19,0.1C59.27,34.66,58.76,34.43,58.59,34.89L58.59,34.89z M63.16,39.23c0.03-0.06,0.1-0.07,0.15-0.04
					c0.05,0.03,0.06,0.09,0.03,0.14c-0.27,0.51,0.35,1.06-0.28,1.65c-0.1,0.1-0.25-0.06-0.15-0.16
					C63.43,40.35,62.85,39.82,63.16,39.23L63.16,39.23z M71.49,40.53c-1.15-0.61-2.58-0.17-3.2,0.98c-0.61,1.15-0.17,2.59,0.98,3.2
					c1.15,0.61,2.58,0.17,3.2-0.98C73.08,42.57,72.64,41.14,71.49,40.53L71.49,40.53z M71.69,40.15c0.21,0.11,0.4,0.25,0.57,0.4
					c0.7-1.4,2.43-1.94,3.8-1.21c1.36,0.72,1.88,2.41,1.16,3.78c-0.72,1.36-2.41,1.88-3.78,1.16c-0.2-0.11-0.4-0.24-0.57-0.4
					c-0.71,1.4-2.42,1.94-3.8,1.21c-1.36-0.72-1.88-2.41-1.16-3.78C68.64,39.94,70.33,39.42,71.69,40.15L71.69,40.15z M72.57,40.88
					c0.57,0.72,0.75,1.69,0.47,2.57c0.17,0.18,0.37,0.33,0.6,0.45c1.15,0.61,2.58,0.17,3.2-0.98c0.61-1.15,0.17-2.59-0.98-3.2
					C74.63,39.07,73.11,39.61,72.57,40.88L72.57,40.88z M61.9,37.06c0.01-0.01,0.02-0.03,0.03-0.04c0.03-0.04,0.05-0.09,0.08-0.14
					c0.61-1.15,0.17-2.59-0.98-3.2c-1.15-0.61-2.58-0.17-3.2,0.98s-0.17,2.59,0.98,3.2c0.22,0.12,0.46,0.2,0.7,0.24
					c0.36-0.45,0.84-0.77,1.37-0.93C61.2,37.07,61.55,37.03,61.9,37.06L61.9,37.06z M62.8,37.75c-0.58-0.31-1.22-0.35-1.8-0.17
					c-2.02,0.62-2.25,3.37-0.42,4.35c1.15,0.61,2.58,0.17,3.2-0.98C64.39,39.8,63.95,38.37,62.8,37.75L62.8,37.75z M59.79,32.98
					c0.14-0.99-0.35-1.96-1.23-2.43c-0.58-0.31-1.22-0.35-1.8-0.17c-0.58,0.18-1.09,0.58-1.4,1.15c-0.61,1.15-0.17,2.59,0.98,3.2
					c0.28,0.15,0.58,0.24,0.89,0.27c0.05-0.18,0.12-0.36,0.22-0.53C57.91,33.58,58.8,33.02,59.79,32.98z M55.12,31.1
					c-0.22-0.34-0.52-0.61-0.88-0.8c-0.58-0.31-1.22-0.35-1.8-0.17c-2.02,0.62-2.25,3.37-0.42,4.35c0.99,0.52,2.21,0.28,2.93-0.58
					c-0.41-0.81-0.4-1.76,0.03-2.57C55.03,31.25,55.07,31.17,55.12,31.1L55.12,31.1z M54.38,29.88c0.17-1-0.33-2-1.22-2.47
					c-1.15-0.61-2.58-0.17-3.19,0.98c-0.53,0.99-0.28,2.22,0.59,2.93c0.32-0.78,0.96-1.36,1.76-1.61
					C52.98,29.51,53.72,29.55,54.38,29.88L54.38,29.88z M43.59,26.87c1.15,0.59,2.56,0.14,3.16-1c0.31-0.58,0.35-1.22,0.17-1.8
					c-0.18-0.58-0.57-1.09-1.15-1.39c-1.15-0.61-2.58-0.17-3.19,0.98c-0.09,0.17-0.16,0.35-0.21,0.54
					C43.25,24.79,43.72,25.82,43.59,26.87z M41.93,24.43c-1.15-0.61-2.58-0.17-3.19,0.98s-0.17,2.58,0.98,3.19
					c1.15,0.61,2.58,0.17,3.19-0.98C43.52,26.47,43.08,25.04,41.93,24.43L41.93,24.43z M47.37,24.09c0.91,0.04,1.75-0.45,2.18-1.25
					c0.31-0.58,0.35-1.22,0.17-1.8s-0.57-1.09-1.15-1.39c-1.15-0.61-2.58-0.17-3.19,0.98c-0.23,0.43-0.32,0.91-0.26,1.39
					c0.29,0.05,0.58,0.14,0.85,0.29C46.68,22.67,47.18,23.32,47.37,24.09L47.37,24.09z M50.14,20.91c0.44,0.04,0.88-0.05,1.27-0.25
					c0.42-0.21,0.77-0.55,1.01-1c0.31-0.58,0.35-1.22,0.17-1.8s-0.57-1.09-1.15-1.39c-0.58-0.31-1.22-0.35-1.8-0.17
					c-0.89,0.27-1.54,1.05-1.65,1.96c-0.03,0.24-0.02,0.49,0.02,0.73c0.26,0.05,0.52,0.14,0.76,0.27
					C49.46,19.63,49.93,20.23,50.14,20.91L50.14,20.91z M52.44,20.39c0.1,0.04,0.19,0.08,0.29,0.11c0.35-0.42,0.81-0.71,1.31-0.87
					c0.43-0.13,0.88-0.16,1.33-0.08c0.78-1.17,0.39-2.74-0.85-3.4c-0.73-0.39-1.6-0.37-2.31,0.05c-0.27,0.16-0.2,0.11,0,0.29
					c0.37,0.34,0.64,0.77,0.78,1.24c0.21,0.68,0.16,1.45-0.2,2.13C52.7,20.06,52.58,20.23,52.44,20.39L52.44,20.39z M51.22,15.61
					c-0.07-0.79-0.54-1.49-1.25-1.87c-1.15-0.61-2.58-0.17-3.19,0.98c-0.59,1.11-0.21,2.47,0.85,3.12c0.25-0.93,0.96-1.67,1.88-1.95
					c0.46-0.14,0.95-0.16,1.43-0.06C51.26,15.91,51.26,16,51.22,15.61L51.22,15.61z M79.12,31.46c0.31,0.05,0.61,0.15,0.89,0.3
					c1.43,0.76,1.98,2.54,1.22,3.97c-0.76,1.43-2.54,1.98-3.97,1.22c-1.26-0.67-1.86-2.16-1.41-3.51c-0.3-0.05-0.6-0.15-0.89-0.3
					c-0.36-0.19-0.67-0.45-0.92-0.77c-0.85,1.19-2.46,1.56-3.76,0.88c-1.43-0.76-1.98-2.54-1.22-3.97c0.76-1.43,2.54-1.98,3.97-1.22
					c0.37,0.2,0.68,0.46,0.92,0.77c0.85-1.19,2.46-1.56,3.76-0.88C78.97,28.62,79.57,30.11,79.12,31.46L79.12,31.46z M76.29,33.48
					c-0.44,1.18,0.06,2.5,1.17,3.09c1.22,0.65,2.74,0.18,3.39-1.04c0.65-1.22,0.18-2.74-1.04-3.39c-0.27-0.14-0.56-0.24-0.86-0.27
					C78.44,32.87,77.41,33.5,76.29,33.48L76.29,33.48z M72.83,28.44c-1.22-0.65-2.74-0.18-3.39,1.04c-0.65,1.22-0.18,2.74,1.04,3.39
					c1.13,0.6,2.52,0.25,3.24-0.79C74.56,30.86,74.17,29.15,72.83,28.44L72.83,28.44z M74.28,31.98c0.23,0.33,0.53,0.59,0.88,0.78
					c1.22,0.65,2.74,0.18,3.39-1.04c0.65-1.22,0.18-2.74-1.04-3.39c-1.16-0.62-2.6-0.23-3.3,0.88
					C74.69,30.06,74.72,31.1,74.28,31.98L74.28,31.98z M40.95,49.73c1.12,0.67,1.71,1.97,1.49,3.25c1.32,0.61,2.88,0.08,3.57-1.21
					c1.15-2.17-0.92-4.61-3.22-3.9C41.89,48.14,41.2,48.84,40.95,49.73z M42.33,53.4c-0.06,0.18-0.13,0.36-0.22,0.53
					c-0.82,1.55-2.74,2.14-4.28,1.32c-1.55-0.82-2.13-2.74-1.31-4.28c0.77-1.46,2.54-2.08,4.05-1.43c0.27-0.85,0.88-1.55,1.69-1.92
					c-0.38-0.66-0.5-1.44-0.35-2.19c-0.81,0.26-1.69,0.18-2.44-0.22c-1.4-0.75-2.03-2.41-1.49-3.88c0.11-0.29,0.16-0.21-0.13-0.29
					c-0.23-0.06-0.45-0.15-0.65-0.26c-1.55-0.82-2.13-2.74-1.31-4.28c0.82-1.55,2.74-2.14,4.28-1.32c0.85,0.45,1.44,1.26,1.63,2.2
					c0.1,0.5-0.03,0.43,0.34,0.06c0.98-0.97,2.49-1.19,3.71-0.54c0.67,0.36,1.19,0.94,1.47,1.65c0.5,0,1.02,0.12,1.49,0.37
					c1.28,0.68,1.93,2.13,1.6,3.54c0.26,0.07,0.51,0.17,0.74,0.3c0.91-0.44,1.98-0.43,2.87,0.05c0.78,0.42,1.35,1.13,1.58,1.99
					c0.93-0.49,2.03-0.49,2.96,0.01c0.77,0.41,1.31,1.09,1.54,1.87c0.04,0.12,0.07,0.24,0.09,0.36c0.97-0.62,2.19-0.68,3.21-0.14
					c0.85,0.45,1.44,1.26,1.63,2.2c0.93-0.49,2.04-0.49,2.97,0c1.55,0.82,2.13,2.74,1.31,4.28c-0.4,0.75-1.08,1.31-1.9,1.55
					c0,0.01,0.01,0.02,0.01,0.03c0.24,0.78,0.18,1.64-0.23,2.41c-0.36,0.69-0.95,1.18-1.61,1.45c-0.62,0.25-1.32,0.3-1.99,0.13
					c-0.38,0.82-1.08,1.44-1.95,1.7c-0.71,0.22-1.5,0.19-2.23-0.14c-0.03,0.06-0.06,0.13-0.09,0.19c-0.82,1.55-2.74,2.14-4.28,1.32
					c-1.55-0.82-2.13-2.74-1.31-4.28c0.41-0.77,1.09-1.31,1.87-1.54c0.71-0.22,1.5-0.19,2.23,0.14c0.63-1.41,2.2-2.17,3.7-1.77
					c0.38-0.83,1.1-1.45,1.98-1.71c-0.04-0.12-0.07-0.24-0.09-0.36c-0.93,0.49-2.04,0.49-2.97,0c-0.86-0.45-1.45-1.27-1.63-2.23
					c-0.96,0.62-2.19,0.68-3.21,0.14c-0.78-0.42-1.35-1.13-1.58-1.99c-0.95,0.5-2.1,0.48-3.04-0.05c-1.12,0.55-2.46,0.39-3.41-0.41
					c-0.31,0.42-0.73,0.75-1.2,0.97c0.53,0.94,0.55,2.09,0.04,3.05C45.61,53.43,43.84,54.05,42.33,53.4L42.33,53.4z M40.6,50.02
					c-1.34-0.71-3-0.2-3.7,1.14s-0.2,3,1.14,3.7c1.34,0.71,3,0.2,3.7-1.14C42.44,52.39,41.93,50.73,40.6,50.02L40.6,50.02z
					 M42.66,47.46c1.26-0.38,2.64,0.06,3.44,1.1c0.57-0.25,1.04-0.68,1.33-1.23c0.71-1.34,0.2-3-1.14-3.7
					c-0.67-0.35-1.42-0.4-2.09-0.2C42.51,43.94,41.75,45.93,42.66,47.46L42.66,47.46z M61.9,54.69c0.09,0.04,0.18,0.08,0.27,0.13
					c1.34,0.71,1.99,2.28,1.55,3.73c0.57,0.14,1.15,0.09,1.68-0.12c0.58-0.23,1.08-0.66,1.4-1.26c0.35-0.67,0.4-1.42,0.2-2.09
					c-0.21-0.67-0.67-1.26-1.34-1.62C64.27,52.73,62.58,53.3,61.9,54.69L61.9,54.69z M59.53,60.11c0.63,0.29,1.33,0.32,1.95,0.13
					c0.74-0.23,1.34-0.75,1.67-1.44c0.63-1.32,0.11-2.91-1.19-3.6c-1.41-0.75-3.16-0.13-3.8,1.33
					C59.37,57.28,59.93,58.75,59.53,60.11L59.53,60.11z M57.77,56.8c-0.67-0.35-1.42-0.4-2.09-0.2c-0.67,0.21-1.26,0.67-1.62,1.34
					c-0.71,1.34-0.2,3,1.14,3.7c1.34,0.71,3,0.2,3.7-1.14S59.11,57.51,57.77,56.8L57.77,56.8z M63.88,52.75
					c0.65-0.1,1.34,0,1.96,0.33c0.63,0.33,1.1,0.84,1.38,1.44c0.72-0.2,1.33-0.69,1.68-1.35c0.71-1.34,0.2-3-1.14-3.7
					c-0.86-0.46-1.88-0.42-2.71,0.08c0.03,0.55-0.09,1.11-0.37,1.63c-0.23,0.44-0.55,0.8-0.92,1.07
					C63.79,52.42,63.83,52.59,63.88,52.75L63.88,52.75z M59.16,49.96c0.09,0.91,0.63,1.71,1.44,2.14c1.34,0.71,3,0.2,3.7-1.14
					c0.71-1.34,0.2-3-1.14-3.7c-0.95-0.5-2.1-0.41-2.95,0.25c0.01,0.53-0.1,1.07-0.37,1.57C59.67,49.43,59.44,49.72,59.16,49.96
					L59.16,49.96z M54.37,48.17c0.17,0.79,0.68,1.47,1.4,1.85c1.34,0.71,3,0.2,3.7-1.14c0.35-0.67,0.4-1.42,0.2-2.09
					c-0.21-0.67-0.67-1.26-1.34-1.62c-0.84-0.45-1.85-0.42-2.67,0.06c0.08,0.71-0.08,1.41-0.45,2.02
					C54.99,47.63,54.7,47.93,54.37,48.17L54.37,48.17z M51.39,48.1c1.25,0.57,2.74,0.11,3.46-1.07c0.82-1.35,0.34-3.11-1.05-3.85
					c-0.7-0.37-1.51-0.42-2.25-0.14c1.18,0.95,1.53,2.61,0.81,3.96C52.12,47.45,51.78,47.82,51.39,48.1L51.39,48.1z M47.03,43.6
					c0.68-0.91,1.81-1.38,2.93-1.24c0.3-1.22-0.27-2.49-1.38-3.08c-1.34-0.71-3-0.2-3.7,1.14c-0.41,0.76-0.43,1.67-0.06,2.45
					c0.56-0.03,1.14,0.08,1.67,0.36C46.69,43.35,46.87,43.47,47.03,43.6L47.03,43.6z M47.77,47.59c1.33,1.14,3.38,0.77,4.21-0.79
					c0.71-1.34,0.2-3-1.14-3.7c-1.2-0.64-2.7-0.29-3.5,0.81C48.27,44.91,48.44,46.39,47.77,47.59z M44.38,42.94
					c-0.37-0.88-0.32-1.87,0.12-2.71c0.48-0.9,1.34-1.5,2.34-1.65c-0.25-0.56-0.68-1.02-1.22-1.31c-1.08-0.57-2.37-0.35-3.2,0.46
					c-0.43,0.42-0.72,0.98-0.8,1.58c1.02,0.23,1.87,0.94,2.25,1.92c0.23,0.56,0.29,1.19,0.17,1.8c0.01,0,0.02-0.01,0.03-0.01
					C44.18,42.98,44.28,42.96,44.38,42.94L44.38,42.94z M42.05,44.91c0.28-0.73,0.81-1.32,1.51-1.68c0.2-0.62,0.16-1.27-0.07-1.85
					c-0.53-1.31-1.99-2.02-3.35-1.6c-2.3,0.71-2.65,3.89-0.48,5.04C40.4,45.21,41.28,45.25,42.05,44.91z M38.39,40.52
					c0.41-0.58,0.97-0.95,1.62-1.15c0.35-0.11,0.71-0.15,1.08-0.14c0.34-0.66,0.39-1.4,0.19-2.07c-0.21-0.67-0.67-1.26-1.34-1.62
					c-1.34-0.71-3-0.2-3.7,1.14c-0.71,1.34-0.2,3,1.14,3.7c0.21,0.11,0.43,0.19,0.65,0.25C38.28,40.7,38.26,40.7,38.39,40.52
					L38.39,40.52z M54.73,28.73c1.11,0.41,2.34-0.07,2.9-1.11c0.61-1.15,0.17-2.58-0.98-3.19c-0.58-0.31-1.22-0.35-1.8-0.17
					c-0.58,0.18-1.09,0.57-1.39,1.15c-0.26,0.48-0.34,1.02-0.23,1.56c0.04,0.02,0.09,0.04,0.13,0.07
					C54.03,27.39,54.53,28,54.73,28.73L54.73,28.73z M56.58,23.92c0.15-0.16,0.27-0.33,0.37-0.51c0.31-0.58,0.35-1.22,0.17-1.8
					c-0.18-0.58-0.57-1.09-1.15-1.39c-0.58-0.31-1.22-0.35-1.8-0.17c-0.52,0.16-0.99,0.5-1.3,1c-0.38,0.6-0.47,1.32-0.25,2
					c0.18,0.55,0.57,1.03,1.12,1.34c0.29-0.24,0.63-0.43,0.98-0.54C55.32,23.66,55.97,23.68,56.58,23.92z"/>
			</g>
		</g>
	</g>
</g>
<g>
	
		<ellipse transform="matrix(0.9457 -0.3249 0.3249 0.9457 -11.8289 4.3337)" class="st9" cx="7.06" cy="37.59" rx="2.65" ry="2.72"/>
	
		<ellipse transform="matrix(0.9457 -0.3249 0.3249 0.9457 -13.2908 4.2772)" class="st9" cx="6.16" cy="41.94" rx="2.65" ry="2.72"/>
	
		<ellipse transform="matrix(0.9457 -0.3249 0.3249 0.9457 -14.1244 5.5769)" class="st9" cx="9.64" cy="45.08" rx="2.65" ry="2.72"/>
	<g>
		<defs>
			
				<ellipse id="SVGID_00000147198429627159712100000011813581879812177061_" transform="matrix(0.9457 -0.3249 0.3249 0.9457 -12.9706 4.5014)" cx="6.99" cy="41.09" rx="6.4" ry="10.76"/>
		</defs>
		<clipPath id="SVGID_00000091704285256952108570000014389694465048922791_">
			<use xlink:href="#SVGID_00000147198429627159712100000011813581879812177061_"  style="overflow:visible;"/>
		</clipPath>
		<g style="clip-path:url(#SVGID_00000091704285256952108570000014389694465048922791_);">
			<g>
				<path class="st4" d="M16.95,65.34c0.06,0.12,0.11,0.24,0.15,0.36c0.21,0.01,0.41,0.05,0.6,0.1c0.45,0.13,0.87,0.38,1.21,0.71
					c0.33-0.46,0.8-0.83,1.38-1.03c0.99-0.34,2.08-0.1,2.83,0.62c0.32-0.41,0.76-0.73,1.29-0.92c1.4-0.48,2.93,0.21,3.49,1.58
					c0.16-0.09,0.33-0.17,0.51-0.24c1.46-0.5,3.04,0.27,3.54,1.73c0.5,1.46-0.28,3.04-1.73,3.54c-1.4,0.48-2.93-0.22-3.49-1.58
					c-0.16,0.1-0.33,0.18-0.51,0.24c-0.99,0.34-2.08,0.1-2.83-0.62c-0.33,0.42-0.78,0.74-1.29,0.92c-1.01,0.35-2.13,0.08-2.89-0.67
					c-0.12,0.18-0.27,0.34-0.44,0.49c0.5,1.45-0.28,3.04-1.73,3.54c-1.46,0.5-3.04-0.27-3.54-1.73c-0.34-1-0.09-2.09,0.63-2.84
					c0.19-0.19,0.2-0.14-0.07-0.18c-1.03-0.15-1.9-0.87-2.24-1.85c-0.52-1.51,0.34-3.15,1.87-3.59c-0.06-0.12-0.11-0.24-0.15-0.36
					c-0.25-0.73-0.18-1.49,0.13-2.13c0.31-0.64,0.87-1.16,1.6-1.41c0.19-0.07,0.4-0.11,0.6-0.13c-0.41-1.43,0.37-2.92,1.78-3.41
					c1.23-0.42,2.59,0.06,3.27,1.16c0.18-0.24,0.4-0.45,0.66-0.63c-0.06-0.29-0.07-0.59-0.03-0.88c-0.5,0.04-0.99-0.06-1.43-0.28
					c-0.64-0.31-1.16-0.87-1.42-1.6c-0.38-1.1-0.03-2.32,0.86-3.06c-0.22-0.26-0.4-0.57-0.52-0.91c-0.5-1.46,0.28-3.05,1.73-3.55
					c0.02-0.01,0.03-0.01,0.05-0.02c-0.12-0.19-0.23-0.4-0.3-0.62c-0.5-1.46,0.28-3.05,1.73-3.55s3.05,0.27,3.55,1.73
					c0.51,1.48-0.3,3.09-1.79,3.57c0.13,0.19,0.23,0.4,0.31,0.62c0.38,1.1,0.03,2.32-0.86,3.06c0.23,0.27,0.41,0.58,0.52,0.91
					c0.14,0.42,0.18,0.85,0.13,1.26c1.26-0.09,2.43,0.68,2.84,1.88c0.41,1.2-0.04,2.52-1.08,3.23c0.26,1.36-0.52,2.72-1.83,3.17
					c-1.23,0.42-2.59-0.06-3.27-1.16c-0.33,0.44-0.79,0.77-1.32,0.95c-0.2,0.07-0.4,0.11-0.6,0.14c0.19,0.66,0.12,1.35-0.15,1.94
					C18.38,64.57,17.73,65.11,16.95,65.34L16.95,65.34z M30.76,36.11c0.13-0.05,0.2,0.16,0.07,0.2c-0.85,0.29-1.04-0.53-1.83-0.08
					c-0.12,0.07-0.23-0.12-0.11-0.19C29.81,35.53,30.01,36.37,30.76,36.11z M35.45,50.97c0.14-0.01,0.16,0.2,0.02,0.21
					c-0.78,0.06-0.72-0.48-1.16-0.63c-0.13-0.04-0.07-0.25,0.07-0.2C34.85,50.52,34.81,51.02,35.45,50.97L35.45,50.97z M40.98,53.14
					c0.08-0.12,0.26,0.01,0.18,0.12c-0.25,0.36-0.58,0.61-1,0.72c-0.14,0.04-0.19-0.17-0.06-0.21
					C40.48,53.68,40.77,53.46,40.98,53.14z M36.13,58.79c0.11-0.08,0.24,0.09,0.12,0.17c-0.34,0.24-0.87,0.26-1.23,0.04
					c-0.12-0.07-0.01-0.26,0.11-0.18C35.42,58.99,35.86,58.98,36.13,58.79L36.13,58.79z M41.5,58.12c-0.03-0.14,0.18-0.18,0.21-0.04
					c0.08,0.41,0.01,0.74-0.4,0.92c-0.2,0.09-0.42,0.14-0.53,0.34c-0.06,0.13-0.25,0.03-0.19-0.09c0.14-0.28,0.4-0.34,0.61-0.43
					C41.53,58.67,41.57,58.45,41.5,58.12z M33.51,41.63c0.05,0.13-0.16,0.2-0.2,0.07c-0.1-0.28-0.4-0.56-0.69-0.64
					c-0.14-0.04-0.08-0.24,0.06-0.21C33.03,40.96,33.39,41.28,33.51,41.63z M43.11,47.96c-0.13,0.05-0.21-0.15-0.07-0.2
					c0.39-0.15,0.85-0.17,1.24-0.01c0.13,0.05,0.05,0.25-0.08,0.2C43.86,47.81,43.46,47.84,43.11,47.96L43.11,47.96z M49.68,52.28
					c-0.1,0.1-0.25-0.04-0.16-0.15c0.23-0.25,0.33-0.74,0.32-1.07c0-0.14,0.21-0.15,0.21-0.01C50.07,51.45,49.95,51.99,49.68,52.28
					L49.68,52.28z M40.75,36.41c-0.14,0.01-0.15-0.21-0.01-0.21c0.56-0.03,0.48-0.61,1-0.79c0.13-0.05,0.2,0.16,0.07,0.2
					C41.35,35.77,41.46,36.38,40.75,36.41L40.75,36.41z M37.26,31.31c0.09,0.11-0.07,0.25-0.16,0.14c-0.44-0.52-0.91,0.12-1.58-0.37
					c-0.11-0.08,0.01-0.26,0.13-0.17C36.24,31.35,36.7,30.67,37.26,31.31L37.26,31.31z M32.88,29.66c0.13,0.06,0.04,0.25-0.09,0.19
					c-0.35-0.16-0.86-0.14-1.18,0.08c-0.12,0.08-0.24-0.1-0.12-0.18C31.87,29.5,32.46,29.47,32.88,29.66L32.88,29.66z M26.05,32.64
					c-0.13,0.05-0.2-0.16-0.07-0.2c0.61-0.21,0.31-1.04,1.31-1.18c0.14-0.02,0.17,0.19,0.03,0.21
					C26.46,31.59,26.77,32.4,26.05,32.64L26.05,32.64z M34.63,45.12c0.13,0.06,0.04,0.25-0.09,0.19c-0.65-0.29-0.98,0.36-1.7,0.19
					c-0.14-0.03-0.09-0.24,0.05-0.21C33.54,45.46,33.86,44.77,34.63,45.12L34.63,45.12z M34.15,55.12c0.14,0,0.14,0.22,0,0.21
					c-0.79-0.01-0.63-0.67-1.11-0.84c-0.13-0.05-0.06-0.25,0.07-0.2C33.67,54.49,33.52,55.11,34.15,55.12z M40.44,62.91
					c0.12-0.07,0.22,0.12,0.1,0.19c-0.54,0.28-0.31,0.97-0.99,1.21c-0.13,0.05-0.2-0.16-0.07-0.2
					C40.03,63.92,39.83,63.24,40.44,62.91L40.44,62.91z M20.2,37.51c-0.07,0.12-0.26,0.01-0.18-0.11c0.16-0.27,0.06-0.66-0.13-0.88
					c-0.09-0.11,0.07-0.25,0.16-0.14C20.3,36.67,20.4,37.16,20.2,37.51z M13.53,34.19c-0.14,0.02-0.17-0.19-0.03-0.21
					c0.7-0.11,0.54-1.02,1.55-0.98c0.14,0.01,0.13,0.22-0.01,0.21C14.17,33.18,14.34,34.07,13.53,34.19L13.53,34.19z M6.65,35.86
					c-0.09-0.11,0.08-0.24,0.17-0.13c0.49,0.6,1.16-0.12,1.61,0.82c0.06,0.13-0.13,0.22-0.19,0.09C7.86,35.85,7.22,36.56,6.65,35.86
					L6.65,35.86z M5.68,43.13c0.12-0.07,0.22,0.12,0.1,0.19c-0.38,0.2-0.58,0.06-0.84-0.23c-0.12-0.13-0.25-0.27-0.47-0.2
					c-0.13,0.05-0.2-0.16-0.07-0.2c0.36-0.12,0.54,0.08,0.7,0.25C5.29,43.15,5.4,43.28,5.68,43.13L5.68,43.13z M10.6,46.51
					c-0.12,0.08-0.23-0.1-0.12-0.18c0.43-0.28,0.73-0.62,0.69-1.16c-0.01-0.14,0.2-0.16,0.21-0.02
					C11.44,45.78,11.1,46.19,10.6,46.51L10.6,46.51z M29.67,70.86c-0.14,0-0.14-0.21,0-0.21c0.31-0.01,0.69-0.26,0.77-0.57
					c0.04-0.14,0.24-0.08,0.21,0.06C30.53,70.53,30.07,70.85,29.67,70.86L29.67,70.86z M26.45,66.7c0.14,0.01,0.13,0.22-0.01,0.21
					c-0.38-0.02-0.44-0.35-0.65-0.55c-0.21-0.2-0.37-0.2-0.63-0.09c-0.13,0.06-0.21-0.14-0.08-0.2c0.34-0.14,0.59-0.13,0.86,0.13
					C26.1,66.36,26.22,66.69,26.45,66.7L26.45,66.7z M19.87,67.5c-0.13,0.05-0.2-0.16-0.07-0.2c0.18-0.06,0.14-0.74,0.81-0.72
					c0.14,0,0.13,0.22-0.01,0.21C20.08,66.77,20.2,67.38,19.87,67.5z M16.9,72.74c0.12-0.07,0.23,0.11,0.11,0.18
					c-0.46,0.29-1.18,0.35-1.62,0c-0.11-0.09,0.02-0.25,0.13-0.17C15.9,73.05,16.52,72.98,16.9,72.74L16.9,72.74z M17.91,69.21
					c0.13-0.05,0.2,0.16,0.07,0.2c-0.44,0.15-0.28,0.67-0.89,0.73c-0.14,0.01-0.16-0.2-0.02-0.21
					C17.52,69.88,17.4,69.38,17.91,69.21z M12.93,66.79c0.05,0.13-0.16,0.2-0.2,0.07c-0.24-0.7,0.39-0.76,0.33-1.18
					c-0.02-0.14,0.19-0.17,0.21-0.03C13.35,66.21,12.74,66.22,12.93,66.79z M17.37,63.43c0.06-0.13,0.25-0.04,0.2,0.09
					c-0.24,0.55-0.55,0.23-0.75,0.53c-0.12,0.18-0.3,0.31-0.52,0.31c-0.14,0-0.14-0.22,0.01-0.21c0.15,0,0.26-0.1,0.34-0.21
					C16.9,63.53,17.19,63.84,17.37,63.43L17.37,63.43z M17.23,58.38c-0.06,0.13-0.25,0.04-0.2-0.09c0.15-0.35,0.55-0.63,0.92-0.73
					c0.14-0.04,0.19,0.17,0.06,0.21C17.71,57.85,17.36,58.09,17.23,58.38L17.23,58.38z M23.69,60.28c0.11-0.09,0.25,0.07,0.14,0.16
					c-0.68,0.58-0.82-0.02-1.41,0.2c-0.13,0.05-0.21-0.15-0.07-0.2C22.99,60.2,23.13,60.76,23.69,60.28z M25.9,56.67
					c0.12-0.07,0.23,0.12,0.11,0.19c-0.31,0.18-0.08,0.75-0.73,0.97c-0.13,0.05-0.2-0.16-0.07-0.2
					C25.73,57.45,25.47,56.92,25.9,56.67L25.9,56.67z M21.01,54.75c0.13-0.05,0.2,0.16,0.07,0.2c-0.81,0.28-0.81-0.87-1.31-0.9
					c-0.14-0.01-0.13-0.22,0.01-0.21C20.44,53.87,20.41,54.96,21.01,54.75L21.01,54.75z M22.07,50.92c0.13-0.06,0.22,0.13,0.1,0.19
					c-0.57,0.29-0.78-0.26-1.26-0.1c-0.13,0.05-0.2-0.16-0.07-0.2C21.41,50.62,21.62,51.14,22.07,50.92L22.07,50.92z M21.7,44.62
					c-0.06,0.02-0.12-0.01-0.14-0.08c-0.01-0.05,0.02-0.11,0.07-0.13c0.55-0.19,0.47-1.02,1.33-1.01c0.14,0,0.14,0.21,0,0.21
					C22.26,43.62,22.32,44.41,21.7,44.62L21.7,44.62z M16.49,37.99c0.42,1.23,1.77,1.89,3,1.47c1.24-0.42,1.89-1.77,1.47-3
					c-0.42-1.23-1.77-1.89-3-1.47C16.73,35.41,16.07,36.75,16.49,37.99L16.49,37.99z M16.09,38.13c-0.08-0.22-0.12-0.45-0.14-0.68
					c-1.46,0.54-3.1-0.24-3.6-1.72c-0.5-1.46,0.28-3.05,1.73-3.55c1.46-0.5,3.05,0.27,3.55,1.73c0.08,0.22,0.12,0.45,0.14,0.68
					c1.47-0.54,3.09,0.24,3.6,1.71c0.5,1.46-0.28,3.05-1.73,3.55C18.18,40.36,16.59,39.59,16.09,38.13L16.09,38.13z M15.95,36.99
					c0.08-0.92,0.6-1.74,1.41-2.2c0-0.25-0.05-0.49-0.13-0.73c-0.42-1.23-1.77-1.89-3-1.47s-1.89,1.77-1.47,3
					C13.2,36.91,14.68,37.55,15.95,36.99L15.95,36.99z M21.13,47.08c-0.02,0-0.03,0.01-0.05,0.01c-0.05,0.01-0.1,0.03-0.15,0.05
					c-1.24,0.42-1.89,1.77-1.47,3c0.42,1.23,1.77,1.89,3,1.47c1.24-0.42,1.89-1.77,1.47-3c-0.08-0.24-0.2-0.46-0.35-0.66
					c-0.57,0.08-1.14-0.01-1.63-0.25C21.64,47.54,21.36,47.33,21.13,47.08L21.13,47.08z M20.94,45.95c0.21,0.62,0.65,1.09,1.2,1.36
					c1.9,0.93,3.95-0.93,3.27-2.89c-0.42-1.23-1.77-1.89-3-1.47C21.18,43.37,20.52,44.71,20.94,45.95L20.94,45.95z M19.88,51.49
					c-0.78,0.62-1.09,1.67-0.76,2.62c0.21,0.62,0.65,1.09,1.2,1.36c0.54,0.27,1.19,0.32,1.81,0.11c1.24-0.42,1.89-1.77,1.47-3
					c-0.1-0.3-0.26-0.57-0.47-0.8c-0.16,0.1-0.34,0.18-0.52,0.24C21.67,52.33,20.63,52.13,19.88,51.49z M22,56.06
					c-0.07,0.4-0.04,0.8,0.09,1.18c0.21,0.62,0.65,1.09,1.2,1.36c1.9,0.93,3.95-0.93,3.27-2.89c-0.36-1.06-1.42-1.72-2.53-1.58
					c-0.26,0.87-0.91,1.56-1.77,1.85C22.18,56.01,22.09,56.04,22,56.06L22,56.06z M21.71,57.45c-0.8,0.62-1.12,1.68-0.79,2.64
					c0.42,1.23,1.77,1.89,3,1.47c1.06-0.36,1.72-1.43,1.58-2.54c-0.76,0.35-1.63,0.34-2.39-0.03
					C22.48,58.68,21.97,58.14,21.71,57.45L21.71,57.45z M27.54,67.02c-0.44-1.21-1.77-1.85-2.99-1.43c-0.62,0.21-1.09,0.65-1.35,1.2
					c-0.27,0.54-0.32,1.19-0.11,1.8c0.42,1.23,1.77,1.89,3,1.47c0.18-0.06,0.36-0.15,0.52-0.25C26.36,68.77,26.72,67.69,27.54,67.02
					z M27.08,69.94c0.42,1.23,1.77,1.89,3,1.47c1.23-0.42,1.89-1.77,1.47-3c-0.42-1.23-1.77-1.89-3-1.47
					C27.32,67.36,26.66,68.7,27.08,69.94L27.08,69.94z M22.88,66.46c-0.64-0.65-1.59-0.87-2.45-0.57c-0.62,0.21-1.09,0.65-1.35,1.2
					c-0.27,0.54-0.32,1.19-0.11,1.8c0.42,1.23,1.77,1.89,3,1.47c0.46-0.16,0.85-0.44,1.14-0.83c-0.18-0.23-0.32-0.5-0.42-0.79
					C22.42,67.98,22.49,67.16,22.88,66.46L22.88,66.46z M18.69,66.9c-0.3-0.33-0.68-0.57-1.1-0.69c-0.45-0.13-0.94-0.13-1.42,0.04
					c-0.62,0.21-1.09,0.65-1.35,1.2s-0.32,1.19-0.11,1.8c0.21,0.62,0.65,1.09,1.2,1.35c0.83,0.41,1.84,0.29,2.55-0.31
					c0.19-0.16,0.35-0.34,0.48-0.55c-0.15-0.22-0.28-0.46-0.37-0.72C18.31,68.3,18.37,67.54,18.69,66.9L18.69,66.9z M16.65,65.71
					c-0.04-0.1-0.09-0.19-0.14-0.28c-0.54,0.06-1.08-0.03-1.55-0.26c-0.4-0.2-0.75-0.49-1.02-0.85c-1.36,0.32-2.16,1.74-1.7,3.07
					c0.27,0.78,0.92,1.36,1.72,1.54c0.3,0.07,0.22,0.06,0.2-0.21c-0.04-0.5,0.06-1,0.28-1.44c0.31-0.64,0.87-1.16,1.6-1.41
					C16.23,65.77,16.44,65.73,16.65,65.71L16.65,65.71z M14.27,70.03c-0.48,0.62-0.63,1.45-0.37,2.21c0.42,1.23,1.77,1.89,3,1.47
					c1.18-0.41,1.84-1.66,1.51-2.86c-0.81,0.51-1.84,0.56-2.7,0.14c-0.43-0.21-0.8-0.53-1.08-0.93
					C14.45,69.79,14.51,69.72,14.27,70.03L14.27,70.03z M4.73,39.39c-0.19-0.25-0.34-0.53-0.44-0.83c-0.53-1.53,0.29-3.2,1.82-3.73
					s3.2,0.29,3.73,1.82c0.46,1.35-0.11,2.84-1.37,3.53c0.19,0.24,0.34,0.52,0.44,0.83C9.05,41.4,9.1,41.8,9.07,42.2
					c1.44-0.28,2.87,0.54,3.34,1.93c0.53,1.53-0.29,3.2-1.82,3.73c-1.53,0.53-3.2-0.29-3.73-1.82c-0.14-0.39-0.18-0.8-0.15-1.19
					c-1.44,0.28-2.86-0.54-3.34-1.93C2.9,41.57,3.48,40.08,4.73,39.39L4.73,39.39z M8.18,39.86c1.13-0.56,1.66-1.87,1.26-3.06
					c-0.45-1.31-1.88-2.01-3.19-1.56c-1.31,0.45-2.01,1.88-1.56,3.18c0.1,0.29,0.25,0.55,0.44,0.79
					C6.19,38.83,7.37,39.08,8.18,39.86L8.18,39.86z M7.26,45.9c0.45,1.31,1.88,2.01,3.19,1.56s2.01-1.88,1.56-3.18
					c-0.42-1.21-1.67-1.9-2.9-1.64C7.65,42.95,6.76,44.46,7.26,45.9L7.26,45.9z M8.62,42.33c0.06-0.4,0.02-0.8-0.11-1.17
					c-0.45-1.31-1.88-2.01-3.19-1.56c-1.31,0.45-2.01,1.88-1.56,3.18c0.43,1.24,1.74,1.95,3.01,1.61
					C7.01,43.44,7.69,42.67,8.62,42.33L8.62,42.33z M45.08,52.14c-0.36-1.26,0.1-2.6,1.13-3.39c-0.55-1.34-2.05-2.03-3.43-1.55
					c-2.33,0.8-2.48,4-0.31,5.05C43.31,52.65,44.29,52.61,45.08,52.14z M46.58,48.51c0.16-0.09,0.34-0.17,0.52-0.23
					c1.66-0.57,3.46,0.31,4.03,1.97c0.57,1.65-0.31,3.46-1.97,4.03c-1.56,0.54-3.27-0.21-3.93-1.72c-0.78,0.44-1.7,0.53-2.55,0.25
					c-0.18,0.74-0.62,1.4-1.24,1.84c0.77,0.37,1.36,1.02,1.63,1.83c0.52,1.5-0.16,3.14-1.56,3.85c-0.28,0.14-0.26,0.05-0.1,0.31
					c0.12,0.2,0.23,0.41,0.3,0.63c0.57,1.65-0.31,3.46-1.97,4.03c-1.66,0.57-3.46-0.31-4.03-1.97c-0.31-0.91-0.2-1.9,0.32-2.72
					c0.27-0.44,0.32-0.3-0.21-0.28c-1.38,0.04-2.63-0.83-3.08-2.14c-0.25-0.72-0.23-1.5,0.06-2.21c-0.37-0.34-0.66-0.78-0.84-1.29
					c-0.47-1.37,0.05-2.88,1.25-3.67c-0.14-0.23-0.25-0.47-0.33-0.73c-0.97-0.3-1.74-1.04-2.07-2c-0.29-0.84-0.21-1.75,0.21-2.53
					c-1.01-0.28-1.82-1.03-2.16-2.03c-0.28-0.83-0.21-1.69,0.15-2.42c0.05-0.11,0.11-0.22,0.18-0.32c-1.13-0.2-2.06-1-2.44-2.09
					c-0.31-0.91-0.2-1.9,0.31-2.72c-1.01-0.28-1.83-1.03-2.17-2.03c-0.57-1.65,0.31-3.46,1.97-4.03c0.81-0.28,1.69-0.22,2.45,0.16
					c0-0.01,0.01-0.02,0.01-0.03c0.36-0.73,0.99-1.32,1.82-1.61c0.73-0.25,1.5-0.22,2.17,0.04c0.63,0.24,1.17,0.68,1.54,1.27
					c0.84-0.34,1.77-0.31,2.58,0.09c0.67,0.33,1.23,0.89,1.53,1.62c0.07-0.03,0.13-0.05,0.2-0.08c1.66-0.57,3.46,0.31,4.03,1.97
					c0.57,1.65-0.31,3.46-1.97,4.03c-0.83,0.28-1.69,0.21-2.42-0.15c-0.67-0.33-1.23-0.89-1.53-1.62c-1.43,0.6-3.09,0.08-3.91-1.23
					c-0.85,0.34-1.79,0.31-2.61-0.1c-0.05,0.11-0.11,0.22-0.18,0.32c1.01,0.28,1.82,1.03,2.17,2.03c0.32,0.92,0.19,1.92-0.33,2.74
					c1.13,0.2,2.06,1,2.44,2.09c0.29,0.84,0.21,1.75-0.21,2.53c1.03,0.28,1.87,1.08,2.18,2.11c1.19,0.37,2.06,1.4,2.21,2.63
					c0.52-0.09,1.05-0.05,1.54,0.11c0.25-1.05,1.02-1.9,2.05-2.26C44.21,46.25,45.92,47,46.58,48.51L46.58,48.51z M45.54,52.16
					c0.49,1.43,2.05,2.19,3.48,1.7c1.43-0.49,2.19-2.05,1.7-3.48c-0.49-1.43-2.05-2.19-3.48-1.7
					C45.81,49.17,45.05,50.73,45.54,52.16L45.54,52.16z M42.28,52.62c-1.18-0.58-1.88-1.85-1.75-3.15
					c-0.59-0.21-1.22-0.22-1.82-0.01c-1.43,0.49-2.19,2.05-1.7,3.48c0.25,0.72,0.76,1.26,1.39,1.57
					C39.99,55.29,41.9,54.37,42.28,52.62L42.28,52.62z M33.18,34.2c-0.04-0.09-0.08-0.18-0.11-0.28c-0.49-1.44,0.1-3.02,1.42-3.78
					c-0.32-0.49-0.78-0.85-1.31-1.06c-0.58-0.22-1.24-0.25-1.88-0.03c-0.72,0.25-1.26,0.76-1.57,1.39
					c-0.31,0.63-0.38,1.38-0.13,2.09C30.11,34.01,31.72,34.75,33.18,34.2L33.18,34.2z M38.61,31.86c-0.26-0.65-0.75-1.14-1.34-1.43
					c-0.69-0.34-1.49-0.37-2.2-0.09c-1.36,0.53-2.07,2.05-1.59,3.44c0.52,1.51,2.22,2.25,3.68,1.62
					C36.79,34.03,37.39,32.58,38.61,31.86L38.61,31.86z M37.63,35.48c0.25,0.72,0.76,1.26,1.39,1.57c0.63,0.31,1.38,0.38,2.09,0.13
					c1.43-0.49,2.19-2.05,1.7-3.48s-2.05-2.19-3.48-1.7C37.9,32.49,37.14,34.05,37.63,35.48L37.63,35.48z M30.4,34.26
					c-0.54-0.37-0.98-0.91-1.21-1.59c-0.23-0.67-0.22-1.37-0.02-1.99c-0.67-0.35-1.44-0.4-2.15-0.16c-1.43,0.49-2.19,2.05-1.7,3.48
					c0.32,0.92,1.08,1.6,2.04,1.79c0.36-0.42,0.82-0.75,1.38-0.94c0.47-0.16,0.95-0.21,1.4-0.15C30.24,34.57,30.33,34.42,30.4,34.26
					L30.4,34.26z M31.94,39.52c0.56-0.73,0.71-1.68,0.41-2.55c-0.49-1.43-2.05-2.19-3.48-1.7c-1.43,0.49-2.19,2.05-1.7,3.48
					c0.35,1.02,1.26,1.73,2.33,1.84c0.35-0.4,0.81-0.71,1.34-0.89C31.2,39.56,31.58,39.51,31.94,39.52L31.94,39.52z M34.22,44.1
					c0.42-0.7,0.51-1.54,0.24-2.3c-0.49-1.43-2.05-2.19-3.48-1.7c-0.72,0.25-1.26,0.76-1.57,1.39c-0.31,0.63-0.38,1.38-0.13,2.09
					c0.31,0.9,1.06,1.57,1.99,1.78c0.42-0.57,1.02-0.98,1.71-1.17C33.39,44.07,33.81,44.05,34.22,44.1L34.22,44.1z M36.35,46.19
					c-0.53-1.27-1.93-1.96-3.26-1.59c-1.52,0.42-2.38,2.04-1.86,3.53c0.26,0.75,0.82,1.34,1.55,1.64c-0.22-1.5,0.67-2.95,2.11-3.45
					C35.37,46.17,35.87,46.12,36.35,46.19L36.35,46.19z M36.45,52.45c-1.12,0.2-2.26-0.23-2.99-1.1c-1.05,0.68-1.5,2-1.1,3.19
					c0.49,1.43,2.05,2.19,3.48,1.7c0.82-0.28,1.45-0.93,1.72-1.75c-0.43-0.36-0.77-0.84-0.97-1.41
					C36.53,52.87,36.48,52.66,36.45,52.45L36.45,52.45z M38.64,49.03c-0.19-1.74-1.94-2.87-3.62-2.3c-1.43,0.49-2.19,2.05-1.7,3.48
					c0.44,1.29,1.77,2.06,3.11,1.8C36.44,50.66,37.33,49.45,38.64,49.03z M37.93,54.75c-0.33,0.89-1.04,1.58-1.94,1.89
					c-0.96,0.33-2.01,0.18-2.84-0.39c-0.2,0.58-0.2,1.2,0,1.79c0.4,1.16,1.49,1.87,2.65,1.85c0.6-0.01,1.19-0.23,1.66-0.6
					c-0.59-0.86-0.72-1.96-0.34-2.94c0.22-0.57,0.6-1.07,1.11-1.43c-0.01,0-0.02-0.01-0.03-0.01C38.11,54.85,38.02,54.8,37.93,54.75
					L37.93,54.75z M40.98,54.9c-0.7,0.34-1.5,0.41-2.25,0.2c-0.56,0.32-0.98,0.82-1.21,1.4c-0.51,1.32,0.08,2.83,1.35,3.46
					c2.16,1.06,4.59-1.03,3.8-3.35C42.4,55.8,41.78,55.18,40.98,54.9z M40.66,60.6c-0.7,0.14-1.36,0.03-1.97-0.27
					c-0.33-0.16-0.63-0.37-0.88-0.64c-0.7,0.25-1.24,0.76-1.55,1.38c-0.31,0.63-0.38,1.38-0.13,2.09c0.49,1.43,2.05,2.19,3.48,1.7
					c1.43-0.49,2.19-2.05,1.7-3.48c-0.08-0.22-0.18-0.43-0.31-0.63C40.86,60.55,40.87,60.56,40.66,60.6L40.66,60.6z M20.67,58.05
					c-0.53-1.05-1.76-1.55-2.87-1.17c-1.23,0.42-1.89,1.77-1.47,3c0.21,0.62,0.65,1.09,1.2,1.35c0.54,0.27,1.19,0.32,1.8,0.11
					c0.52-0.18,0.95-0.52,1.23-0.98c-0.02-0.05-0.04-0.09-0.05-0.14C20.27,59.51,20.32,58.72,20.67,58.05L20.67,58.05z M16.04,60.3
					c-0.21,0.01-0.42,0.05-0.62,0.12c-0.62,0.21-1.09,0.65-1.35,1.2c-0.27,0.54-0.32,1.19-0.11,1.8s0.65,1.09,1.2,1.35
					c0.49,0.24,1.07,0.31,1.63,0.16c0.69-0.18,1.25-0.64,1.55-1.29c0.24-0.53,0.29-1.15,0.09-1.74c-0.38-0.02-0.75-0.12-1.08-0.28
					C16.78,61.35,16.31,60.89,16.04,60.3z"/>
			</g>
		</g>
	</g>
</g>
<g>
	<circle class="st11" cx="49.74" cy="39.68" r="2.41"/>
	<circle class="st11" cx="50.77" cy="43.99" r="2.41"/>
	<g>
		<defs>
			
				<rect id="SVGID_00000159447390308291093460000000400559111116096440_" x="43.81" y="37.2" transform="matrix(0.4223 -0.9064 0.9064 0.4223 -8.7609 70.1252)" width="13.66" height="9.48"/>
		</defs>
		<clipPath id="SVGID_00000102536941044886157780000009981574833154436740_">
			<use xlink:href="#SVGID_00000159447390308291093460000000400559111116096440_"  style="overflow:visible;"/>
		</clipPath>
		<g style="clip-path:url(#SVGID_00000102536941044886157780000009981574833154436740_);">
			<g>
				<path class="st4" d="M29.98,63.02c-0.04,0.13-0.08,0.25-0.14,0.37c0.14,0.15,0.26,0.32,0.36,0.49c0.24,0.41,0.37,0.88,0.37,1.35
					c0.56-0.11,1.15-0.05,1.71,0.21c0.94,0.44,1.56,1.37,1.61,2.41c0.52-0.07,1.06,0,1.56,0.23c1.34,0.62,1.96,2.19,1.41,3.56
					c0.18,0.04,0.36,0.1,0.53,0.19c1.4,0.65,2,2.31,1.35,3.71c-0.65,1.4-2.31,2-3.71,1.35c-1.34-0.62-1.96-2.19-1.41-3.56
					c-0.18-0.04-0.36-0.11-0.53-0.19c-0.95-0.44-1.56-1.37-1.61-2.41c-0.53,0.07-1.08-0.01-1.56-0.23
					c-0.97-0.45-1.59-1.42-1.61-2.49c-0.21,0.04-0.43,0.06-0.65,0.05c-0.65,1.39-2.31,2-3.71,1.35c-1.4-0.65-2-2.31-1.35-3.71
					c0.44-0.95,1.39-1.57,2.42-1.61c0.27-0.01,0.24,0.04,0.07-0.17c-0.64-0.83-0.76-1.94-0.32-2.89c0.68-1.45,2.43-2.03,3.84-1.28
					c0.04-0.12,0.08-0.25,0.14-0.37c0.33-0.7,0.9-1.2,1.57-1.44c0.67-0.24,1.43-0.23,2.13,0.09c0.19,0.09,0.36,0.2,0.53,0.32
					c0.69-1.31,2.3-1.85,3.64-1.22c1.18,0.55,1.82,1.84,1.55,3.11c0.3-0.05,0.61-0.05,0.91,0.01c0.16-0.25,0.36-0.47,0.59-0.66
					c-0.39-0.32-0.67-0.73-0.84-1.19c-0.24-0.67-0.23-1.44,0.09-2.14c0.49-1.05,1.58-1.69,2.74-1.61c0.02-0.34,0.1-0.69,0.26-1.02
					c0.65-1.4,2.31-2,3.71-1.35c0.02,0.01,0.03,0.02,0.05,0.02c0.04-0.22,0.11-0.44,0.21-0.66c0.65-1.4,2.31-2,3.71-1.35
					c1.4,0.65,2,2.31,1.35,3.71c-0.66,1.42-2.36,2.02-3.76,1.33c-0.04,0.23-0.11,0.45-0.21,0.66c-0.49,1.06-1.59,1.69-2.74,1.61
					c-0.02,0.35-0.11,0.7-0.26,1.02c-0.19,0.4-0.46,0.73-0.78,0.99c0.97,0.81,1.28,2.18,0.75,3.33c-0.53,1.15-1.78,1.79-3.02,1.57
					c-0.76,1.16-2.26,1.6-3.52,1.01c-1.18-0.55-1.82-1.84-1.55-3.11c-0.55,0.09-1.11,0.01-1.61-0.23c-0.19-0.09-0.37-0.2-0.53-0.32
					c-0.33,0.61-0.85,1.05-1.45,1.29C31.55,63.46,30.7,63.4,29.98,63.02L29.98,63.02z M60.21,51.56c0.13,0.06,0.04,0.25-0.09,0.19
					c-0.81-0.38-0.38-1.1-1.26-1.33c-0.14-0.03-0.08-0.24,0.05-0.21C59.93,50.48,59.49,51.23,60.21,51.56z M53.27,65.51
					c0.11,0.09-0.03,0.25-0.14,0.16c-0.6-0.5-0.19-0.85-0.4-1.26c-0.07-0.12,0.12-0.22,0.19-0.1C53.16,64.77,52.78,65.1,53.27,65.51
					L53.27,65.51z M55.75,70.92c0.14-0.03,0.18,0.18,0.04,0.21c-0.43,0.09-0.84,0.04-1.22-0.18c-0.12-0.07-0.02-0.26,0.1-0.19
					C55.01,70.95,55.38,71,55.75,70.92z M48.34,71.61c0.14,0.02,0.11,0.23-0.03,0.21C47.89,71.76,47.5,71.4,47.4,71
					c-0.03-0.14,0.17-0.19,0.21-0.05C47.69,71.27,48.01,71.56,48.34,71.61L48.34,71.61z M52.67,74.86c0.08-0.12,0.26,0,0.18,0.12
					c-0.23,0.35-0.51,0.54-0.93,0.39c-0.21-0.08-0.4-0.2-0.62-0.12c-0.13,0.05-0.2-0.15-0.07-0.2c0.3-0.11,0.53,0.03,0.74,0.11
					C52.31,75.28,52.49,75.14,52.67,74.86z M58.36,57.44c-0.06,0.13-0.25,0.04-0.19-0.09c0.13-0.27,0.1-0.68-0.05-0.94
					c-0.07-0.12,0.12-0.23,0.19-0.11C58.48,56.63,58.51,57.11,58.36,57.44z M60.88,68.67c-0.13-0.06-0.04-0.25,0.09-0.2
					c0.38,0.17,0.73,0.47,0.91,0.85c0.06,0.13-0.14,0.22-0.2,0.09C61.52,69.07,61.21,68.81,60.88,68.67L60.88,68.67z M62.61,76.34
					c-0.14,0.01-0.15-0.21-0.01-0.21c0.34-0.02,0.75-0.3,0.98-0.55c0.1-0.1,0.25,0.04,0.16,0.14
					C63.47,76.01,63.01,76.32,62.61,76.34L62.61,76.34z M67.19,58.71c-0.11-0.09,0.03-0.25,0.14-0.16c0.42,0.37,0.77-0.11,1.27,0.13
					c0.13,0.06,0.04,0.25-0.09,0.19C68.08,58.66,67.73,59.17,67.19,58.71L67.19,58.71z M68.22,52.61C68.21,52.75,68,52.74,68,52.6
					c0.04-0.68-0.74-0.55-0.88-1.37c-0.02-0.14,0.19-0.17,0.21-0.04C67.46,51.93,68.27,51.76,68.22,52.61L68.22,52.61z M66.22,48.39
					c0.05,0.13-0.15,0.21-0.2,0.08c-0.14-0.36-0.53-0.7-0.91-0.76c-0.14-0.02-0.1-0.23,0.04-0.21
					C65.6,47.57,66.05,47.96,66.22,48.39L66.22,48.39z M59.22,45.79c-0.13-0.06-0.04-0.25,0.09-0.19c0.58,0.27,0.95-0.53,1.77,0.06
					c0.11,0.08-0.01,0.26-0.12,0.17C60.24,45.32,59.91,46.12,59.22,45.79L59.22,45.79z M56.74,60.74c0.05,0.13-0.15,0.21-0.2,0.08
					c-0.27-0.67-0.96-0.42-1.35-1.04c-0.08-0.12,0.1-0.23,0.18-0.11C55.72,60.22,56.43,59.95,56.74,60.74L56.74,60.74z M49.46,67.6
					c0.1,0.1-0.05,0.25-0.15,0.15c-0.56-0.56,0.01-0.92-0.22-1.37c-0.06-0.13,0.13-0.22,0.19-0.1
					C49.55,66.81,49.01,67.15,49.46,67.6z M48.58,77.58c0.13,0.04,0.08,0.24-0.06,0.21c-0.58-0.17-0.9,0.49-1.55,0.18
					c-0.13-0.06-0.04-0.25,0.09-0.19C47.58,78.01,47.92,77.39,48.58,77.58L48.58,77.58z M51.63,45.24
					c-0.14,0.04-0.19-0.17-0.06-0.21c0.3-0.08,0.5-0.43,0.52-0.73c0.01-0.14,0.22-0.13,0.21,0.01
					C52.29,44.7,52.02,45.13,51.63,45.24z M49.13,38.22c-0.11-0.08,0.01-0.26,0.12-0.17c0.58,0.41,1.1-0.36,1.8,0.37
					c0.1,0.1-0.06,0.25-0.15,0.15C50.3,37.94,49.8,38.7,49.13,38.22L49.13,38.22z M43.02,34.65c0.01-0.14,0.23-0.12,0.21,0.02
					c-0.07,0.77,0.92,0.71,0.59,1.71c-0.04,0.13-0.25,0.07-0.2-0.07C43.9,35.48,42.95,35.55,43.02,34.65L43.02,34.65z M37.28,39.21
					c0.13,0.04,0.08,0.24-0.06,0.21c-0.41-0.12-0.46-0.36-0.45-0.74c0-0.17,0.01-0.37-0.21-0.47c-0.13-0.06-0.04-0.25,0.09-0.19
					c0.34,0.16,0.34,0.43,0.33,0.67C36.98,38.96,36.97,39.12,37.28,39.21L37.28,39.21z M38.48,45.06c-0.14-0.03-0.1-0.24,0.04-0.21
					c0.5,0.09,0.96,0.06,1.3-0.36c0.09-0.11,0.26,0.03,0.17,0.14C39.59,45.11,39.06,45.17,38.48,45.06L38.48,45.06z M35.31,75.82
					c-0.1-0.1,0.04-0.25,0.15-0.16c0.23,0.21,0.68,0.29,0.95,0.13c0.12-0.07,0.23,0.11,0.11,0.18
					C36.16,76.19,35.61,76.1,35.31,75.82L35.31,75.82z M35.88,70.59c0.1,0.1-0.06,0.25-0.16,0.15c-0.26-0.28-0.08-0.56-0.09-0.85
					c-0.01-0.29-0.13-0.4-0.39-0.5c-0.13-0.05-0.05-0.25,0.08-0.2c0.35,0.13,0.51,0.32,0.53,0.69
					C35.86,70.1,35.72,70.42,35.88,70.59L35.88,70.59z M30.59,66.6c-0.13-0.06-0.04-0.25,0.09-0.19c0.17,0.08,0.61-0.44,1.08,0.04
					c0.1,0.1-0.05,0.25-0.15,0.15C31.24,66.22,30.91,66.75,30.59,66.6z M24.81,68.31c0.14,0.03,0.09,0.24-0.04,0.21
					c-0.53-0.11-1.09-0.56-1.17-1.12c-0.02-0.14,0.19-0.17,0.21-0.03C23.88,67.84,24.37,68.22,24.81,68.31L24.81,68.31z
					 M27.99,66.48c0.13,0.06,0.04,0.25-0.09,0.19c-0.42-0.2-0.67,0.29-1.15-0.09c-0.11-0.09,0.02-0.25,0.13-0.17
					C27.24,66.69,27.5,66.25,27.99,66.48z M26.08,61.28c-0.06,0.13-0.25,0.04-0.19-0.09c0.31-0.67,0.81-0.27,1.05-0.62
					c0.08-0.12,0.26,0.01,0.18,0.12C26.79,61.15,26.34,60.73,26.08,61.28z M31.61,61.94c0.13-0.05,0.21,0.14,0.08,0.2
					c-0.55,0.23-0.56-0.21-0.91-0.13c-0.21,0.05-0.43,0.02-0.59-0.14c-0.1-0.1,0.05-0.25,0.15-0.15c0.1,0.1,0.25,0.11,0.39,0.08
					C31.21,61.69,31.19,62.11,31.61,61.94L31.61,61.94z M35.02,58.21c-0.13,0.05-0.21-0.14-0.08-0.2c0.35-0.15,0.84-0.07,1.17,0.11
					c0.12,0.07,0.02,0.26-0.1,0.19C35.73,58.16,35.31,58.09,35.02,58.21L35.02,58.21z M38.35,64.06c0.14,0.01,0.13,0.22-0.01,0.21
					c-0.89-0.06-0.58-0.59-1.15-0.84c-0.13-0.06-0.04-0.25,0.09-0.2C37.89,63.52,37.61,64.01,38.35,64.06z M42.44,62.99
					c0.14,0.03,0.09,0.24-0.05,0.21c-0.35-0.09-0.58,0.49-1.2,0.19c-0.13-0.06-0.04-0.25,0.09-0.19
					C41.78,63.44,41.97,62.87,42.44,62.99L42.44,62.99z M40.26,58.22c0.13,0.06,0.04,0.25-0.09,0.19c-0.78-0.36,0.02-1.19-0.31-1.56
					c-0.1-0.1,0.06-0.25,0.16-0.15C40.45,57.19,39.68,57.95,40.26,58.22L40.26,58.22z M43.67,56.19c0.13,0.04,0.07,0.25-0.06,0.2
					c-0.61-0.19-0.38-0.73-0.84-0.94c-0.13-0.06-0.04-0.25,0.09-0.19C43.41,55.52,43.2,56.05,43.67,56.19L43.67,56.19z M47.77,51.4
					c-0.06-0.03-0.08-0.1-0.05-0.15c0.03-0.05,0.09-0.06,0.14-0.04c0.53,0.24,1.05-0.41,1.66,0.19c0.1,0.1-0.05,0.25-0.15,0.15
					C48.88,51.07,48.37,51.68,47.77,51.4L47.77,51.4z M48.63,43.01c-0.55,1.18-0.04,2.59,1.15,3.14c1.18,0.55,2.59,0.04,3.14-1.14
					c0.55-1.18,0.04-2.59-1.15-3.14C50.59,41.32,49.19,41.83,48.63,43.01L48.63,43.01z M48.25,42.83c0.1-0.22,0.22-0.41,0.37-0.59
					c-1.43-0.62-2.06-2.32-1.4-3.73c0.65-1.4,2.31-2,3.71-1.35c1.4,0.65,2,2.31,1.35,3.71c-0.1,0.21-0.22,0.41-0.37,0.59
					c1.43,0.63,2.06,2.32,1.4,3.73c-0.65,1.4-2.31,2-3.71,1.35C48.2,45.89,47.59,44.23,48.25,42.83L48.25,42.83z M48.93,41.91
					c0.69-0.61,1.64-0.84,2.54-0.61c0.17-0.18,0.31-0.39,0.42-0.62c0.55-1.18,0.04-2.59-1.15-3.14c-1.18-0.55-2.59-0.04-3.14,1.14
					C47.01,39.95,47.64,41.44,48.93,41.91L48.93,41.91z M45.66,52.77c-0.01-0.01-0.03-0.02-0.04-0.02
					c-0.04-0.02-0.09-0.05-0.14-0.07c-1.18-0.55-2.59-0.04-3.14,1.14c-0.55,1.18-0.04,2.59,1.15,3.14c1.18,0.55,2.59,0.04,3.14-1.14
					c0.11-0.23,0.18-0.47,0.21-0.72c-0.47-0.33-0.81-0.8-1-1.32C45.71,53.46,45.66,53.12,45.66,52.77L45.66,52.77z M46.31,51.83
					c-0.28,0.59-0.29,1.24-0.08,1.81c0.72,1.98,3.49,2.08,4.37,0.19c0.55-1.18,0.04-2.59-1.15-3.14
					C48.27,50.14,46.87,50.65,46.31,51.83L46.31,51.83z M41.7,55.09c-1-0.09-1.94,0.45-2.36,1.36c-0.28,0.59-0.29,1.24-0.08,1.81
					c0.21,0.57,0.63,1.06,1.22,1.33c1.18,0.55,2.59,0.04,3.14-1.14c0.13-0.28,0.21-0.59,0.22-0.9c-0.18-0.04-0.37-0.11-0.54-0.19
					C42.4,56.93,41.8,56.07,41.7,55.09z M40.06,59.85c-0.33,0.24-0.58,0.55-0.76,0.92c-0.28,0.59-0.29,1.24-0.08,1.81
					c0.72,1.98,3.49,2.08,4.37,0.19c0.47-1.01,0.17-2.22-0.73-2.89c-0.79,0.45-1.74,0.49-2.56,0.11
					C40.22,59.93,40.14,59.89,40.06,59.85L40.06,59.85z M38.89,60.65c-1.01-0.11-1.98,0.43-2.4,1.35c-0.55,1.18-0.04,2.59,1.14,3.14
					c1.02,0.47,2.23,0.17,2.9-0.74c-0.79-0.28-1.41-0.89-1.7-1.68C38.59,62.07,38.59,61.33,38.89,60.65L38.89,60.65z M36.44,71.58
					c0.53-1.18,0.01-2.56-1.16-3.11c-0.59-0.28-1.24-0.29-1.81-0.08c-0.57,0.21-1.06,0.63-1.33,1.22c-0.55,1.18-0.04,2.59,1.14,3.14
					c0.17,0.08,0.36,0.14,0.55,0.18C34.37,72.02,35.39,71.5,36.44,71.58z M34.09,73.37c-0.55,1.18-0.04,2.59,1.14,3.14
					s2.59,0.04,3.14-1.14c0.55-1.18,0.04-2.59-1.14-3.14C36.04,71.67,34.64,72.18,34.09,73.37L34.09,73.37z M33.47,67.95
					c-0.01-0.91-0.54-1.73-1.36-2.11c-0.59-0.28-1.24-0.29-1.81-0.08s-1.06,0.63-1.33,1.22c-0.55,1.18-0.04,2.59,1.14,3.14
					c0.44,0.2,0.92,0.27,1.4,0.19c0.03-0.29,0.11-0.58,0.24-0.86C32.09,68.71,32.71,68.18,33.47,67.95L33.47,67.95z M30.15,65.35
					c0.01-0.44-0.1-0.88-0.32-1.26c-0.23-0.4-0.59-0.74-1.05-0.96c-0.59-0.28-1.24-0.29-1.81-0.08c-0.57,0.21-1.06,0.63-1.33,1.22
					c-0.28,0.59-0.28,1.24-0.08,1.8c0.32,0.87,1.12,1.48,2.05,1.55c0.25,0.02,0.49,0,0.73-0.06c0.04-0.26,0.11-0.52,0.23-0.78
					C28.91,66.1,29.48,65.6,30.15,65.35L30.15,65.35z M29.51,63.08c0.04-0.1,0.07-0.2,0.1-0.3c-0.43-0.33-0.75-0.77-0.93-1.27
					c-0.15-0.42-0.21-0.87-0.14-1.33c-1.2-0.72-2.76-0.25-3.36,1.03c-0.35,0.75-0.28,1.61,0.17,2.3c0.17,0.26,0.12,0.19,0.29-0.01
					c0.32-0.39,0.74-0.68,1.2-0.85c0.67-0.24,1.43-0.23,2.13,0.09C29.17,62.84,29.35,62.95,29.51,63.08L29.51,63.08z M24.8,64.54
					c-0.78,0.11-1.46,0.61-1.8,1.34c-0.55,1.18-0.04,2.59,1.14,3.14c1.13,0.53,2.48,0.08,3.07-1.02c-0.94-0.2-1.72-0.87-2.05-1.78
					c-0.16-0.45-0.21-0.94-0.13-1.42C25.09,64.49,25.19,64.49,24.8,64.54L24.8,64.54z M39.19,35.86c0.04-0.31,0.12-0.62,0.26-0.91
					c0.68-1.47,2.43-2.11,3.9-1.42s2.11,2.43,1.42,3.9c-0.6,1.29-2.06,1.97-3.43,1.59c-0.04,0.31-0.12,0.61-0.26,0.91
					c-0.17,0.37-0.41,0.69-0.72,0.96c1.23,0.79,1.69,2.38,1.07,3.71c-0.68,1.47-2.43,2.11-3.9,1.42c-1.47-0.68-2.11-2.43-1.42-3.9
					c0.18-0.38,0.42-0.7,0.72-0.96c-1.23-0.79-1.69-2.38-1.07-3.71C36.36,36.16,37.81,35.48,39.19,35.86L39.19,35.86z M41.35,38.59
					c1.2,0.38,2.5-0.19,3.03-1.33c0.58-1.25,0.04-2.75-1.21-3.33s-2.75-0.04-3.33,1.21c-0.13,0.28-0.21,0.57-0.23,0.87
					C40.63,36.46,41.31,37.46,41.35,38.59L41.35,38.59z M36.49,42.3c-0.58,1.25-0.04,2.75,1.21,3.33s2.75,0.04,3.33-1.21
					c0.54-1.16,0.12-2.53-0.95-3.19C38.82,40.45,37.14,40.92,36.49,42.3L36.49,42.3z M39.95,40.67c0.32-0.24,0.57-0.56,0.73-0.92
					c0.58-1.25,0.04-2.75-1.21-3.33s-2.75-0.04-3.33,1.21c-0.55,1.19-0.1,2.61,1.05,3.25C38.02,40.35,39.05,40.27,39.95,40.67
					L39.95,40.67z M59.4,73.04c0.61-1.15,1.88-1.81,3.17-1.65c0.54-1.35-0.07-2.88-1.39-3.5c-2.23-1.04-4.56,1.16-3.73,3.42
					C57.77,72.18,58.5,72.83,59.4,73.04z M63,71.47c0.18,0.05,0.36,0.11,0.54,0.19c1.59,0.74,2.27,2.62,1.53,4.21
					s-2.62,2.27-4.21,1.53c-1.49-0.7-2.21-2.42-1.64-3.97c-0.86-0.23-1.59-0.8-2.01-1.59c-0.64,0.41-1.41,0.58-2.17,0.47
					c0.3,0.8,0.27,1.68-0.09,2.45c-0.67,1.44-2.3,2.15-3.79,1.69c-0.3-0.09-0.22-0.15-0.29,0.15c-0.05,0.23-0.12,0.45-0.22,0.67
					c-0.74,1.59-2.62,2.27-4.21,1.53c-1.59-0.74-2.27-2.62-1.53-4.21c0.41-0.87,1.18-1.51,2.11-1.74c0.5-0.12,0.43,0.01,0.05-0.35
					c-1.02-0.93-1.32-2.42-0.74-3.68c0.32-0.69,0.88-1.24,1.57-1.55c-0.03-0.5,0.06-1.02,0.29-1.51c0.61-1.31,2.03-2.04,3.45-1.78
					c0.06-0.26,0.15-0.52,0.27-0.76c-0.49-0.89-0.53-1.95-0.1-2.87c0.37-0.8,1.06-1.41,1.91-1.68c-0.53-0.9-0.59-2-0.15-2.95
					c0.37-0.79,1.03-1.36,1.79-1.64c0.12-0.04,0.23-0.08,0.35-0.11c-0.67-0.93-0.79-2.15-0.3-3.19c0.41-0.87,1.18-1.51,2.11-1.74
					c-0.54-0.9-0.6-2.01-0.15-2.96c0.74-1.59,2.62-2.27,4.21-1.53c0.77,0.36,1.37,1.01,1.65,1.82c0.01,0,0.02-0.01,0.03-0.01
					c0.76-0.28,1.63-0.26,2.42,0.11c0.7,0.33,1.23,0.88,1.53,1.54c0.28,0.61,0.37,1.3,0.23,1.98c0.84,0.34,1.49,1.01,1.8,1.86
					c0.26,0.7,0.26,1.49-0.02,2.23c0.07,0.03,0.13,0.05,0.2,0.08c1.59,0.74,2.27,2.62,1.53,4.21c-0.74,1.59-2.62,2.27-4.21,1.53
					c-0.79-0.37-1.36-1.03-1.64-1.79c-0.26-0.7-0.26-1.49,0.02-2.23c-1.45-0.56-2.28-2.08-1.96-3.6c-0.85-0.34-1.5-1.02-1.81-1.89
					c-0.11,0.04-0.23,0.08-0.35,0.11c0.54,0.9,0.6,2.01,0.15,2.96c-0.41,0.88-1.2,1.52-2.14,1.74c0.67,0.93,0.79,2.15,0.3,3.19
					c-0.37,0.8-1.06,1.41-1.91,1.68c0.55,0.92,0.59,2.08,0.11,3.04c0.6,1.09,0.51,2.43-0.23,3.43c0.43,0.29,0.79,0.69,1.03,1.15
					c0.91-0.58,2.06-0.66,3.05-0.2C62.86,68.19,63.57,69.92,63,71.47L63,71.47z M59.71,73.37c-0.64,1.37-0.04,3,1.33,3.64
					c1.37,0.64,3,0.05,3.64-1.33s0.04-3-1.33-3.64C61.98,71.41,60.35,72,59.71,73.37L59.71,73.37z M57.04,71.44
					c-0.45-1.24-0.08-2.64,0.92-3.49c-0.28-0.56-0.73-1-1.3-1.27c-1.37-0.64-3-0.05-3.64,1.33c-0.32,0.69-0.33,1.44-0.09,2.09
					C53.54,71.77,55.57,72.44,57.04,71.44L57.04,71.44z M63.28,51.86c0.03-0.09,0.07-0.19,0.11-0.28c0.64-1.38,2.17-2.1,3.64-1.74
					c0.11-0.57,0.03-1.15-0.21-1.67c-0.26-0.56-0.72-1.04-1.33-1.33c-0.69-0.32-1.44-0.33-2.1-0.09c-0.66,0.24-1.23,0.73-1.55,1.42
					C61.2,49.59,61.85,51.25,63.28,51.86L63.28,51.86z M68.81,53.94c0.26-0.65,0.26-1.34,0.03-1.96c-0.26-0.72-0.81-1.3-1.52-1.59
					c-1.35-0.56-2.91,0.04-3.53,1.37c-0.67,1.44,0.04,3.17,1.53,3.72C65.99,54.25,67.43,53.61,68.81,53.94L68.81,53.94z
					 M65.59,55.87c-0.32,0.69-0.33,1.44-0.09,2.09c0.24,0.66,0.73,1.23,1.42,1.55c1.37,0.64,3,0.05,3.64-1.33
					c0.64-1.37,0.04-3-1.33-3.64C67.86,53.9,66.23,54.5,65.59,55.87L65.59,55.87z M61.24,49.98c-0.13-0.64-0.07-1.34,0.23-1.98
					c0.3-0.64,0.79-1.14,1.37-1.45c-0.24-0.71-0.76-1.29-1.44-1.61c-1.37-0.64-3-0.05-3.64,1.33c-0.41,0.88-0.33,1.9,0.22,2.7
					c0.55-0.05,1.11,0.03,1.64,0.28c0.45,0.21,0.82,0.51,1.12,0.87C60.91,50.09,61.07,50.04,61.24,49.98L61.24,49.98z M58.7,54.83
					c0.91-0.14,1.68-0.72,2.07-1.55c0.64-1.37,0.04-3-1.33-3.64c-1.37-0.64-3-0.05-3.64,1.33c-0.45,0.97-0.3,2.12,0.4,2.94
					c0.53-0.04,1.07,0.05,1.59,0.29C58.13,54.35,58.44,54.57,58.7,54.83L58.7,54.83z M57.15,59.71c0.78-0.21,1.43-0.75,1.78-1.49
					c0.64-1.37,0.04-3-1.33-3.64c-0.69-0.32-1.44-0.33-2.1-0.09c-0.66,0.24-1.23,0.73-1.55,1.42c-0.4,0.86-0.33,1.87,0.2,2.67
					c0.7-0.12,1.41,0,2.04,0.34C56.58,59.12,56.9,59.39,57.15,59.71L57.15,59.71z M57.24,62.7c0.5-1.28-0.03-2.75-1.24-3.4
					c-1.39-0.75-3.13-0.18-3.79,1.25c-0.33,0.72-0.34,1.53-0.03,2.26c0.89-1.23,2.53-1.66,3.91-1.02
					C56.55,62,56.94,62.32,57.24,62.7L57.24,62.7z M52.97,67.28c-0.94-0.64-1.47-1.74-1.39-2.87c-1.23-0.24-2.47,0.4-3,1.53
					c-0.64,1.37-0.04,3,1.33,3.64c0.78,0.37,1.69,0.34,2.45-0.07c-0.06-0.56,0.02-1.14,0.28-1.69
					C52.73,67.63,52.84,67.45,52.97,67.28L52.97,67.28z M56.91,66.33c1.07-1.38,0.59-3.42-1.01-4.16c-1.37-0.64-3-0.05-3.64,1.33
					c-0.58,1.24-0.15,2.71,0.99,3.45C54.21,65.98,55.68,65.73,56.91,66.33z M52.44,69.96c-0.86,0.41-1.85,0.42-2.71,0.02
					c-0.92-0.43-1.57-1.26-1.77-2.25c-0.55,0.28-0.98,0.73-1.24,1.29c-0.52,1.11-0.23,2.38,0.62,3.17c0.44,0.41,1.02,0.66,1.61,0.72
					c0.17-1.03,0.85-1.91,1.8-2.35c0.55-0.25,1.17-0.35,1.79-0.26c0-0.01-0.01-0.02-0.01-0.03C52.5,70.16,52.47,70.06,52.44,69.96
					L52.44,69.96z M54.53,72.19c-0.74-0.24-1.36-0.74-1.76-1.42c-0.63-0.16-1.28-0.1-1.84,0.16c-1.29,0.59-1.91,2.09-1.43,3.43
					c0.82,2.26,4.02,2.45,5.06,0.22C54.92,73.82,54.91,72.94,54.53,72.19z M50.34,76.07c-0.6-0.38-1-0.92-1.23-1.56
					c-0.12-0.34-0.19-0.7-0.19-1.07c-0.68-0.31-1.42-0.32-2.07-0.08c-0.66,0.24-1.23,0.73-1.55,1.42c-0.64,1.37-0.04,3,1.33,3.64
					c1.37,0.64,3,0.05,3.64-1.33c0.1-0.21,0.17-0.44,0.21-0.67C50.52,76.17,50.53,76.18,50.34,76.07L50.34,76.07z M37.72,60.36
					c0.35-1.12-0.19-2.34-1.26-2.83c-1.18-0.55-2.59-0.04-3.14,1.14c-0.28,0.59-0.28,1.24-0.08,1.8c0.21,0.57,0.63,1.06,1.22,1.33
					c0.49,0.23,1.04,0.28,1.57,0.15c0.02-0.05,0.04-0.09,0.06-0.14C36.42,61.12,37,60.6,37.72,60.36L37.72,60.36z M32.82,58.76
					c-0.16-0.14-0.34-0.25-0.53-0.34c-0.59-0.28-1.24-0.29-1.81-0.08s-1.06,0.63-1.33,1.22c-0.28,0.59-0.28,1.24-0.08,1.8
					c0.19,0.52,0.55,0.97,1.06,1.25c0.62,0.35,1.35,0.41,2.01,0.14c0.54-0.21,1-0.63,1.28-1.19c-0.26-0.28-0.46-0.6-0.59-0.95
					C32.63,60.03,32.61,59.38,32.82,58.76z"/>
			</g>
		</g>
	</g>
</g>
<g>
</g>
<g>
</g>
<g>
</g>
<g>
</g>
<g>
</g>
<g>
</g>
</svg>
