<?xml version="1.0" encoding="utf-8"?>
<!-- Generator: Adobe Illustrator 26.0.3, SVG Export Plug-In . SVG Version: 6.00 Build 0)  -->
<svg version="1.1" id="Layer_1" xmlns="http://www.w3.org/2000/svg" xmlns:xlink="http://www.w3.org/1999/xlink" x="0px" y="0px"
	 width="100px" height="100px" viewBox="0 0 100 100" style="enable-background:new 0 0 100 100;" xml:space="preserve">
<style type="text/css">
	.st0{fill:#C1282D;stroke:#FFFFFF;stroke-width:0.25;stroke-miterlimit:10;}
	.st1{clip-path:url(#SVGID_00000074413309988390040430000002861924710660117929_);}
	.st2{fill:#010101;stroke:#FFFFFF;stroke-width:0.25;stroke-miterlimit:10;}
	.st3{fill:#FBB03C;stroke:#FFFFFF;stroke-width:0.25;stroke-miterlimit:10;}
	.st4{clip-path:url(#SVGID_00000135676094553566424010000011493998644678505380_);}
</style>
<g>
	
		<ellipse transform="matrix(0.7716 -0.6362 0.6362 0.7716 -2.2441 39.9236)" class="st0" cx="54.47" cy="23.09" rx="14.98" ry="14.59"/>
	
		<ellipse transform="matrix(0.7716 -0.6362 0.6362 0.7716 -10.1506 25.4273)" class="st0" cx="30.33" cy="26.85" rx="14.98" ry="14.59"/>
	
		<ellipse transform="matrix(0.7716 -0.6362 0.6362 0.7716 -27.5672 24.8634)" class="st0" cx="20.84" cy="50.82" rx="14.98" ry="14.59"/>
	<g>
		<defs>
			
				<ellipse id="SVGID_1_" transform="matrix(0.7716 -0.6362 0.6362 0.7716 -10.4718 29.8273)" cx="36.3" cy="29.49" rx="59.16" ry="35.22"/>
		</defs>
		<clipPath id="SVGID_00000000937329497518260900000013242826784926835080_">
			<use xlink:href="#SVGID_1_"  style="overflow:visible;"/>
		</clipPath>
		<g style="clip-path:url(#SVGID_00000000937329497518260900000013242826784926835080_);">
			<g>
				<path class="st2" d="M-69.36,127.57c-0.49,0.53-1.01,1.03-1.56,1.49c0.33,1.08,0.54,2.19,0.63,3.3c0.2,2.6-0.25,5.22-1.34,7.6
					c3.02,0.78,5.83,2.5,7.97,5.09c3.65,4.42,4.52,10.5,2.28,15.77c2.73,0.86,5.25,2.5,7.2,4.87c5.18,6.28,4.55,15.52-1.42,21.03
					c0.79,0.64,1.54,1.37,2.21,2.19c5.39,6.54,4.46,16.21-2.07,21.6c-6.54,5.39-16.21,4.46-21.6-2.08
					c-5.18-6.28-4.55-15.52,1.42-21.03c-0.81-0.65-1.55-1.39-2.21-2.19c-3.66-4.43-4.52-10.51-2.29-15.77
					c-2.82-0.89-5.32-2.58-7.2-4.87c-3.75-4.55-4.56-10.82-2.11-16.16c-1.15-0.3-2.28-0.74-3.35-1.31
					c-6.52,5.37-16.2,4.43-21.58-2.09c-5.39-6.54-4.46-16.21,2.07-21.6c4.47-3.68,10.59-4.51,15.85-2.24
					c1.37,0.59,1.09,0.78,0.77-0.69c-1.21-5.61,0.8-11.43,5.23-15.09c6.78-5.59,16.88-4.35,22.1,2.72c0.48-0.53,1.01-1.03,1.58-1.5
					c3.27-2.69,7.32-3.81,11.23-3.43c3.91,0.38,7.67,2.24,10.37,5.51c0.72,0.87,1.34,1.84,1.85,2.84
					c6.55-4.86,15.77-3.72,20.97,2.57c4.54,5.51,4.68,13.44,0.34,19.09c1.59,0.47,3.11,1.21,4.5,2.19c1.39-0.85,2.9-1.48,4.49-1.86
					c-1.16-2.5-1.59-5.23-1.34-7.9c0.38-3.91,2.24-7.68,5.52-10.38c4.93-4.07,11.88-4.65,17.42-1.47c0.91-1.65,2.14-3.17,3.69-4.44
					c6.55-5.4,16.23-4.46,21.63,2.08c0.06,0.08,0.13,0.15,0.19,0.23c0.74-1.01,1.61-1.94,2.62-2.77c6.55-5.4,16.23-4.46,21.63,2.08
					c5.4,6.55,4.47,16.23-2.08,21.63c-6.64,5.47-16.47,4.42-21.82-2.32c-0.75,1.03-1.64,1.97-2.62,2.78
					c-4.95,4.08-11.89,4.65-17.42,1.47c-0.93,1.7-2.19,3.21-3.68,4.44c-1.87,1.54-4,2.57-6.21,3.09c2.92,6.32,1.2,13.84-4.18,18.28
					c-5.37,4.43-13.06,4.69-18.7,0.65c-6.51,3.99-14.99,2.57-19.85-3.33c-4.55-5.51-4.68-13.44-0.35-19.09
					c-2.91-0.87-5.51-2.59-7.44-4.94c-0.74-0.9-1.36-1.85-1.86-2.85c-3.06,2.24-6.7,3.23-10.25,2.98
					C-62.64,133.44-66.7,131.17-69.36,127.57L-69.36,127.57z M107.81,142.28c0.49,0.6-0.42,1.35-0.91,0.75
					c-3.13-3.8,0.72-6.38-3.12-9.58c-0.59-0.5,0.16-1.4,0.75-0.9C108.99,136.26,105.04,138.92,107.81,142.28z M40.32,195.1
					c0.32,0.7-0.74,1.2-1.07,0.49c-1.8-3.92,1.08-4.65,0.98-7.2c-0.03-0.77,1.14-0.82,1.17-0.05
					C41.51,191.14,38.86,191.91,40.32,195.1L40.32,195.1z M39.84,227.82c0.75,0.19,0.47,1.33-0.28,1.14
					c-2.33-0.57-4.26-1.81-5.65-3.77c-0.45-0.63,0.51-1.31,0.96-0.68C36.1,226.23,37.8,227.31,39.84,227.82z M1.39,213.69
					c0.64,0.43-0.02,1.41-0.66,0.97c-1.9-1.28-3-3.99-2.56-6.24c0.15-0.76,1.3-0.52,1.15,0.23C-1.03,210.44-0.12,212.68,1.39,213.69
					L1.39,213.69z M15.21,240.09c0.66-0.41,1.28,0.6,0.62,1c-1.97,1.21-3.79,1.46-5.52-0.28c-0.87-0.88-1.53-1.92-2.78-2.04
					c-0.77-0.08-0.65-1.25,0.12-1.17c1.73,0.17,2.54,1.4,3.42,2.31C12.43,241.3,13.64,241.06,15.21,240.09z M84.68,167.09
					c-0.6,0.49-1.35-0.42-0.75-0.91c1.28-1.05,2.09-3.13,1.97-4.77c-0.06-0.77,1.11-0.86,1.17-0.09
					C87.22,163.35,86.25,165.8,84.68,167.09z M70.61,228.78c-0.5-0.59,0.39-1.35,0.89-0.76c1.51,1.75,2.52,4.04,2.47,6.38
					c-0.02,0.77-1.19,0.74-1.18-0.03C72.85,232.33,71.93,230.3,70.61,228.78L70.61,228.78z M61.04,270.96
					c-0.71-0.29-0.27-1.38,0.45-1.09c1.74,0.72,4.45,0.28,6.15-0.4c0.72-0.29,1.16,0.8,0.44,1.09
					C66.09,271.37,63.07,271.79,61.04,270.96L61.04,270.96z M125.53,194.3c-0.31-0.71,0.77-1.18,1.08-0.47
					c1.23,2.83,4.07,1.27,6.01,3.63c0.49,0.6-0.42,1.35-0.91,0.75C130.04,196.18,127.1,197.88,125.53,194.3L125.53,194.3z
					 M145.07,166.48c-0.37,0.68-1.4,0.11-1.03-0.57c1.8-3.28-2.39-4.47-1.13-8.88c0.21-0.74,1.34-0.42,1.13,0.32
					C142.91,161.31,147.32,162.38,145.07,166.48L145.07,166.48z M145.15,140.75c-0.05,0.77-1.22,0.69-1.17-0.08
					c0.13-2.11-0.96-4.7-2.71-5.93c-0.63-0.45,0.05-1.4,0.68-0.96C144.03,135.25,145.31,138.23,145.15,140.75L145.15,140.75z
					 M116.57,111.32c-0.49-0.6,0.42-1.35,0.91-0.75c2.24,2.72,5.95-0.4,8.63,4.47c0.37,0.68-0.66,1.25-1.03,0.57
					C122.77,111.4,119.24,114.57,116.57,111.32L116.57,111.32z M68.88,179.63c-0.05,0.77-1.22,0.69-1.17-0.08
					c0.26-3.93-3.78-4.37-4.27-8.36c-0.09-0.77,1.07-0.91,1.17-0.14C65.04,174.63,69.19,174.95,68.88,179.63L68.88,179.63z
					 M16.46,196.44c0.26,0.73-0.85,1.12-1.11,0.39c-1.47-4.11,2.23-4.56,2.17-7.33c-0.01-0.77,1.16-0.79,1.18-0.02
					C18.77,192.74,15.29,193.15,16.46,196.44z M-11.54,243.88c0.58,0.51-0.2,1.39-0.78,0.88c-2.49-2.21-5.62,0.28-8.12-2.75
					c-0.49-0.6,0.42-1.35,0.91-0.75C-17.52,243.68-14.38,241.37-11.54,243.88L-11.54,243.88z M80.22,90.61
					c-0.76-0.13-0.56-1.29,0.2-1.16c1.67,0.29,3.53-0.97,4.3-2.4c0.36-0.68,1.4-0.13,1.04,0.55C84.74,89.49,82.4,90.99,80.22,90.61z
					 M84.42,49.83c-0.38-0.68,0.65-1.25,1.03-0.57c1.89,3.4,6.3,0.81,8.06,6.11c0.24,0.73-0.87,1.1-1.12,0.37
					C90.88,51.2,86.63,53.8,84.42,49.83L84.42,49.83z M62.56,17.66c0.39-0.67,1.41-0.07,1.01,0.6c-2.16,3.68,2.87,5.71-1.1,9.88
					c-0.54,0.56-1.39-0.26-0.85-0.81C64.94,23.84,60.05,21.93,62.56,17.66L62.56,17.66z M23.25,26.67c0.58,0.51-0.2,1.39-0.78,0.88
					c-1.75-1.55-1.41-2.87-0.45-4.74c0.43-0.85,0.92-1.81,0.09-2.82c-0.49-0.6,0.42-1.35,0.91-0.75c1.32,1.6,0.64,2.93,0.04,4.1
					C22.37,24.69,21.94,25.51,23.25,26.67L23.25,26.67z M15.34,58.56c-0.62-0.46,0.07-1.4,0.69-0.95c2.27,1.65,4.61,2.57,7.31,1.3
					c0.7-0.33,1.2,0.74,0.5,1.07C20.74,61.43,17.96,60.47,15.34,58.56L15.34,58.56z M-73.27,203.72c-0.29-0.72,0.81-1.15,1.09-0.43
					c0.64,1.61,2.68,3.04,4.43,2.88c0.77-0.07,0.88,1.1,0.11,1.17C-69.9,207.54-72.44,205.81-73.27,203.72L-73.27,203.72z
					 M-58.03,179.14c0.23,0.74-0.89,1.09-1.12,0.36c-0.64-1.99,0.94-2.94,1.58-4.44c0.63-1.47,0.33-2.29-0.75-3.42
					c-0.53-0.56,0.32-1.37,0.85-0.81c1.4,1.47,1.79,2.78,0.97,4.69C-56.97,176.65-58.42,177.9-58.03,179.14L-58.03,179.14z
					 M-74.85,146.76c-0.49-0.6,0.42-1.35,0.91-0.75c0.67,0.81,4.08-0.73,5.28,2.76c0.25,0.73-0.86,1.11-1.11,0.38
					C-70.7,146.46-73.6,148.27-74.85,146.76z M-107.57,141.6c0.62,0.47-0.1,1.41-0.71,0.94c-2.36-1.8-4.09-5.39-3.15-8.34
					c0.24-0.74,1.36-0.38,1.12,0.36C-111.1,137.02-109.53,140.1-107.57,141.6L-107.57,141.6z M-87.43,140.01
					c0.49,0.6-0.42,1.35-0.91,0.75c-1.64-1.98-4.02-0.14-5.47-3.17c-0.34-0.7,0.72-1.21,1.06-0.51
					C-91.68,139.31-89.34,137.69-87.43,140.01z M-84.61,109.68c-0.6,0.49-1.35-0.42-0.75-0.91c3.15-2.59,4.65,0.55,6.7-0.6
					c0.67-0.38,1.26,0.64,0.58,1.02C-80.78,110.72-82.06,107.58-84.61,109.68z M-58.73,126.04c0.77,0.04,0.71,1.21-0.06,1.17
					c-3.28-0.17-2.26-2.37-4.18-2.82c-1.15-0.27-2.19-0.93-2.59-2.09c-0.25-0.73,0.86-1.12,1.11-0.39c0.27,0.76,1,1.16,1.74,1.33
					C-60.13,123.85-61.22,125.91-58.73,126.04L-58.73,126.04z M-32.99,115.61c-0.77-0.04-0.71-1.22,0.06-1.18
					c2.1,0.11,4.33,1.63,5.53,3.3c0.45,0.63-0.5,1.32-0.96,0.69C-29.35,117.04-31.25,115.7-32.99,115.61L-32.99,115.61z
					 M-30.32,152.54c0.68,0.38,0.1,1.41-0.57,1.03c-4.3-2.4-1.49-4.29-3.73-6.89c-0.5-0.59,0.39-1.35,0.89-0.76
					C-31.28,148.76-33.85,150.57-30.32,152.54z M-7.47,156.93c0.6,0.49-0.15,1.4-0.75,0.91c-1.53-1.26-4.02,1.07-6.43-1.89
					c-0.49-0.6,0.42-1.34,0.91-0.74C-11.8,157.59-9.54,155.22-7.47,156.93L-7.47,156.93z M-7,128.07c0.49,0.6-0.42,1.35-0.91,0.75
					c-3.02-3.66,2.94-5.87,2.13-8.46c-0.23-0.74,0.89-1.09,1.12-0.35C-3.59,123.42-9.22,125.36-7,128.07L-7,128.07z M14.76,126.09
					c0.57,0.52-0.23,1.39-0.8,0.87c-2.58-2.37-0.15-4.5-1.93-6.66c-0.49-0.6,0.41-1.34,0.91-0.75
					C15.05,122.12,12.76,124.25,14.76,126.09L14.76,126.09z M46.47,112.04c-0.22-0.27-0.17-0.67,0.13-0.87
					c0.25-0.17,0.59-0.11,0.79,0.13c2.04,2.45,6.15,0.47,7.79,4.88c0.27,0.72-0.83,1.13-1.1,0.41
					C52.74,112.99,48.77,114.83,46.47,112.04L46.47,112.04z M70.6,72.44c-5.54,4.57-6.33,12.76-1.76,18.31
					c4.57,5.54,12.77,6.33,18.31,1.76c5.54-4.57,6.33-12.76,1.76-18.31C84.34,68.67,76.14,67.88,70.6,72.44L70.6,72.44z M69.1,70.62
					c1.01-0.83,2.09-1.51,3.22-2.05c-5.62-6.49-4.72-16.41,1.88-21.86c6.55-5.4,16.23-4.46,21.63,2.08
					c5.4,6.55,4.47,16.23-2.08,21.63c-0.98,0.81-2.08,1.5-3.22,2.04c5.6,6.53,4.76,16.39-1.88,21.86
					c-6.55,5.4-16.23,4.46-21.63-2.08C61.63,85.7,62.56,76.02,69.1,70.62L69.1,70.62z M74.69,67.7c4.87-1.37,10.14-0.25,14.03,3
					c1.29-0.51,2.46-1.2,3.52-2.08c5.54-4.57,6.33-12.76,1.76-18.31s-12.77-6.33-18.31-1.76C69.81,53.4,69.37,62.27,74.69,67.7
					L74.69,67.7z M32.75,113.84c-0.05-0.07-0.1-0.14-0.15-0.22c-0.15-0.21-0.33-0.44-0.53-0.68c-4.57-5.54-12.77-6.33-18.31-1.76
					c-5.54,4.57-6.33,12.76-1.76,18.31s12.77,6.33,18.31,1.76c1.07-0.88,1.97-1.9,2.71-3.07c-1.53-2.77-2.13-5.87-1.84-8.9
					C31.36,117.4,31.88,115.55,32.75,113.84L32.75,113.84z M38.19,110.72c-2.77,2.28-4.35,5.48-4.67,8.79
					c-1.11,11.56,12.39,18.56,21.22,11.28c5.54-4.57,6.33-12.76,1.76-18.31C51.93,106.94,43.74,106.15,38.19,110.72L38.19,110.72z
					 M7.59,115.95c-4.72-2.82-10.7-2.36-14.94,1.13c-2.77,2.28-4.35,5.48-4.67,8.79c-0.32,3.31,0.63,6.75,2.91,9.52
					c4.57,5.54,12.77,6.33,18.31,1.76c1.33-1.1,2.42-2.43,3.23-3.95c-0.81-0.65-1.56-1.39-2.25-2.22
					C6.7,126.76,5.74,121.06,7.59,115.95z M-11.82,135.69c-2.19,0.4-4.2,1.35-5.92,2.76c-2.77,2.28-4.35,5.48-4.67,8.79
					c-1.11,11.56,12.39,18.56,21.22,11.28c4.75-3.91,6.11-10.64,3.24-16.08c-4.97,0.36-9.79-1.69-12.98-5.55
					C-11.25,136.5-11.54,136.1-11.82,135.69L-11.82,135.69z M-19.54,136.88c-4.73-2.95-10.83-2.54-15.13,1
					c-5.53,4.56-6.32,12.74-1.75,18.28c3.93,4.77,10.68,6.12,16.12,3.21c-3.26-3.26-4.9-7.76-4.46-12.36
					C-24.39,143.22-22.63,139.56-19.54,136.88L-19.54,136.88z M-57.61,185.34c5.41-4.59,6.12-12.68,1.61-18.16
					c-2.28-2.77-5.47-4.35-8.78-4.67c-3.31-0.32-6.74,0.62-9.5,2.91c-5.53,4.56-6.32,12.74-1.75,18.28c0.68,0.82,1.45,1.55,2.3,2.19
					C-68.9,182.66-62.64,182.47-57.61,185.34z M-73.49,188.64c-5.53,4.56-6.32,12.74-1.75,18.28s12.75,6.32,18.28,1.76
					c5.53-4.56,6.32-12.74,1.75-18.28C-59.77,184.87-67.96,184.08-73.49,188.64L-73.49,188.64z M-63.72,160.28
					c2.1-4.54,1.41-9.86-1.77-13.72c-2.28-2.77-5.47-4.35-8.78-4.67s-6.74,0.62-9.5,2.91c-5.53,4.56-6.32,12.74-1.75,18.28
					c1.69,2.05,3.93,3.52,6.49,4.24c0.85-1.37,1.94-2.62,3.25-3.7C-72.4,160.82-68.04,159.62-63.72,160.28L-63.72,160.28z
					 M-74.05,139.54c1.12-2.16,1.6-4.59,1.41-6.99c-0.2-2.56-1.17-5.1-2.93-7.24c-2.28-2.77-5.47-4.35-8.78-4.67
					s-6.74,0.62-9.5,2.91c-2.77,2.28-4.35,5.47-4.66,8.77c-0.49,5.08,2.08,10.01,6.5,12.53c1.18,0.67,2.45,1.15,3.76,1.42
					c0.81-1.21,1.81-2.33,2.99-3.3C-82,140.28-77.96,139.16-74.05,139.54L-74.05,139.54z M-71.85,126.74
					c0.42-0.39,0.82-0.81,1.18-1.26c-1.38-2.66-1.91-5.62-1.63-8.5c0.23-2.44,1.05-4.82,2.42-6.92c-4.28-6.4-13.11-7.78-19.09-2.85
					c-3.5,2.88-5.23,7.35-4.6,11.82c0.23,1.68,0.14,1.25,1.48,0.62c2.52-1.18,5.27-1.62,7.96-1.36c3.91,0.38,7.67,2.24,10.37,5.51
					C-72.99,124.73-72.36,125.71-71.85,126.74L-71.85,126.74z M-98.71,122.84c-4.14-1.28-8.7-0.42-12.11,2.39
					c-5.53,4.56-6.32,12.74-1.75,18.28c4.38,5.31,12.11,6.29,17.66,2.24c-4.2-3.21-6.46-8.38-5.95-13.66
					c0.25-2.61,1.17-5.16,2.73-7.37C-97.13,123.29-96.64,123.48-98.71,122.84L-98.71,122.84z M40.66,14.56
					c0.92-1.47,2.08-2.79,3.41-3.89C50.95,5,61.13,5.98,66.8,12.87s4.7,17.06-2.18,22.73c-6.06,5-14.87,4.9-20.81-0.23
					c-0.9,1.43-2.04,2.75-3.42,3.89c-1.71,1.41-3.7,2.46-5.83,3.07c4.23,6.85,2.75,15.8-3.47,20.93
					c-6.88,5.67-17.05,4.69-22.73-2.19C2.68,54.17,3.66,44,10.54,38.33c1.77-1.46,3.76-2.48,5.84-3.07
					c-4.23-6.85-2.75-15.8,3.47-20.92C25.91,9.33,34.72,9.43,40.66,14.56L40.66,14.56z M44.93,33.2c5.05,4.73,12.84,4.96,18.18,0.56
					c5.87-4.84,6.71-13.53,1.86-19.41s-13.53-6.71-19.41-1.87c-1.29,1.07-2.37,2.33-3.2,3.79C46.39,20.97,47.38,27.53,44.93,33.2
					L44.93,33.2z M12.03,40.14c-5.87,4.84-6.71,13.53-1.86,19.41s13.53,6.71,19.41,1.87c5.43-4.48,6.57-12.28,2.82-18.1
					C27.97,36.46,18.48,34.82,12.03,40.14L12.03,40.14z M33.05,40.25c2.15-0.47,4.14-1.44,5.83-2.84
					c5.87-4.84,6.71-13.53,1.86-19.41s-13.53-6.71-19.41-1.87c-5.57,4.59-6.66,12.72-2.48,18.6C24.21,34.1,29.53,36.15,33.05,40.25
					L33.05,40.25z M52.93,246.99c5.77-4.26,13.59-4.53,19.64-0.71c5.87-5.41,6.48-14.49,1.39-20.65
					c-8.6-10.44-25.36-5.04-26.63,8.14C46.85,238.83,48.97,243.82,52.93,246.99z M74.51,247.69c0.79,0.67,1.53,1.41,2.21,2.24
					c6.12,7.43,5.07,18.41-2.36,24.54c-7.43,6.12-18.41,5.06-24.53-2.36c-5.77-7-5.21-17.26,1.28-23.57
					c-3.75-3.17-6-7.73-6.19-12.66c-4.17,0.51-8.39-0.49-11.87-2.83c-0.4,4.68-2.64,8.96-6.27,11.95
					c-6.75,5.56-16.51,5.23-22.84-0.58c-1.26-1.16-0.75-1.26-1.78,0.06c-0.79,1.02-1.69,1.96-2.68,2.77
					c-7.43,6.12-18.41,5.06-24.53-2.36c-6.12-7.43-5.07-18.41,2.36-24.54c4.08-3.37,9.43-4.69,14.61-3.62
					c2.77,0.57,2.14,1.07,1.05-1.62c-2.86-7.04-0.82-15.15,5.06-20c3.23-2.66,7.3-4.07,11.49-3.97c1.05-2.57,2.74-4.92,5.03-6.8
					c6.13-5.05,14.92-5.32,21.34-0.64c0.9-1.17,1.95-2.21,3.11-3.12c-0.33-5.57,2-10.95,6.3-14.5c3.77-3.11,8.61-4.48,13.45-3.82
					c-0.52-5.74,1.81-11.34,6.27-15.02c3.71-3.06,8.32-4.33,12.75-3.9c0.67,0.06,1.34,0.17,2,0.31c-1.13-6.22,1.17-12.55,6.06-16.58
					c4.08-3.37,9.42-4.68,14.59-3.62c-0.53-5.75,1.8-11.39,6.26-15.07c7.43-6.12,18.41-5.06,24.53,2.36
					c2.99,3.62,4.38,8.26,3.88,12.93c0.06,0,0.12,0.01,0.17,0.02c4.44,0.43,8.72,2.55,11.78,6.26c2.72,3.3,4.02,7.3,3.98,11.27
					c-0.04,3.69-1.24,7.34-3.55,10.37c3.37,3.66,5.01,8.53,4.53,13.48c-0.39,4.09-2.22,8.04-5.4,11.02
					c0.27,0.28,0.53,0.58,0.78,0.88c6.12,7.43,5.07,18.41-2.36,24.54c-7.43,6.12-18.41,5.06-24.53-2.36
					c-3.06-3.71-4.33-8.32-3.9-12.76c0.39-4.09,2.22-8.04,5.4-11.03c-5.85-6.2-6.39-15.74-1.21-22.53
					c-3.41-3.71-5.05-8.64-4.52-13.65c-0.67-0.06-1.34-0.16-2-0.29c0.54,5.75-1.79,11.38-6.26,15.07c-4.12,3.39-9.54,4.7-14.75,3.59
					c1.13,6.21-1.17,12.54-6.06,16.58c-3.77,3.11-8.61,4.48-13.45,3.81c0.52,5.86-1.97,11.71-6.65,15.33
					c0.41,6.86-3.23,13.3-9.28,16.48c1.46,2.48,2.28,5.28,2.39,8.16c5.92-0.73,11.78,1.59,15.59,6.21
					C81.55,231.12,81,241.38,74.51,247.69L74.51,247.69z M53.69,249.39c-6.42,5.29-7.33,14.79-2.04,21.21
					c5.3,6.42,14.79,7.34,21.21,2.04c6.42-5.29,7.33-14.79,2.04-21.21C69.6,245.01,60.11,244.1,53.69,249.39L53.69,249.39z
					 M45,233.48c0.71-7.21,5.87-13.27,12.85-15.12c-0.05-3.44-1.26-6.72-3.44-9.38c-5.3-6.42-14.79-7.34-21.21-2.04
					c-3.21,2.65-5.04,6.35-5.41,10.18C26.85,226.83,35.31,234.92,45,233.48L45,233.48z M122.33,151.05
					c0.39-0.38,0.79-0.75,1.22-1.11c6.44-5.31,15.77-5.3,22.19,0.01c1.9-2.58,2.89-5.66,2.92-8.76c0.04-3.43-1.09-6.89-3.45-9.74
					c-2.65-3.21-6.35-5.05-10.19-5.42c-3.84-0.37-7.82,0.72-11.03,3.37C117.37,134.86,116.68,144.62,122.33,151.05L122.33,151.05z
					 M144.85,174.48c2.83-2.6,4.45-6.06,4.79-9.64c0.4-4.22-0.96-8.36-3.79-11.52c-5.37-5.98-14.54-6.72-20.8-1.56
					c-6.76,5.57-7.32,15.8-1.25,22.1C130.16,169.33,138.79,169.59,144.85,174.48L144.85,174.48z M124.34,176.43
					c-3.21,2.65-5.04,6.35-5.41,10.18c-0.37,3.84,0.73,7.82,3.38,11.03c5.3,6.42,14.79,7.34,21.21,2.04
					c6.42-5.29,7.33-14.79,2.04-21.21C140.26,172.05,130.76,171.13,124.34,176.43L124.34,176.43z M116.66,136.85
					c0.86-3.52,2.83-6.8,5.83-9.28c3.01-2.48,6.6-3.78,10.22-3.96c0.49-4.11-0.71-8.19-3.34-11.38c-5.3-6.42-14.79-7.34-21.21-2.04
					c-4.12,3.4-6.12,8.67-5.31,13.94c2.83,1.03,5.44,2.8,7.49,5.3c1.73,2.09,2.88,4.47,3.49,6.94
					C114.76,136.62,115.7,136.78,116.66,136.85L116.66,136.85z M92.55,154.95c4.84,1.46,10.04,0.41,13.94-2.8
					c6.42-5.29,7.33-14.79,2.04-21.21c-5.3-6.42-14.79-7.34-21.21-2.04c-4.56,3.76-6.5,9.81-4.97,15.52
					c2.72,1.04,5.22,2.78,7.2,5.19C90.89,151.24,91.89,153.05,92.55,154.95L92.55,154.95z M73.34,175.5
					c4.39,0.81,8.89-0.35,12.34-3.19c6.42-5.29,7.33-14.79,2.04-21.21c-2.65-3.21-6.35-5.05-10.19-5.42
					c-3.84-0.37-7.82,0.72-11.03,3.37c-4.05,3.34-6.06,8.51-5.34,13.7c3.77,1.07,7.02,3.36,9.32,6.53
					C71.88,171.2,72.82,173.32,73.34,175.5L73.34,175.5z M66.68,190.51c5.53-5.18,6.35-13.7,1.89-19.84
					c-5.11-7.03-15.09-8.31-21.79-2.78c-3.36,2.77-5.34,6.8-5.48,11.15c7.32-4.02,16.49-2.25,21.82,4.21
					C64.92,185.43,66.1,187.92,66.68,190.51L66.68,190.51z M34.66,203.15c-3.18-5.39-3.19-12.1-0.09-17.51
					c-5.55-4.1-13.2-3.88-18.53,0.51c-6.42,5.29-7.33,14.79-2.04,21.21c3.03,3.67,7.57,5.68,12.32,5.47
					c1.01-2.92,2.81-5.6,5.37-7.71C32.63,204.35,33.62,203.69,34.66,203.15L34.66,203.15z M56.46,207.79
					c8.57-4.34,11.04-15.55,4.85-23.05c-5.3-6.42-14.79-7.34-21.21-2.04c-5.79,4.77-7.19,13.1-3.27,19.49
					C43.87,199.63,51.8,201.87,56.46,207.79z M25.68,215.2c-5.23,0.01-10.16-2.3-13.49-6.34c-3.55-4.3-4.81-9.99-3.45-15.38
					c-3.39,0.08-6.6,1.28-9.21,3.44c-5.18,4.27-6.78,11.29-4.41,17.21c1.22,3.07,3.48,5.7,6.32,7.39c3.3-4.7,8.73-7.49,14.49-7.41
					c3.34,0.04,6.65,1.04,9.5,2.96c0-0.06,0.01-0.11,0.02-0.17C25.48,216.33,25.57,215.76,25.68,215.2L25.68,215.2z M30.77,231.21
					c-3.1-2.95-5.01-6.92-5.36-11.2c-2.72-2.3-6.1-3.5-9.52-3.54c-7.79-0.1-14.44,5.87-15.19,13.63
					c-1.27,13.18,14.16,21.68,24.59,13.07C28.86,240.23,30.87,235.83,30.77,231.21z M0.77,240.54c-2.07-3.33-2.78-6.95-2.42-10.67
					c0.19-1.99,0.72-3.94,1.58-5.77c-2.64-3.15-6.3-4.95-10.1-5.31c-3.84-0.37-7.82,0.72-11.03,3.37
					c-6.42,5.29-7.33,14.79-2.04,21.21c5.3,6.42,14.79,7.34,21.21,2.04c1-0.83,1.87-1.76,2.63-2.8
					C1.43,241.49,1.42,241.57,0.77,240.54L0.77,240.54z M-24.64,132.67c4.39-4.76,4.57-12.05,0.45-17.05
					c-4.56-5.53-12.75-6.32-18.28-1.76c-2.77,2.28-4.35,5.47-4.66,8.77s0.63,6.74,2.91,9.5c1.91,2.32,4.49,3.87,7.43,4.47
					c0.2-0.18,0.4-0.36,0.62-0.53C-32.94,133.4-28.79,132.19-24.64,132.67L-24.64,132.67z M-45.17,113.15
					c-0.48-1.07-1.09-2.04-1.83-2.95c-2.28-2.77-5.47-4.35-8.78-4.67c-3.31-0.32-6.74,0.62-9.5,2.91c-2.77,2.28-4.35,5.47-4.66,8.77
					c-0.29,3,0.46,6.1,2.31,8.72c2.25,3.18,5.73,5.2,9.65,5.48c3.19,0.22,6.46-0.73,9.16-2.89c-0.63-1.99-0.84-4.07-0.65-6.12
					C-49.15,119.01-47.7,115.72-45.17,113.15z"/>
			</g>
		</g>
	</g>
</g>
<g>
	
		<ellipse transform="matrix(0.9556 -0.2947 0.2947 0.9556 -13.983 25.3479)" class="st3" cx="77.13" cy="59.08" rx="12.22" ry="12.83"/>
	
		<ellipse transform="matrix(0.9556 -0.2947 0.2947 0.9556 -20.2118 22.5207)" class="st3" cx="64.63" cy="78.33" rx="12.22" ry="12.83"/>
	<g>
		<defs>
			
				<rect id="SVGID_00000083088120097632105720000005392584001034853311_" x="37.14" y="45.3" transform="matrix(0.9556 -0.2947 0.2947 0.9556 -17.6083 24.299)" width="69.38" height="50.57"/>
		</defs>
		<clipPath id="SVGID_00000088099601389820872780000017562681174416133553_">
			<use xlink:href="#SVGID_00000083088120097632105720000005392584001034853311_"  style="overflow:visible;"/>
		</clipPath>
		<g style="clip-path:url(#SVGID_00000088099601389820872780000017562681174416133553_);">
			<g>
				<path class="st2" d="M-78.73,62.21c-0.6,0.29-1.22,0.53-1.85,0.73c-0.08,1.09-0.28,2.15-0.59,3.17c-0.71,2.38-2,4.54-3.75,6.24
					c2.34,1.84,4.18,4.43,5.14,7.55c1.64,5.31,0.32,11.04-3.41,14.87c2.06,1.8,3.68,4.21,4.56,7.06c2.33,7.54-1.36,15.51-8.4,18.14
					c0.47,0.87,0.86,1.8,1.16,2.78c2.42,7.85-1.68,16.09-9.16,18.4s-15.5-2.19-17.93-10.05c-2.33-7.54,1.36-15.51,8.4-18.14
					c-0.48-0.88-0.87-1.82-1.16-2.78c-1.64-5.33-0.32-11.05,3.41-14.87c-2.13-1.86-3.71-4.31-4.56-7.06
					c-1.69-5.47-0.24-11.34,3.69-15.15c-0.89-0.71-1.72-1.52-2.45-2.43c-7.46,2.29-15.49-2.21-17.91-10.05
					c-2.42-7.85,1.68-16.09,9.16-18.4c5.11-1.58,10.68,0.01,14.44,4.02c0.98,1.04,0.67,1.11,0.9-0.32
					c0.87-5.44,4.59-9.85,9.66-11.42c7.76-2.39,16.05,2.55,18.14,10.81c0.6-0.29,1.22-0.53,1.87-0.73c3.74-1.15,7.62-0.6,10.86,1.21
					c3.24,1.82,5.86,4.91,7.07,8.83c0.32,1.05,0.53,2.14,0.63,3.23c7.31-1.83,14.88,2.68,17.21,10.24
					c2.04,6.62-0.54,13.71-6.21,17.09c1.21,1.02,2.28,2.25,3.14,3.66c1.49-0.23,3.01-0.21,4.51,0.05c-0.14-2.66,0.41-5.25,1.54-7.52
					c1.66-3.33,4.56-5.97,8.3-7.13c5.64-1.74,11.83,0.38,15.53,5.31c1.35-1.12,2.93-2,4.69-2.54c7.49-2.31,15.52,2.19,17.95,10.06
					c0.03,0.09,0.06,0.18,0.08,0.28c0.98-0.61,2.06-1.11,3.21-1.47c7.49-2.31,15.52,2.19,17.95,10.06s-1.68,16.11-9.17,18.42
					c-7.59,2.34-15.72-2.32-18.03-10.34c-1,0.62-2.08,1.12-3.21,1.47c-5.66,1.74-11.84-0.38-15.54-5.31
					c-1.38,1.15-2.98,2.02-4.69,2.55c-2.14,0.66-4.33,0.76-6.42,0.39c0.36,6.72-3.69,12.75-9.84,14.65
					c-6.15,1.9-12.87-0.79-16.36-6.52c-6.98,1.08-13.81-3.41-15.99-10.49c-2.04-6.62,0.54-13.72,6.21-17.09
					c-2.22-1.88-3.87-4.39-4.74-7.21c-0.33-1.08-0.54-2.16-0.64-3.24c-3.41,0.83-6.88,0.32-9.86-1.25
					C-74.93,69.98-77.67,66.42-78.73,62.21L-78.73,62.21z M69.12,142.53c0.22,0.72-0.82,1.04-1.04,0.32
					c-1.41-4.56,2.8-5.39,0.58-9.7c-0.34-0.67,0.62-1.18,0.96-0.52C72.19,137.62,67.88,138.48,69.12,142.53z M-7.13,163.82
					c0.04,0.75-1.05,0.78-1.09,0.03c-0.21-4.17,2.52-3.72,3.3-6.02c0.24-0.7,1.26-0.29,1.03,0.4
					C-4.75,160.75-7.3,160.43-7.13,163.82L-7.13,163.82z M-18.7,192.7c0.58,0.45-0.05,1.36-0.63,0.91c-1.81-1.39-3.06-3.22-3.59-5.5
					c-0.17-0.73,0.89-0.97,1.06-0.24C-21.39,189.86-20.29,191.47-18.7,192.7z M-47.06,165.56c0.4,0.63-0.5,1.24-0.9,0.61
					c-1.2-1.86-1.23-4.69-0.08-6.51c0.39-0.61,1.3,0.03,0.92,0.64C-48.04,161.75-48.01,164.08-47.06,165.56L-47.06,165.56z
					 M-44.14,194.25c0.71-0.11,0.9,1.01,0.19,1.12c-2.12,0.33-3.77-0.14-4.66-2.34c-0.45-1.11-0.67-2.29-1.7-2.87
					c-0.64-0.36-0.14-1.36,0.5-1c1.43,0.81,1.71,2.21,2.16,3.35C-46.95,194.27-45.82,194.51-44.14,194.25z M40.7,155.78
					c-0.68,0.21-1.02-0.88-0.34-1.09c1.46-0.45,2.87-1.99,3.33-3.49c0.21-0.71,1.26-0.34,1.04,0.37
					C44.17,153.42,42.5,155.23,40.7,155.78z M7.52,205.23c-0.23-0.71,0.8-1.05,1.03-0.34c0.71,2.13,0.8,4.55-0.04,6.6
					c-0.28,0.68-1.28,0.21-1-0.47C8.24,209.23,8.14,207.08,7.52,205.23L7.52,205.23z M-15.12,239.06c-0.52-0.53,0.24-1.33,0.76-0.79
					c1.25,1.3,3.74,1.94,5.44,1.98c0.72,0.02,0.73,1.15,0.01,1.14C-10.9,241.34-13.65,240.57-15.12,239.06L-15.12,239.06z
					 M66.67,195.45c-0.03-0.75,1.07-0.76,1.09-0.01c0.1,2.98,3.07,2.68,3.95,5.5c0.22,0.72-0.82,1.04-1.04,0.32
					C69.92,198.83,66.8,199.23,66.67,195.45L66.67,195.45z M93.02,178.16c-0.55,0.46-1.25-0.43-0.69-0.89
					c2.67-2.23-0.54-4.87,2.05-8.32c0.44-0.58,1.3,0.14,0.87,0.71C92.92,172.75,96.36,175.37,93.02,178.16L93.02,178.16z
					 M101.87,155.34c-0.31,0.67-1.29,0.15-0.99-0.51c0.84-1.82,0.77-4.54-0.32-6.3c-0.39-0.64,0.52-1.23,0.91-0.59
					C102.77,150.03,102.86,153.16,101.87,155.34L101.87,155.34z M87.24,118.35c-0.22-0.72,0.82-1.04,1.04-0.32
					c1.01,3.27,5.28,1.9,5.92,7.25c0.09,0.74-0.99,0.86-1.08,0.11C92.56,120.77,88.44,122.25,87.24,118.35L87.24,118.35z
					 M22.79,160.92c-0.31,0.67-1.29,0.15-0.99-0.51c1.56-3.39-1.77-5.31-0.83-9.04c0.18-0.72,1.23-0.4,1.05,0.32
					C21.19,155.02,24.65,156.88,22.79,160.92L22.79,160.92z M-28.17,155.96c-0.02,0.75-1.12,0.68-1.09-0.07
					c0.14-4.21,3.47-3.2,4.38-5.69c0.25-0.69,1.27-0.26,1.02,0.43C-24.92,153.54-28.06,152.59-28.17,155.96z M-68.51,187.46
					c0.32,0.68-0.65,1.16-0.97,0.48c-1.4-2.91-4.94-1.89-6.06-5.53c-0.22-0.72,0.82-1.04,1.04-0.32
					C-73.61,185.02-70.11,184.15-68.51,187.46L-68.51,187.46z M62.94,86.16c-0.61-0.41-0.04-1.36,0.57-0.95
					c1.34,0.89,3.37,0.48,4.52-0.5c0.55-0.47,1.25,0.42,0.71,0.89C67.23,86.88,64.69,87.32,62.94,86.16z M80.47,51.53
					c-0.09-0.74,0.99-0.86,1.08-0.12c0.47,3.73,5.16,3.11,4.87,8.48c-0.04,0.74-1.13,0.65-1.09-0.09
					C85.58,55.2,81.03,55.9,80.47,51.53L80.47,51.53z M72.58,14.66c0.57-0.44,1.24,0.47,0.67,0.92c-3.12,2.45,0.53,6.16-4.32,8.36
					c-0.65,0.29-1.11-0.75-0.46-1.05C72.53,21.05,68.96,17.51,72.58,14.66L72.58,14.66z M35.59,7.74c0.32,0.68-0.65,1.16-0.97,0.48
					c-0.98-2.04-0.24-3.09,1.23-4.39c0.66-0.59,1.41-1.26,1.04-2.47c-0.22-0.72,0.82-1.04,1.04-0.32c0.59,1.92-0.45,2.85-1.36,3.66
					C35.51,5.65,34.86,6.22,35.59,7.74L35.59,7.74z M17.89,33.06c-0.38-0.64,0.54-1.22,0.92-0.58c1.39,2.33,3.11,4.03,5.87,3.93
					c0.72-0.03,0.79,1.11,0.07,1.14C21.57,37.67,19.5,35.76,17.89,33.06L17.89,33.06z M-108.07,128.37c0-0.75,1.09-0.72,1.09,0.03
					c0,1.67,1.27,3.71,2.84,4.24c0.69,0.23,0.38,1.31-0.31,1.08C-106.48,133.04-108.07,130.54-108.07,128.37L-108.07,128.37z
					 M-86.54,112.32c-0.05,0.74-1.14,0.64-1.09-0.11c0.13-2.01,1.81-2.25,2.88-3.34c1.04-1.07,1.06-1.91,0.52-3.32
					c-0.27-0.7,0.74-1.1,1.01-0.4c0.71,1.84,0.6,3.15-0.76,4.54C-84.78,110.51-86.46,111.06-86.54,112.32L-86.54,112.32z
					 M-90.01,77.17c-0.22-0.72,0.82-1.04,1.04-0.32c0.3,0.98,3.77,0.9,3.61,4.46c-0.03,0.74-1.12,0.66-1.09-0.08
					C-86.33,78.48-89.45,78.99-90.01,77.17z M-116.49,60.17c0.37,0.65-0.57,1.21-0.94,0.56c-1.42-2.5-1.69-6.34,0.13-8.6
					c0.45-0.56,1.3,0.18,0.84,0.74C-117.97,54.77-117.67,58.1-116.49,60.17L-116.49,60.17z M-98.56,66.41
					c0.22,0.72-0.82,1.04-1.04,0.32c-0.73-2.38-3.42-1.65-3.63-4.89c-0.05-0.75,1.04-0.8,1.09-0.05
					C-101.99,64.17-99.42,63.62-98.56,66.41z M-85.78,40.54c-0.68,0.21-1.02-0.88-0.34-1.09c3.6-1.11,3.83,2.26,5.99,2.01
					c0.71-0.08,0.86,1.05,0.15,1.13C-82.84,42.91-82.87,39.64-85.78,40.54z M-69.04,64.89c0.65,0.33,0.2,1.35-0.45,1.02
					c-2.77-1.39-1.14-2.96-2.65-4.09c-0.9-0.67-1.57-1.66-1.52-2.84c0.03-0.75,1.12-0.67,1.09,0.08c-0.03,0.78,0.46,1.41,1.05,1.84
					C-69.5,62.41-71.14,63.83-69.04,64.89L-69.04,64.89z M-43.27,65.39c-0.65-0.33-0.2-1.35,0.46-1.02c1.77,0.9,3.18,3.09,3.64,5.03
					c0.18,0.73-0.88,0.98-1.06,0.25C-40.61,68.05-41.8,66.14-43.27,65.39L-43.27,65.39z M-53.56,99.21c0.45,0.59-0.39,1.29-0.85,0.7
					c-2.89-3.77,0.18-4.37-0.87-7.54c-0.23-0.71,0.8-1.05,1.03-0.34C-53.1,95.49-55.93,96.12-53.56,99.21z M-35.34,111.77
					c0.35,0.66-0.61,1.19-0.96,0.52c-0.89-1.7-3.83-0.58-4.9-4.12c-0.22-0.72,0.82-1.03,1.04-0.32
					C-39.3,110.73-36.55,109.48-35.34,111.77L-35.34,111.77z M-25.09,86.32c0.22,0.72-0.82,1.04-1.04,0.32
					c-1.35-4.39,4.54-4.1,4.72-6.71c0.05-0.74,1.14-0.63,1.09,0.11C-20.56,83.49-26.09,83.08-25.09,86.32L-25.09,86.32z
					 M-5.64,92.83c0.31,0.68-0.67,1.15-0.98,0.47c-1.42-3.08,1.4-4.05,0.6-6.65c-0.22-0.72,0.82-1.04,1.04-0.32
					C-4.03,89.41-6.74,90.43-5.64,92.83L-5.64,92.83z M26.51,92.38c-0.1-0.32,0.08-0.66,0.41-0.72c0.28-0.05,0.55,0.13,0.64,0.41
					c0.92,2.95,5.15,2.75,5.06,7.29c-0.01,0.75-1.1,0.69-1.09-0.05C31.6,95.61,27.55,95.73,26.51,92.38L26.51,92.38z M60.84,66.37
					c-6.34,1.95-9.81,8.94-7.76,15.59s8.85,10.47,15.19,8.51c6.34-1.95,9.81-8.94,7.76-15.59C73.98,68.23,67.18,64.42,60.84,66.37
					L60.84,66.37z M60.16,64.19c1.15-0.36,2.32-0.55,3.48-0.59c-2.64-7.9,1.52-16.37,9.08-18.7c7.49-2.31,15.52,2.19,17.95,10.06
					c2.42,7.86-1.68,16.11-9.17,18.42c-1.12,0.35-2.3,0.54-3.48,0.59c2.61,7.93-1.48,16.36-9.08,18.7
					C61.46,94.97,53.42,90.47,51,82.61C48.57,74.74,52.68,66.5,60.16,64.19L60.16,64.19z M65.99,63.71
					c4.67,0.63,8.84,3.62,11.08,7.99c1.28,0.04,2.53-0.13,3.75-0.51c6.34-1.95,9.81-8.94,7.76-15.59s-8.85-10.47-15.19-8.51
					C66.65,49.16,63.24,56.87,65.99,63.71L65.99,63.71z M14.06,88.77c-0.02-0.08-0.04-0.17-0.06-0.25
					c-0.06-0.25-0.13-0.52-0.22-0.81c-2.05-6.66-8.85-10.47-15.19-8.51c-6.34,1.95-9.81,8.94-7.76,15.59
					c2.05,6.66,8.85,10.47,15.19,8.51c1.22-0.38,2.35-0.93,3.39-1.69c-0.38-3.04,0.16-6.03,1.45-8.6
					C11.64,91.41,12.73,89.96,14.06,88.77L14.06,88.77z M19.82,88.07c-3.17,0.98-5.62,3.21-7.03,6.03
					c-4.9,9.85,4.36,21.19,14.46,18.07c6.34-1.95,9.81-8.94,7.76-15.59C32.96,89.93,26.16,86.11,19.82,88.07L19.82,88.07z
					 M-8.37,81.1c-3.11-4.3-8.43-6.16-13.28-4.66c-3.17,0.98-5.62,3.21-7.03,6.03c-1.4,2.82-1.76,6.23-0.73,9.56
					c2.05,6.66,8.85,10.47,15.19,8.51c1.52-0.47,2.92-1.24,4.13-2.28c-0.48-0.88-0.88-1.83-1.18-2.83
					C-12.82,90.37-11.71,84.93-8.37,81.1z M-31.85,91.27c-2.03-0.48-4.09-0.4-6.05,0.21c-3.17,0.98-5.62,3.21-7.03,6.03
					c-4.9,9.85,4.36,21.19,14.46,18.07c5.43-1.67,8.9-7.13,8.28-13.05c-4.41-1.57-7.87-5.22-9.3-9.86
					C-31.63,92.2-31.75,91.73-31.85,91.27L-31.85,91.27z M-38.92,89.4c-3.07-4.42-8.48-6.37-13.4-4.85
					c-6.33,1.95-9.8,8.92-7.75,15.57c1.76,5.72,7.13,9.48,12.82,8.97c-1.71-4.13-1.58-8.75,0.37-12.67
					C-45.27,93.18-42.5,90.6-38.92,89.4L-38.92,89.4z M-88.3,117.99c6.23-2.03,9.61-8.94,7.58-15.52c-1.02-3.32-3.24-5.94-5.98-7.48
					c-2.75-1.54-6.03-2-9.19-1.03c-6.33,1.95-9.8,8.92-7.75,15.57c0.3,0.98,0.72,1.93,1.24,2.81
					C-97.13,111.32-91.66,113.52-88.3,117.99z M-103.12,114.89c-6.33,1.95-9.8,8.92-7.75,15.57c2.05,6.65,8.84,10.45,15.17,8.5
					c6.33-1.95,9.8-8.92,7.75-15.57C-90,116.74-96.8,112.94-103.12,114.89L-103.12,114.89z M-85.02,93.4
					c3.36-3.23,4.58-8.22,3.15-12.86c-1.02-3.32-3.24-5.94-5.98-7.48c-2.75-1.54-6.03-2-9.19-1.03c-6.33,1.95-9.8,8.92-7.75,15.57
					c0.76,2.47,2.19,4.62,4.15,6.23c1.2-0.89,2.57-1.59,4.07-2.06C-92.7,90.59-88.53,91.18-85.02,93.4L-85.02,93.4z M-86.86,71.06
					c1.7-1.5,2.95-3.47,3.6-5.67c0.7-2.35,0.73-4.97-0.06-7.54c-1.02-3.32-3.24-5.94-5.98-7.48c-2.75-1.54-6.03-2-9.19-1.03
					c-3.16,0.98-5.61,3.21-7.02,6.02c-2.15,4.33-1.62,9.68,1.33,13.6c0.79,1.04,1.72,1.95,2.76,2.69c1.11-0.77,2.36-1.38,3.71-1.8
					C-93.97,68.7-90.1,69.25-86.86,71.06L-86.86,71.06z M-80.59,60.53c0.5-0.19,0.98-0.41,1.45-0.67c-0.28-2.89,0.27-5.71,1.49-8.16
					c1.03-2.08,2.55-3.88,4.45-5.23c-1.51-7.31-8.66-11.88-15.5-9.78c-4,1.23-7.01,4.54-8,8.76c-0.37,1.58-0.31,1.16,1.06,1.11
					c2.58-0.09,5.1,0.56,7.33,1.81c3.24,1.82,5.86,4.91,7.07,8.83C-80.9,58.31-80.68,59.43-80.59,60.53L-80.59,60.53z
					 M-102.44,46.88c-3.14-2.71-7.36-3.68-11.26-2.48c-6.33,1.95-9.8,8.92-7.75,15.57c1.97,6.38,8.3,10.18,14.47,8.69
					c-2.53-4.45-2.71-9.89-0.48-14.39c1.11-2.23,2.77-4.14,4.87-5.51C-101.23,47.88-100.87,48.23-102.44,46.88L-102.44,46.88z
					 M54.75,3.6c1.29-0.95,2.74-1.69,4.27-2.16c7.87-2.43,16.32,2.31,18.86,10.57s-1.77,16.93-9.64,19.36
					c-6.94,2.14-14.5-1.29-17.88-8.1c-1.26,0.93-2.7,1.67-4.27,2.16c-1.96,0.6-4.03,0.78-6.08,0.51
					c1.32,7.69-3.02,15.07-10.13,17.27c-7.87,2.43-16.32-2.31-18.86-10.57c-2.55-8.26,1.77-16.93,9.64-19.36
					c2.03-0.62,4.09-0.77,6.08-0.51C25.42,5.08,29.75-2.31,36.86-4.5C43.81-6.64,51.37-3.21,54.75,3.6L54.75,3.6z M52.07,21.78
					c2.74,6.12,9.39,9.28,15.5,7.4c6.72-2.07,10.4-9.47,8.23-16.53c-2.18-7.06-9.39-11.1-16.11-9.03c-1.48,0.46-2.84,1.17-4.05,2.15
					C57.5,11.47,56.12,17.67,52.07,21.78L52.07,21.78z M21.32,15.45c-6.72,2.07-10.4,9.47-8.23,16.53s9.39,11.1,16.11,9.03
					c6.22-1.92,9.86-8.42,8.61-15C36.33,18.24,28.7,13.17,21.32,15.45L21.32,15.45z M39.42,23.53c2.01,0.4,4.06,0.29,6-0.31
					c6.72-2.07,10.4-9.47,8.23-16.53S44.26-4.4,37.54-2.33c-6.37,1.96-10.08,8.77-8.49,15.58C33.89,14.71,37.78,18.55,39.42,23.53
					L39.42,23.53z M-13.94,214.69c6.44-1.6,13.27,1.13,17.19,6.82c6.91-2.58,10.53-10.41,8.25-17.81
					c-3.87-12.53-20.16-14.1-25.75-2.88C-16.4,205.14-16.28,210.37-13.94,214.69z M4.43,223.51c0.45,0.89,0.84,1.84,1.14,2.83
					c2.75,8.92-1.91,18.28-10.4,20.9c-8.5,2.62-17.61-2.49-20.36-11.41c-2.59-8.4,1.39-17.31,9.15-20.45
					c-2.16-4.24-2.54-9.15-1.02-13.59c-3.77-1.13-7.07-3.62-9.28-7.02c-1.94,4-5.34,6.95-9.49,8.23
					c-7.72,2.38-16.03-1.62-19.51-9.19c-0.7-1.51-0.22-1.41-1.55-0.62c-1.03,0.61-2.13,1.1-3.26,1.44
					c-8.5,2.62-17.61-2.49-20.36-11.41c-2.75-8.92,1.91-18.28,10.4-20.9c4.67-1.44,9.74-0.58,13.84,2.33
					c2.19,1.56,1.48,1.76,1.46-1.04c-0.07-7.34,4.46-13.77,11.19-15.84c3.7-1.14,7.69-0.84,11.27,0.83
					c1.79-1.88,4.04-3.33,6.66-4.14c7.01-2.16,14.69,0.94,18.63,7.53c1.18-0.7,2.44-1.23,3.75-1.59c1.61-5.07,5.46-8.97,10.38-10.48
					c4.31-1.33,8.96-0.71,12.91,1.71c1.51-5.3,5.43-9.39,10.53-10.96c4.25-1.31,8.65-0.69,12.34,1.38c0.56,0.31,1.1,0.66,1.62,1.03
					c1.15-5.95,5.29-10.7,10.88-12.42c4.67-1.44,9.73-0.58,13.83,2.32c1.5-5.31,5.44-9.44,10.54-11.01
					c8.5-2.62,17.61,2.49,20.36,11.41c1.34,4.35,0.96,9-1.06,12.96c0.05,0.03,0.1,0.05,0.15,0.08c3.69,2.07,6.65,5.57,8.03,10.03
					c1.22,3.96,0.98,8.01-0.41,11.52c-1.29,3.26-3.58,6.05-6.6,7.87c1.66,4.53,1.41,9.47-0.69,13.69c-1.73,3.48-4.66,6.29-8.42,7.74
					c0.13,0.35,0.26,0.71,0.37,1.08c2.75,8.92-1.91,18.28-10.4,20.9c-8.5,2.62-17.61-2.49-20.36-11.41
					c-1.38-4.46-0.9-9.03,0.98-12.81c1.73-3.48,4.66-6.29,8.42-7.74c-2.93-7.72-0.14-16.4,6.64-20.47
					c-1.68-4.59-1.41-9.59,0.76-13.84c-0.56-0.31-1.1-0.65-1.63-1.02c-1.5,5.31-5.43,9.43-10.55,11.01
					c-4.71,1.45-9.83,0.56-13.95-2.41c-1.14,5.94-5.28,10.7-10.88,12.42c-4.31,1.33-8.96,0.71-12.9-1.72
					c-1.55,5.41-5.7,9.65-10.97,11.09c-1.98,6.25-7.32,10.59-13.63,11.11c0.41,2.76,0.16,5.56-0.72,8.16
					c5.35,1.6,9.63,5.89,11.34,11.44C16.17,211.46,12.19,220.37,4.43,223.51L4.43,223.51z M-14.11,217.11
					c-7.35,2.27-11.37,10.35-8.99,18.07s10.26,12.13,17.61,9.87c7.35-2.27,11.37-10.35,8.99-18.07
					C1.12,219.27-6.77,214.85-14.11,217.11L-14.11,217.11z M-16.18,199.69c3.08-6.14,9.59-9.56,16.24-8.55
					c1.13-3.07,1.21-6.45,0.23-9.63c-2.38-7.71-10.26-12.13-17.61-9.87c-3.67,1.13-6.52,3.72-8.14,6.99
					C-29.57,186.89-25.03,197.28-16.18,199.69L-16.18,199.69z M78.66,155.82c0.46-0.2,0.94-0.37,1.43-0.52
					c7.37-2.27,15.41,1.27,19.14,8.43c2.52-1.57,4.42-3.93,5.51-6.68c1.2-3.03,1.41-6.53,0.35-9.96c-1.19-3.86-3.75-6.89-6.94-8.68
					s-6.99-2.32-10.67-1.19C79.91,139.56,75.97,147.97,78.66,155.82L78.66,155.82z M90.11,185.18c3.32-1.23,5.9-3.69,7.42-6.75
					c1.79-3.59,2.02-7.79,0.66-11.67c-2.59-7.35-10.26-11.48-17.41-9.28c-7.73,2.38-11.7,11.25-8.62,19.16
					C79.18,175.03,86.54,178.53,90.11,185.18L90.11,185.18z M71.74,179.12c-3.67,1.13-6.52,3.72-8.14,6.99
					c-1.63,3.27-2.04,7.22-0.85,11.08c2.38,7.71,10.26,12.13,17.61,9.87s11.37-10.35,8.99-18.07
					C86.97,181.28,79.08,176.86,71.74,179.12L71.74,179.12z M78.61,141.06c1.94-2.8,4.76-4.96,8.2-6.03
					c3.44-1.06,6.99-0.85,10.17,0.36c1.82-3.46,2.18-7.54,1-11.38c-2.38-7.71-10.26-12.13-17.61-9.87
					c-4.71,1.45-8.24,5.37-9.34,10.37c2.09,1.99,3.73,4.55,4.66,7.55c0.78,2.52,0.96,5.07,0.64,7.49
					C77.05,140.14,77.81,140.64,78.61,141.06L78.61,141.06z M51.64,147.98c3.68,3.13,8.52,4.17,12.98,2.8
					c7.35-2.27,11.37-10.35,8.99-18.07c-2.38-7.71-10.26-12.13-17.61-9.87c-5.21,1.61-8.96,6.25-9.59,11.9
					c1.99,1.96,3.55,4.45,4.44,7.34C51.47,144.05,51.72,146.05,51.64,147.98L51.64,147.98z M28.05,158.94
					c3.51,2.39,7.79,3.07,11.74,1.85c7.35-2.27,11.37-10.35,8.99-18.07c-1.19-3.86-3.75-6.89-6.94-8.68
					c-3.19-1.79-6.99-2.32-10.67-1.19c-4.63,1.43-8.13,5.26-9.28,10.14c2.89,2.38,4.91,5.65,5.81,9.33
					C28.25,154.57,28.35,156.81,28.05,158.94L28.05,158.94z M17.19,169.75c6.54-2.5,10.15-9.76,8.39-16.9
					c-2.01-8.19-10.18-13.11-17.85-10.74c-3.84,1.19-6.93,4.01-8.53,7.82c7.68-0.79,15,4.26,17.39,12.02
					C17.4,164.57,17.57,167.23,17.19,169.75L17.19,169.75z M-14.75,168.82c-0.9-6,1.37-11.96,5.89-15.58
					c-3.39-5.75-10.07-8.46-16.16-6.58c-7.35,2.27-11.37,10.35-8.99,18.07c1.36,4.41,4.59,7.92,8.76,9.53
					c1.87-2.21,4.34-3.91,7.26-4.81C-16.92,169.12-15.84,168.91-14.75,168.82L-14.75,168.82z M2.47,181.22
					c8.87-0.6,14.83-9.62,12.05-18.64c-2.38-7.71-10.26-12.13-17.61-9.87c-6.62,2.04-10.67,8.9-9.47,16.07
					C-5.6,169.19,0.47,174.19,2.47,181.22z M-26.62,176.12c-4.52-1.98-7.98-5.9-9.48-10.75c-1.59-5.17-0.74-10.7,2.27-14.97
					c-2.95-1.22-6.13-1.36-9.12-0.44c-5.93,1.83-9.7,7.46-9.68,13.62c0.01,3.19,1.05,6.38,2.93,8.96
					c4.45-2.92,10.09-3.33,15.03-1.08c2.87,1.31,5.38,3.45,7.19,6.23c0.02-0.05,0.05-0.1,0.07-0.14
					C-27.17,177.05-26.9,176.57-26.62,176.12L-26.62,176.12z M-27.68,192.26c-1.67-3.8-1.96-8.05-0.81-11.98
					c-1.56-3.07-4.07-5.42-7.01-6.76c-6.68-3.05-14.46-0.27-17.75,6.34c-5.59,11.22,4.82,24.63,16.76,20.95
					C-32.41,199.55-29.17,196.41-27.68,192.26z M-56.75,189.17c-0.66-3.74-0.03-7.23,1.55-10.4c0.84-1.69,1.97-3.23,3.33-4.52
					c-1.21-3.8-3.75-6.79-6.9-8.55c-3.19-1.79-6.99-2.32-10.67-1.19c-7.35,2.27-11.37,10.35-8.99,18.07
					c2.38,7.71,10.26,12.13,17.61,9.87c1.15-0.35,2.22-0.85,3.23-1.49C-56.51,190.26-56.55,190.33-56.75,189.17L-56.75,189.17z
					 M-41.88,83.72c5.41-2.56,8.06-8.97,6.21-14.97c-2.05-6.65-8.84-10.45-15.17-8.5c-3.16,0.98-5.61,3.21-7.02,6.02
					c-1.4,2.82-1.76,6.22-0.73,9.54c0.86,2.78,2.55,5.14,4.89,6.79c0.23-0.09,0.47-0.17,0.71-0.24
					C-49.29,81.22-45.3,81.71-41.88,83.72L-41.88,83.72z M-52.94,58.58c-0.05-1.13-0.24-2.23-0.58-3.31
					c-1.02-3.32-3.24-5.94-5.98-7.48c-2.75-1.54-6.03-2-9.19-1.03c-3.16,0.98-5.61,3.21-7.02,6.02c-1.27,2.56-1.68,5.6-0.98,8.62
					c0.85,3.68,3.17,6.8,6.46,8.53c2.67,1.41,5.83,1.8,8.89,0.91c0.13-2.01,0.66-3.94,1.53-5.68
					C-58.37,62.28-55.99,59.91-52.94,58.58z"/>
			</g>
		</g>
	</g>
</g>
<g>
</g>
<g>
</g>
<g>
</g>
<g>
</g>
<g>
</g>
<g>
</g>
</svg>
