<?xml version="1.0" encoding="utf-8" standalone="no"?>
<!DOCTYPE svg PUBLIC "-//W3C//DTD SVG 1.1//EN"
  "http://www.w3.org/Graphics/SVG/1.1/DTD/svg11.dtd">
<!-- Created with matplotlib (https://matplotlib.org/) -->
<svg height="323.712pt" version="1.1" viewBox="0 0 427.92 323.712" width="427.92pt" xmlns="http://www.w3.org/2000/svg" xmlns:xlink="http://www.w3.org/1999/xlink">
 <metadata>
  <rdf:RDF xmlns:cc="http://creativecommons.org/ns#" xmlns:dc="http://purl.org/dc/elements/1.1/" xmlns:rdf="http://www.w3.org/1999/02/22-rdf-syntax-ns#">
   <cc:Work>
    <dc:type rdf:resource="http://purl.org/dc/dcmitype/StillImage"/>
    <dc:date>2025-04-23T16:25:54.297656</dc:date>
    <dc:format>image/svg+xml</dc:format>
    <dc:creator>
     <cc:Agent>
      <dc:title>Matplotlib v3.3.4, https://matplotlib.org/</dc:title>
     </cc:Agent>
    </dc:creator>
   </cc:Work>
  </rdf:RDF>
 </metadata>
 <defs>
  <style type="text/css">*{stroke-linecap:butt;stroke-linejoin:round;}</style>
 </defs>
 <g id="figure_1">
  <g id="patch_1">
   <path d="M 0 323.712 
L 427.92 323.712 
L 427.92 0 
L 0 0 
z
" style="fill:#ffffff;"/>
  </g>
  <g id="axes_1">
   <g id="patch_2">
    <path d="M 63.6 286.712 
L 420.72 286.712 
L 420.72 20.6 
L 63.6 20.6 
z
" style="fill:#ffffff;"/>
   </g>
   <g id="PolyCollection_1">
    <defs>
     <path d="M 79.832727 -49.096042 
L 79.832727 -49.096 
L 98.930053 -53.929018 
L 118.02738 -58.512147 
L 137.124706 -62.874376 
L 156.222032 -71.932791 
L 175.319358 -80.097008 
L 194.416684 -92.193507 
L 213.514011 -99.090849 
L 232.611337 -102.776468 
L 251.708663 -108.036067 
L 270.805989 -108.44669 
L 289.903316 -107.877524 
L 309.000642 -97.247402 
L 328.097968 -80.574821 
L 347.195294 -65.99618 
L 366.29262 -56.944436 
L 385.389947 -52.327227 
L 404.487273 -50.256534 
L 404.487273 -50.333137 
L 404.487273 -50.333137 
L 385.389947 -52.561683 
L 366.29262 -57.645571 
L 347.195294 -68.270056 
L 328.097968 -86.030625 
L 309.000642 -104.225178 
L 289.903316 -116.110169 
L 270.805989 -112.042072 
L 251.708663 -110.033786 
L 232.611337 -103.414521 
L 213.514011 -99.344756 
L 194.416684 -92.193583 
L 175.319358 -80.097008 
L 156.222032 -71.932791 
L 137.124706 -62.874376 
L 118.02738 -58.512147 
L 98.930053 -53.929075 
L 79.832727 -49.096042 
z
" id="mcc81e19432" style="stroke:#d41645;stroke-opacity:0.5;"/>
    </defs>
    <g clip-path="url(#pb33adc3b6a)">
     <use style="fill:#d41645;fill-opacity:0.5;stroke:#d41645;stroke-opacity:0.5;" x="0" xlink:href="#mcc81e19432" y="323.712"/>
    </g>
   </g>
   <g id="PolyCollection_2">
    <defs>
     <path d="M 79.832727 -49.182364 
L 79.832727 -49.173725 
L 98.930053 -53.86274 
L 118.02738 -56.645564 
L 137.124706 -58.987448 
L 156.222032 -60.803463 
L 175.319358 -62.903331 
L 194.416684 -65.809474 
L 213.514011 -72.50864 
L 232.611337 -79.453958 
L 251.708663 -84.856342 
L 270.805989 -91.794042 
L 289.903316 -101.700139 
L 309.000642 -112.209808 
L 328.097968 -116.625997 
L 347.195294 -111.756083 
L 366.29262 -93.621581 
L 385.389947 -80.511342 
L 404.487273 -70.690505 
L 404.487273 -72.57168 
L 404.487273 -72.57168 
L 385.389947 -84.16628 
L 366.29262 -100.329358 
L 347.195294 -124.32762 
L 328.097968 -129.648786 
L 309.000642 -121.983475 
L 289.903316 -106.73819 
L 270.805989 -95.996062 
L 251.708663 -88.255882 
L 232.611337 -82.331892 
L 213.514011 -74.423617 
L 194.416684 -67.164779 
L 175.319358 -63.728881 
L 156.222032 -61.629652 
L 137.124706 -59.543518 
L 118.02738 -57.139356 
L 98.930053 -54.087258 
L 79.832727 -49.182364 
z
" id="m9232d0b67c" style="stroke:#193f90;stroke-opacity:0.5;"/>
    </defs>
    <g clip-path="url(#pb33adc3b6a)">
     <use style="fill:#193f90;fill-opacity:0.5;stroke:#193f90;stroke-opacity:0.5;" x="0" xlink:href="#m9232d0b67c" y="323.712"/>
    </g>
   </g>
   <g id="PolyCollection_3">
    <defs>
     <path d="M 79.832727 -68.351429 
L 79.832727 -66.960426 
L 98.930053 -102.388114 
L 118.02738 -113.037831 
L 137.124706 -125.962005 
L 156.222032 -143.948869 
L 175.319358 -164.785065 
L 194.416684 -175.519035 
L 213.514011 -177.848336 
L 232.611337 -185.857152 
L 251.708663 -194.796749 
L 270.805989 -197.186286 
L 289.903316 -203.68048 
L 309.000642 -203.176088 
L 328.097968 -210.641355 
L 347.195294 -211.720952 
L 366.29262 -208.049005 
L 385.389947 -201.577265 
L 404.487273 -199.014846 
L 404.487273 -245.173293 
L 404.487273 -245.173293 
L 385.389947 -222.729098 
L 366.29262 -222.972525 
L 347.195294 -223.111797 
L 328.097968 -225.637402 
L 309.000642 -215.724942 
L 289.903316 -213.52727 
L 270.805989 -205.152313 
L 251.708663 -217.577985 
L 232.611337 -210.109024 
L 213.514011 -199.991128 
L 194.416684 -198.274819 
L 175.319358 -184.86446 
L 156.222032 -161.481863 
L 137.124706 -138.312063 
L 118.02738 -116.63598 
L 98.930053 -105.507696 
L 79.832727 -68.351429 
z
" id="m34ed15d819" style="stroke:#18974c;stroke-opacity:0.5;"/>
    </defs>
    <g clip-path="url(#pb33adc3b6a)">
     <use style="fill:#18974c;fill-opacity:0.5;stroke:#18974c;stroke-opacity:0.5;" x="0" xlink:href="#m34ed15d819" y="323.712"/>
    </g>
   </g>
   <g id="PolyCollection_4">
    <defs>
     <path d="M 79.832727 -74.059416 
L 79.832727 -72.40311 
L 98.930053 -92.415744 
L 118.02738 -107.661487 
L 137.124706 -149.36722 
L 156.222032 -178.244705 
L 175.319358 -184.042116 
L 194.416684 -215.496743 
L 213.514011 -254.598977 
L 232.611337 -248.484629 
L 251.708663 -263.716492 
L 270.805989 -266.085482 
L 289.903316 -267.813954 
L 309.000642 -225.353354 
L 328.097968 -239.140989 
L 347.195294 -272.411924 
L 366.29262 -272.48001 
L 385.389947 -289.203492 
L 404.487273 -286.77861 
L 404.487273 -288.791093 
L 404.487273 -288.791093 
L 385.389947 -291.016 
L 366.29262 -275.227634 
L 347.195294 -275.120223 
L 328.097968 -243.511072 
L 309.000642 -229.416263 
L 289.903316 -274.956525 
L 270.805989 -273.800748 
L 251.708663 -271.580716 
L 232.611337 -255.847003 
L 213.514011 -264.810922 
L 194.416684 -224.44544 
L 175.319358 -197.024948 
L 156.222032 -188.001859 
L 137.124706 -164.570058 
L 118.02738 -114.347434 
L 98.930053 -98.36348 
L 79.832727 -74.059416 
z
" id="m5438aeef66" style="stroke:#734595;stroke-opacity:0.5;"/>
    </defs>
    <g clip-path="url(#pb33adc3b6a)">
     <use style="fill:#734595;fill-opacity:0.5;stroke:#734595;stroke-opacity:0.5;" x="0" xlink:href="#m5438aeef66" y="323.712"/>
    </g>
   </g>
   <g id="PolyCollection_5">
    <defs>
     <path d="M 79.832727 -49.131371 
L 79.832727 -49.128679 
L 98.930053 -53.906083 
L 118.02738 -58.475465 
L 137.124706 -62.900779 
L 156.222032 -71.652987 
L 175.319358 -79.326469 
L 194.416684 -91.950939 
L 213.514011 -99.345405 
L 232.611337 -103.363016 
L 251.708663 -109.996674 
L 270.805989 -113.175694 
L 289.903316 -124.074067 
L 309.000642 -129.575698 
L 328.097968 -132.180231 
L 347.195294 -140.391752 
L 366.29262 -157.685889 
L 385.389947 -162.450389 
L 404.487273 -152.50816 
L 404.487273 -168.484162 
L 404.487273 -168.484162 
L 385.389947 -170.906736 
L 366.29262 -163.639528 
L 347.195294 -140.762802 
L 328.097968 -132.395715 
L 309.000642 -129.576202 
L 289.903316 -124.074343 
L 270.805989 -113.176865 
L 251.708663 -109.996955 
L 232.611337 -103.363258 
L 213.514011 -99.345844 
L 194.416684 -92.073579 
L 175.319358 -79.506874 
L 156.222032 -71.858873 
L 137.124706 -62.95872 
L 118.02738 -58.542096 
L 98.930053 -53.951872 
L 79.832727 -49.131371 
z
" id="m5ce037d419" style="stroke:#f49e17;stroke-opacity:0.5;"/>
    </defs>
    <g clip-path="url(#pb33adc3b6a)">
     <use style="fill:#f49e17;fill-opacity:0.5;stroke:#f49e17;stroke-opacity:0.5;" x="0" xlink:href="#m5ce037d419" y="323.712"/>
    </g>
   </g>
   <g id="matplotlib.axis_1">
    <g id="xtick_1">
     <g id="line2d_1">
      <defs>
       <path d="M 0 0 
L 0 3.5 
" id="m2b6e62e0fc" style="stroke:#000000;stroke-width:0.8;"/>
      </defs>
      <g>
       <use style="stroke:#000000;stroke-width:0.8;" x="75.058396" xlink:href="#m2b6e62e0fc" y="286.712"/>
      </g>
     </g>
     <g id="text_1">
      <!-- 20 -->
      <g transform="translate(69.058396 301.112)scale(0.1 -0.1)">
       <defs>
        <path d="M 53.296875 0 
L 7.5 0 
L 7.5 8.59375 
L 30.296875 29.59375 
Q 35.203125 34.09375 38.5 39.140625 
Q 41.796875 44.203125 41.796875 49.296875 
L 41.796875 50.5 
Q 41.796875 56.296875 38.59375 59.890625 
Q 35.40625 63.5 28.90625 63.5 
Q 25.703125 63.5 23.296875 62.59375 
Q 20.90625 61.703125 19.15625 60.09375 
Q 17.40625 58.5 16.25 56.34375 
Q 15.09375 54.203125 14.40625 51.703125 
L 6.90625 54.59375 
Q 7.90625 57.703125 9.65625 60.640625 
Q 11.40625 63.59375 14.046875 65.890625 
Q 16.703125 68.203125 20.453125 69.59375 
Q 24.203125 71 29.296875 71 
Q 34.40625 71 38.40625 69.5 
Q 42.40625 68 45.09375 65.296875 
Q 47.796875 62.59375 49.25 58.890625 
Q 50.703125 55.203125 50.703125 50.703125 
Q 50.703125 46.59375 49.546875 43.09375 
Q 48.40625 39.59375 46.40625 36.4375 
Q 44.40625 33.296875 41.546875 30.296875 
Q 38.703125 27.296875 35.40625 24.296875 
L 16.59375 7.40625 
L 53.296875 7.40625 
z
" id="IBMPlexSans-50"/>
        <path d="M 30 -1.203125 
Q 17.5 -1.203125 11.75 8.296875 
Q 6 17.796875 6 34.90625 
Q 6 52 11.75 61.5 
Q 17.5 71 30 71 
Q 42.5 71 48.25 61.5 
Q 54 52 54 34.90625 
Q 54 17.796875 48.25 8.296875 
Q 42.5 -1.203125 30 -1.203125 
z
M 30 6.09375 
Q 34.09375 6.09375 37 7.796875 
Q 39.90625 9.5 41.703125 12.59375 
Q 43.5 15.703125 44.34375 19.890625 
Q 45.203125 24.09375 45.203125 29.203125 
L 45.203125 40.59375 
Q 45.203125 45.703125 44.34375 49.890625 
Q 43.5 54.09375 41.703125 57.1875 
Q 39.90625 60.296875 37 62 
Q 34.09375 63.703125 30 63.703125 
Q 25.90625 63.703125 23 62 
Q 20.09375 60.296875 18.296875 57.1875 
Q 16.5 54.09375 15.640625 49.890625 
Q 14.796875 45.703125 14.796875 40.59375 
L 14.796875 29.203125 
Q 14.796875 24.09375 15.640625 19.890625 
Q 16.5 15.703125 18.296875 12.59375 
Q 20.09375 9.5 23 7.796875 
Q 25.90625 6.09375 30 6.09375 
z
" id="IBMPlexSans-48"/>
       </defs>
       <use xlink:href="#IBMPlexSans-50"/>
       <use x="59.999985" xlink:href="#IBMPlexSans-48"/>
      </g>
     </g>
    </g>
    <g id="xtick_2">
     <g id="line2d_2">
      <g>
       <use style="stroke:#000000;stroke-width:0.8;" x="122.801711" xlink:href="#m2b6e62e0fc" y="286.712"/>
      </g>
     </g>
     <g id="text_2">
      <!-- 30 -->
      <g transform="translate(116.801711 301.112)scale(0.1 -0.1)">
       <defs>
        <path d="M 26.09375 40.203125 
Q 33.203125 40.203125 36.75 43.453125 
Q 40.296875 46.703125 40.296875 51.796875 
L 40.296875 52.5 
Q 40.296875 58 36.84375 60.75 
Q 33.40625 63.5 27.796875 63.5 
Q 22.40625 63.5 19 61.140625 
Q 15.59375 58.796875 13.40625 54.796875 
L 7.203125 59.59375 
Q 8.5 61.703125 10.34375 63.75 
Q 12.203125 65.796875 14.703125 67.390625 
Q 17.203125 69 20.5 70 
Q 23.796875 71 28 71 
Q 32.40625 71 36.296875 69.84375 
Q 40.203125 68.703125 43.046875 66.453125 
Q 45.90625 64.203125 47.546875 60.890625 
Q 49.203125 57.59375 49.203125 53.40625 
Q 49.203125 50 48.140625 47.296875 
Q 47.09375 44.59375 45.296875 42.59375 
Q 43.5 40.59375 41.046875 39.1875 
Q 38.59375 37.796875 35.796875 37.09375 
L 35.796875 36.703125 
Q 38.59375 36.09375 41.25 34.75 
Q 43.90625 33.40625 45.953125 31.25 
Q 48 29.09375 49.25 26.046875 
Q 50.5 23 50.5 19.09375 
Q 50.5 14.59375 48.796875 10.84375 
Q 47.09375 7.09375 44 4.4375 
Q 40.90625 1.796875 36.5 0.296875 
Q 32.09375 -1.203125 26.796875 -1.203125 
Q 22.296875 -1.203125 18.796875 -0.203125 
Q 15.296875 0.796875 12.59375 2.5 
Q 9.90625 4.203125 7.84375 6.296875 
Q 5.796875 8.40625 4.203125 10.703125 
L 10.5 15.5 
Q 11.796875 13.40625 13.34375 11.703125 
Q 14.90625 10 16.796875 8.796875 
Q 18.703125 7.59375 21.09375 6.9375 
Q 23.5 6.296875 26.703125 6.296875 
Q 34.09375 6.296875 37.890625 9.640625 
Q 41.703125 13 41.703125 19.203125 
L 41.703125 20 
Q 41.703125 26.203125 37.890625 29.546875 
Q 34.09375 32.90625 26.703125 32.90625 
L 18.5 32.90625 
L 18.5 40.203125 
z
" id="IBMPlexSans-51"/>
       </defs>
       <use xlink:href="#IBMPlexSans-51"/>
       <use x="59.999985" xlink:href="#IBMPlexSans-48"/>
      </g>
     </g>
    </g>
    <g id="xtick_3">
     <g id="line2d_3">
      <g>
       <use style="stroke:#000000;stroke-width:0.8;" x="170.545027" xlink:href="#m2b6e62e0fc" y="286.712"/>
      </g>
     </g>
     <g id="text_3">
      <!-- 40 -->
      <g transform="translate(164.545027 301.112)scale(0.1 -0.1)">
       <defs>
        <path d="M 37.5 0 
L 37.5 13.703125 
L 3.796875 13.703125 
L 3.796875 21.09375 
L 33 69.796875 
L 45.5 69.796875 
L 45.5 20.703125 
L 55.59375 20.703125 
L 55.59375 13.703125 
L 45.5 13.703125 
L 45.5 0 
z
M 11.703125 20.703125 
L 37.5 20.703125 
L 37.5 63.296875 
L 37 63.296875 
z
" id="IBMPlexSans-52"/>
       </defs>
       <use xlink:href="#IBMPlexSans-52"/>
       <use x="59.999985" xlink:href="#IBMPlexSans-48"/>
      </g>
     </g>
    </g>
    <g id="xtick_4">
     <g id="line2d_4">
      <g>
       <use style="stroke:#000000;stroke-width:0.8;" x="218.288342" xlink:href="#m2b6e62e0fc" y="286.712"/>
      </g>
     </g>
     <g id="text_4">
      <!-- 50 -->
      <g transform="translate(212.288342 301.112)scale(0.1 -0.1)">
       <defs>
        <path d="M 49.796875 62.40625 
L 19.203125 62.40625 
L 17.203125 35.796875 
L 17.90625 35.796875 
Q 20.40625 39.296875 23.546875 41.390625 
Q 26.703125 43.5 32.203125 43.5 
Q 36.703125 43.5 40.5 42 
Q 44.296875 40.5 47.09375 37.75 
Q 49.90625 35 51.453125 31 
Q 53 27 53 21.90625 
Q 53 16.796875 51.390625 12.546875 
Q 49.796875 8.296875 46.75 5.25 
Q 43.703125 2.203125 39.34375 0.5 
Q 35 -1.203125 29.5 -1.203125 
Q 25.09375 -1.203125 21.75 -0.203125 
Q 18.40625 0.796875 15.796875 2.5 
Q 13.203125 4.203125 11.25 6.296875 
Q 9.296875 8.40625 7.703125 10.703125 
L 14 15.5 
Q 15.296875 13.40625 16.75 11.703125 
Q 18.203125 10 19.953125 8.796875 
Q 21.703125 7.59375 24 6.9375 
Q 26.296875 6.296875 29.5 6.296875 
Q 36.703125 6.296875 40.390625 10.09375 
Q 44.09375 13.90625 44.09375 20.796875 
L 44.09375 21.796875 
Q 44.09375 28.703125 40.390625 32.5 
Q 36.703125 36.296875 29.5 36.296875 
Q 24.703125 36.296875 21.953125 34.546875 
Q 19.203125 32.796875 17 30.40625 
L 9.90625 31.40625 
L 12.40625 69.796875 
L 49.796875 69.796875 
z
" id="IBMPlexSans-53"/>
       </defs>
       <use xlink:href="#IBMPlexSans-53"/>
       <use x="59.999985" xlink:href="#IBMPlexSans-48"/>
      </g>
     </g>
    </g>
    <g id="xtick_5">
     <g id="line2d_5">
      <g>
       <use style="stroke:#000000;stroke-width:0.8;" x="266.031658" xlink:href="#m2b6e62e0fc" y="286.712"/>
      </g>
     </g>
     <g id="text_5">
      <!-- 60 -->
      <g transform="translate(260.031658 301.112)scale(0.1 -0.1)">
       <defs>
        <path d="M 30.09375 -1.203125 
Q 24.703125 -1.203125 20.34375 0.640625 
Q 16 2.5 12.953125 5.953125 
Q 9.90625 9.40625 8.296875 14.40625 
Q 6.703125 19.40625 6.703125 25.59375 
Q 6.703125 33.40625 9 40.25 
Q 11.296875 47.09375 14.9375 52.75 
Q 18.59375 58.40625 23 62.75 
Q 27.40625 67.09375 31.59375 69.796875 
L 42.40625 69.796875 
Q 36.796875 65.703125 32.390625 61.796875 
Q 28 57.90625 24.703125 53.65625 
Q 21.40625 49.40625 19.09375 44.546875 
Q 16.796875 39.703125 15.40625 33.59375 
L 15.90625 33.40625 
Q 18.40625 37.703125 22.34375 40.546875 
Q 26.296875 43.40625 32.703125 43.40625 
Q 37.203125 43.40625 41 41.90625 
Q 44.796875 40.40625 47.5 37.59375 
Q 50.203125 34.796875 51.75 30.796875 
Q 53.296875 26.796875 53.296875 21.90625 
Q 53.296875 16.796875 51.640625 12.546875 
Q 50 8.296875 46.953125 5.25 
Q 43.90625 2.203125 39.59375 0.5 
Q 35.296875 -1.203125 30.09375 -1.203125 
z
M 30 6.09375 
Q 36.90625 6.09375 40.75 9.890625 
Q 44.59375 13.703125 44.59375 20.796875 
L 44.59375 21.59375 
Q 44.59375 28.703125 40.75 32.5 
Q 36.90625 36.296875 30 36.296875 
Q 23.09375 36.296875 19.25 32.5 
Q 15.40625 28.703125 15.40625 21.59375 
L 15.40625 20.796875 
Q 15.40625 13.703125 19.25 9.890625 
Q 23.09375 6.09375 30 6.09375 
z
" id="IBMPlexSans-54"/>
       </defs>
       <use xlink:href="#IBMPlexSans-54"/>
       <use x="59.999985" xlink:href="#IBMPlexSans-48"/>
      </g>
     </g>
    </g>
    <g id="xtick_6">
     <g id="line2d_6">
      <g>
       <use style="stroke:#000000;stroke-width:0.8;" x="313.774973" xlink:href="#m2b6e62e0fc" y="286.712"/>
      </g>
     </g>
     <g id="text_6">
      <!-- 70 -->
      <g transform="translate(307.774973 301.112)scale(0.1 -0.1)">
       <defs>
        <path d="M 17.5 0 
L 44.203125 62.59375 
L 14.40625 62.59375 
L 14.40625 49.59375 
L 6.90625 49.59375 
L 6.90625 69.796875 
L 52.703125 69.796875 
L 52.703125 62.40625 
L 26.5 0 
z
" id="IBMPlexSans-55"/>
       </defs>
       <use xlink:href="#IBMPlexSans-55"/>
       <use x="59.999985" xlink:href="#IBMPlexSans-48"/>
      </g>
     </g>
    </g>
    <g id="xtick_7">
     <g id="line2d_7">
      <g>
       <use style="stroke:#000000;stroke-width:0.8;" x="361.518289" xlink:href="#m2b6e62e0fc" y="286.712"/>
      </g>
     </g>
     <g id="text_7">
      <!-- 80 -->
      <g transform="translate(355.518289 301.112)scale(0.1 -0.1)">
       <defs>
        <path d="M 30 -1.203125 
Q 24 -1.203125 19.5 0.34375 
Q 15 1.90625 11.953125 4.59375 
Q 8.90625 7.296875 7.34375 11 
Q 5.796875 14.703125 5.796875 19 
Q 5.796875 26.203125 9.6875 30.390625 
Q 13.59375 34.59375 19.90625 36.296875 
L 19.90625 37.09375 
Q 14.40625 39 11.15625 43.25 
Q 7.90625 47.5 7.90625 53.5 
Q 7.90625 61.5 13.703125 66.25 
Q 19.5 71 30 71 
Q 40.5 71 46.296875 66.25 
Q 52.09375 61.5 52.09375 53.5 
Q 52.09375 47.5 48.84375 43.25 
Q 45.59375 39 40.09375 37.09375 
L 40.09375 36.296875 
Q 46.40625 34.59375 50.296875 30.390625 
Q 54.203125 26.203125 54.203125 19 
Q 54.203125 14.703125 52.640625 11 
Q 51.09375 7.296875 48.046875 4.59375 
Q 45 1.90625 40.5 0.34375 
Q 36 -1.203125 30 -1.203125 
z
M 30 6.09375 
Q 37.296875 6.09375 41.296875 9.34375 
Q 45.296875 12.59375 45.296875 18.59375 
L 45.296875 20.703125 
Q 45.296875 26.703125 41.296875 29.953125 
Q 37.296875 33.203125 30 33.203125 
Q 22.703125 33.203125 18.703125 29.953125 
Q 14.703125 26.703125 14.703125 20.703125 
L 14.703125 18.59375 
Q 14.703125 12.59375 18.703125 9.34375 
Q 22.703125 6.09375 30 6.09375 
z
M 30 40.203125 
Q 36.59375 40.203125 40 43 
Q 43.40625 45.796875 43.40625 51.203125 
L 43.40625 52.703125 
Q 43.40625 58.09375 40 60.890625 
Q 36.59375 63.703125 30 63.703125 
Q 23.40625 63.703125 20 60.890625 
Q 16.59375 58.09375 16.59375 52.703125 
L 16.59375 51.203125 
Q 16.59375 45.796875 20 43 
Q 23.40625 40.203125 30 40.203125 
z
" id="IBMPlexSans-56"/>
       </defs>
       <use xlink:href="#IBMPlexSans-56"/>
       <use x="59.999985" xlink:href="#IBMPlexSans-48"/>
      </g>
     </g>
    </g>
    <g id="xtick_8">
     <g id="line2d_8">
      <g>
       <use style="stroke:#000000;stroke-width:0.8;" x="409.261604" xlink:href="#m2b6e62e0fc" y="286.712"/>
      </g>
     </g>
     <g id="text_8">
      <!-- 90 -->
      <g transform="translate(403.261604 301.112)scale(0.1 -0.1)">
       <defs>
        <path d="M 53.296875 44.203125 
Q 53.296875 36.40625 51 29.546875 
Q 48.703125 22.703125 45.046875 17.046875 
Q 41.40625 11.40625 37 7.046875 
Q 32.59375 2.703125 28.40625 0 
L 17.59375 0 
Q 23.203125 4.09375 27.59375 8 
Q 32 11.90625 35.296875 16.15625 
Q 38.59375 20.40625 40.890625 25.25 
Q 43.203125 30.09375 44.59375 36.203125 
L 44.09375 36.40625 
Q 41.59375 32.09375 37.640625 29.25 
Q 33.703125 26.40625 27.296875 26.40625 
Q 22.796875 26.40625 19 27.90625 
Q 15.203125 29.40625 12.5 32.203125 
Q 9.796875 35 8.25 38.953125 
Q 6.703125 42.90625 6.703125 47.90625 
Q 6.703125 53 8.34375 57.25 
Q 10 61.5 13.046875 64.546875 
Q 16.09375 67.59375 20.34375 69.296875 
Q 24.59375 71 29.90625 71 
Q 35.296875 71 39.640625 69.140625 
Q 44 67.296875 47.046875 63.84375 
Q 50.09375 60.40625 51.6875 55.40625 
Q 53.296875 50.40625 53.296875 44.203125 
z
M 30 33.5 
Q 36.90625 33.5 40.75 37.296875 
Q 44.59375 41.09375 44.59375 48.203125 
L 44.59375 49 
Q 44.59375 56.09375 40.75 59.890625 
Q 36.90625 63.703125 30 63.703125 
Q 23.09375 63.703125 19.25 59.890625 
Q 15.40625 56.09375 15.40625 49 
L 15.40625 48.203125 
Q 15.40625 41.09375 19.25 37.296875 
Q 23.09375 33.5 30 33.5 
z
" id="IBMPlexSans-57"/>
       </defs>
       <use xlink:href="#IBMPlexSans-57"/>
       <use x="59.999985" xlink:href="#IBMPlexSans-48"/>
      </g>
     </g>
    </g>
    <g id="text_9">
     <!-- k -->
     <g transform="translate(239.524844 314.512)scale(0.1 -0.1)">
      <defs>
       <path d="M 8.5 74 
L 16.5 74 
L 16.5 27.09375 
L 16.90625 27.09375 
L 24.796875 35.90625 
L 39.40625 51.59375 
L 49.09375 51.59375 
L 30 31.203125 
L 51 0 
L 41.296875 0 
L 24.203125 26.296875 
L 16.5 18.40625 
L 16.5 0 
L 8.5 0 
z
" id="IBMPlexSans-107"/>
      </defs>
      <use xlink:href="#IBMPlexSans-107"/>
     </g>
    </g>
   </g>
   <g id="matplotlib.axis_2">
    <g id="ytick_1">
     <g id="line2d_9">
      <defs>
       <path d="M 0 0 
L -3.5 0 
" id="mfa7220d40c" style="stroke:#000000;stroke-width:0.8;"/>
      </defs>
      <g>
       <use style="stroke:#000000;stroke-width:0.8;" x="63.6" xlink:href="#mfa7220d40c" y="275.229702"/>
      </g>
     </g>
     <g id="text_10">
      <!-- 0 -->
      <g transform="translate(50.6 278.929702)scale(0.1 -0.1)">
       <use xlink:href="#IBMPlexSans-48"/>
      </g>
     </g>
    </g>
    <g id="ytick_2">
     <g id="line2d_10">
      <g>
       <use style="stroke:#000000;stroke-width:0.8;" x="63.6" xlink:href="#mfa7220d40c" y="223.114136"/>
      </g>
     </g>
     <g id="text_11">
      <!-- 100000 -->
      <g transform="translate(20.6 226.814136)scale(0.1 -0.1)">
       <defs>
        <path d="M 8.796875 0 
L 8.796875 7.40625 
L 28.296875 7.40625 
L 28.296875 63.59375 
L 27.59375 63.59375 
L 10 47.203125 
L 5.09375 52.5 
L 23.59375 69.796875 
L 36.703125 69.796875 
L 36.703125 7.40625 
L 54.703125 7.40625 
L 54.703125 0 
z
" id="IBMPlexSans-49"/>
       </defs>
       <use xlink:href="#IBMPlexSans-49"/>
       <use x="59.999985" xlink:href="#IBMPlexSans-48"/>
       <use x="119.999969" xlink:href="#IBMPlexSans-48"/>
       <use x="179.999954" xlink:href="#IBMPlexSans-48"/>
       <use x="239.999939" xlink:href="#IBMPlexSans-48"/>
       <use x="299.999924" xlink:href="#IBMPlexSans-48"/>
      </g>
     </g>
    </g>
    <g id="ytick_3">
     <g id="line2d_11">
      <g>
       <use style="stroke:#000000;stroke-width:0.8;" x="63.6" xlink:href="#mfa7220d40c" y="170.998569"/>
      </g>
     </g>
     <g id="text_12">
      <!-- 200000 -->
      <g transform="translate(20.6 174.698569)scale(0.1 -0.1)">
       <use xlink:href="#IBMPlexSans-50"/>
       <use x="59.999985" xlink:href="#IBMPlexSans-48"/>
       <use x="119.999969" xlink:href="#IBMPlexSans-48"/>
       <use x="179.999954" xlink:href="#IBMPlexSans-48"/>
       <use x="239.999939" xlink:href="#IBMPlexSans-48"/>
       <use x="299.999924" xlink:href="#IBMPlexSans-48"/>
      </g>
     </g>
    </g>
    <g id="ytick_4">
     <g id="line2d_12">
      <g>
       <use style="stroke:#000000;stroke-width:0.8;" x="63.6" xlink:href="#mfa7220d40c" y="118.883003"/>
      </g>
     </g>
     <g id="text_13">
      <!-- 300000 -->
      <g transform="translate(20.6 122.583003)scale(0.1 -0.1)">
       <use xlink:href="#IBMPlexSans-51"/>
       <use x="59.999985" xlink:href="#IBMPlexSans-48"/>
       <use x="119.999969" xlink:href="#IBMPlexSans-48"/>
       <use x="179.999954" xlink:href="#IBMPlexSans-48"/>
       <use x="239.999939" xlink:href="#IBMPlexSans-48"/>
       <use x="299.999924" xlink:href="#IBMPlexSans-48"/>
      </g>
     </g>
    </g>
    <g id="ytick_5">
     <g id="line2d_13">
      <g>
       <use style="stroke:#000000;stroke-width:0.8;" x="63.6" xlink:href="#mfa7220d40c" y="66.767437"/>
      </g>
     </g>
     <g id="text_14">
      <!-- 400000 -->
      <g transform="translate(20.6 70.467437)scale(0.1 -0.1)">
       <use xlink:href="#IBMPlexSans-52"/>
       <use x="59.999985" xlink:href="#IBMPlexSans-48"/>
       <use x="119.999969" xlink:href="#IBMPlexSans-48"/>
       <use x="179.999954" xlink:href="#IBMPlexSans-48"/>
       <use x="239.999939" xlink:href="#IBMPlexSans-48"/>
       <use x="299.999924" xlink:href="#IBMPlexSans-48"/>
      </g>
     </g>
    </g>
    <g id="text_15">
     <!-- auNG -->
     <g transform="translate(14.6 166.176312)rotate(-90)scale(0.1 -0.1)">
      <defs>
       <path d="M 46 0 
Q 41.5 0 39.546875 2.390625 
Q 37.59375 4.796875 37.09375 8.40625 
L 36.59375 8.40625 
Q 34.90625 3.59375 31 1.1875 
Q 27.09375 -1.203125 21.703125 -1.203125 
Q 13.5 -1.203125 8.953125 3 
Q 4.40625 7.203125 4.40625 14.40625 
Q 4.40625 21.703125 9.75 25.59375 
Q 15.09375 29.5 26.40625 29.5 
L 36.59375 29.5 
L 36.59375 34.59375 
Q 36.59375 40.09375 33.59375 43 
Q 30.59375 45.90625 24.40625 45.90625 
Q 19.703125 45.90625 16.546875 43.796875 
Q 13.40625 41.703125 11.296875 38.203125 
L 6.5 42.703125 
Q 8.59375 46.90625 13.1875 49.84375 
Q 17.796875 52.796875 24.796875 52.796875 
Q 34.203125 52.796875 39.390625 48.1875 
Q 44.59375 43.59375 44.59375 35.40625 
L 44.59375 7 
L 50.5 7 
L 50.5 0 
z
M 23 5.59375 
Q 26 5.59375 28.5 6.296875 
Q 31 7 32.796875 8.296875 
Q 34.59375 9.59375 35.59375 11.296875 
Q 36.59375 13 36.59375 15 
L 36.59375 23.5 
L 26 23.5 
Q 19.09375 23.5 15.9375 21.5 
Q 12.796875 19.5 12.796875 15.703125 
L 12.796875 13.59375 
Q 12.796875 9.796875 15.546875 7.6875 
Q 18.296875 5.59375 23 5.59375 
z
" id="IBMPlexSans-97"/>
       <path d="M 40.296875 8.40625 
L 39.90625 8.40625 
Q 39.09375 6.59375 37.9375 4.84375 
Q 36.796875 3.09375 35.09375 1.75 
Q 33.40625 0.40625 31 -0.390625 
Q 28.59375 -1.203125 25.40625 -1.203125 
Q 17.40625 -1.203125 12.703125 3.9375 
Q 8 9.09375 8 18.5 
L 8 51.59375 
L 16 51.59375 
L 16 19.90625 
Q 16 6 27.796875 6 
Q 30.203125 6 32.453125 6.59375 
Q 34.703125 7.203125 36.453125 8.390625 
Q 38.203125 9.59375 39.25 11.4375 
Q 40.296875 13.296875 40.296875 15.90625 
L 40.296875 51.59375 
L 48.296875 51.59375 
L 48.296875 0 
L 40.296875 0 
z
" id="IBMPlexSans-117"/>
       <path d="M 26.203125 42.59375 
L 17.796875 58.09375 
L 17.5 58.09375 
L 17.5 0 
L 9.296875 0 
L 9.296875 69.796875 
L 19 69.796875 
L 44.5 27.203125 
L 52.90625 11.703125 
L 53.203125 11.703125 
L 53.203125 69.796875 
L 61.40625 69.796875 
L 61.40625 0 
L 51.703125 0 
z
" id="IBMPlexSans-78"/>
       <path d="M 54.5 10.203125 
L 54.203125 10.203125 
Q 52.90625 5.296875 47.84375 2.046875 
Q 42.796875 -1.203125 34.796875 -1.203125 
Q 28.40625 -1.203125 23.046875 1.140625 
Q 17.703125 3.5 13.890625 8.046875 
Q 10.09375 12.59375 7.9375 19.34375 
Q 5.796875 26.09375 5.796875 34.90625 
Q 5.796875 43.59375 7.890625 50.34375 
Q 10 57.09375 13.890625 61.640625 
Q 17.796875 66.203125 23.296875 68.59375 
Q 28.796875 71 35.5 71 
Q 44.90625 71 51.203125 66.796875 
Q 57.5 62.59375 60.90625 55.703125 
L 54 51.5 
Q 51.59375 57.09375 46.84375 60.296875 
Q 42.09375 63.5 35.5 63.5 
Q 30.90625 63.5 27.09375 61.84375 
Q 23.296875 60.203125 20.546875 57.203125 
Q 17.796875 54.203125 16.296875 50 
Q 14.796875 45.796875 14.796875 40.59375 
L 14.796875 29.296875 
Q 14.796875 24.09375 16.296875 19.84375 
Q 17.796875 15.59375 20.546875 12.59375 
Q 23.296875 9.59375 27.296875 7.9375 
Q 31.296875 6.296875 36.296875 6.296875 
Q 39.90625 6.296875 43.15625 7.25 
Q 46.40625 8.203125 48.84375 10.09375 
Q 51.296875 12 52.6875 14.84375 
Q 54.09375 17.703125 54.09375 21.59375 
L 54.09375 28.5 
L 38.703125 28.5 
L 38.703125 35.90625 
L 62.296875 35.90625 
L 62.296875 0 
L 54.5 0 
z
" id="IBMPlexSans-71"/>
      </defs>
      <use xlink:href="#IBMPlexSans-97"/>
      <use x="53.399994" xlink:href="#IBMPlexSans-117"/>
      <use x="110.199982" xlink:href="#IBMPlexSans-78"/>
      <use x="180.899963" xlink:href="#IBMPlexSans-71"/>
     </g>
    </g>
   </g>
   <g id="line2d_14">
    <path clip-path="url(#pb33adc3b6a)" d="M 79.832727 274.615979 
L 98.930053 269.782953 
L 118.02738 265.199853 
L 137.124706 260.837624 
L 156.222032 251.779209 
L 175.319358 243.614992 
L 194.416684 231.518455 
L 213.514011 224.494198 
L 232.611337 220.616506 
L 251.708663 214.677074 
L 270.805989 213.467619 
L 289.903316 211.718153 
L 309.000642 222.97571 
L 328.097968 240.409277 
L 347.195294 256.578882 
L 366.29262 266.416996 
L 385.389947 271.267545 
L 404.487273 273.417164 
" style="fill:none;stroke:#d41645;stroke-linecap:square;stroke-width:1.5;"/>
   </g>
   <g id="line2d_15">
    <path clip-path="url(#pb33adc3b6a)" d="M 79.832727 274.533956 
L 98.930053 269.737001 
L 118.02738 266.81954 
L 137.124706 264.446517 
L 156.222032 262.495442 
L 175.319358 260.395894 
L 194.416684 257.224874 
L 213.514011 250.245871 
L 232.611337 242.819075 
L 251.708663 237.155888 
L 270.805989 229.816948 
L 289.903316 219.492835 
L 309.000642 206.615358 
L 328.097968 200.574608 
L 347.195294 205.670149 
L 366.29262 226.736531 
L 385.389947 241.373189 
L 404.487273 252.080907 
" style="fill:none;stroke:#193f90;stroke-linecap:square;stroke-width:1.5;"/>
   </g>
   <g id="line2d_16">
    <path clip-path="url(#pb33adc3b6a)" d="M 79.832727 256.056073 
L 98.930053 219.764095 
L 118.02738 208.875095 
L 137.124706 191.574966 
L 156.222032 170.996634 
L 175.319358 148.887237 
L 194.416684 136.815073 
L 213.514011 134.792268 
L 232.611337 125.728912 
L 251.708663 117.524633 
L 270.805989 122.5427 
L 289.903316 115.108125 
L 309.000642 114.261485 
L 328.097968 105.572621 
L 347.195294 106.295626 
L 366.29262 108.201235 
L 385.389947 111.558818 
L 404.487273 101.617931 
" style="fill:none;stroke:#18974c;stroke-linecap:square;stroke-width:1.5;"/>
   </g>
   <g id="line2d_17">
    <path clip-path="url(#pb33adc3b6a)" d="M 79.832727 250.480737 
L 98.930053 228.322388 
L 118.02738 212.70754 
L 137.124706 166.743361 
L 156.222032 140.588718 
L 175.319358 133.178468 
L 194.416684 103.740909 
L 213.514011 64.00705 
L 232.611337 71.546184 
L 251.708663 56.063396 
L 270.805989 53.768885 
L 289.903316 52.32676 
L 309.000642 96.327191 
L 328.097968 82.38597 
L 347.195294 49.945927 
L 366.29262 49.858178 
L 385.389947 33.602254 
L 404.487273 35.927149 
" style="fill:none;stroke:#734595;stroke-linecap:square;stroke-width:1.5;"/>
   </g>
   <g id="line2d_18">
    <path clip-path="url(#pb33adc3b6a)" d="M 79.832727 274.581975 
L 98.930053 269.783023 
L 118.02738 265.20322 
L 137.124706 260.782251 
L 156.222032 251.95607 
L 175.319358 244.295328 
L 194.416684 231.699741 
L 213.514011 224.366376 
L 232.611337 220.348863 
L 251.708663 213.715185 
L 270.805989 210.535721 
L 289.903316 199.637795 
L 309.000642 194.13605 
L 328.097968 191.424027 
L 347.195294 183.134723 
L 366.29262 163.049292 
L 385.389947 157.033437 
L 404.487273 163.215839 
" style="fill:none;stroke:#f49e17;stroke-linecap:square;stroke-width:1.5;"/>
   </g>
   <g id="patch_3">
    <path d="M 63.6 286.712 
L 63.6 20.6 
" style="fill:none;stroke:#000000;stroke-linecap:square;stroke-linejoin:miter;stroke-width:0.8;"/>
   </g>
   <g id="patch_4">
    <path d="M 420.72 286.712 
L 420.72 20.6 
" style="fill:none;stroke:#000000;stroke-linecap:square;stroke-linejoin:miter;stroke-width:0.8;"/>
   </g>
   <g id="patch_5">
    <path d="M 63.6 286.712 
L 420.72 286.712 
" style="fill:none;stroke:#000000;stroke-linecap:square;stroke-linejoin:miter;stroke-width:0.8;"/>
   </g>
   <g id="patch_6">
    <path d="M 63.6 20.6 
L 420.72 20.6 
" style="fill:none;stroke:#000000;stroke-linecap:square;stroke-linejoin:miter;stroke-width:0.8;"/>
   </g>
   <g id="text_16">
    <!-- Streptomyces avermitilis - Simulations/Mason -->
    <g transform="translate(138.81 14.6)scale(0.1 -0.1)">
     <defs>
      <path d="M 28.90625 -1.203125 
Q 20.40625 -1.203125 14.40625 2.046875 
Q 8.40625 5.296875 4.203125 11 
L 10.40625 16.203125 
Q 14.09375 11.296875 18.59375 8.75 
Q 23.09375 6.203125 29.203125 6.203125 
Q 36.703125 6.203125 40.640625 9.796875 
Q 44.59375 13.40625 44.59375 19.40625 
Q 44.59375 24.40625 41.59375 27.09375 
Q 38.59375 29.796875 31.703125 31.40625 
L 26 32.703125 
Q 16.40625 34.90625 11.34375 39.34375 
Q 6.296875 43.796875 6.296875 51.90625 
Q 6.296875 56.5 8 60.09375 
Q 9.703125 63.703125 12.75 66.09375 
Q 15.796875 68.5 20.046875 69.75 
Q 24.296875 71 29.40625 71 
Q 37.296875 71 42.9375 68.09375 
Q 48.59375 65.203125 52.5 59.59375 
L 46.203125 55 
Q 43.296875 59 39.1875 61.296875 
Q 35.09375 63.59375 29 63.59375 
Q 22.296875 63.59375 18.4375 60.75 
Q 14.59375 57.90625 14.59375 52.203125 
Q 14.59375 47.203125 17.84375 44.640625 
Q 21.09375 42.09375 27.703125 40.59375 
L 33.40625 39.296875 
Q 43.703125 37 48.296875 32.296875 
Q 52.90625 27.59375 52.90625 19.796875 
Q 52.90625 15 51.25 11.09375 
Q 49.59375 7.203125 46.5 4.5 
Q 43.40625 1.796875 38.953125 0.296875 
Q 34.5 -1.203125 28.90625 -1.203125 
z
" id="IBMPlexSans-83"/>
      <path d="M 19.90625 0 
Q 15.703125 0 13.546875 2.34375 
Q 11.40625 4.703125 11.40625 8.5 
L 11.40625 44.59375 
L 2.90625 44.59375 
L 2.90625 51.59375 
L 7.703125 51.59375 
Q 10.296875 51.59375 11.25 52.640625 
Q 12.203125 53.703125 12.203125 56.296875 
L 12.203125 65.90625 
L 19.40625 65.90625 
L 19.40625 51.59375 
L 30.703125 51.59375 
L 30.703125 44.59375 
L 19.40625 44.59375 
L 19.40625 7 
L 29.90625 7 
L 29.90625 0 
z
" id="IBMPlexSans-116"/>
      <path d="M 8.5 0 
L 8.5 51.59375 
L 16.5 51.59375 
L 16.5 42.09375 
L 17 42.09375 
Q 18.40625 45.796875 22 48.6875 
Q 25.59375 51.59375 31.90625 51.59375 
L 35 51.59375 
L 35 43.59375 
L 30.296875 43.59375 
Q 23.796875 43.59375 20.140625 41.140625 
Q 16.5 38.703125 16.5 35 
L 16.5 0 
z
" id="IBMPlexSans-114"/>
      <path d="M 27.90625 -1.203125 
Q 22.59375 -1.203125 18.34375 0.6875 
Q 14.09375 2.59375 11.046875 6.140625 
Q 8 9.703125 6.34375 14.640625 
Q 4.703125 19.59375 4.703125 25.796875 
Q 4.703125 31.90625 6.34375 36.90625 
Q 8 41.90625 11.046875 45.453125 
Q 14.09375 49 18.34375 50.890625 
Q 22.59375 52.796875 27.90625 52.796875 
Q 33.09375 52.796875 37.1875 50.890625 
Q 41.296875 49 44.1875 45.640625 
Q 47.09375 42.296875 48.640625 37.6875 
Q 50.203125 33.09375 50.203125 27.59375 
L 50.203125 23.796875 
L 13.09375 23.796875 
L 13.09375 21.40625 
Q 13.09375 18.09375 14.140625 15.25 
Q 15.203125 12.40625 17.140625 10.296875 
Q 19.09375 8.203125 21.9375 7 
Q 24.796875 5.796875 28.40625 5.796875 
Q 33.296875 5.796875 36.9375 8.09375 
Q 40.59375 10.40625 42.59375 14.703125 
L 48.296875 10.59375 
Q 45.796875 5.296875 40.5 2.046875 
Q 35.203125 -1.203125 27.90625 -1.203125 
z
M 27.90625 46.09375 
Q 24.59375 46.09375 21.890625 44.9375 
Q 19.203125 43.796875 17.25 41.6875 
Q 15.296875 39.59375 14.1875 36.75 
Q 13.09375 33.90625 13.09375 30.5 
L 13.09375 29.796875 
L 41.59375 29.796875 
L 41.59375 30.90625 
Q 41.59375 37.796875 37.84375 41.9375 
Q 34.09375 46.09375 27.90625 46.09375 
z
" id="IBMPlexSans-101"/>
      <path d="M 8.5 51.59375 
L 16.5 51.59375 
L 16.5 43.203125 
L 16.90625 43.203125 
Q 18.90625 48.09375 22.75 50.4375 
Q 26.59375 52.796875 32 52.796875 
Q 36.796875 52.796875 40.6875 50.890625 
Q 44.59375 49 47.34375 45.5 
Q 50.09375 42 51.546875 37 
Q 53 32 53 25.796875 
Q 53 19.59375 51.546875 14.59375 
Q 50.09375 9.59375 47.34375 6.09375 
Q 44.59375 2.59375 40.6875 0.6875 
Q 36.796875 -1.203125 32 -1.203125 
Q 21.5 -1.203125 16.90625 8.40625 
L 16.5 8.40625 
L 16.5 -20 
L 8.5 -20 
z
M 29.796875 6 
Q 36.59375 6 40.5 10.25 
Q 44.40625 14.5 44.40625 21.40625 
L 44.40625 30.203125 
Q 44.40625 37.09375 40.5 41.34375 
Q 36.59375 45.59375 29.796875 45.59375 
Q 27.09375 45.59375 24.640625 44.84375 
Q 22.203125 44.09375 20.390625 42.796875 
Q 18.59375 41.5 17.546875 39.640625 
Q 16.5 37.796875 16.5 35.703125 
L 16.5 16.5 
Q 16.5 14 17.546875 12.046875 
Q 18.59375 10.09375 20.390625 8.75 
Q 22.203125 7.40625 24.640625 6.703125 
Q 27.09375 6 29.796875 6 
z
" id="IBMPlexSans-112"/>
      <path d="M 28 -1.203125 
Q 22.796875 -1.203125 18.5 0.6875 
Q 14.203125 2.59375 11.140625 6.140625 
Q 8.09375 9.703125 6.390625 14.640625 
Q 4.703125 19.59375 4.703125 25.796875 
Q 4.703125 31.90625 6.390625 36.90625 
Q 8.09375 41.90625 11.140625 45.453125 
Q 14.203125 49 18.5 50.890625 
Q 22.796875 52.796875 28 52.796875 
Q 33.203125 52.796875 37.453125 50.890625 
Q 41.703125 49 44.796875 45.453125 
Q 47.90625 41.90625 49.59375 36.90625 
Q 51.296875 31.90625 51.296875 25.796875 
Q 51.296875 19.59375 49.59375 14.640625 
Q 47.90625 9.703125 44.796875 6.140625 
Q 41.703125 2.59375 37.453125 0.6875 
Q 33.203125 -1.203125 28 -1.203125 
z
M 28 5.90625 
Q 34.5 5.90625 38.59375 9.90625 
Q 42.703125 13.90625 42.703125 22.09375 
L 42.703125 29.5 
Q 42.703125 37.703125 38.59375 41.703125 
Q 34.5 45.703125 28 45.703125 
Q 21.5 45.703125 17.390625 41.703125 
Q 13.296875 37.703125 13.296875 29.5 
L 13.296875 22.09375 
Q 13.296875 13.90625 17.390625 9.90625 
Q 21.5 5.90625 28 5.90625 
z
" id="IBMPlexSans-111"/>
      <path d="M 8.5 0 
L 8.5 51.59375 
L 16.5 51.59375 
L 16.5 43.203125 
L 16.90625 43.203125 
Q 17.796875 45.203125 18.9375 46.953125 
Q 20.09375 48.703125 21.75 50 
Q 23.40625 51.296875 25.59375 52.046875 
Q 27.796875 52.796875 30.796875 52.796875 
Q 35.90625 52.796875 40.203125 50.34375 
Q 44.5 47.90625 46.59375 42.296875 
L 46.796875 42.296875 
Q 48.203125 46.5 52.046875 49.640625 
Q 55.90625 52.796875 62.5 52.796875 
Q 70.40625 52.796875 74.84375 47.640625 
Q 79.296875 42.5 79.296875 33.09375 
L 79.296875 0 
L 71.296875 0 
L 71.296875 31.703125 
Q 71.296875 38.59375 68.59375 42.09375 
Q 65.90625 45.59375 60 45.59375 
Q 57.59375 45.59375 55.4375 45 
Q 53.296875 44.40625 51.59375 43.203125 
Q 49.90625 42 48.90625 40.140625 
Q 47.90625 38.296875 47.90625 35.796875 
L 47.90625 0 
L 39.90625 0 
L 39.90625 31.703125 
Q 39.90625 38.59375 37.203125 42.09375 
Q 34.5 45.59375 28.796875 45.59375 
Q 26.40625 45.59375 24.203125 45 
Q 22 44.40625 20.296875 43.203125 
Q 18.59375 42 17.546875 40.140625 
Q 16.5 38.296875 16.5 35.796875 
L 16.5 0 
z
" id="IBMPlexSans-109"/>
      <path d="M 40.296875 51.59375 
L 48.203125 51.59375 
L 25.09375 -12 
Q 24.203125 -14.296875 23.296875 -15.84375 
Q 22.40625 -17.40625 21.09375 -18.296875 
Q 19.796875 -19.203125 17.84375 -19.59375 
Q 15.90625 -20 13.09375 -20 
L 9 -20 
L 9 -13 
L 17.09375 -13 
L 21 -2 
L 1.703125 51.59375 
L 9.703125 51.59375 
L 22.09375 16.5 
L 24.5 8.09375 
L 25 8.09375 
L 27.796875 16.5 
z
" id="IBMPlexSans-121"/>
      <path d="M 27.703125 -1.203125 
Q 22.296875 -1.203125 18 0.6875 
Q 13.703125 2.59375 10.75 6.09375 
Q 7.796875 9.59375 6.25 14.59375 
Q 4.703125 19.59375 4.703125 25.796875 
Q 4.703125 32 6.25 37 
Q 7.796875 42 10.75 45.5 
Q 13.703125 49 18 50.890625 
Q 22.296875 52.796875 27.703125 52.796875 
Q 35.40625 52.796875 40.046875 49.4375 
Q 44.703125 46.09375 47 40.703125 
L 40.296875 37.296875 
Q 38.90625 41.296875 35.703125 43.5 
Q 32.5 45.703125 27.703125 45.703125 
Q 24.09375 45.703125 21.390625 44.546875 
Q 18.703125 43.40625 16.890625 41.34375 
Q 15.09375 39.296875 14.1875 36.4375 
Q 13.296875 33.59375 13.296875 30.203125 
L 13.296875 21.40625 
Q 13.296875 14.59375 16.9375 10.25 
Q 20.59375 5.90625 27.703125 5.90625 
Q 37.40625 5.90625 41.703125 14.90625 
L 47.5 11 
Q 45 5.40625 40.046875 2.09375 
Q 35.09375 -1.203125 27.703125 -1.203125 
z
" id="IBMPlexSans-99"/>
      <path d="M 24 -1.203125 
Q 16.796875 -1.203125 11.9375 1.546875 
Q 7.09375 4.296875 3.59375 8.90625 
L 9.296875 13.5 
Q 12.296875 9.703125 16 7.640625 
Q 19.703125 5.59375 24.59375 5.59375 
Q 29.703125 5.59375 32.546875 7.796875 
Q 35.40625 10 35.40625 14 
Q 35.40625 17 33.453125 19.140625 
Q 31.5 21.296875 26.40625 22.09375 
L 22.296875 22.703125 
Q 18.703125 23.203125 15.703125 24.25 
Q 12.703125 25.296875 10.453125 27.046875 
Q 8.203125 28.796875 6.953125 31.390625 
Q 5.703125 34 5.703125 37.59375 
Q 5.703125 41.40625 7.09375 44.25 
Q 8.5 47.09375 10.953125 49 
Q 13.40625 50.90625 16.796875 51.84375 
Q 20.203125 52.796875 24.09375 52.796875 
Q 30.40625 52.796875 34.65625 50.59375 
Q 38.90625 48.40625 42.09375 44.5 
L 36.796875 39.703125 
Q 35.09375 42.09375 31.796875 44.046875 
Q 28.5 46 23.5 46 
Q 18.5 46 15.953125 43.84375 
Q 13.40625 41.703125 13.40625 38 
Q 13.40625 34.203125 15.953125 32.5 
Q 18.5 30.796875 23.296875 30 
L 27.296875 29.40625 
Q 35.90625 28.09375 39.5 24.4375 
Q 43.09375 20.796875 43.09375 14.90625 
Q 43.09375 7.40625 38 3.09375 
Q 32.90625 -1.203125 24 -1.203125 
z
" id="IBMPlexSans-115"/>
      <path id="IBMPlexSans-32"/>
      <path d="M 19.90625 0 
L 1.796875 51.59375 
L 9.796875 51.59375 
L 18.796875 26 
L 24.40625 8.40625 
L 24.90625 8.40625 
L 30.5 26 
L 39.703125 51.59375 
L 47.40625 51.59375 
L 29.203125 0 
z
" id="IBMPlexSans-118"/>
      <path d="M 12.5 63.703125 
Q 9.90625 63.703125 8.75 64.953125 
Q 7.59375 66.203125 7.59375 68.203125 
L 7.59375 69.5 
Q 7.59375 71.5 8.75 72.75 
Q 9.90625 74 12.5 74 
Q 15.09375 74 16.25 72.75 
Q 17.40625 71.5 17.40625 69.5 
L 17.40625 68.203125 
Q 17.40625 66.203125 16.25 64.953125 
Q 15.09375 63.703125 12.5 63.703125 
z
M 8.5 51.59375 
L 16.5 51.59375 
L 16.5 0 
L 8.5 0 
z
" id="IBMPlexSans-105"/>
      <path d="M 17 0 
Q 12.796875 0 10.640625 2.34375 
Q 8.5 4.703125 8.5 8.296875 
L 8.5 74 
L 16.5 74 
L 16.5 7 
L 24.09375 7 
L 24.09375 0 
z
" id="IBMPlexSans-108"/>
      <path d="M 6.90625 26.09375 
L 6.90625 34.703125 
L 33 34.703125 
L 33 26.09375 
z
" id="IBMPlexSans-45"/>
      <path d="M 8.5 0 
L 8.5 51.59375 
L 16.5 51.59375 
L 16.5 43.203125 
L 16.90625 43.203125 
Q 18.796875 47.59375 22.25 50.1875 
Q 25.703125 52.796875 31.5 52.796875 
Q 39.5 52.796875 44.140625 47.640625 
Q 48.796875 42.5 48.796875 33.09375 
L 48.796875 0 
L 40.796875 0 
L 40.796875 31.703125 
Q 40.796875 45.59375 29.09375 45.59375 
Q 26.703125 45.59375 24.453125 45 
Q 22.203125 44.40625 20.390625 43.203125 
Q 18.59375 42 17.546875 40.140625 
Q 16.5 38.296875 16.5 35.796875 
L 16.5 0 
z
" id="IBMPlexSans-110"/>
      <path d="M 0.90625 -15.09375 
L 27 74 
L 34.203125 74 
L 8.09375 -15.09375 
z
" id="IBMPlexSans-47"/>
      <path d="M 63.703125 58.796875 
L 63.203125 58.796875 
L 57.296875 47.09375 
L 40.59375 16.703125 
L 23.90625 47.09375 
L 18 58.796875 
L 17.5 58.796875 
L 17.5 0 
L 9.296875 0 
L 9.296875 69.796875 
L 20.5 69.796875 
L 40.5 32.203125 
L 41 32.203125 
L 61.09375 69.796875 
L 71.90625 69.796875 
L 71.90625 0 
L 63.703125 0 
z
" id="IBMPlexSans-77"/>
     </defs>
     <use xlink:href="#IBMPlexSans-83"/>
     <use x="58.099991" xlink:href="#IBMPlexSans-116"/>
     <use x="93.199982" xlink:href="#IBMPlexSans-114"/>
     <use x="129.899979" xlink:href="#IBMPlexSans-101"/>
     <use x="184.799973" xlink:href="#IBMPlexSans-112"/>
     <use x="242.799957" xlink:href="#IBMPlexSans-116"/>
     <use x="277.899948" xlink:href="#IBMPlexSans-111"/>
     <use x="333.899933" xlink:href="#IBMPlexSans-109"/>
     <use x="421.199921" xlink:href="#IBMPlexSans-121"/>
     <use x="471.099915" xlink:href="#IBMPlexSans-99"/>
     <use x="521.399902" xlink:href="#IBMPlexSans-101"/>
     <use x="576.299896" xlink:href="#IBMPlexSans-115"/>
     <use x="624.999893" xlink:href="#IBMPlexSans-32"/>
     <use x="648.599884" xlink:href="#IBMPlexSans-97"/>
     <use x="701.999878" xlink:href="#IBMPlexSans-118"/>
     <use x="751.199875" xlink:href="#IBMPlexSans-101"/>
     <use x="806.099869" xlink:href="#IBMPlexSans-114"/>
     <use x="842.799866" xlink:href="#IBMPlexSans-109"/>
     <use x="930.099854" xlink:href="#IBMPlexSans-105"/>
     <use x="955.099838" xlink:href="#IBMPlexSans-116"/>
     <use x="990.199829" xlink:href="#IBMPlexSans-105"/>
     <use x="1015.199814" xlink:href="#IBMPlexSans-108"/>
     <use x="1042.399811" xlink:href="#IBMPlexSans-105"/>
     <use x="1067.399796" xlink:href="#IBMPlexSans-115"/>
     <use x="1116.099792" xlink:href="#IBMPlexSans-32"/>
     <use x="1139.699783" xlink:href="#IBMPlexSans-45"/>
     <use x="1179.599777" xlink:href="#IBMPlexSans-32"/>
     <use x="1203.199768" xlink:href="#IBMPlexSans-83"/>
     <use x="1261.299759" xlink:href="#IBMPlexSans-105"/>
     <use x="1286.299744" xlink:href="#IBMPlexSans-109"/>
     <use x="1373.599731" xlink:href="#IBMPlexSans-117"/>
     <use x="1430.399719" xlink:href="#IBMPlexSans-108"/>
     <use x="1457.599716" xlink:href="#IBMPlexSans-97"/>
     <use x="1510.99971" xlink:href="#IBMPlexSans-116"/>
     <use x="1546.099701" xlink:href="#IBMPlexSans-105"/>
     <use x="1571.099686" xlink:href="#IBMPlexSans-111"/>
     <use x="1627.09967" xlink:href="#IBMPlexSans-110"/>
     <use x="1683.899658" xlink:href="#IBMPlexSans-115"/>
     <use x="1732.599655" xlink:href="#IBMPlexSans-47"/>
     <use x="1770.899643" xlink:href="#IBMPlexSans-77"/>
     <use x="1852.099625" xlink:href="#IBMPlexSans-97"/>
     <use x="1905.499619" xlink:href="#IBMPlexSans-115"/>
     <use x="1954.199615" xlink:href="#IBMPlexSans-111"/>
     <use x="2010.1996" xlink:href="#IBMPlexSans-110"/>
    </g>
   </g>
   <g id="legend_1">
    <g id="line2d_19">
     <path d="M 72.6 33.5 
L 92.6 33.5 
" style="fill:none;stroke:#d41645;stroke-linecap:square;stroke-width:1.5;"/>
    </g>
    <g id="line2d_20"/>
    <g id="text_17">
     <!-- Sparrowhawk -->
     <g transform="translate(100.6 37)scale(0.1 -0.1)">
      <defs>
       <path d="M 3.09375 51.59375 
L 10.90625 51.59375 
L 16.40625 29.296875 
L 21.90625 6.703125 
L 22.09375 6.703125 
L 28.40625 29.296875 
L 34.90625 51.59375 
L 42 51.59375 
L 48.703125 29.296875 
L 55.09375 6.703125 
L 55.296875 6.703125 
L 60.59375 29.296875 
L 66.203125 51.59375 
L 73.703125 51.59375 
L 60 0 
L 50.09375 0 
L 42.90625 24.796875 
L 38.40625 40.5 
L 38.203125 40.5 
L 33.796875 24.796875 
L 26.59375 0 
L 16.90625 0 
z
" id="IBMPlexSans-119"/>
       <path d="M 8.5 74 
L 16.5 74 
L 16.5 43.203125 
L 16.90625 43.203125 
Q 18.796875 47.59375 22.25 50.1875 
Q 25.703125 52.796875 31.5 52.796875 
Q 39.5 52.796875 44.140625 47.640625 
Q 48.796875 42.5 48.796875 33.09375 
L 48.796875 0 
L 40.796875 0 
L 40.796875 31.703125 
Q 40.796875 45.59375 29.09375 45.59375 
Q 26.703125 45.59375 24.453125 45 
Q 22.203125 44.40625 20.390625 43.203125 
Q 18.59375 42 17.546875 40.140625 
Q 16.5 38.296875 16.5 35.796875 
L 16.5 0 
L 8.5 0 
z
" id="IBMPlexSans-104"/>
      </defs>
      <use xlink:href="#IBMPlexSans-83"/>
      <use x="58.099991" xlink:href="#IBMPlexSans-112"/>
      <use x="116.099976" xlink:href="#IBMPlexSans-97"/>
      <use x="169.499969" xlink:href="#IBMPlexSans-114"/>
      <use x="206.199966" xlink:href="#IBMPlexSans-114"/>
      <use x="242.899963" xlink:href="#IBMPlexSans-111"/>
      <use x="298.899948" xlink:href="#IBMPlexSans-119"/>
      <use x="375.699936" xlink:href="#IBMPlexSans-104"/>
      <use x="432.499924" xlink:href="#IBMPlexSans-97"/>
      <use x="485.899918" xlink:href="#IBMPlexSans-119"/>
      <use x="562.699905" xlink:href="#IBMPlexSans-107"/>
     </g>
    </g>
    <g id="line2d_21">
     <path d="M 72.6 47.9 
L 92.6 47.9 
" style="fill:none;stroke:#193f90;stroke-linecap:square;stroke-width:1.5;"/>
    </g>
    <g id="line2d_22"/>
    <g id="text_18">
     <!-- Velvet -->
     <g transform="translate(100.6 51.4)scale(0.1 -0.1)">
      <defs>
       <path d="M 25.203125 0 
L 2 69.796875 
L 11 69.796875 
L 22.5 34.59375 
L 30.203125 8.40625 
L 30.703125 8.40625 
L 38.59375 34.59375 
L 50.203125 69.796875 
L 58.90625 69.796875 
L 35.40625 0 
z
" id="IBMPlexSans-86"/>
      </defs>
      <use xlink:href="#IBMPlexSans-86"/>
      <use x="60.899994" xlink:href="#IBMPlexSans-101"/>
      <use x="115.799988" xlink:href="#IBMPlexSans-108"/>
      <use x="142.999985" xlink:href="#IBMPlexSans-118"/>
      <use x="192.199982" xlink:href="#IBMPlexSans-101"/>
      <use x="247.099976" xlink:href="#IBMPlexSans-116"/>
     </g>
    </g>
    <g id="line2d_23">
     <path d="M 72.6 62.3 
L 92.6 62.3 
" style="fill:none;stroke:#18974c;stroke-linecap:square;stroke-width:1.5;"/>
    </g>
    <g id="line2d_24"/>
    <g id="text_19">
     <!-- Skesa -->
     <g transform="translate(100.6 65.8)scale(0.1 -0.1)">
      <use xlink:href="#IBMPlexSans-83"/>
      <use x="58.099991" xlink:href="#IBMPlexSans-107"/>
      <use x="110.799988" xlink:href="#IBMPlexSans-101"/>
      <use x="165.699982" xlink:href="#IBMPlexSans-115"/>
      <use x="214.399979" xlink:href="#IBMPlexSans-97"/>
     </g>
    </g>
    <g id="line2d_25">
     <path d="M 72.6 76.7 
L 92.6 76.7 
" style="fill:none;stroke:#734595;stroke-linecap:square;stroke-width:1.5;"/>
    </g>
    <g id="line2d_26"/>
    <g id="text_20">
     <!-- Spades -->
     <g transform="translate(100.6 80.2)scale(0.1 -0.1)">
      <defs>
       <path d="M 41.5 8.40625 
L 41.09375 8.40625 
Q 36.40625 -1.203125 26 -1.203125 
Q 21.203125 -1.203125 17.296875 0.6875 
Q 13.40625 2.59375 10.65625 6.09375 
Q 7.90625 9.59375 6.453125 14.59375 
Q 5 19.59375 5 25.796875 
Q 5 32 6.453125 37 
Q 7.90625 42 10.65625 45.5 
Q 13.40625 49 17.296875 50.890625 
Q 21.203125 52.796875 26 52.796875 
Q 31.40625 52.796875 35.25 50.4375 
Q 39.09375 48.09375 41.09375 43.203125 
L 41.5 43.203125 
L 41.5 74 
L 49.5 74 
L 49.5 0 
L 41.5 0 
z
M 28.203125 6 
Q 30.90625 6 33.34375 6.703125 
Q 35.796875 7.40625 37.59375 8.75 
Q 39.40625 10.09375 40.453125 12.046875 
Q 41.5 14 41.5 16.5 
L 41.5 35.703125 
Q 41.5 37.796875 40.453125 39.640625 
Q 39.40625 41.5 37.59375 42.796875 
Q 35.796875 44.09375 33.34375 44.84375 
Q 30.90625 45.59375 28.203125 45.59375 
Q 21.40625 45.59375 17.5 41.34375 
Q 13.59375 37.09375 13.59375 30.203125 
L 13.59375 21.40625 
Q 13.59375 14.5 17.5 10.25 
Q 21.40625 6 28.203125 6 
z
" id="IBMPlexSans-100"/>
      </defs>
      <use xlink:href="#IBMPlexSans-83"/>
      <use x="58.099991" xlink:href="#IBMPlexSans-112"/>
      <use x="116.099976" xlink:href="#IBMPlexSans-97"/>
      <use x="169.499969" xlink:href="#IBMPlexSans-100"/>
      <use x="227.499954" xlink:href="#IBMPlexSans-101"/>
      <use x="282.399948" xlink:href="#IBMPlexSans-115"/>
     </g>
    </g>
    <g id="line2d_27">
     <path d="M 72.6 91.1 
L 92.6 91.1 
" style="fill:none;stroke:#f49e17;stroke-linecap:square;stroke-width:1.5;"/>
    </g>
    <g id="line2d_28"/>
    <g id="text_21">
     <!-- Minia -->
     <g transform="translate(100.6 94.6)scale(0.1 -0.1)">
      <use xlink:href="#IBMPlexSans-77"/>
      <use x="81.199982" xlink:href="#IBMPlexSans-105"/>
      <use x="106.199966" xlink:href="#IBMPlexSans-110"/>
      <use x="162.999954" xlink:href="#IBMPlexSans-105"/>
      <use x="187.999939" xlink:href="#IBMPlexSans-97"/>
     </g>
    </g>
   </g>
  </g>
 </g>
 <defs>
  <clipPath id="pb33adc3b6a">
   <rect height="266.112" width="357.12" x="63.6" y="20.6"/>
  </clipPath>
 </defs>
</svg>
