<?xml version="1.0" encoding="utf-8"?>
<!-- Generator: Adobe Illustrator 26.0.3, SVG Export Plug-In . SVG Version: 6.00 Build 0)  -->
<svg version="1.1" id="Layer_1" xmlns="http://www.w3.org/2000/svg" xmlns:xlink="http://www.w3.org/1999/xlink" x="0px" y="0px"
	 width="96px" height="96px" viewBox="0 0 96 96" style="enable-background:new 0 0 96 96;" xml:space="preserve">
<style type="text/css">
	.st0{fill:#D696A4;}
	.st1{fill:#808080;}
	.st2{fill:#82BFBF;}
	.st3{fill:#DCCD9B;}
</style>
<path class="st0" d="M59.2,52.58c0-2.26-1.84-4.09-4.09-4.09H51.6v-3.56c2.12-1.26,3.42-3.51,3.42-6.01c0-3.87-3.15-7.02-7.02-7.02
	s-7.02,3.15-7.02,7.02c0,2.49,1.3,4.74,3.41,6.01v3.56h-3.5c-2.26,0-4.09,1.84-4.09,4.09v14.26h22.4V52.58z"/>
<path class="st1" d="M35.57,62.49l-0.54-1.4c-3.4,1.3-5.2,3.03-5.2,4.99c0,2.8,3.77,5.16,10.09,6.32c2.55,0.46,5.26,0.7,8.07,0.7
	c2.78,0,5.56-0.24,8.05-0.7c6.33-1.17,10.11-3.53,10.11-6.32c0-1.96-1.8-3.69-5.2-4.99l-0.54,1.4c2.69,1.03,4.23,2.34,4.23,3.59
	c0,1.92-3.57,3.87-8.88,4.85c-2.4,0.44-5.09,0.67-7.78,0.67c-2.72,0-5.35-0.23-7.81-0.67c-5.3-0.97-8.86-2.92-8.86-4.85
	C31.34,64.83,32.88,63.52,35.57,62.49z"/>
<path class="st2" d="M29.29,40.13c0-1.94-1.58-3.51-3.52-3.51h-2.77v-2.74c1.75-1.08,2.83-2.96,2.83-5.04
	c0-3.27-2.66-5.93-5.94-5.93s-5.93,2.66-5.93,5.93c0,2.08,1.07,3.97,2.82,5.04v2.74h-2.76c-1.94,0-3.52,1.58-3.52,3.51v11.92h18.78
	L29.29,40.13L29.29,40.13z"/>
<path class="st1" d="M13.2,56.66c2.11,0.38,4.37,0.58,6.7,0.58c2.31,0,4.62-0.2,6.68-0.58c5.3-0.98,8.47-2.98,8.47-5.36
	c0-1.68-1.52-3.15-4.38-4.25l-0.54,1.4c2.14,0.82,3.42,1.88,3.42,2.85c0,1.5-2.98,3.1-7.24,3.88c-1.98,0.36-4.2,0.55-6.41,0.55
	c-2.24,0-4.41-0.19-6.43-0.55c-4.99-0.92-7.22-2.61-7.22-3.88c0-0.96,1.28-2.03,3.42-2.85l-0.54-1.4c-2.87,1.1-4.38,2.57-4.38,4.25
	C4.75,53.68,7.91,55.68,13.2,56.66z"/>
<path class="st3" d="M85.49,40.13c0-1.94-1.58-3.51-3.51-3.51h-2.77v-2.74c1.75-1.08,2.83-2.96,2.83-5.04
	c0-3.27-2.66-5.93-5.94-5.93c-3.27,0-5.93,2.66-5.93,5.93c0,2.08,1.07,3.97,2.82,5.04v2.74h-2.76c-1.94,0-3.52,1.58-3.52,3.51v11.92
	h18.78L85.49,40.13L85.49,40.13z"/>
<path class="st1" d="M69.4,56.66c2.11,0.38,4.37,0.58,6.7,0.58c2.34,0,4.59-0.19,6.68-0.58c5.3-0.98,8.47-2.98,8.47-5.36
	c0-1.68-1.52-3.15-4.38-4.25l-0.54,1.4c2.14,0.82,3.42,1.88,3.42,2.85c0,1.5-2.98,3.1-7.24,3.88c-1.98,0.36-4.2,0.55-6.41,0.55
	c-2.24,0-4.4-0.19-6.43-0.55c-4.99-0.92-7.22-2.61-7.22-3.88c0-0.96,1.28-2.03,3.42-2.85l-0.54-1.4c-2.87,1.1-4.38,2.57-4.38,4.25
	C60.95,53.68,64.11,55.68,69.4,56.66z"/>
</svg>
