<?xml version="1.0" encoding="utf-8"?>
<!-- Generator: Adobe Illustrator 26.0.3, SVG Export Plug-In . SVG Version: 6.00 Build 0)  -->
<svg version="1.1" id="Layer_1" xmlns="http://www.w3.org/2000/svg" xmlns:xlink="http://www.w3.org/1999/xlink" x="0px" y="0px"
	 width="110.8px" height="110.8px" viewBox="0 0 110.8 110.8" style="enable-background:new 0 0 110.8 110.8;" xml:space="preserve"
	>
<style type="text/css">
	.st0{fill:#FBB03B;}
	.st1{fill:#C1272D;stroke:#231F20;stroke-miterlimit:10;}
</style>
<path class="st0" d="M77.3,21.02c-2.7,2.7-6.2,3-10.1,2.3L50.6,6.62c0,0-0.1,0-0.1-0.1l0.7-0.7c0.2-0.2,0.2-0.5,0-0.7
	s-0.5-0.2-0.7,0l-3.7,3.7c-2.2,2.2-3.1,5-2.9,8.7c-2.4,0.2-4.6,1-6.4,2.8l-3.7,3.7c-5.1,5.1-2.4,12.9,0.2,20.4
	c0.1,0.3,0.2,0.7,0.4,1c-0.9-0.3-1.8-0.6-2.7-0.9c-7.5-2.6-15.3-5.3-20.4-0.2l-3.7,3.7c-2.3,2.3-3.2,5.3-2.8,9.2l-3.2,3.2
	c-0.2,0.3-0.2,0.5-0.2,0.7c0.1,0.2,0.2,0.3,0.5,0.3c0.4,0,0.8,0,1.2,0l3.5,3.5c0.4,1.2,0.8,2.4,1.2,3.6c0.5,1.5,1,3,1.5,4.4l1.2,4.8
	c0.2,1.3,0.3,2.5,0.3,3.6c0,0.2,0.1,0.4,0.3,0.5c0.1,0,0.1,0,0.2,0s0.3-0.1,0.4-0.1l3.7-3.7c0.1-0.1,0.1-0.2,0.1-0.3
	c0.1-4-1.5-8.7-3.1-13.2c-0.1-0.3-0.2-0.7-0.4-1c0.9,0.3,1.8,0.6,2.7,0.9c4.4,1.5,8.9,3.1,12.9,3.1c2.8,0,5.4-0.8,7.5-2.9l3.7-3.7
	c2.2-2.2,3.1-5,2.9-8.7c2.4-0.2,4.6-1,6.4-2.9l3.7-3.7c5.1-5.1,2.4-12.9-0.2-20.4c-0.1-0.3-0.2-0.7-0.4-1c0.9,0.3,1.8,0.6,2.7,0.9
	c4.4,1.5,8.9,3.1,12.9,3.1c2.8,0,5.4-0.8,7.5-2.9l3.7-3.7c0.1-0.1,0.1-0.2,0.1-0.4s0-0.3-0.1-0.4C77.8,20.82,77.5,20.82,77.3,21.02z
	 M49.9,7.32l15.6,15.6c-1-0.2-1.9-0.5-2.9-0.8L49,8.62l0,0l-0.1-0.1c0,0-0.1,0-0.1-0.1L49.9,7.32C49.8,7.32,49.8,7.32,49.9,7.32z
	 M50,18.12l-3.6-3.5c-0.1-0.1-0.2-0.3-0.2-0.5s0.1-0.4,0.2-0.5c0.3-0.3,0.8-0.3,1.1,0l5.4,5.4C52,18.62,51,18.42,50,18.12z
	 M55,19.62l-6.5-6.5c0-1.2,0.1-2.3,0.3-3.2l11.6,11.5c-0.8-0.3-1.7-0.6-2.5-0.9C57,20.22,56,19.92,55,19.62z M47.5,9.62l0.6-0.6
	c0,0,0,0,0,0.1c-0.3,1-0.5,2.1-0.5,3.3c-0.6-0.2-1.3-0.1-1.8,0.4c-0.3,0.3-0.5,0.8-0.5,1.2c0,0.5,0.2,0.9,0.5,1.2l2.4,2.4
	c0,0,0,0,0,0.1c-1.1-0.2-2.2-0.3-3.3-0.3C44.7,14.12,45.5,11.62,47.5,9.62z M40.7,22.22l5.9,5.9l0.4,1.2c0.4,1.2,0.8,2.5,1.2,3.7
	l-10.3-10.3C38.8,22.42,39.7,22.22,40.7,22.22z M44.5,22.42C44.5,22.52,44.5,22.52,44.5,22.42l4.8,4.9c0.1,0.1,0.2,0.3,0.2,0.5
	s-0.1,0.4-0.2,0.5c-0.3,0.3-0.8,0.3-1.1,0l-0.9-0.9l0,0l-5.2-5.2C42.9,22.22,43.7,22.32,44.5,22.42z M45.8,47.52l-7.3-7.3
	c-0.6-1.6-1.2-3.4-1.7-5.2l11.7,11.7C47.7,47.22,46.8,47.42,45.8,47.52z M42.3,47.52l-6.6-6.6c-0.3-0.3-0.3-0.8,0-1.1s0.8-0.3,1.1,0
	l7.8,7.8C43.8,47.62,43.1,47.62,42.3,47.52z M49.5,46.32l-15.8-15.8c-0.1-0.1-0.2-0.3-0.2-0.5s0.1-0.4,0.2-0.5
	c0.3-0.3,0.8-0.3,1.1,0l15.9,15.9l0,0C50.3,45.72,49.9,46.02,49.5,46.32z M35.6,28.92c-0.1-1.2,0-2.3,0.2-3.3l14,14
	c0.2,1.3,0.2,2.5,0.1,3.6L35.6,28.92z M50.6,38.92L50.6,38.92l-14.7-14.7l0,0l-0.3-0.3l1-0.6c0.1-0.1,0.3-0.1,0.4-0.2
	c0,0,0,0.1,0.1,0.1l15.1,15.1c0.1,0.1,0.2,0.3,0.2,0.5s-0.1,0.4-0.2,0.5c-0.3,0.3-0.8,0.3-1.1,0L50.6,38.92z M35,44.22
	c-2.6-7.6-5.1-14.7-0.4-19.4l0.2-0.2l0.2,0.2c-0.3,1.1-0.4,2.2-0.4,3.5c-0.6-0.1-1.2,0-1.6,0.5c-0.3,0.3-0.5,0.8-0.5,1.2
	c0,0.5,0.2,0.9,0.5,1.2l2.4,2.4c0.4,1.7,1,3.5,1.6,5.2c-0.7-0.3-1.5-0.2-2.1,0.3c-0.7,0.7-0.7,1.8,0,2.5l4.5,4.5
	c0.1,0.3,0.2,0.7,0.3,1c-1.3-0.3-2.7-0.7-4.1-1.2C35.4,45.32,35.2,44.72,35,44.22z M17.8,46.42l16.1,16.1c-1.2,0.3-2.4,0.4-3.7,0.3
	l-16.5-16.5C15,46.12,16.4,46.22,17.8,46.42z M35.5,51.62l3.1,3.1c0.1,0.1,0.2,0.3,0.2,0.5s-0.1,0.4-0.2,0.5c-0.3,0.3-0.8,0.3-1.1,0
	l-4.9-4.9C33.6,51.12,34.6,51.42,35.5,51.62z M30.5,50.22l6.3,6.3c0.1,0.1,0.1,0.1,0.2,0.2c0,1.3-0.1,2.5-0.4,3.6l-12.1-12.2
	c1.1,0.3,2.1,0.7,3.2,1.1C28.6,49.52,29.6,49.92,30.5,50.22z M22.4,47.52l14,14c-0.5,0.3-0.9,0.5-1.4,0.7l-15.4-15.5
	C20.5,46.92,21.5,47.22,22.4,47.52z M12.5,46.52l16.1,16.1c-0.9-0.1-1.8-0.3-2.7-0.5l-15-15.1C11.4,46.82,11.9,46.62,12.5,46.52z
	 M10.1,57.22c-0.1-0.3-0.1-0.6-0.2-0.9l1.1,1.1C10.7,57.32,10.4,57.32,10.1,57.22z M12.9,57.92L8,53.02c-0.3-0.3-0.3-0.8,0-1.1
	s0.8-0.3,1.1,0l6.9,6.9C14.9,58.52,13.9,58.22,12.9,57.92z M18.1,59.62l-8.3-8.3c-0.1-0.1-0.2-0.2-0.4-0.3c0.1-1.2,0.4-2.3,0.8-3.3
	l13.9,13.9c-1.7-0.5-3.5-1.1-5.3-1.7C18.5,59.72,18.3,59.72,18.1,59.62z M8.3,48.82l0.6-0.6c-0.3,0.8-0.4,1.7-0.5,2.6
	c-0.4,0-0.8,0.2-1.1,0.5c-0.7,0.7-0.7,1.8,0,2.5l1.3,1.3c0.1,0.6,0.2,1.3,0.4,2c-1.1-0.2-2.2-0.3-3.3-0.3
	C5.5,53.32,6.3,50.82,8.3,48.82z M7.3,62.12l3.3,3.3c0.3,0.3,0.3,0.8,0,1.1c-0.3,0.3-0.8,0.3-1.1,0l-4.9-4.9
	C5.5,61.72,6.4,61.92,7.3,62.12z M14.5,77.52l-2.7,2.7c0-0.8-0.2-1.7-0.3-2.6l-1.2-4.9c-0.5-1.5-1-3-1.5-4.5
	c-0.2-0.6-0.4-1.1-0.6-1.7l0.7,0.7c0.3,0.3,0.8,0.5,1.2,0.5c0.4,0,0.9-0.2,1.2-0.5c0.3-0.3,0.5-0.7,0.5-1.2
	C13.2,70.02,14.5,74.02,14.5,77.52z M11.4,64.82L11.4,64.82l-0.1-0.1l-2.1-2.1c0.5,0.2,1.1,0.3,1.6,0.5
	C11,63.72,11.2,64.32,11.4,64.82z M15.1,63.52c-4-1.4-8.1-2.8-11.7-3c0,0,0,0-0.1,0s-0.1,0-0.2,0l2.7-2.7c0,0,0,0,0.1,0
	c3.8,0,8.3,1.5,12.6,3c2.4,0.8,4.8,1.7,7.1,2.2c0,0,0,0,0.1,0c1.5,0.4,2.9,0.6,4.3,0.8h0.1l0,0c1.7,0.1,3.3,0,4.9-0.5h0.1l0,0
	l-0.6,0.6C29.8,68.62,22.6,66.12,15.1,63.52z M38.1,60.22c-0.2,0.2-0.4,0.4-0.6,0.5c0.4-1.1,0.6-2.4,0.5-3.8l0,0
	c0.4,0,0.9-0.2,1.2-0.5s0.5-0.8,0.5-1.2c0-0.5-0.2-0.9-0.5-1.2l-1.8-1.9v-0.1c1.1,0.2,2.1,0.3,3.2,0.3h0.1
	C40.9,55.72,40.1,58.22,38.1,60.22z M47.4,48.72c-1.7,1.7-3.8,2.5-6.2,2.6h-0.1c0,0,0,0-0.1,0c-1.3,0-2.7-0.1-4.2-0.4c0,0,0,0-0.1,0
	c-2.8-0.6-5.7-1.6-8.8-2.6c-3.3-1.2-6.7-2.3-9.9-2.8h-0.1c-2.4-0.4-4.6-0.4-6.7,0.3c0.2-0.2,0.4-0.4,0.6-0.6
	c4.7-4.7,11.8-2.2,19.4,0.4c3,1.1,6.1,2.1,9.1,2.7l0,0l0,0c0.5,0.1,1,0.2,1.5,0.2c0.1,0,0.1,0,0.2,0c1.2,0.1,2.4,0.2,3.5,0.1
	c0,0,0,0,0.1,0s0.1,0,0.2,0c0.8-0.1,1.5-0.3,2.2-0.5L47.4,48.72z M50.6,25.62c2.6,7.4,5,14.3,0.8,19l0,0l-0.5-0.5
	c0.2-1.1,0.2-2.3,0.1-3.6c0.2,0.1,0.4,0.1,0.6,0.1c0.5,0,0.9-0.2,1.2-0.5s0.5-0.8,0.5-1.2c0-0.5-0.2-0.9-0.5-1.2l-3-3
	c-0.5-1.7-1.1-3.4-1.7-5.1c0.2,0.1,0.5,0.2,0.7,0.2c0.4,0,0.9-0.2,1.2-0.5s0.5-0.8,0.5-1.2c0-0.5-0.2-0.9-0.5-1.2l-3.8-3.8
	c1.2,0.3,2.5,0.7,3.8,1.1C50.2,24.52,50.4,25.02,50.6,25.62z M73.7,24.72c-4.7,4.7-11.8,2.2-19.4-0.4c-3-1-6-2.1-8.9-2.7h-0.1
	c-1.4-0.3-2.9-0.4-4.2-0.4c-0.1-0.1-0.3-0.1-0.4,0c-1.1,0.1-2.1,0.2-3,0.6l0.7-0.7c1.7-1.7,3.8-2.5,6.2-2.6c0,0,0,0,0.1,0l0,0l0,0
	c3.9-0.1,8.4,1.4,13.1,3c3.1,1.1,6.3,2.2,9.3,2.7h0.1l0,0c2.6,0.5,5.1,0.5,7.3-0.2L73.7,24.72z"/>
<path class="st0" d="M108.5,44.19c-2.7,2.7-6.2,3-10.1,2.3l-16.6-16.7c0,0-0.1,0-0.1-0.1l0.7-0.7c0.2-0.2,0.2-0.5,0-0.7
	c-0.2-0.2-0.5-0.2-0.7,0l-3.7,3.7c-2.2,2.2-3.1,5-2.9,8.7c-2.4,0.2-4.6,1-6.4,2.8l-3.7,3.7c-5.1,5.1-2.4,12.9,0.2,20.4
	c0.1,0.3,0.2,0.7,0.4,1c-0.9-0.3-1.8-0.6-2.7-0.9c-7.5-2.6-15.3-5.3-20.4-0.2l-3.7,3.7c-2.3,2.3-3.2,5.3-2.8,9.2l-3.2,3.2
	c-0.2,0.3-0.2,0.5-0.2,0.7c0.1,0.2,0.2,0.3,0.5,0.3c0.4,0,0.8,0,1.2,0l3.5,3.5c0.4,1.2,0.8,2.4,1.2,3.6c0.5,1.5,1,3,1.5,4.4l1.2,4.8
	c0.2,1.3,0.3,2.5,0.3,3.6c0,0.2,0.1,0.4,0.3,0.5c0.1,0,0.1,0,0.2,0c0.1,0,0.3-0.1,0.4-0.1l3.7-3.7c0.1-0.1,0.1-0.2,0.1-0.3
	c0.1-4-1.5-8.7-3.1-13.2c-0.1-0.3-0.2-0.7-0.4-1c0.9,0.3,1.8,0.6,2.7,0.9c4.4,1.5,8.9,3.1,12.9,3.1c2.8,0,5.4-0.8,7.5-2.9l3.7-3.7
	c2.2-2.2,3.1-5,2.9-8.7c2.4-0.2,4.6-1,6.4-2.9l3.7-3.7c5.1-5.1,2.4-12.9-0.2-20.4c-0.1-0.3-0.2-0.7-0.4-1c0.9,0.3,1.8,0.6,2.7,0.9
	c4.4,1.5,8.9,3.1,12.9,3.1c2.8,0,5.4-0.8,7.5-2.9l3.7-3.7c0.1-0.1,0.1-0.2,0.1-0.4c0-0.2,0-0.3-0.1-0.4
	C109,43.99,108.7,43.99,108.5,44.19z M81.1,30.49l15.6,15.6c-1-0.2-1.9-0.5-2.9-0.8l-13.6-13.5l0,0l-0.1-0.1c0,0-0.1,0-0.1-0.1
	L81.1,30.49C81,30.49,81,30.49,81.1,30.49z M81.2,41.29l-3.6-3.5c-0.1-0.1-0.2-0.3-0.2-0.5s0.1-0.4,0.2-0.5c0.3-0.3,0.8-0.3,1.1,0
	l5.4,5.4C83.2,41.79,82.2,41.59,81.2,41.29z M86.2,42.79l-6.5-6.5c0-1.2,0.1-2.3,0.3-3.2l11.6,11.5c-0.8-0.3-1.7-0.6-2.5-0.9
	C88.2,43.39,87.2,43.09,86.2,42.79z M78.7,32.79l0.6-0.6c0,0,0,0,0,0.1c-0.3,1-0.5,2.1-0.5,3.3c-0.6-0.2-1.3-0.1-1.8,0.4
	c-0.3,0.3-0.5,0.8-0.5,1.2c0,0.5,0.2,0.9,0.5,1.2l2.4,2.4c0,0,0,0,0,0.1c-1.1-0.2-2.2-0.3-3.3-0.3C75.9,37.29,76.7,34.79,78.7,32.79
	z M71.9,45.39l5.9,5.9l0.4,1.2c0.4,1.2,0.8,2.5,1.2,3.7l-10.3-10.3C70,45.59,70.9,45.39,71.9,45.39z M75.7,45.59
	C75.7,45.69,75.7,45.69,75.7,45.59l4.8,4.9c0.1,0.1,0.2,0.3,0.2,0.5s-0.1,0.4-0.2,0.5c-0.3,0.3-0.8,0.3-1.1,0l-0.9-0.9l0,0l-5.2-5.2
	C74.1,45.39,74.9,45.49,75.7,45.59z M77,70.69l-7.3-7.3c-0.6-1.6-1.2-3.4-1.7-5.2l11.7,11.7C78.9,70.39,78,70.59,77,70.69z
	 M73.5,70.69l-6.6-6.6c-0.3-0.3-0.3-0.8,0-1.1s0.8-0.3,1.1,0l7.8,7.8C75,70.79,74.3,70.79,73.5,70.69z M80.7,69.49l-15.8-15.8
	c-0.1-0.1-0.2-0.3-0.2-0.5s0.1-0.4,0.2-0.5c0.3-0.3,0.8-0.3,1.1,0l15.9,15.9l0,0C81.5,68.89,81.1,69.19,80.7,69.49z M66.8,52.09
	c-0.1-1.2,0-2.3,0.2-3.3l14,14c0.2,1.3,0.2,2.5,0.1,3.6L66.8,52.09z M81.8,62.09L81.8,62.09l-14.7-14.7l0,0l-0.3-0.3l1-0.6
	c0.1-0.1,0.3-0.1,0.4-0.2c0,0,0,0.1,0.1,0.1l15.1,15.1c0.1,0.1,0.2,0.3,0.2,0.5s-0.1,0.4-0.2,0.5c-0.3,0.3-0.8,0.3-1.1,0L81.8,62.09
	z M66.2,67.39c-2.6-7.6-5.1-14.7-0.4-19.4l0.2-0.2l0.2,0.2c-0.3,1.1-0.4,2.2-0.4,3.5c-0.6-0.1-1.2,0-1.6,0.5
	c-0.3,0.3-0.5,0.8-0.5,1.2c0,0.5,0.2,0.9,0.5,1.2l2.4,2.4c0.4,1.7,1,3.5,1.6,5.2c-0.7-0.3-1.5-0.2-2.1,0.3c-0.7,0.7-0.7,1.8,0,2.5
	l4.5,4.5c0.1,0.3,0.2,0.7,0.3,1c-1.3-0.3-2.7-0.7-4.1-1.2C66.6,68.49,66.4,67.89,66.2,67.39z M49,69.59l16.1,16.1
	c-1.2,0.3-2.4,0.4-3.7,0.3l-16.5-16.5C46.2,69.29,47.6,69.39,49,69.59z M66.7,74.79l3.1,3.1c0.1,0.1,0.2,0.3,0.2,0.5
	c0,0.2-0.1,0.4-0.2,0.5c-0.3,0.3-0.8,0.3-1.1,0l-4.9-4.9C64.8,74.29,65.8,74.59,66.7,74.79z M61.7,73.39l6.3,6.3
	c0.1,0.1,0.1,0.1,0.2,0.2c0,1.3-0.1,2.5-0.4,3.6l-12.1-12.2c1.1,0.3,2.1,0.7,3.2,1.1C59.8,72.69,60.8,73.09,61.7,73.39z M53.6,70.69
	l14,14c-0.5,0.3-0.9,0.5-1.4,0.7l-15.4-15.5C51.7,70.09,52.7,70.39,53.6,70.69z M43.7,69.69l16.1,16.1c-0.9-0.1-1.8-0.3-2.7-0.5
	l-15-15.1C42.6,69.99,43.1,69.79,43.7,69.69z M41.3,80.39c-0.1-0.3-0.1-0.6-0.2-0.9l1.1,1.1C41.9,80.49,41.6,80.49,41.3,80.39z
	 M44.1,81.09l-4.9-4.9c-0.3-0.3-0.3-0.8,0-1.1c0.3-0.3,0.8-0.3,1.1,0l6.9,6.9C46.1,81.69,45.1,81.39,44.1,81.09z M49.3,82.79
	l-8.3-8.3c-0.1-0.1-0.2-0.2-0.4-0.3c0.1-1.2,0.4-2.3,0.8-3.3l13.9,13.9c-1.7-0.5-3.5-1.1-5.3-1.7C49.7,82.89,49.5,82.89,49.3,82.79z
	 M39.5,71.99l0.6-0.6c-0.3,0.8-0.4,1.7-0.5,2.6c-0.4,0-0.8,0.2-1.1,0.5c-0.7,0.7-0.7,1.8,0,2.5l1.3,1.3c0.1,0.6,0.2,1.3,0.4,2
	c-1.1-0.2-2.2-0.3-3.3-0.3C36.7,76.49,37.5,73.99,39.5,71.99z M38.5,85.29l3.3,3.3c0.3,0.3,0.3,0.8,0,1.1c-0.3,0.3-0.8,0.3-1.1,0
	l-4.9-4.9C36.7,84.89,37.6,85.09,38.5,85.29z M45.7,100.69l-2.7,2.7c0-0.8-0.2-1.7-0.3-2.6l-1.2-4.9c-0.5-1.5-1-3-1.5-4.5
	c-0.2-0.6-0.4-1.1-0.6-1.7l0.7,0.7c0.3,0.3,0.8,0.5,1.2,0.5s0.9-0.2,1.2-0.5s0.5-0.7,0.5-1.2C44.4,93.19,45.7,97.19,45.7,100.69z
	 M42.6,87.99L42.6,87.99l-0.1-0.1l-2.1-2.1c0.5,0.2,1.1,0.3,1.6,0.5C42.2,86.89,42.4,87.49,42.6,87.99z M46.3,86.69
	c-4-1.4-8.1-2.8-11.7-3c0,0,0,0-0.1,0c-0.1,0-0.1,0-0.2,0l2.7-2.7c0,0,0,0,0.1,0c3.8,0,8.3,1.5,12.6,3c2.4,0.8,4.8,1.7,7.1,2.2
	c0,0,0,0,0.1,0c1.5,0.4,2.9,0.6,4.3,0.8h0.1l0,0c1.7,0.1,3.3,0,4.9-0.5h0.1l0,0l-0.6,0.6C61,91.79,53.8,89.29,46.3,86.69z
	 M69.3,83.39c-0.2,0.2-0.4,0.4-0.6,0.5c0.4-1.1,0.6-2.4,0.5-3.8l0,0c0.4,0,0.9-0.2,1.2-0.5c0.3-0.3,0.5-0.8,0.5-1.2
	c0-0.5-0.2-0.9-0.5-1.2l-1.8-1.9v-0.1c1.1,0.2,2.1,0.3,3.2,0.3h0.1C72.1,78.89,71.3,81.39,69.3,83.39z M78.6,71.89
	c-1.7,1.7-3.8,2.5-6.2,2.6h-0.1c0,0,0,0-0.1,0c-1.3,0-2.7-0.1-4.2-0.4c0,0,0,0-0.1,0c-2.8-0.6-5.7-1.6-8.8-2.6
	c-3.3-1.2-6.7-2.3-9.9-2.8h-0.1c-2.4-0.4-4.6-0.4-6.7,0.3c0.2-0.2,0.4-0.4,0.6-0.6c4.7-4.7,11.8-2.2,19.4,0.4c3,1.1,6.1,2.1,9.1,2.7
	l0,0l0,0c0.5,0.1,1,0.2,1.5,0.2c0.1,0,0.1,0,0.2,0c1.2,0.1,2.4,0.2,3.5,0.1c0,0,0,0,0.1,0c0.1,0,0.1,0,0.2,0
	c0.8-0.1,1.5-0.3,2.2-0.5L78.6,71.89z M81.8,48.79c2.6,7.4,5,14.3,0.8,19l0,0l-0.5-0.5c0.2-1.1,0.2-2.3,0.1-3.6
	c0.2,0.1,0.4,0.1,0.6,0.1c0.5,0,0.9-0.2,1.2-0.5s0.5-0.8,0.5-1.2c0-0.5-0.2-0.9-0.5-1.2l-3-3c-0.5-1.7-1.1-3.4-1.7-5.1
	c0.2,0.1,0.5,0.2,0.7,0.2c0.4,0,0.9-0.2,1.2-0.5c0.3-0.3,0.5-0.8,0.5-1.2c0-0.5-0.2-0.9-0.5-1.2l-3.8-3.8c1.2,0.3,2.5,0.7,3.8,1.1
	C81.4,47.69,81.6,48.19,81.8,48.79z M104.9,47.89c-4.7,4.7-11.8,2.2-19.4-0.4c-3-1-6-2.1-8.9-2.7h-0.1c-1.4-0.3-2.9-0.4-4.2-0.4
	c-0.1-0.1-0.3-0.1-0.4,0c-1.1,0.1-2.1,0.2-3,0.6l0.7-0.7c1.7-1.7,3.8-2.5,6.2-2.6c0,0,0,0,0.1,0l0,0l0,0c3.9-0.1,8.4,1.4,13.1,3
	c3.1,1.1,6.3,2.2,9.3,2.7h0.1l0,0c2.6,0.5,5.1,0.5,7.3-0.2L104.9,47.89z"/>
<polygon class="st1" points="19.75,38.11 21.47,41.59 25.32,42.15 22.53,44.86 23.19,48.69 19.75,46.89 16.31,48.69 16.97,44.86 
	14.18,42.15 18.03,41.59 "/>
</svg>
