<?xml version="1.0" encoding="utf-8"?>
<!-- Generator: Adobe Illustrator 26.0.3, SVG Export Plug-In . SVG Version: 6.00 Build 0)  -->
<svg version="1.1" id="Layer_1" xmlns="http://www.w3.org/2000/svg" xmlns:xlink="http://www.w3.org/1999/xlink" x="0px" y="0px"
	 width="463.42px" height="459.88px" viewBox="0 0 463.42 459.88" style="enable-background:new 0 0 463.42 459.88;"
	 xml:space="preserve">
<style type="text/css">
	.st0{fill:none;stroke:#689676;stroke-width:3;stroke-miterlimit:10;}
	.st1{fill:#689676;}
	.st2{stroke:#689676;}
</style>
<g>
	<path class="st0" d="M4.93,102.96c0,4.97,4.03,9,9,9h86.89c4.97,0,9-4.03,9-9V16.07c0-4.97-4.03-9-9-9H13.93c-4.97,0-9,4.03-9,9
		V102.96z"/>
</g>
<g>
	<path class="st0" d="M121.23,217.59c0,4.97,4.03,9,9,9h86.89c4.97,0,9-4.03,9-9V130.7c0-4.97-4.03-9-9-9h-86.89c-4.97,0-9,4.03-9,9
		V217.59z"/>
</g>
<g>
	<path class="st0" d="M237.52,332.22c0,4.97,4.03,9,9,9h86.89c4.97,0,9-4.03,9-9v-86.89c0-4.97-4.03-9-9-9h-86.89
		c-4.97,0-9,4.03-9,9V332.22z"/>
</g>
<g>
	<path class="st0" d="M353.82,446.85c0,4.97,4.03,9,9,9h86.89c4.97,0,9-4.03,9-9v-86.89c0-4.97-4.03-9-9-9h-86.89
		c-4.97,0-9,4.03-9,9V446.85z"/>
</g>
<g>
	<g>
		<path class="st0" d="M110.71,59.51c2.58-0.32,29.82-3.25,48.89,17.78c13.5,14.88,14.52,32.53,14.28,40.09"/>
		<g>
			<polygon class="st1" points="161.31,107.51 163.5,105.45 173.64,116.22 183.64,105.31 185.85,107.35 173.67,120.62 			"/>
		</g>
	</g>
</g>
<g>
	<g>
		<path class="st0" d="M226.77,174.46c2.58-0.32,29.82-3.25,48.89,17.78c13.5,14.88,14.52,32.53,14.28,40.09"/>
		<g>
			<polygon class="st1" points="277.37,222.46 279.56,220.4 289.7,231.16 299.7,220.26 301.91,222.29 289.73,235.57 			"/>
		</g>
	</g>
</g>
<g>
	<g>
		<path class="st0" d="M343.07,289.09c2.58-0.32,29.82-3.25,48.89,17.78c13.5,14.88,14.52,32.53,14.28,40.09"/>
		<g>
			<polygon class="st1" points="393.67,337.09 395.85,335.03 406,345.79 415.99,334.89 418.21,336.92 406.03,350.2 			"/>
		</g>
	</g>
</g>
<g>
	<g>
		<path class="st0" d="M352.66,403.4c-25.62,0.2-110.99-2.32-187.85-64.92C67.37,259.14,58.43,144.2,57.47,117.02"/>
		<g>
			<path class="st1" d="M72.82,136.87c-0.68,0.48-1.61,0.31-2.09-0.37l-13.17-18.8L46.1,137.59c-0.41,0.72-1.33,0.97-2.05,0.55
				c-0.72-0.41-0.96-1.34-0.55-2.05l12.64-21.92c0.26-0.44,0.72-0.73,1.23-0.75s1,0.22,1.29,0.64l14.52,20.73
				c0.17,0.24,0.26,0.52,0.27,0.79C73.48,136.07,73.26,136.57,72.82,136.87z"/>
		</g>
	</g>
</g>
<g>
	<path class="st2" d="M56.08,70.88c1.7,0,3.09-0.19,4.15-0.56c2.02-0.72,3.02-2.05,3.02-4.01c0-1.14-0.5-2.02-1.5-2.65
		c-1-0.61-2.57-1.15-4.71-1.62l-3.66-0.82c-3.59-0.81-6.08-1.7-7.45-2.65c-2.33-1.59-3.49-4.09-3.49-7.48
		c0-3.09,1.12-5.66,3.38-7.71s5.55-3.07,9.91-3.07c3.64,0,6.75,0.96,9.32,2.89c2.57,1.93,3.92,4.73,4.04,8.4h-6.94
		c-0.12-2.08-1.03-3.55-2.72-4.43c-1.12-0.58-2.52-0.87-4.2-0.87c-1.86,0-3.34,0.38-4.45,1.12s-1.66,1.8-1.66,3.14
		c0,1.23,0.55,2.16,1.64,2.77c0.7,0.41,2.2,0.88,4.5,1.43l5.95,1.43c2.61,0.62,4.58,1.46,5.91,2.51c2.06,1.62,3.09,3.98,3.09,7.05
		c0,3.16-1.21,5.78-3.62,7.86s-5.82,3.13-10.23,3.13c-4.5,0-8.04-1.03-10.62-3.08s-3.87-4.88-3.87-8.47h6.89
		c0.22,1.58,0.65,2.76,1.29,3.54C51.23,70.17,53.24,70.88,56.08,70.88z"/>
</g>
<g>
	<path class="st2" d="M186,176.13h-16.78v8.88h19.12v6.21h-26.18v-34.55h25.34v6.12h-18.28v7.34H186V176.13z"/>
</g>
<g>
	<path class="st2" d="M286.12,270.69h7.17v34.55h-7.17V270.69z"/>
</g>
<g>
	<path class="st2" d="M408.91,404.35h-7.45v13.55h-7.05v-34.55h16.95c2.42,0.05,4.29,0.34,5.59,0.89s2.41,1.35,3.32,2.41
		c0.75,0.88,1.34,1.84,1.78,2.91s0.66,2.27,0.66,3.63c0,1.64-0.41,3.25-1.24,4.84s-2.2,2.71-4.1,3.36c1.59,0.64,2.72,1.55,3.39,2.73
		s1,2.98,1,5.4v2.32c0,1.58,0.06,2.65,0.19,3.21c0.19,0.89,0.62,1.55,1.31,1.97v0.87h-7.95c-0.22-0.77-0.38-1.38-0.47-1.85
		c-0.19-0.97-0.29-1.96-0.3-2.98l-0.05-3.21c-0.03-2.2-0.43-3.67-1.21-4.41S411.03,404.35,408.91,404.35z M413.29,398.07
		c1.44-0.66,2.16-1.95,2.16-3.89c0-2.09-0.7-3.5-2.09-4.22c-0.78-0.41-1.95-0.61-3.52-0.61h-8.39v9.28h8.18
		C411.26,398.63,412.48,398.44,413.29,398.07z"/>
</g>
<g>
</g>
<g>
</g>
<g>
</g>
<g>
</g>
<g>
</g>
<g>
</g>
<g>
</g>
<g>
</g>
</svg>
