<?xml version="1.0" encoding="utf-8"?>
<!-- Generator: Adobe Illustrator 26.0.3, SVG Export Plug-In . SVG Version: 6.00 Build 0)  -->
<svg version="1.1" id="Layer_1" xmlns="http://www.w3.org/2000/svg" xmlns:xlink="http://www.w3.org/1999/xlink" x="0px" y="0px"
	 width="100px" height="100px" viewBox="0 0 100 100" style="enable-background:new 0 0 100 100;" xml:space="preserve">
<style type="text/css">
	.st0{fill:#CDAF70;}
	.st1{fill:#99789D;}
</style>
<polygon points="96.25,86.75 13.25,86.75 13.25,3.75 11.25,3.75 11.25,86.75 3.75,86.75 3.75,88.75 11.25,88.75 11.25,96.25 
	13.25,96.25 13.25,88.75 26.25,88.75 26.25,92 28.25,92 28.25,88.75 45.25,88.75 45.25,92 47.25,92 47.25,88.75 64.25,88.75 
	64.25,92 66.25,92 66.25,88.75 83.25,88.75 83.25,92 85.25,92 85.25,88.75 96.25,88.75 "/>
<path d="M54.24,42.65C79.49,41.9,95.46,18.61,95.46,12.9h-2c0,4.02-14.65,27.02-39.28,27.75C28.5,41.41,20.82,66.11,20.75,66.36
	l1.92,0.57C22.73,66.7,29.99,43.37,54.24,42.65z"/>
<path class="st0" d="M49.75,52.5c-2.48,0-4.5,2.02-4.5,4.5s2.02,4.5,4.5,4.5s4.5-2.02,4.5-4.5S52.23,52.5,49.75,52.5z"/>
<path class="st0" d="M72.5,74.65c2.48,0,4.5-2.02,4.5-4.5s-2.02-4.5-4.5-4.5s-4.5,2.02-4.5,4.5S70.02,74.65,72.5,74.65z"/>
<path class="st0" d="M84,46.5c0-2.48-2.02-4.5-4.5-4.5S75,44.02,75,46.5s2.02,4.5,4.5,4.5S84,48.98,84,46.5z"/>
<path class="st0" d="M83,65c2.48,0,4.5-2.02,4.5-4.5S85.48,56,83,56s-4.5,2.02-4.5,4.5S80.52,65,83,65z"/>
<path class="st0" d="M58.08,71.15c2.48,0,4.5-2.02,4.5-4.5s-2.02-4.5-4.5-4.5s-4.5,2.02-4.5,4.5S55.6,71.15,58.08,71.15z"/>
<path class="st0" d="M71.75,54.57c0-2.48-2.02-4.5-4.5-4.5s-4.5,2.02-4.5,4.5s2.02,4.5,4.5,4.5S71.75,57.05,71.75,54.57z"/>
<rect x="45.25" y="6.25" transform="matrix(0.7071 -0.7071 0.7071 0.7071 6.9692 38.326)" class="st1" width="9" height="9"/>
<rect x="29" y="9.83" transform="matrix(0.7071 -0.7071 0.7071 0.7071 -0.3183 27.883)" class="st1" width="9" height="9"/>
<rect x="36.8" y="28.21" transform="matrix(0.7071 -0.7071 0.7071 0.7071 -11.0361 38.7859)" class="st1" width="9" height="9"/>
<rect x="52.13" y="19.73" transform="matrix(0.7071 -0.7071 0.7071 0.7071 -0.5441 47.141)" class="st1" width="9" height="9"/>
<rect x="66.25" y="13.35" transform="matrix(0.7071 -0.7071 0.7071 0.7071 8.1003 55.2542)" class="st1" width="9" height="9"/>
</svg>
