<?xml version="1.0" encoding="utf-8"?>
<!-- Generator: Adobe Illustrator 26.0.3, SVG Export Plug-In . SVG Version: 6.00 Build 0)  -->
<svg version="1.1" id="Layer_1" xmlns="http://www.w3.org/2000/svg" xmlns:xlink="http://www.w3.org/1999/xlink" x="0px" y="0px"
	 width="1007.4px" height="707.09px" viewBox="0 0 1007.4 707.09" style="enable-background:new 0 0 1007.4 707.09;"
	 xml:space="preserve">
<style type="text/css">
	.st0{fill:#F15B27;}
	.st1{clip-path:url(#SVGID_00000124851483595308640570000007946275033033005714_);}
	.st2{fill:#010101;}
	.st3{fill:#F79421;}
	.st4{clip-path:url(#SVGID_00000033329127637658682150000004124158470114099102_);}
	.st5{clip-path:url(#SVGID_00000135690966242840808910000008320163124800826775_);}
	.st6{fill:#C1282D;}
	.st7{clip-path:url(#SVGID_00000019670771191923364880000001027739615494707902_);}
</style>
<g>
	
		<ellipse transform="matrix(0.7372 -0.6757 0.6757 0.7372 -67.9059 450.7676)" class="st0" cx="545.5" cy="312.67" rx="53.52" ry="52.23"/>
	
		<ellipse transform="matrix(0.7372 -0.6757 0.6757 0.7372 -14.0929 428.298)" class="st0" cx="543.52" cy="232.26" rx="53.52" ry="52.23"/>
	
		<ellipse transform="matrix(0.7372 -0.6757 0.6757 0.7372 33.4362 403.7735)" class="st0" cx="535.76" cy="158.91" rx="53.52" ry="52.23"/>
	
		<ellipse transform="matrix(0.7372 -0.6757 0.6757 0.7372 59.8911 350.099)" class="st0" cx="479.99" cy="98.06" rx="53.52" ry="52.23"/>
	
		<ellipse transform="matrix(0.7372 -0.6757 0.6757 0.7372 -2.1462 323.6919)" class="st0" cx="415.02" cy="164.6" rx="53.52" ry="52.23"/>
	
		<ellipse transform="matrix(0.7372 -0.6757 0.6757 0.7372 -66.2742 297.2968)" class="st0" cx="349.03" cy="233.84" rx="53.52" ry="52.23"/>
	
		<ellipse transform="matrix(0.7372 -0.6757 0.6757 0.7372 -127.0476 272.5551)" class="st0" cx="286.84" cy="299.59" rx="53.52" ry="52.23"/>
	
		<ellipse transform="matrix(0.7372 -0.6757 0.6757 0.7372 -298.7849 367.2026)" class="st0" cx="322.64" cy="567.68" rx="53.52" ry="52.23"/>
	
		<ellipse transform="matrix(0.7372 -0.6757 0.6757 0.7372 -242.905 340.5397)" class="st0" cx="316.3" cy="482.52" rx="53.52" ry="52.23"/>
	
		<ellipse transform="matrix(0.7372 -0.6757 0.6757 0.7372 -165.5186 272.3568)" class="st0" cx="267.35" cy="348.95" rx="53.52" ry="52.23"/>
	
		<ellipse transform="matrix(0.7372 -0.6757 0.6757 0.7372 -196.7404 223.6116)" class="st0" cx="189.08" cy="364.71" rx="53.52" ry="52.23"/>
	
		<ellipse transform="matrix(0.7372 -0.6757 0.6757 0.7372 -224.4593 275.6208)" class="st0" cx="242.07" cy="426.35" rx="57.39" ry="59.97"/>
	
		<ellipse transform="matrix(0.7372 -0.6757 0.6757 0.7372 -235.3549 198.3251)" class="st0" cx="137.26" cy="401.7" rx="53.52" ry="52.23"/>
	
		<ellipse transform="matrix(0.7372 -0.6757 0.6757 0.7372 -280.7335 233.291)" class="st0" cx="159.52" cy="477.52" rx="53.52" ry="52.23"/>
	
		<ellipse transform="matrix(0.7372 -0.6757 0.6757 0.7372 -312.4164 177.0217)" class="st0" cx="71.35" cy="490.11" rx="53.52" ry="52.23"/>
	<g>
		<defs>
			
				<rect id="SVGID_1_" x="-30.24" y="154.18" transform="matrix(0.7372 -0.6757 0.6757 0.7372 -164.8279 356.6104)" width="812.47" height="472.01"/>
		</defs>
		<clipPath id="SVGID_00000044895004533647970610000008983220633596983991_">
			<use xlink:href="#SVGID_1_"  style="overflow:visible;"/>
		</clipPath>
		<g style="clip-path:url(#SVGID_00000044895004533647970610000008983220633596983991_);">
			<g>
				<path class="st2" d="M-137.94,149.09c-1.52,1.84-3.16,3.57-4.91,5.19c1.28,3.52,2.16,7.15,2.65,10.82
					c1.12,8.55,0.07,17.32-3.13,25.4c10.14,2.07,19.74,7.25,27.27,15.46c12.84,14.01,16.77,33.95,10.29,51.78
					c9.18,2.38,17.8,7.35,24.69,14.86c18.22,19.88,17.76,50.56-1.05,69.83c2.74,1.98,5.32,4.27,7.69,6.86
					c18.98,20.7,17.58,52.86-3.11,71.83s-52.86,17.56-71.83-3.14c-18.22-19.88-17.76-50.57,1.06-69.84
					c-2.79-2.01-5.38-4.32-7.7-6.85c-12.87-14.04-16.78-33.98-10.3-51.79c-9.49-2.46-18.05-7.62-24.68-14.85
					c-13.21-14.41-16.95-35.02-9.8-53.1c-3.87-0.79-7.67-2.04-11.32-3.75c-20.65,18.89-52.85,17.48-71.78-3.18
					c-18.98-20.7-17.58-52.86,3.11-71.83c14.15-12.97,34.28-16.77,52.05-10.17c4.62,1.72,3.74,2.39,2.44-2.4
					c-4.99-18.36,0.65-37.97,14.7-50.84c21.48-19.69,55.1-17.31,73.6,5.18c1.51-1.83,3.16-3.58,4.96-5.23
					c10.35-9.48,23.56-13.88,36.56-13.31c13,0.57,25.78,6.09,35.27,16.45c2.53,2.76,4.76,5.84,6.63,9.09
					c20.83-17.21,51.55-15.06,69.83,4.88c15.99,17.44,17.83,43.65,4.45,63.11c5.35,1.29,10.51,3.46,15.28,6.48
					c4.44-3.07,9.35-5.41,14.54-6.93c-4.26-8.09-6.18-17.05-5.79-25.91c0.56-13.02,6.09-25.82,16.45-35.31
					c15.62-14.31,38.49-17.45,57.39-7.89c2.72-5.63,6.54-10.85,11.43-15.33c20.72-18.99,52.92-17.59,71.92,3.14
					c0.22,0.24,0.44,0.49,0.67,0.74c2.27-3.46,5-6.7,8.2-9.63c20.72-18.99,52.92-17.59,71.92,3.14s17.6,52.93-3.12,71.93
					c-21.01,19.26-53.75,17.5-72.6-3.89c-2.32,3.53-5.08,6.79-8.19,9.64c-15.66,14.35-38.54,17.44-57.4,7.89
					c-2.79,5.78-6.68,10.99-11.41,15.33c-5.93,5.43-12.79,9.2-20.02,11.32c10.75,20.42,6.37,45.6-10.66,61.2
					c-17.01,15.59-42.4,17.77-61.78,5.39c-20.84,14.35-49.17,11.09-66.26-7.56c-16-17.45-17.83-43.67-4.47-63.11
					c-9.79-2.38-18.68-7.62-25.49-15.05c-2.6-2.84-4.83-5.9-6.66-9.11c-9.74,7.95-21.62,11.84-33.41,11.62
					C-114.66,167.36-128.51,160.53-137.94,149.09L-137.94,149.09z M450.91,167.03c1.74,1.89-1.14,4.53-2.88,2.64
					c-11.01-12.02,1.28-21.24-11.99-31.17c-2.05-1.54,0.29-4.66,2.34-3.12C453.75,146.89,441.14,156.37,450.91,167.03z
					 M236.74,353.52c1.19,2.27-2.25,4.08-3.45,1.82c-6.63-12.67,2.76-15.58,1.98-23.98c-0.24-2.54,3.64-2.9,3.87-0.36
					C240,340.19,231.35,343.21,236.74,353.52L236.74,353.52z M240.84,461.86c2.52,0.49,1.78,4.31-0.74,3.82
					c-7.8-1.5-14.4-5.25-19.36-11.5c-1.6-2.01,1.46-4.44,3.05-2.43C228.16,457.26,233.98,460.55,240.84,461.86z M111.13,421.81
					c2.19,1.33,0.18,4.66-2.01,3.34c-6.5-3.92-10.63-12.69-9.54-20.2c0.37-2.53,4.23-1.96,3.85,0.57
					C102.57,411.47,105.97,418.7,111.13,421.81L111.13,421.81z M161.46,506.76c2.11-1.46,4.33,1.75,2.22,3.21
					c-6.32,4.36-12.29,5.51-18.3,0.03c-3.02-2.76-5.4-6.09-9.56-6.27c-2.56-0.12-2.38-4.01,0.18-3.89c5.74,0.26,8.64,4.2,11.72,7.04
					C152.45,511.25,156.42,510.23,161.46,506.76z M378.66,253.15c-1.89,1.74-4.54-1.14-2.64-2.88c4.04-3.7,6.39-10.72,5.7-16.13
					c-0.33-2.54,3.54-3.04,3.87-0.5C386.43,240.3,383.64,248.58,378.66,253.15z M342.83,459.72c-1.77-1.85,1.05-4.54,2.82-2.69
					c5.3,5.52,9.05,12.94,9.29,20.67c0.07,2.56-3.82,2.67-3.89,0.11C350.83,471.07,347.44,464.52,342.83,459.72L342.83,459.72z
					 M318.48,600.94c-2.41-0.85-1.12-4.52,1.29-3.67c5.87,2.07,14.78,0.17,20.27-2.39c2.33-1.08,3.98,2.46,1.65,3.54
					C335.26,601.42,325.34,603.36,318.48,600.94L318.48,600.94z M518.58,336.07c-1.15-2.3,2.34-4.04,3.49-1.75
					c4.57,9.14,13.68,3.51,20.52,10.97c1.74,1.89-1.14,4.53-2.88,2.64C533.83,341.52,524.38,347.66,518.58,336.07L518.58,336.07z
					 M578.4,240.63c-1.12,2.3-4.62,0.6-3.5-1.7c5.38-11.16-8.68-14.36-5.29-29.2c0.57-2.49,4.37-1.63,3.8,0.87
					C570.37,223.91,585.14,226.66,578.4,240.63L578.4,240.63z M574.21,155.49c-0.03,2.56-3.93,2.51-3.9-0.05
					c0.08-7-4.01-15.39-10.01-19.16c-2.16-1.37-0.09-4.66,2.08-3.29C569.54,137.48,574.31,147.12,574.21,155.49L574.21,155.49z
					 M474.51,63.04c-1.74-1.89,1.14-4.53,2.88-2.64c7.9,8.61,19.63-2.37,29.32,13.31c1.36,2.18-1.95,4.24-3.31,2.06
					C495.04,62.24,483.93,73.33,474.51,63.04L474.51,63.04z M328.56,297.36c-0.03,2.56-3.93,2.51-3.9-0.05
					c0.17-13.06-13.25-13.8-15.57-26.92c-0.44-2.52,3.39-3.19,3.83-0.68C315,281.49,328.76,281.84,328.56,297.36L328.56,297.36z
					 M158.03,362.09c0.98,2.37-2.61,3.86-3.6,1.5c-5.56-13.36,6.57-15.46,5.92-24.64c-0.18-2.56,3.71-2.83,3.89-0.27
					C165.01,349.43,153.58,351.4,158.03,362.09z M73.58,523.93c2,1.6-0.43,4.64-2.43,3.04c-8.64-6.88-18.54,1.89-27.34-7.71
					c-1.74-1.89,1.14-4.53,2.88-2.64C53.76,524.33,63.76,516.11,73.58,523.93L73.58,523.93z M350.63,0.81
					c-2.54-0.31-2.07-4.18,0.47-3.87c5.57,0.67,11.51-3.81,13.8-8.68c1.09-2.32,4.61-0.66,3.53,1.66
					C365.41-3.67,357.9,1.68,350.63,0.81z M357.44-134.87c-1.36-2.17,1.94-4.24,3.3-2.07c6.84,10.91,20.99,1.59,27.72,18.81
					c0.93,2.39-2.69,3.8-3.63,1.42C379.08-131.45,365.45-122.1,357.44-134.87L357.44-134.87z M279.53-237.51
					c1.19-2.27,4.64-0.47,3.45,1.8c-6.51,12.54,10.48,18.4-1.92,32.87c-1.68,1.94-4.63-0.6-2.96-2.55
					C288.48-217.49,271.96-222.94,279.53-237.51L279.53-237.51z M151.01-200.88c2,1.6-0.43,4.64-2.43,3.04
					c-6.06-4.84-5.16-9.26-2.33-15.62c1.28-2.88,2.74-6.15-0.19-9.34c-1.74-1.89,1.14-4.53,2.88-2.64c4.65,5.07,2.63,9.6,0.86,13.57
					C147.75-207.27,146.48-204.5,151.01-200.88L151.01-200.88z M130.37-93.99c-2.14-1.4-0.01-4.66,2.13-3.26
					c7.79,5.08,15.71,7.69,24.42,3.02c2.26-1.22,4.11,2.22,1.85,3.44C148.75-85.41,139.39-88.11,130.37-93.99L130.37-93.99z
					 M-137.64,401.76c-1.07-2.33,2.47-3.96,3.54-1.63c2.39,5.21,9.38,9.58,15.16,8.76c2.54-0.36,3.09,3.49,0.56,3.86
					C-125.85,413.82-134.54,408.53-137.64,401.76L-137.64,401.76z M-91.48,317.77c0.91,2.4-2.74,3.77-3.65,1.37
					c-2.45-6.49,2.6-9.88,4.46-14.95c1.82-4.97,0.68-7.65-3.06-11.19c-1.86-1.77,0.82-4.6,2.68-2.83c4.9,4.64,6.41,8.88,4.04,15.37
					C-88.41,309.35-93.01,313.72-91.48,317.77L-91.48,317.77z M-152.76,213.53c-1.74-1.89,1.14-4.53,2.88-2.64
					c2.36,2.58,13.37-3.12,17.95,8.23c0.96,2.37-2.64,3.84-3.61,1.46C-139.08,211.82-148.36,218.34-152.76,213.53z M-261.94,202.15
					c2.12,1.45-0.08,4.67-2.2,3.22c-8.13-5.56-14.46-17.13-11.87-27.05c0.65-2.48,4.42-1.48,3.77,1
					C-274.41,187.61-268.69,197.53-261.94,202.15L-261.94,202.15z M-195.56,193.4c1.74,1.89-1.14,4.53-2.88,2.64
					c-5.76-6.28-13.31,0.22-18.64-9.55c-1.23-2.25,2.19-4.12,3.42-1.87C-209.74,191.8-202.3,186.05-195.56,193.4z M-191.49,92.54
					c-1.89,1.74-4.54-1.14-2.64-2.88c9.96-9.13,15.49,1.02,22.07-3.15c2.16-1.38,4.27,1.91,2.1,3.29
					C-178.65,95.31-183.42,85.14-191.49,92.54z M-103.02,142.18c2.56,0,2.56,3.89,0,3.89c-10.88,0.01-7.88-7.46-14.32-8.6
					c-3.86-0.68-7.39-2.71-8.93-6.47c-0.97-2.38,2.65-3.85,3.62-1.47c1.01,2.48,3.5,3.66,5.99,4.1
					C-108.05,135.16-111.28,142.19-103.02,142.18L-103.02,142.18z M-19.65,103.19c-2.56-0.01-2.56-3.91,0.01-3.9
					c6.97,0.01,14.6,4.63,18.86,9.98c1.6,2-1.44,4.44-3.04,2.44C-7.35,107.29-13.88,103.2-19.65,103.19L-19.65,103.19z M-4.4,224.93
					c2.3,1.13,0.58,4.63-1.72,3.5c-14.64-7.2-5.67-13.92-13.55-22.17c-1.77-1.85,1.05-4.54,2.82-2.69
					C-8.23,212.6-16.42,219.02-4.4,224.93z M71.95,235.49c2.07,1.53-0.25,4.67-2.32,3.14c-5.28-3.9-13.13,4.23-21.59-5.15
					c-1.72-1.89,1.16-4.51,2.88-2.62C57.77,238.45,64.81,230.21,71.95,235.49L71.95,235.49z M68.53,139.9
					c1.74,1.89-1.14,4.53-2.88,2.64c-10.61-11.58,8.69-19.95,5.56-28.38c-0.9-2.41,2.76-3.77,3.66-1.36
					C79,123.94,60.68,131.34,68.53,139.9L68.53,139.9z M140.19,129.6c1.98,1.64-0.51,4.64-2.49,3c-8.95-7.39-1.28-14.86-7.56-21.7
					c-1.73-1.89,1.14-4.52,2.87-2.63C140.46,116.39,133.24,123.86,140.19,129.6L140.19,129.6z M242.67,77.58
					c-0.77-0.84-0.67-2.19,0.27-2.89c0.81-0.6,1.95-0.46,2.63,0.28c7.17,7.76,20.43,0.47,26.62,14.81c1.02,2.35-2.55,3.9-3.57,1.55
					C263.59,79.66,250.78,86.42,242.67,77.58L242.67,77.58z M315.66-57.63c-17.54,16.08-18.72,43.34-2.64,60.88
					C329.1,20.81,356.36,22,373.9,5.92s18.72-43.34,2.64-60.88C360.46-72.51,333.2-73.7,315.66-57.63L315.66-57.63z M310.38-63.39
					c3.19-2.93,6.66-5.37,10.31-7.33c-19.74-20.51-18.48-53.49,2.43-72.65c20.72-18.99,52.92-17.59,71.92,3.14
					c19,20.73,17.6,52.93-3.12,71.93c-3.1,2.85-6.61,5.32-10.32,7.32c19.68,20.65,18.59,53.41-2.42,72.67
					c-20.72,18.99-52.92,17.59-71.92-3.14C288.26-12.19,289.65-44.39,310.38-63.39L310.38-63.39z M328.37-74.05
					c15.87-5.38,33.51-2.6,46.94,7.5c4.18-1.89,7.92-4.4,11.3-7.5c17.54-16.08,18.72-43.34,2.64-60.88
					c-16.08-17.55-43.34-18.74-60.88-2.66C309.72-120.49,309.81-91.08,328.37-74.05L328.37-74.05z M197.57,85.92
					c-0.18-0.23-0.36-0.46-0.55-0.69c-0.55-0.68-1.17-1.4-1.87-2.16c-16.08-17.55-43.34-18.74-60.88-2.66
					c-17.54,16.08-18.72,43.34-2.64,60.88s43.34,18.74,60.88,2.66c3.38-3.1,6.2-6.62,8.45-10.62c-5.55-8.89-8.07-19.07-7.64-29.12
					C193.6,97.95,195.02,91.74,197.57,85.92L197.57,85.92z M215.06,74.66c-8.77,8.04-13.45,18.87-13.93,29.89
					c-1.67,38.45,44.23,59.26,72.17,33.65c17.54-16.08,18.72-43.34,2.64-60.88C259.86,59.77,232.6,58.58,215.06,74.66L215.06,74.66z
					 M114.7,97.27c-16.11-8.51-35.82-5.96-49.25,6.35c-8.77,8.04-13.45,18.87-13.93,29.89c-0.48,11.02,3.25,22.22,11.29,30.99
					c16.08,17.55,43.34,18.74,60.88,2.66c4.21-3.86,7.6-8.46,10-13.64c-2.79-2.01-5.42-4.33-7.83-6.96
					C113.64,133.22,109.45,114.51,114.7,97.27z M53.89,165.98c-7.18,1.71-13.67,5.18-19.11,10.17
					c-8.77,8.04-13.45,18.87-13.93,29.89c-1.67,38.45,44.23,59.26,72.17,33.65c15.03-13.78,18.38-36.26,7.94-53.78
					c-16.39,2.05-32.7-3.9-43.9-16.12C55.93,168.55,54.87,167.28,53.89,165.98L53.89,165.98z M28.55,171.26
					c-16.16-8.94-36.28-6.54-49.9,5.95c-17.51,16.05-18.69,43.27-2.64,60.79c13.83,15.09,36.39,18.39,53.91,7.82
					c-11.37-10.21-17.55-24.84-16.89-40.13C13.58,193.08,18.8,180.66,28.55,171.26L28.55,171.26z M-89.02,338.23
					c17.1-16.13,18.07-43.02,2.17-60.36c-8.03-8.76-18.85-13.44-29.85-13.92c-11-0.48-22.18,3.24-30.94,11.26
					c-17.51,16.05-18.69,43.27-2.64,60.79c2.38,2.59,5.06,4.88,7.99,6.83C-126.85,331.32-106.16,329.58-89.02,338.23z
					 M-140.99,351.9c-17.51,16.05-18.69,43.27-2.64,60.79s43.27,18.71,60.79,2.66s18.69-43.27,2.64-60.79
					S-123.48,335.85-140.99,351.9L-140.99,351.9z M-113.59,256.34c6.16-15.38,2.97-32.88-8.24-45.11
					c-8.03-8.76-18.85-13.44-29.85-13.92c-11-0.48-22.18,3.24-30.94,11.26c-17.51,16.05-18.69,43.27-2.64,60.79
					c5.96,6.5,13.61,10.97,22.21,12.91c2.59-4.67,5.97-9.01,10.12-12.82C-142.23,259.65-128,254.92-113.59,256.34L-113.59,256.34z
					 M-151.37,189.5c3.33-7.36,4.49-15.48,3.46-23.38c-1.11-8.45-4.75-16.66-10.96-23.45c-8.03-8.76-18.85-13.44-29.85-13.92
					s-22.18,3.24-30.94,11.26c-8.76,8.03-13.43,18.84-13.91,29.85c-0.73,16.89,8.61,32.77,23.67,40.34
					c4.01,2.02,8.3,3.37,12.68,4.05c2.47-4.15,5.59-8.01,9.33-11.45C-177.56,193.34-164.36,188.95-151.37,189.5L-151.37,189.5z
					 M-146.31,146.77c1.33-1.37,2.56-2.83,3.7-4.37c-5.01-8.57-7.29-18.26-6.87-27.83c0.35-8.11,2.63-16.13,6.81-23.33
					c-15.28-20.44-44.75-23.46-63.66-6.12c-11.07,10.15-16.02,25.21-13.17,39.92c1.07,5.52,0.67,4.11,5,1.8
					c8.14-4.34,17.17-6.29,26.1-5.9c13,0.57,25.78,6.09,35.27,16.45C-150.44,140.31-148.18,143.46-146.31,146.77L-146.31,146.77z
					 M-235.86,138.54c-13.94-3.53-28.86,0.11-39.66,10c-17.51,16.05-18.69,43.27-2.64,60.79c15.41,16.82,41.17,18.71,58.83,4.35
					c-14.45-9.9-22.82-26.6-22.06-44.16c0.38-8.69,2.97-17.29,7.75-24.87C-230.55,139.75-228.91,140.3-235.86,138.54L-235.86,138.54
					z M206.53-243.96c2.79-5.01,6.39-9.58,10.62-13.46c21.78-19.96,55.62-18.48,75.59,3.3s18.5,55.63-3.28,75.59
					c-19.19,17.59-48.36,18.8-68.91,2.85c-2.72,4.9-6.27,9.46-10.63,13.46c-5.43,4.97-11.81,8.78-18.77,11.16
					c15.19,21.92,11.83,51.8-7.86,69.85c-21.78,19.96-55.62,18.48-75.59-3.3c-19.97-21.78-18.5-55.63,3.28-75.59
					c5.61-5.14,12.02-8.86,18.78-11.18c-15.18-21.92-11.83-51.8,7.85-69.84C156.83-258.73,185.99-259.92,206.53-243.96
					L206.53-243.96z M223.89-183.03c17.53,14.78,43.36,14.2,60.26-1.3c18.6-17.05,19.85-45.94,2.8-64.55s-45.95-19.87-64.55-2.82
					c-4.1,3.75-7.44,8.13-9.94,13.09C226.6-223.76,231.02-202.23,223.89-183.03L223.89-183.03z M116.23-154.37
					c-18.6,17.05-19.85,45.94-2.8,64.55s45.95,19.87,64.55,2.82c17.21-15.77,19.62-41.79,6.2-60.38
					C168.35-169.3,136.65-173.08,116.23-154.37L116.23-154.37z M185.82-157.63c7.03-1.92,13.44-5.48,18.81-10.4
					c18.6-17.05,19.85-45.94,2.8-64.55s-45.95-19.87-64.55-2.82c-17.63,16.16-19.84,43.23-4.99,61.99
					C155.48-176.46,173.44-170.61,185.82-157.63L185.82-157.63z M287.48,523.04c18.37-15.11,44.19-17.35,64.87-5.76
					c18.47-18.94,18.92-49.06,1.02-68.58c-30.29-33.04-84.8-12.27-86.7,31.56C265.95,497.09,273.81,513.24,287.48,523.04z
					 M359,521.63c2.73,2.07,5.31,4.42,7.71,7.03c21.56,23.52,19.97,60.05-3.54,81.6c-23.51,21.55-60.04,19.95-81.6-3.56
					c-20.3-22.15-20.24-56.22,0.15-78.23c-12.97-9.85-21.2-24.55-22.67-40.83c-13.69,2.42-27.84-0.16-39.76-7.3
					c-0.52,15.54-7.2,30.1-18.68,40.62c-21.36,19.58-53.72,20.16-75.7,2.04c-4.38-3.61-2.71-4.04-5.87,0.5
					c-2.44,3.52-5.26,6.77-8.4,9.64c-23.51,21.55-60.04,19.95-81.6-3.56c-21.56-23.52-19.97-60.05,3.54-81.6
					c12.93-11.85,30.4-17.14,47.7-14.52c9.26,1.41,7.26,3.17,3.19-5.53c-10.68-22.79-5.34-49.99,13.29-67.06
					c10.23-9.38,23.46-14.74,37.33-15.14c3.04-8.67,8.21-16.74,15.46-23.39c19.41-17.79,48.44-20.19,70.49-5.83
					c2.78-4.02,6.06-7.67,9.75-10.87c-2.07-18.37,4.71-36.58,18.34-49.07c11.93-10.93,27.73-16.32,43.84-14.97
					c-2.71-18.92,4.03-37.85,18.13-50.78c11.75-10.77,26.77-15.76,41.53-15.12c2.23,0.1,4.46,0.32,6.66,0.68
					c-4.81-20.38,1.7-41.74,17.16-55.9c12.92-11.84,30.36-17.13,47.65-14.52c-2.76-18.94,3.97-38.01,18.1-50.96
					c23.51-21.55,60.04-19.95,81.6,3.56c10.51,11.47,15.92,26.58,15.09,42.11c0.19,0.01,0.39,0.01,0.58,0.02
					c14.77,0.65,29.29,6.92,40.07,18.68c9.56,10.43,14.57,23.45,15.12,36.59c0.51,12.21-2.83,24.51-9.94,34.94
					c11.78,11.53,18.06,27.35,17.34,43.82c-0.59,13.59-5.95,26.97-15.97,37.42c0.94,0.89,1.85,1.82,2.74,2.79
					c21.56,23.52,19.97,60.05-3.54,81.6c-23.51,21.55-60.04,19.95-81.6-3.56c-10.78-11.76-15.77-26.77-15.13-41.54
					c0.59-13.59,5.95-26.98,15.97-37.42c-20.43-19.49-23.86-50.97-7.91-74.34c-11.93-11.67-18.2-27.71-17.31-44.39
					c-2.24-0.08-4.47-0.28-6.68-0.61c2.77,18.95-3.94,37.98-18.11,50.97c-13.04,11.95-30.75,17.22-48.19,14.43
					c4.81,20.35-1.68,41.71-17.17,55.91c-11.93,10.93-27.73,16.31-43.84,14.96c2.75,19.31-4.5,39.1-19.35,51.87
					c2.55,22.62-8.37,44.56-27.85,56.14c5.27,7.96,8.46,17.09,9.32,26.6c19.45-3.43,39.27,3.22,52.68,17.85
					C379.43,465.56,379.37,499.61,359,521.63L359,521.63z M290.39,530.86c-20.33,18.63-21.7,50.22-3.06,70.56
					c18.64,20.34,50.23,21.72,70.56,3.08c20.33-18.63,21.7-50.22,3.06-70.56C342.31,513.6,310.72,512.22,290.39,530.86
					L290.39,530.86z M258.89,479.72c1.11-24,17.11-44.92,39.89-52.27c-0.75-11.37-5.32-22.02-13.03-30.43
					c-18.64-20.34-50.23-21.72-70.56-3.08c-10.16,9.32-15.59,21.87-16.14,34.64C197.66,460.85,227.07,486.14,258.89,479.72
					L258.89,479.72z M500.48,193.51c1.21-1.34,2.5-2.64,3.86-3.88c20.4-18.7,51.25-20.29,73.42-3.82
					c5.83-8.87,8.57-19.23,8.14-29.51c-0.47-11.34-4.81-22.6-13.11-31.65c-9.32-10.17-21.88-15.6-34.64-16.15
					c-12.77-0.56-25.75,3.76-35.91,13.07C481.26,140.8,480.65,173.23,500.48,193.51L500.48,193.51z M579.08,267.14
					c8.9-9.09,13.67-20.82,14.18-32.74c0.61-14.03-4.64-27.51-14.55-37.45c-18.79-18.86-49.29-19.7-69.09-1.55
					c-21.39,19.6-21.48,53.55-0.3,73.35C529.55,252.64,558.16,252,579.08,267.14L579.08,267.14z M511.52,277.14
					c-10.16,9.32-15.59,21.87-16.14,34.64c-0.55,12.77,3.76,25.75,13.08,35.92c18.64,20.34,50.23,21.72,70.56,3.08
					c20.33-18.63,21.7-50.22,3.06-70.56S531.85,258.51,511.52,277.14L511.52,277.14z M479.26,147.52
					c2.25-11.79,8.17-22.98,17.7-31.71c9.52-8.73,21.19-13.66,33.13-14.87c0.91-13.68-3.76-26.98-13.03-37.09
					c-18.64-20.34-50.23-21.72-70.56-3.08c-13.05,11.96-18.76,29.74-15.15,47.06c9.55,2.91,18.48,8.33,25.71,16.23
					c6.08,6.63,10.32,14.3,12.74,22.37C472.92,147.09,476.07,147.46,479.26,147.52L479.26,147.52z M402.62,211.58
					c16.27,3.98,33.28-0.38,45.63-11.7c20.33-18.63,21.7-50.22,3.06-70.56c-18.64-20.34-50.23-21.71-70.56-3.08
					c-14.43,13.23-19.8,33.61-13.77,52.23c9.18,2.97,17.74,8.29,24.73,15.92C396.47,199.59,400.1,205.42,402.62,211.58
					L402.62,211.58z M342.6,282.93c14.68,1.93,29.37-2.7,40.29-12.7c20.33-18.63,21.7-50.22,3.06-70.56
					c-9.32-10.17-21.88-15.6-34.64-16.15c-12.77-0.56-25.75,3.76-35.91,13.07c-12.81,11.74-18.57,29.21-15.3,46.27
					c12.66,2.9,23.8,9.9,31.97,19.98C337.01,268.95,340.52,275.79,342.6,282.93L342.6,282.93z M323.18,333.76
					c17.39-18.09,18.63-46.44,2.8-65.97c-18.15-22.38-51.37-24.88-72.59-5.43c-10.64,9.75-16.49,23.43-16.19,37.84
					c23.51-14.56,54.19-10.32,72.93,10.13C316.48,317.25,320.82,325.29,323.18,333.76L323.18,333.76z M219.4,381.12
					c-11.45-17.3-12.67-39.48-3.34-57.92c-19.09-12.6-44.37-10.56-61.23,4.9c-20.33,18.63-21.7,50.22-3.06,70.56
					c10.65,11.62,26.03,17.5,41.7,15.97c2.85-9.83,8.34-19.02,16.43-26.44C212.88,385.47,216.07,383.11,219.4,381.12L219.4,381.12z
					 M292.36,392.71c27.6-15.84,33.82-53.36,12.04-77.13c-18.64-20.34-50.23-21.72-70.56-3.08c-18.32,16.79-21.53,44.59-7.44,65.08
					C249.29,367.89,275.9,373.94,292.36,392.71z M191.77,422.58c-17.31,0.94-34.03-5.85-45.76-18.64
					c-12.49-13.62-17.66-32.23-14.08-50.29c-11.2,0.85-21.6,5.39-29.89,12.98c-16.41,15.05-20.47,38.54-11.61,57.73
					c4.59,9.93,12.49,18.27,22.18,23.35c10.1-16.12,27.59-26.28,46.66-27.03c11.06-0.43,22.19,2.3,31.94,8.14
					c0.01-0.19,0.01-0.37,0.02-0.56C191.33,426.35,191.5,424.46,191.77,422.58L191.77,422.58z M211.39,474.65
					c-10.76-9.23-17.78-22.04-19.69-36.12c-9.39-7.12-20.8-10.51-32.12-10.07c-25.79,1.01-46.78,21.92-47.9,47.73
					c-1.9,43.83,50.61,69.27,83.64,39C206.63,504.84,212.53,489.95,211.39,474.65z M113.75,510.74
					c-7.44-10.65-10.4-22.53-9.87-34.89c0.29-6.61,1.7-13.17,4.23-19.37c-9.29-9.96-21.71-15.28-34.34-15.83
					c-12.77-0.56-25.75,3.76-35.91,13.07c-20.33,18.63-21.7,50.22-3.06,70.56c18.64,20.34,50.23,21.71,70.56,3.08
					c3.17-2.91,5.9-6.15,8.22-9.73C116.08,513.79,116.06,514.05,113.75,510.74L113.75,510.74z M10.95,158.2
					c13.7-16.52,13.04-40.68-1.46-56.51c-16.06-17.52-43.27-18.71-60.79-2.66c-8.76,8.03-13.43,18.84-13.91,29.85
					s3.24,22.18,11.27,30.95c6.72,7.33,15.53,12.03,25.37,13.49c0.63-0.64,1.27-1.26,1.94-1.88
					C-16.39,162.06-2.88,157.32,10.95,158.2L10.95,158.2z M-60.4,97.16c-1.78-3.45-3.95-6.57-6.58-9.43
					c-8.03-8.76-18.85-13.44-29.85-13.92c-11-0.48-22.18,3.24-30.94,11.26s-13.43,18.84-13.91,29.85
					c-0.43,9.98,2.59,20.12,9.15,28.45c7.99,10.14,19.86,16.23,32.89,16.46c10.58,0.19,21.26-3.54,29.81-11.16
					c-2.44-6.48-3.5-13.33-3.2-20.13C-72.53,117.24-68.29,106.11-60.4,97.16z"/>
			</g>
		</g>
	</g>
</g>
<g>
	<circle class="st3" cx="437.51" cy="391.66" r="48.15"/>
	<circle class="st3" cx="511.66" cy="433.1" r="48.15"/>
	<circle class="st3" cx="586.31" cy="452.47" r="48.15"/>
	<circle class="st3" cx="654.44" cy="406.93" r="48.15"/>
	<circle class="st3" cx="704.97" cy="438.5" r="48.15"/>
	<circle class="st3" cx="684.68" cy="524.3" r="48.15"/>
	<circle class="st3" cx="744.75" cy="580.42" r="48.15"/>
	<circle class="st3" cx="813.98" cy="625.42" r="48.15"/>
	<circle class="st3" cx="911.69" cy="609.39" r="48.15"/>
	<circle class="st3" cx="858.23" cy="585.17" r="48.15"/>
	<circle class="st3" cx="861.34" cy="503.57" r="48.15"/>
	<circle class="st3" cx="874.48" cy="424.44" r="48.15"/>
	<circle class="st3" cx="911" cy="353.85" r="48.15"/>
	<g>
		<defs>
			
				<rect id="SVGID_00000047745292207510421700000014788907866626257549_" x="346.97" y="275.91" transform="matrix(-0.9868 0.1619 -0.1619 -0.9868 1451.3553 1005.9431)" width="675.46" height="572.38"/>
		</defs>
		<clipPath id="SVGID_00000039102798993320015050000000106839775924694430_">
			<use xlink:href="#SVGID_00000047745292207510421700000014788907866626257549_"  style="overflow:visible;"/>
		</clipPath>
		<g style="clip-path:url(#SVGID_00000039102798993320015050000000106839775924694430_);">
			<defs>
				
					<ellipse id="SVGID_00000065771561181170280730000003379037339797367995_" transform="matrix(0.3195 -0.9476 0.9476 0.3195 105.8248 1142.7861)" cx="848.54" cy="497.72" rx="232.09" ry="492.47"/>
			</defs>
			<clipPath id="SVGID_00000139260153337655319550000003787492470112933798_">
				<use xlink:href="#SVGID_00000065771561181170280730000003379037339797367995_"  style="overflow:visible;"/>
			</clipPath>
			<g style="clip-path:url(#SVGID_00000139260153337655319550000003787492470112933798_);">
				<g>
					<path class="st2" d="M798.3,574.53c2.39-0.75,4.83-1.33,7.31-1.74c0.9-3.84,2.21-7.54,3.9-11.04
						c3.94-8.18,9.91-15.28,17.37-20.55c-7.73-7.66-13.2-17.74-15.1-29.3c-3.23-19.72,4.78-39.54,20.75-51.5
						c-6.71-7.38-11.43-16.72-13.17-27.29c-4.59-27.98,13.48-54.72,41.13-60.86c-1.27-3.32-2.22-6.82-2.82-10.47
						c-4.78-29.15,14.96-56.65,44.1-61.43c29.14-4.78,56.63,14.97,61.41,44.12c4.59,27.99-13.48,54.73-41.14,60.86
						c1.29,3.38,2.25,6.89,2.83,10.46c3.24,19.77-4.8,39.57-20.75,51.51c6.93,7.63,11.5,17.1,13.17,27.28
						c3.33,20.29-5.24,40.59-21.95,52.38c2.95,2.93,5.58,6.22,7.8,9.81c29.05-4.73,56.58,15.05,61.35,44.13
						c4.78,29.15-14.96,56.65-44.1,61.43c-19.92,3.27-39.83-4.97-51.67-21.02c-3.08-4.17-1.91-4.26-3.53,0.71
						c-6.18,19.03-22.43,33.04-42.21,36.29c-30.24,4.96-58.46-16.49-61.8-46.94c-2.38,0.75-4.85,1.33-7.38,1.75
						c-14.57,2.39-28.73-1.35-39.84-9.34c-11.11-7.98-19.18-20.21-21.57-34.78c-0.64-3.89-0.82-7.88-0.6-11.82
						c-28.24,3.15-54.05-16.43-58.65-44.5c-4.03-24.56,9.44-48.68,32.42-58.11c-3.96-4.21-7.26-9.09-9.71-14.5
						c-5.68,0.14-11.35-0.62-16.79-2.27c-0.91,9.57-4.38,18.56-9.82,26.13c-7.99,11.13-20.23,19.21-34.81,21.6
						c-21.99,3.61-43.92-6.81-55.05-26.1c-5.64,3.39-12,5.78-18.88,6.91c-29.17,4.79-56.71-14.99-61.49-44.18
						c-0.06-0.34-0.11-0.69-0.16-1.04c-3.99,1.74-8.27,3.02-12.76,3.76c-29.17,4.79-56.71-14.99-61.49-44.18
						c-4.79-29.18,14.98-56.72,44.16-61.51c29.58-4.85,57.38,15.54,61.65,45.23c4.07-1.77,8.38-3.05,12.76-3.77
						c22.04-3.62,43.96,6.84,55.06,26.11c5.79-3.48,12.2-5.83,18.87-6.92c8.35-1.37,16.56-0.73,24.14,1.57
						c2.3-24.16,20.65-43.8,44.62-47.73c23.95-3.93,47.55,8.77,57.48,30.83c26.6-0.63,49.66,18.55,53.97,44.81
						c4.03,24.57-9.45,48.7-32.4,58.12c7.25,7.73,12.05,17.46,13.76,27.93c0.66,4,0.85,7.97,0.62,11.85
						c13.15-1.39,25.84,2.03,36.09,9C788.33,545.05,796.58,559.04,798.3,574.53L798.3,574.53z M290.36,219.7
						c-0.44-2.67,3.62-3.33,4.05-0.67c2.78,16.92-13.35,17.95-7.39,34.34c0.92,2.54-2.94,3.93-3.85,1.4
						C276.27,235.79,292.83,234.71,290.36,219.7z M586.24,178.88c0.25-2.68,4.34-2.3,4.08,0.39c-1.47,14.97-11.4,12.12-15.55,19.97
						c-1.26,2.38-4.87,0.46-3.62-1.91C575.7,188.73,585.05,191.05,586.24,178.88L586.24,178.88z M645.01,81.16
						c-1.93-1.88,0.92-4.82,2.85-2.94c6,5.81,9.65,12.91,10.42,21.27c0.25,2.69-3.84,3.07-4.09,0.38
						C653.52,92.52,650.29,86.27,645.01,81.16z M736.1,191.1c-1.17-2.43,2.52-4.21,3.69-1.78c3.47,7.19,2.04,17.29-3.23,23.27
						c-1.79,2.01-4.85-0.71-3.06-2.72C737.69,205.13,738.86,196.81,736.1,191.1L736.1,191.1z M740.72,87.36
						c-2.7,0.07-2.8-4.03-0.1-4.1c8.07-0.2,13.99,2.23,16.12,10.51c1.07,4.17,1.25,8.47,4.8,11.03c2.18,1.58-0.21,4.9-2.4,3.32
						c-4.91-3.54-5.19-8.67-6.26-12.94C751.24,88.59,747.15,87.2,740.72,87.36z M403.54,185.51c2.67-0.44,3.33,3.62,0.67,4.06
						c-5.68,0.93-11.79,5.76-14.3,10.92c-1.17,2.43-4.87,0.64-3.69-1.79C389.3,192.33,396.53,186.66,403.54,185.51z M554.01,24.33
						c0.49,2.65-3.54,3.39-4.03,0.74c-1.48-7.91-0.52-16.6,3.72-23.55c1.41-2.29,4.9-0.15,3.49,2.14
						C553.5,9.73,552.72,17.44,554.01,24.33L554.01,24.33z M656.76-85.94c1.63,2.14-1.62,4.63-3.25,2.49
						c-3.97-5.2-12.91-8.66-19.21-9.57c-2.67-0.39-2.09-4.45,0.59-4.07C642.26-96.02,652.12-92.02,656.76-85.94L656.76-85.94z
						 M328.14,31.96c-0.31,2.68-4.39,2.21-4.08-0.47c1.24-10.68-10.02-10.97-11.74-21.47c-0.44-2.67,3.62-3.33,4.05-0.67
						C317.85,18.38,329.71,18.42,328.14,31.96L328.14,31.96z M220.53,81.51c2.31-1.38,4.41,2.13,2.1,3.51
						c-11.16,6.72-0.63,17.64-12.16,28.75c-1.94,1.87-4.78-1.08-2.84-2.95C217.97,100.86,206.56,89.93,220.53,81.51L220.53,81.51z
						 M175.2,158.86c1.51-2.24,4.91,0.05,3.4,2.29c-4.1,6.12-5.34,15.85-2.22,22.63c1.12,2.45-2.6,4.15-3.72,1.7
						C168.94,177.41,170.3,166.17,175.2,158.86L175.2,158.86z M209.73,297.63c0.44,2.67-3.62,3.33-4.05,0.67
						c-1.99-12.13-18.64-9.22-18.14-28.59c0.06-2.7,4.16-2.6,4.1,0.09C191.19,286.52,207.35,283.15,209.73,297.63L209.73,297.63z
						 M473.09,175.44c1.51-2.24,4.91,0.05,3.4,2.29c-7.67,11.39,3.72,19.78-1.8,32.66c-1.06,2.47-4.82,0.86-3.76-1.61
						C475.89,197.21,463.97,188.99,473.09,175.44L473.09,175.44z M660.44,216.66c0.5-2.65,4.52-1.89,4.03,0.75
						c-2.8,14.96-14.69,9.83-19.4,18.28c-1.31,2.35-4.89,0.35-3.58-2C647.02,223.78,658.21,228.63,660.44,216.66z M827.95,122.84
						c-0.84-2.56,3.05-3.83,3.89-1.27c3.64,11.03,17.4,9.01,19.62,22.52c0.44,2.67-3.62,3.33-4.05,0.67
						C845.63,133.9,832.1,135.38,827.95,122.84L827.95,122.84z M282.92,423.73c2.06,1.74-0.58,4.87-2.64,3.13
						c-4.52-3.79-12.32-3.27-17.14-0.3c-2.29,1.41-4.44-2.07-2.15-3.49C267.33,419.16,277.02,418.77,282.92,423.73z M198.8,539.22
						c-0.05,2.69-4.15,2.62-4.1-0.08c0.26-13.55-17.56-13.48-13.57-32.52c0.55-2.64,4.56-1.8,4.01,0.84
						C181.73,523.76,199.1,523.38,198.8,539.22L198.8,539.22z M208.27,674.42c-2.35,1.32-4.35-2.26-2-3.58
						c12.95-7.29,1.37-22.23,20.62-27.83c2.59-0.75,3.73,3.2,1.14,3.95C211.92,651.64,223.32,665.95,208.27,674.42L208.27,674.42z
						 M342.48,716.18c-0.84-2.56,3.05-3.83,3.89-1.27c2.55,7.75-0.79,11.12-6.95,15.09c-2.78,1.79-5.95,3.83-5.21,8.33
						c0.44,2.67-3.62,3.33-4.05,0.67c-1.17-7.14,3.21-9.96,7.06-12.44C341.67,723.68,344.39,721.97,342.48,716.18L342.48,716.18z
						 M422.19,633.99c1.08,2.47-2.67,4.11-3.75,1.64c-3.93-8.95-9.4-15.82-19.76-16.72c-2.69-0.23-2.34-4.33,0.35-4.09
						C410.95,615.85,417.63,623.62,422.19,633.99L422.19,633.99z M943.51,351.98c-0.4,2.67-4.45,2.06-4.05-0.6
						c0.9-5.96-2.74-13.83-8.3-16.44c-2.44-1.14-0.71-4.86,1.73-3.72C940.08,334.58,944.68,344.24,943.51,351.98L943.51,351.98z
						 M854.52,399.32c0.58-2.63,4.59-1.74,4,0.89c-1.58,7.12-7.97,7.2-12.53,10.6c-4.46,3.33-5,6.34-3.75,11.61
						c0.62,2.63-3.37,3.57-3.99,0.95c-1.65-6.9-0.53-11.51,5.3-15.85C846.97,404.97,853.54,403.77,854.52,399.32L854.52,399.32z
						 M848.45,526.35c0.44,2.67-3.62,3.33-4.05,0.67c-0.6-3.63-13.56-4.96-11.06-17.58c0.52-2.64,4.54-1.85,4.02,0.79
						C835.41,519.98,847.34,519.59,848.45,526.35z M937.98,599.23c-1.03-2.5,2.76-4.06,3.79-1.57c3.95,9.57,2.86,23.41-5.13,30.65
						c-2,1.8-4.75-1.24-2.74-3.05C940.59,619.21,941.26,607.19,937.98,599.23L937.98,599.23z M874.52,568.71
						c-0.44-2.67,3.62-3.33,4.05-0.67c1.45,8.84,11.85,7.47,10.9,19.14c-0.21,2.69-4.3,2.37-4.09-0.32
						C886.08,578.29,876.21,579.06,874.52,568.71z M812.86,655.14c2.67-0.44,3.33,3.62,0.67,4.06c-14.02,2.3-13.05-9.82-21.24-9.93
						c-2.7-0.03-2.66-4.14,0.04-4.11C803.16,645.3,801.5,657,812.86,655.14z M763.58,560.51c-2.25-1.47-0.02-4.9,2.24-3.43
						c9.58,6.26,2.64,11.1,7.65,15.81c3,2.82,4.95,6.64,4.13,10.83c-0.52,2.65-4.55,1.87-4.03-0.79c0.54-2.76-0.97-5.24-2.91-7.06
						C763.96,569.58,770.86,565.26,763.58,560.51L763.58,560.51z M667.76,546.83c2.25,1.48,0,4.91-2.25,3.43
						c-6.12-4.02-10.18-12.48-10.85-19.64c-0.26-2.69,3.82-3.08,4.08-0.39C659.29,536.13,662.69,543.49,667.76,546.83L667.76,546.83
						z M724.43,430.89c-1.38-2.32,2.15-4.41,3.53-2.09c8.74,14.77-3.02,15.52-0.84,27.31c0.49,2.65-3.54,3.39-4.03,0.74
						C720.7,443.95,731.61,443.02,724.43,430.89z M663.31,377.64c-0.94-2.53,2.91-3.96,3.85-1.43c2.4,6.47,13.99,3.84,16.04,16.97
						c0.43,2.66-3.62,3.31-4.04,0.65C677.49,383.2,666.56,386.4,663.31,377.64L663.31,377.64z M611.29,463.74
						c-0.44-2.67,3.62-3.33,4.05-0.67c2.67,16.3-19.14,12.55-21.23,21.77c-0.59,2.63-4.6,1.73-4-0.91
						C592.87,471.76,613.26,475.79,611.29,463.74L611.29,463.74z M542.28,431.55c-0.8-2.58,3.12-3.79,3.92-1.21
						c3.62,11.66-7.43,13.81-5.84,23.45c0.44,2.66-3.6,3.32-4.04,0.66C534.44,443.02,545.1,440.61,542.28,431.55L542.28,431.55z
						 M422.14,418.32c0.2,1.19-0.67,2.31-1.91,2.38c-1.06,0.07-1.98-0.72-2.16-1.76c-1.84-10.96-17.71-12.18-14.91-28.36
						c0.45-2.65,4.49-1.96,4.03,0.69C404.92,404.45,420.09,405.87,422.14,418.32L422.14,418.32z M280.05,495.3
						c24.7-4.05,41.43-27.36,37.38-52.07c-4.05-24.7-27.36-41.45-52.05-37.4c-24.7,4.05-41.43,27.36-37.38,52.07
						C232.05,482.61,255.36,499.35,280.05,495.3L280.05,495.3z M281.38,503.41c-4.5,0.74-8.95,0.89-13.29,0.52
						c5.57,29.41-14.53,57.71-43.97,62.54c-29.17,4.79-56.71-14.99-61.49-44.18c-4.79-29.18,14.98-56.72,44.16-61.51
						c4.37-0.72,8.88-0.88,13.29-0.5c-5.43-29.5,14.39-57.71,43.97-62.56c29.17-4.79,56.71,14.99,61.49,44.18
						C330.33,471.09,310.56,498.62,281.38,503.41L281.38,503.41z M259.41,502.43c-17.07-4.41-30.99-17-36.99-33.63
						c-4.77-0.74-9.5-0.69-14.27,0.09c-24.7,4.05-41.43,27.36-37.38,52.07c4.05,24.7,27.36,41.45,52.05,37.4
						C249.08,554.04,265.94,528.11,259.41,502.43L259.41,502.43z M466.63,436.95c0.02,0.3,0.05,0.61,0.08,0.93
						c0.09,0.91,0.22,1.91,0.4,2.98c4.05,24.7,27.36,41.45,52.05,37.4c24.7-4.05,41.43-27.36,37.38-52.07
						c-4.05-24.7-27.36-41.45-52.05-37.4c-4.76,0.78-9.27,2.25-13.55,4.48c-0.24,11.02-3.87,21.43-10.04,30.03
						C477.06,428.65,472.23,433.3,466.63,436.95L466.63,436.95z M444.76,436.79c12.35-2.03,22.71-8.87,29.47-18.29
						c23.6-32.88-4.8-77.63-44.14-71.17c-24.7,4.05-41.43,27.36-37.38,52.07C396.75,424.1,420.06,440.84,444.76,436.79
						L444.76,436.79z M546.1,474.67c9.28,16.77,28.09,25.87,47,22.77c12.35-2.03,22.71-8.87,29.47-18.29
						c6.76-9.42,9.93-21.43,7.91-33.78c-4.05-24.7-27.36-41.45-52.05-37.4c-5.93,0.97-11.56,3.07-16.66,6.24
						c1.3,3.37,2.28,6.93,2.88,10.64C567.74,443.65,560.65,462.53,546.1,474.67z M639.19,449.22c7.3,2.63,15.02,3.31,22.68,2.06
						c12.35-2.03,22.71-8.87,29.47-18.29c23.6-32.88-4.8-77.63-44.14-71.17c-21.16,3.47-37.05,21.33-37.95,42.76
						c15.6,7.63,26.53,22.26,29.36,39.47C638.87,445.78,639.07,447.51,639.19,449.22L639.19,449.22z M664.53,459.16
						c9.07,17.18,28.16,26.64,47.34,23.5c24.66-4.04,41.37-27.32,37.32-51.99c-3.48-21.24-21.44-37.14-42.94-37.92
						c4.12,15.53,1.15,31.96-8.24,45.04C690.26,448.58,678.53,456.5,664.53,459.16L664.53,459.16z M864.14,379.9
						c-24.34,4.35-40.67,27.46-36.67,51.87c2.02,12.33,8.85,22.68,18.26,29.44c9.41,6.76,21.39,9.92,33.72,7.9
						c24.66-4.04,41.37-27.32,37.32-51.99c-0.6-3.65-1.64-7.21-3.09-10.61C893.46,407.77,874.25,397.38,864.14,379.9z
						 M917.76,397.79c24.66-4.04,41.37-27.32,37.32-51.99s-27.31-41.38-51.97-37.34c-24.66,4.04-41.37,27.32-37.32,51.99
						C869.83,385.12,893.1,401.84,917.76,397.79L917.76,397.79z M838.61,466.12c-14.28,9.99-21.55,27.23-18.72,44.44
						c2.02,12.33,8.85,22.68,18.26,29.44s21.39,9.92,33.72,7.9c24.66-4.04,41.37-27.32,37.32-51.99
						c-1.5-9.15-5.66-17.49-12.12-24.15c-4.97,2.62-10.44,4.5-16.29,5.46C865.73,479.69,850.49,475.67,838.61,466.12L838.61,466.12z
						 M833.39,546.7c-7.16,4.56-12.87,11.04-16.5,18.59c-3.89,8.07-5.42,17.4-3.85,26.95c2.02,12.33,8.85,22.68,18.26,29.44
						c9.41,6.76,21.39,9.92,33.72,7.9c12.33-2.02,22.67-8.85,29.42-18.26c10.37-14.45,11.29-33.8,2.4-49.13
						c-2.37-4.09-5.36-7.75-8.83-10.87c-4.57,2.23-9.53,3.84-14.8,4.7C858.64,558.4,844.5,554.67,833.39,546.7L833.39,546.7z
						 M804.32,581.39c-1.96,0.44-3.88,1.01-5.77,1.72c-0.52,10.43-4.1,20.27-9.98,28.45c-4.98,6.93-11.61,12.68-19.43,16.61
						c1.68,26.79,25.88,46.41,52.5,42.04c15.59-2.56,28.61-12.97,34.58-27.56c2.24-5.47,1.77-4-3.37-4.46
						c-9.66-0.87-18.73-4.35-26.37-9.84c-11.11-7.98-19.18-20.21-21.57-34.78C804.25,589.46,804.06,585.38,804.32,581.39
						L804.32,581.39z M878.4,640.2c10.23,11.13,25.47,16.52,40.66,14.03c24.66-4.04,41.37-27.32,37.32-51.99
						c-3.88-23.68-25.46-40.17-49.27-37.7c7.01,17.03,4.77,36.56-6.01,51.57c-5.34,7.44-12.57,13.51-21.14,17.43
						C874.43,636.08,873.29,634.65,878.4,640.2L878.4,640.2z M268.8,722.13c-5.34,2.81-11.14,4.75-17.1,5.73
						c-30.66,5.03-59.6-15.76-64.63-46.43c-5.03-30.67,15.75-59.61,46.41-64.64c27.02-4.43,53.39,11.3,62.29,37.17
						c5.22-2.75,10.96-4.71,17.1-5.72c7.64-1.25,15.45-0.93,22.95,0.98c-0.74-28.04,19.41-52.41,47.14-56.95
						c30.66-5.03,59.6,15.76,64.63,46.43c5.03,30.67-15.75,59.61-46.41,64.64c-7.9,1.3-15.68,0.88-22.97-0.98
						c0.74,28.04-19.41,52.4-47.12,56.95C304.05,763.74,277.7,748,268.8,722.13L268.8,722.13z M288.61,658.5
						c-6.92-23.1-29.99-37.46-53.79-33.56c-26.18,4.29-43.92,29.01-39.63,55.2s29,43.94,55.19,39.65c5.77-0.95,11.23-2.87,16.28-5.8
						C262.78,692.79,271.28,671.3,288.61,658.5L288.61,658.5z M399.87,695.27c26.18-4.29,43.92-29.01,39.63-55.2
						c-4.3-26.19-29-43.94-55.19-39.65c-24.22,3.97-41.33,25.49-40.22,49.57C345.41,678.4,371.12,699.98,399.87,695.27
						L399.87,695.27z M336.75,658.07c-7.29-2.36-14.98-2.91-22.55-1.67c-26.18,4.29-43.92,29.01-39.63,55.2s29,43.94,55.19,39.65
						c24.83-4.07,42.35-26.63,40.09-51.69C352.6,692.12,340.17,676.63,336.75,658.07L336.75,658.07z M639.19,0.47
						C614.32,3.2,590.3-9.7,578.77-31.81c-27.16,6.03-44.9,32.29-40.39,59.77c7.63,46.52,67.57,59.63,94.47,22.14
						C643.2,35.7,645.57,16.96,639.19,0.47z M575.43-39.47c-1.21-3.39-2.13-6.94-2.74-10.63c-5.43-33.11,17-64.35,50.1-69.78
						c33.1-5.43,64.33,17.01,69.76,50.12C697.67-38.57,678-8.62,647.38-0.99c5.74,16.14,4.53,33.81-3.56,48.99
						c13.45,5.76,24.41,16.17,30.79,29.32c9.4-13.38,23.66-22.35,39.83-25c30.07-4.93,58.88,13.19,67.79,41.79
						c1.78,5.7,0.06,5.12,5.45,2.94c4.17-1.69,8.53-2.93,12.95-3.65c33.1-5.43,64.33,17.01,69.76,50.12
						c5.43,33.11-17,64.35-50.1,69.78c-18.21,2.99-36.62-2.42-50.34-14.69c-7.34-6.57-4.57-6.97-5.99,3.03
						c-3.73,26.21-24.08,47.07-50.31,51.37c-14.4,2.36-29.13-0.54-41.57-8.17c-7.67,5.88-16.86,10.01-27.07,11.69
						c-27.32,4.48-54.26-10.12-65.4-35.45c-4.76,1.94-9.75,3.26-14.84,3.95c-8.76,17.36-25.21,29.48-44.4,32.63
						c-16.79,2.75-33.8-1.6-47.2-12.07c-8.51,18.21-25.34,30.99-45.19,34.25c-16.55,2.71-32.63-1.54-45.26-10.61
						c-1.91-1.37-3.73-2.85-5.47-4.43c-7.49,20.71-25.53,35.75-47.29,39.32c-18.19,2.98-36.58-2.4-50.3-14.65
						c-8.47,18.26-25.38,31.17-45.27,34.43c-33.1,5.43-64.33-17.01-69.76-50.12c-2.65-16.15,1.29-32.56,10.96-45.75
						c-0.17-0.12-0.33-0.23-0.5-0.35c-12.62-9.07-21.79-22.96-24.51-39.51c-2.41-14.69,0.68-29.03,7.77-40.91
						c6.58-11.04,16.61-19.94,28.87-25.03c-3.73-16.93-0.15-34.46,9.97-48.56c8.34-11.62,20.77-20.31,35.6-23.74
						c-0.31-1.33-0.58-2.67-0.8-4.03c-5.43-33.11,17-64.35,50.1-69.78c33.1-5.43,64.33,17.01,69.76,50.12
						c2.72,16.55-1.53,32.64-10.6,45.27c-8.35,11.62-20.77,20.32-35.6,23.74c6.76,28.92-8.35,58.6-35.84,69.98
						c3.78,17.14,0.07,34.87-10.32,49.04c1.92,1.35,3.77,2.82,5.53,4.38c8.47-18.27,25.34-31.16,45.29-34.43
						c18.35-3.01,36.98,2.55,50.72,15.04c7.48-20.68,25.5-35.75,47.3-39.32c16.79-2.75,33.8,1.61,47.19,12.08
						c8.7-18.58,26.48-31.82,46.9-34.51c10.78-21.38,33.02-34.4,56.83-33.38c-0.05-10.04,2.4-19.91,7.11-28.78
						c-19.09-8.18-32.71-25.45-36.09-46.05C525.16-1.88,544.82-31.83,575.43-39.47L575.43-39.47z M641.12-8.09
						c28.62-4.69,48.01-31.71,43.32-60.34s-31.7-48.03-60.32-43.34c-28.62,4.69-48.01,31.71-43.32,60.34
						C585.5-22.79,612.5-3.39,641.12-8.09L641.12-8.09z M639.41,55.05c-14.8,20.48-40.92,29.68-65.21,23.04
						c-5.89,10.44-8,22.44-6.05,34.28c4.7,28.63,31.7,48.03,60.32,43.34c14.31-2.35,26.31-10.27,34.15-21.19
						C682.43,106.92,671.11,67.72,639.41,55.05L639.41,55.05z M261.98,167.85c-1.84,0.48-3.72,0.88-5.63,1.2
						c-28.72,4.71-56.79-11.66-66.81-38.91c-10.24,4.45-18.62,11.99-24.16,21.29c-6.11,10.25-8.78,22.66-6.69,35.4
						c2.35,14.31,10.27,26.32,21.19,34.17c10.92,7.84,24.82,11.52,39.13,9.17C248.55,225.31,267.76,197.12,261.98,167.85
						L261.98,167.85z M235.2,57.8c-13.07,2.87-24.02,10.46-31.33,20.65c-8.61,11.99-11.75,26.89-8.76,41.34
						c5.68,27.42,32.03,45.72,59.92,41.14c30.11-4.94,49.74-34.76,42.5-64.39C270.44,99.08,244.89,83.16,235.2,57.8L235.2,57.8z
						 M300.42,87.89c14.31-2.35,26.31-10.27,34.15-21.19c7.84-10.92,11.51-24.83,9.16-39.14c-4.7-28.63-31.7-48.03-60.32-43.34
						c-28.62,4.69-48.01,31.71-43.32,60.34S271.8,92.58,300.42,87.89L300.42,87.89z M254.18,220.55
						c-8.76,9.08-20.42,15.52-33.83,17.72c-13.41,2.2-26.51-0.18-37.72-5.98c-8.68,11.51-12.23,25.91-9.89,40.15
						c4.7,28.63,31.7,48.03,60.32,43.34c18.37-3.01,33.64-15.37,40.43-32.7c-6.73-8.06-11.46-17.97-13.29-29.08
						c-1.53-9.34-0.85-18.53,1.67-27.03C259.51,224.57,256.95,222.44,254.18,220.55L254.18,220.55z M358.52,208.29
						c-12.03-12.87-29.51-18.83-46.89-15.98c-28.62,4.69-48.01,31.71-43.32,60.34c4.7,28.63,31.7,48.03,60.32,43.34
						c20.32-3.33,36.78-18.18,42.19-38.04c-6.37-7.9-10.84-17.51-12.6-28.24C357.03,222.39,357.19,215.17,358.52,208.29
						L358.52,208.29z M452.42,180.06c-11.81-10.15-27.4-14.54-42.77-12.02c-28.62,4.69-48.01,31.71-43.32,60.34
						c2.35,14.31,10.27,26.32,21.19,34.16c10.92,7.84,24.82,11.52,39.13,9.17c18.03-2.96,33.17-15.02,40.11-31.92
						c-9.48-9.84-15.24-22.42-16.63-35.99C449.29,195.57,450.15,187.54,452.42,180.06L452.42,180.06z M498.78,146.5
						c-25.73,5.91-43.14,30.15-40.45,56.45c3.08,30.15,30.89,51.47,60.76,46.57c14.98-2.46,28-11.13,36.04-23.98
						c-29.08-0.72-53.63-22.12-58.35-50.91C495.17,164.89,495.99,155.31,498.78,146.5L498.78,146.5z M617.39,164.57
						c0.12,21.81-11.58,42.05-30.41,52.9c9.55,22.08,32.97,34.84,56.71,30.94c28.62-4.69,48.01-31.71,43.32-60.34
						c-2.68-16.36-12.83-30.39-27.51-38.07c-8.16,7.01-18.29,11.94-29.69,13.81C625.63,164.5,621.47,164.74,617.39,164.57
						L617.39,164.57z M559.85,112.36c-33.42-1.95-60.49,27.49-55,60.96c4.7,28.63,31.7,48.03,60.32,43.34
						c25.8-4.23,44.63-26.85,44.02-52.99C583.47,159.01,563.53,138.36,559.85,112.36z M665.58,143.99
						c15.78,9.14,26.58,24.74,29.54,42.75c3.15,19.18-3.02,38.54-16.57,52.37c10.35,5.7,22.12,7.69,33.78,5.78
						c23.11-3.79,40.2-22.13,43.46-44.13c1.68-11.38-0.48-23.27-6.08-33.32c-18.17,8.37-39.42,7.25-56.63-3.07
						c-9.98-5.99-18.21-14.81-23.43-25.56c-0.11,0.16-0.23,0.32-0.34,0.48C668.14,140.93,666.9,142.49,665.58,143.99L665.58,143.99z
						 M678.29,86.86c4.16,14.32,2.96,29.63-3.47,43.12c4.16,11.68,12.25,21.23,22.47,27.36c23.28,13.96,53.79,7.64,69.64-14.43
						c26.91-37.48-4.66-90.11-51.16-82.48C699.86,63.04,686.1,72.75,678.29,86.86z M785.01,111.32c0.42,13.66-3.81,25.82-11.4,36.39
						c-4.06,5.65-9.08,10.61-14.88,14.61c2.44,14.11,10.31,25.95,21.11,33.7c10.92,7.84,24.82,11.52,39.13,9.17
						c28.62-4.69,48.01-31.71,43.32-60.34s-31.7-48.03-60.32-43.34c-4.47,0.73-8.73,2.02-12.84,3.83
						C784.71,107.29,784.88,107.07,785.01,111.32L785.01,111.32z M672.5,480.79c-21.56,6.65-34.9,28.3-31.25,50.58
						c4.05,24.67,27.31,41.38,51.97,37.34c12.33-2.02,22.67-8.85,29.42-18.26c6.75-9.41,9.92-21.39,7.9-33.73
						c-1.69-10.32-6.74-19.53-14.56-26.48c-0.92,0.2-1.85,0.38-2.79,0.53C698.78,493.13,684.17,489.53,672.5,480.79L672.5,480.79z
						 M700.15,575.59c-0.42,4.06-0.3,8.06,0.36,12.09c2.02,12.33,8.85,22.68,18.26,29.44s21.39,9.92,33.72,7.9
						c12.33-2.02,22.67-8.85,29.42-18.26c6.13-8.54,9.3-19.2,8.33-30.31c-1.19-13.53-8.14-25.72-19.47-33.43
						c-9.2-6.26-20.75-9.12-32.66-7.34c-1.58,7.1-4.6,13.75-8.77,19.56C722.39,564.9,712.25,572.26,700.15,575.59z"/>
				</g>
			</g>
		</g>
	</g>
</g>
<g>
	
		<ellipse transform="matrix(0.9951 -0.0994 0.0994 0.9951 -21.8783 77.3861)" class="st6" cx="765.95" cy="258.33" rx="43.41" ry="44.57"/>
	
		<ellipse transform="matrix(0.9951 -0.0994 0.0994 0.9951 -15.1803 80.1054)" class="st6" cx="796.6" cy="192.45" rx="43.41" ry="44.57"/>
	
		<ellipse transform="matrix(0.9951 -0.0994 0.0994 0.9951 -9.1231 75.4676)" class="st6" cx="753.07" cy="129.32" rx="43.41" ry="44.57"/>
	<g>
		<defs>
			
				<ellipse id="SVGID_00000111880588909387305030000011125644391053481346_" transform="matrix(0.9951 -0.0994 0.0994 0.9951 -16.2914 78.5256)" cx="780.19" cy="202.81" rx="104.76" ry="175.96"/>
		</defs>
		<clipPath id="SVGID_00000140726409215379235260000018073563683758691770_">
			<use xlink:href="#SVGID_00000111880588909387305030000011125644391053481346_"  style="overflow:visible;"/>
		</clipPath>
		<g style="clip-path:url(#SVGID_00000140726409215379235260000018073563683758691770_);">
			<g>
				<path class="st2" d="M712.62-220.63c-0.51-2.08-0.87-4.19-1.09-6.32c-3.22-0.97-6.3-2.29-9.2-3.91
					c-6.75-3.79-12.48-9.26-16.57-15.9c-6.94,6.17-15.82,10.29-25.77,11.28c-16.97,1.69-33.42-6.2-42.75-20.44
					c-6.65,5.32-14.85,8.84-23.96,9.75c-24.08,2.4-45.89-14.42-49.62-38.31c-2.9,0.9-5.93,1.52-9.07,1.84
					c-25.08,2.5-47.45-15.79-49.95-40.87s15.8-47.43,40.88-49.94c24.09-2.41,45.89,14.43,49.62,38.32c2.95-0.92,5.99-1.54,9.07-1.85
					c17.01-1.7,33.45,6.22,42.76,20.45c6.87-5.49,15.19-8.88,23.95-9.75c17.46-1.74,34.29,6.65,43.44,21.52
					c2.65-2.36,5.6-4.42,8.78-6.12c-2.47-25,15.86-47.38,40.89-49.88c25.08-2.5,47.45,15.79,49.95,40.87
					c1.71,17.14-6.38,33.65-20.68,42.88c-3.72,2.4-3.73,1.4,0.42,3.04c15.88,6.29,26.94,20.89,28.64,37.91
					c2.6,26.02-17.19,48.91-43.3,50.11c0.51,2.07,0.88,4.2,1.09,6.38c1.25,12.54-2.7,24.4-10.1,33.43
					c-7.4,9.04-18.25,15.25-30.79,16.51c-3.35,0.33-6.76,0.28-10.1-0.13c1.17,24.23-16.9,45.15-41.06,47.56
					c-21.14,2.11-40.96-10.66-47.75-30.74c-3.8,3.15-8.14,5.7-12.87,7.49c-0.19,4.84-1.14,9.63-2.83,14.18
					c8.1,1.29,15.57,4.73,21.73,9.77c9.05,7.41,15.28,18.26,16.53,30.82c1.89,18.92-8.16,37.05-25.19,45.49
					c2.58,4.98,4.28,10.53,4.87,16.46c2.51,25.11-15.82,47.49-40.94,50c-0.29,0.03-0.59,0.06-0.89,0.08
					c1.27,3.5,2.13,7.2,2.51,11.07c2.51,25.11-15.82,47.49-40.94,50c-25.12,2.51-47.51-15.81-50.02-40.92
					c-2.54-25.45,16.33-48.04,41.84-50.08c-1.29-3.56-2.15-7.3-2.52-11.07c-1.89-18.97,8.19-37.08,25.2-45.5
					c-2.65-5.12-4.31-10.71-4.88-16.45c-0.72-7.18,0.27-14.14,2.64-20.48c-20.46-3.26-36.2-19.94-38.26-40.57
					c-2.06-20.61,10.03-40.03,29.35-47.3c0.9-22.69,18.47-41.3,41.07-43.56c21.15-2.11,40.97,10.67,47.76,30.73
					c6.97-5.76,15.52-9.32,24.53-10.22c3.44-0.34,6.83-0.3,10.13,0.11c-0.47-11.28,3.12-21.9,9.61-30.26
					C686.98-213.73,699.33-220.01,712.62-220.63L712.62-220.63z M383.07,192.93c-2.3,0.23-2.64-3.26-0.35-3.49
					c14.56-1.45,14.57,12.34,28.85,8.14c2.21-0.65,3.19,2.71,0.98,3.36C396.02,205.8,395.98,191.64,383.07,192.93z M364.21-61.29
					c-2.27-0.36-1.72-3.82,0.55-3.46c12.67,2.05,9.71,10.36,16.17,14.32c1.96,1.2,0.13,4.17-1.82,2.98
					C372.04-51.78,374.52-59.62,364.21-61.29L364.21-61.29z M284.14-116.6c-1.7,1.55-4.05-1.04-2.35-2.59
					c5.27-4.8,11.52-7.52,18.68-7.73c2.3-0.07,2.4,3.43,0.1,3.5C294.27-123.24,288.77-120.82,284.14-116.6z M382.68-188.28
					c-2.13,0.86-3.45-2.38-1.32-3.24c6.31-2.57,14.84-0.81,19.65,4.01c1.62,1.63-0.86,4.09-2.48,2.46
					C394.71-188.88,387.69-190.32,382.68-188.28L382.68-188.28z M294.56-197.79c-0.09,2.3-3.58,2.17-3.5-0.13
					c0.27-6.88,2.65-11.8,9.82-13.17c3.61-0.69,7.28-0.61,9.65-3.49c1.46-1.78,4.16,0.45,2.7,2.22c-3.28,3.99-7.67,3.95-11.36,4.63
					C296.18-206.68,294.77-203.28,294.56-197.79z M360.03,94.69c-0.23-2.3,3.26-2.64,3.49-0.35c0.49,4.89,4.27,10.36,8.53,12.77
					c2,1.13,0.28,4.18-1.72,3.05C365.08,107.19,360.63,100.73,360.03,94.69z M230.84-42.15c2.28-0.27,2.7,3.2,0.42,3.47
					c-6.82,0.84-14.17-0.45-19.86-4.44c-1.88-1.32,0.14-4.18,2.01-2.86C218.37-42.5,224.9-41.42,230.84-42.15L230.84-42.15z
					 M142.43-135.6c1.91-1.28,3.85,1.63,1.94,2.9c-4.64,3.1-8.07,10.53-9.18,15.85c-0.47,2.26-3.9,1.54-3.43-0.72
					C133.07-123.79,137-131.97,142.43-135.6L142.43-135.6z M225.19,150.66c2.27,0.41,1.65,3.86-0.62,3.45
					c-9.03-1.63-9.88,7.94-18.92,8.85c-2.3,0.23-2.64-3.26-0.35-3.49C213.07,158.69,213.74,148.59,225.19,150.66L225.19,150.66z
					 M261.61,244.98c-1.06-2.04,2.05-3.64,3.1-1.6c5.12,9.87,14.99,1.49,23.84,11.9c1.49,1.75-1.18,4.01-2.67,2.26
					C277.95,248.2,268.02,257.33,261.61,244.98L261.61,244.98z M325.06,287.75c-1.82-1.4,0.31-4.18,2.13-2.77
					c4.99,3.82,13.22,5.4,19.15,3.11c2.15-0.82,3.39,2.44,1.25,3.26C340.51,294.08,331.02,292.32,325.06,287.75L325.06,287.75z
					 M445.11,265.81c2.3-0.23,2.64,3.26,0.35,3.49c-10.44,1.04-8.86,15.38-25.33,13.91c-2.29-0.2-1.99-3.68,0.3-3.49
					C434.65,280.99,432.65,267.05,445.11,265.81L445.11,265.81z M355.2,34.91c-1.82-1.4,0.31-4.18,2.13-2.77
					c9.29,7.15,17.04-2.1,27.72,3.29c2.05,1.03,0.47,4.15-1.58,3.12C373.89,33.7,366.24,43.4,355.2,34.91L355.2,34.91z
					 M400.38-122.46c-2.23-0.57-1.37-3.96,0.86-3.39c12.6,3.19,7.58,13.04,14.53,17.51c1.93,1.24,0.04,4.19-1.9,2.94
					C405.72-110.64,410.46-119.91,400.38-122.46z M329.47-270.19c-2.23,0.58-3.1-2.81-0.87-3.38c9.59-2.51,8.61-14.34,20.24-15.5
					c2.3-0.23,2.64,3.26,0.35,3.49C339.85-284.65,340.38-273.04,329.47-270.19L329.47-270.19z M556.45,210.25
					c1.59-1.66,4.12,0.76,2.53,2.42c-3.47,3.64-3.45,10.32-1.18,14.59c1.08,2.03-2.01,3.67-3.09,1.64
					C551.73,223.28,551.92,215,556.45,210.25z M650.31,288.11c2.29,0.19,2.01,3.67-0.29,3.48c-11.52-0.95-12.43,14.23-28.43,9.81
					c-2.22-0.61-1.29-3.98,0.93-3.37C636.21,301.82,636.82,287,650.31,288.11L650.31,288.11z M765.97,287.31
					c1,2.07-2.16,3.59-3.15,1.51c-5.51-11.42-18.86-2.36-22.59-19.06c-0.5-2.25,2.93-3.01,3.42-0.75
					C746.77,282.98,759.57,274.03,765.97,287.31L765.97,287.31z M808.76,175.24c-2.23,0.58-3.1-2.81-0.87-3.38
					c6.74-1.76,9.43,1.27,12.48,6.73c1.38,2.47,2.94,5.27,6.82,4.89c2.3-0.23,2.64,3.26,0.35,3.49c-6.15,0.61-8.31-3.27-10.22-6.68
					C815.11,176.34,813.8,173.93,808.76,175.24L808.76,175.24z M743.04,102.93c2.16-0.79,3.35,2.5,1.2,3.28
					c-7.84,2.87-13.98,7.16-15.31,15.93c-0.34,2.28-3.81,1.76-3.47-0.52C726.99,111.52,733.96,106.25,743.04,102.93L743.04,102.93z
					 M530.87-356.29c2.25,0.48,1.52,3.9-0.73,3.42c-5.03-1.09-11.93,1.59-14.45,6.18c-1.1,2.02-4.17,0.34-3.07-1.68
					C515.86-354.3,524.34-357.7,530.87-356.29L530.87-356.29z M566.41-277.95c-2.21-0.64-1.24-4,0.97-3.36
					c5.98,1.73,5.7,7.18,8.35,11.24c2.59,3.98,5.13,4.6,9.69,3.82c2.27-0.39,2.86,3.06,0.59,3.45c-5.97,1.03-9.83-0.17-13.21-5.36
					C570.81-271.21,570.14-276.87,566.41-277.95L566.41-277.95z M674.28-265.94c2.3-0.23,2.64,3.26,0.35,3.49
					c-3.13,0.31-4.95,11.29-15.57,8.47c-2.22-0.58-1.34-3.96,0.89-3.38C668.15-255.18,668.46-265.36,674.28-265.94z M741.17-338.28
					c-2.18,0.74-3.31-2.57-1.13-3.32c8.37-2.85,20.09-1.18,25.83,6.02c1.43,1.8-1.32,3.98-2.74,2.17
					C758.33-339.43,748.13-340.65,741.17-338.28L741.17-338.28z M711.76-285.87c-2.3,0.23-2.64-3.26-0.35-3.49
					c7.61-0.76,7-9.69,16.89-8.26c2.28,0.32,1.78,3.79-0.49,3.46C720.54-295.2,720.67-286.76,711.76-285.87z M782.07-228.7
					c-0.23-2.3,3.26-2.64,3.49-0.35c1.21,12.07-9.07,10.58-9.6,17.56c-0.17,2.3-3.67,2.04-3.5-0.26
					C773.17-220.97,783.04-218.93,782.07-228.7z M698.81-191.82c-1.37,1.84-4.17-0.25-2.8-2.09c5.84-7.82,9.6-1.65,13.88-5.67
					c2.57-2.41,5.92-3.86,9.45-2.94c2.23,0.58,1.35,3.98-0.89,3.39c-2.32-0.61-4.51,0.54-6.17,2.1
					C706.56-191.66,703.25-197.76,698.81-191.82L698.81-191.82z M682-110.93c1.38-1.84,4.18,0.26,2.8,2.1
					c-3.76,5-11.18,8-17.31,8.19c-2.3,0.08-2.42-3.42-0.12-3.5C672.44-104.3,678.89-106.79,682-110.93L682-110.93z M586.3-165.44
					c-2.05,1.05-3.64-2.07-1.59-3.12c13.05-6.65,13.06,3.41,23.22,2.18c2.28-0.27,2.7,3.2,0.42,3.47
					C597.23-161.56,597.02-170.9,586.3-165.44z M537.66-116.24c-2.21,0.66-3.22-2.69-1.01-3.35c5.64-1.7,4.02-11.71,15.31-12.75
					c2.29-0.22,2.62,3.26,0.33,3.48C543.16-128.03,545.29-118.54,537.66-116.24L537.66-116.24z M608.2-67.3
					c-2.3,0.23-2.64-3.26-0.35-3.49c14.03-1.4,9.66,16.97,17.4,19.26c2.21,0.65,1.23,4.01-0.99,3.36
					C614.04-51.19,618.57-68.34,608.2-67.3L608.2-67.3z M577.06-10.26c-2.24,0.54-3.06-2.86-0.82-3.4
					c10.13-2.46,11.37,7.07,19.66,6.24c2.29-0.23,2.63,3.25,0.35,3.48C586.41-2.96,584.93-12.17,577.06-10.26L577.06-10.26z
					 M559.34,91.37c1.02-0.1,1.93,0.7,1.93,1.75c0,0.91-0.72,1.65-1.62,1.74c-9.43,0.98-11.33,14.43-24.96,11.17
					c-2.24-0.53-1.43-3.93,0.8-3.4C546.59,105.29,548.62,92.44,559.34,91.37L559.34,91.37z M617.26,216.54
					c-2.12-21.25-21.08-36.76-42.34-34.64c-21.26,2.12-36.77,21.07-34.65,42.33c2.12,21.25,21.08,36.76,42.34,34.64
					C603.87,256.74,619.38,237.79,617.26,216.54L617.26,216.54z M624.24,215.84c0.39,3.87,0.28,7.67-0.27,11.35
					c25.35-3.16,48.38,15.48,50.91,40.82c2.51,25.11-15.82,47.49-40.94,50c-25.12,2.51-47.51-15.81-50.02-40.92
					c-0.38-3.76-0.27-7.61,0.29-11.35c-25.42,3.04-48.38-15.36-50.92-40.82c-2.51-25.11,15.82-47.49,40.94-50
					C599.34,172.41,621.74,190.73,624.24,215.84L624.24,215.84z M622.23,234.5c-4.67,14.3-16.15,25.48-30.64,29.7
					c-0.88,4.02-1.1,8.06-0.69,12.16c2.12,21.25,21.08,36.76,42.34,34.64c21.26-2.12,36.77-21.07,34.65-42.33
					C665.63,246.08,644.45,230.32,622.23,234.5L622.23,234.5z M577.6,54.47c0.26,0,0.52-0.01,0.79-0.02
					c0.78-0.03,1.64-0.09,2.56-0.18c21.26-2.12,36.77-21.07,34.65-42.33c-2.12-21.25-21.08-36.76-42.34-34.64
					s-36.77,21.07-34.65,42.33c0.41,4.1,1.42,8.01,3.09,11.78c9.37,0.79,18.05,4.45,25.04,10.17
					C571.09,45.15,574.79,49.51,577.6,54.47L577.6,54.47z M576.29,73.1c-1.06-10.63-6.33-19.82-13.99-26.09
					c-26.74-21.87-66.38-0.08-63,33.77c2.12,21.25,21.08,36.76,42.34,34.64C562.89,113.3,578.41,94.35,576.29,73.1L576.29,73.1z
					 M614-11.19c14.78-7,23.55-22.54,21.92-38.81c-1.06-10.63-6.33-19.82-13.99-26.09c-7.66-6.27-17.72-9.61-28.35-8.55
					c-21.26,2.12-36.77,21.07-34.65,42.33c0.51,5.1,1.99,10.01,4.42,14.52c2.94-0.93,6.02-1.57,9.22-1.88
					C588.74-31.29,604.44-24.23,614-11.19z M597.33-91.84c2.64-6.08,3.63-12.61,2.97-19.2c-1.06-10.63-6.33-19.82-13.99-26.09
					c-26.74-21.87-66.38-0.08-63,33.77c1.82,18.21,16.18,32.7,34.38,34.63c7.34-12.88,20.38-21.4,35.19-22.88
					C594.38-91.77,595.86-91.84,597.33-91.84L597.33-91.84z M607.15-112.9c15.12-6.8,24.21-22.55,22.56-39.06
					c-2.12-21.22-21.04-36.7-42.27-34.59c-18.28,1.83-32.79,16.27-34.61,34.54c13.45-2.68,27.29,0.74,37.92,9.44
					C599.53-135.38,605.65-124.96,607.15-112.9L607.15-112.9z M550.38-287.18c2.4,20.96,21.21,36.12,42.21,34.02
					c10.61-1.06,19.79-6.32,26.05-13.97c6.26-7.65,9.6-17.68,8.54-28.29c-2.12-21.22-21.04-36.7-42.27-34.59
					c-3.14,0.31-6.23,1.01-9.21,2.06C575.69-310.66,565.82-294.85,550.38-287.18z M568.51-331.89
					c-2.12-21.22-21.04-36.7-42.27-34.59c-21.23,2.12-36.72,21.04-34.6,42.26s21.04,36.7,42.27,34.59
					C555.14-291.75,570.63-310.67,568.51-331.89L568.51-331.89z M622.45-260.81c7.74,12.7,22.04,19.82,36.85,18.34
					c10.61-1.06,19.79-6.32,26.05-13.97c6.26-7.65,9.6-17.68,8.54-28.29c-2.12-21.22-21.04-36.7-42.27-34.58
					c-7.88,0.79-15.2,3.88-21.22,9.02c1.97,4.37,3.27,9.14,3.77,14.17C635.47-283.17,631.22-270.4,622.45-260.81L622.45-260.81z
					 M690.81-252.02c3.5,6.35,8.71,11.55,14.95,15.06c6.67,3.75,14.53,5.55,22.75,4.73c10.61-1.06,19.79-6.32,26.05-13.97
					s9.6-17.68,8.54-28.29c-1.06-10.61-6.32-19.79-13.97-26.05c-11.75-9.61-28.18-11.44-41.72-4.68c-3.61,1.8-6.89,4.15-9.73,6.94
					c1.65,4.01,2.76,8.32,3.21,12.86C702.13-272.9,698.19-261.05,690.81-252.02L690.81-252.02z M718.79-225.4
					c0.27,1.69,0.65,3.36,1.15,5.01c8.86,1.01,17.04,4.58,23.7,10.03c5.64,4.61,10.18,10.57,13.1,17.44
					c22.91,0.01,40.92-19.54,38.63-42.46c-1.34-13.41-9.51-25.07-21.61-30.93c-4.54-2.2-3.31-1.72-3.98,2.63
					c-1.26,8.18-4.71,15.72-9.8,21.93c-7.4,9.04-18.25,15.25-30.79,16.51C725.66-224.9,722.17-224.96,718.79-225.4L718.79-225.4z
					 M772.87-285.33c10.03-8.12,15.44-20.8,14.14-33.88c-2.12-21.22-21.04-36.7-42.27-34.58c-20.38,2.03-35.59,19.53-34.76,39.94
					c14.88-5.06,31.39-2.1,43.6,7.89c6.05,4.95,10.83,11.44,13.71,18.94C769.14-282.17,767.86-281.28,772.87-285.33L772.87-285.33z
					 M809.87,238.31c2.1,4.7,3.45,9.75,3.96,14.87c2.63,26.39-16.63,49.91-43.02,52.55c-26.39,2.64-49.93-16.62-52.56-43.01
					c-2.32-23.26,12.49-44.87,35.01-51.06c-2.06-4.59-3.43-9.59-3.95-14.88c-0.66-6.57,0.04-13.21,2.07-19.5
					c-23.93-0.87-43.59-19.35-45.98-43.21c-2.63-26.39,16.63-49.91,43.02-52.55c26.39-2.64,49.93,16.62,52.56,43
					c0.68,6.8-0.1,13.4-2.07,19.51c23.92,0.88,43.59,19.35,45.97,43.2C847.21,210.53,832.38,232.13,809.87,238.31L809.87,238.31z
					 M756.73,218.02c-20.05,4.65-33.52,23.53-31.48,44.01c2.25,22.53,22.35,38.97,44.89,36.72c22.54-2.25,38.99-22.34,36.74-44.87
					c-0.5-4.96-1.84-9.72-4.07-14.18C784.55,241.87,766.7,233.47,756.73,218.02L756.73,218.02z M794.03,125.23
					c-2.25-22.53-22.35-38.97-44.89-36.72c-22.54,2.25-38.99,22.34-36.74,44.87c2.08,20.85,19.49,36.58,40.06,36.92
					C776.74,170.72,796.5,149.97,794.03,125.23L794.03,125.23z M758.95,177c-2.4,6.09-3.29,12.6-2.64,19.11
					c2.25,22.53,22.35,38.97,44.89,36.72c22.54-2.25,38.99-22.34,36.74-44.87c-2.13-21.36-20.4-37.51-41.87-36.93
					C788.81,165.33,774.95,175.08,758.95,177L758.95,177z M215.09-115.98c0.98,21.33-11.29,41.09-30.74,49.72
					c3.68,23.46,25.09,39.98,48.74,37.62c40.03-4,54.42-54.34,23.94-79.28C245.32-117.5,229.48-120.53,215.09-115.98z M177.65-63.82
					c-2.96,0.85-6.03,1.44-9.2,1.76c-28.49,2.85-53.9-17.94-56.74-46.42c-2.84-28.48,17.95-53.88,46.44-56.73
					c26.84-2.68,51.29,15.69,56.14,42.17c14.05-4.02,29.04-2.04,41.53,5.66c5.63-11.14,15.09-19.92,26.63-24.65
					c-10.89-8.73-17.76-21.36-19.15-35.27c-2.58-25.88,14.4-49.45,39.25-55.5c4.95-1.21,4.37,0.22,2.8-4.48
					c-1.21-3.65-2.04-7.42-2.41-11.22c-2.84-28.48,17.95-53.88,46.44-56.73c28.49-2.85,53.9,17.94,56.74,46.42
					c1.56,15.67-4.03,31.06-15.22,42.09c-5.99,5.9-6.18,3.51,2.26,5.26c22.12,4.58,38.8,23.04,41.05,45.61
					c1.24,12.39-2.03,24.79-9.19,34.97c4.6,6.85,7.62,14.9,8.5,23.69c2.35,23.51-11.54,45.68-33.72,53.8
					c1.4,4.16,2.25,8.48,2.56,12.85c14.31,8.39,23.75,23.06,25.4,39.57c1.44,14.45-3.18,28.7-12.82,39.56
					c15.05,8.23,25.04,23.25,26.74,40.34c1.42,14.24-3.07,27.71-11.47,37.98c-1.27,1.55-2.63,3.03-4.07,4.42
					c17.23,7.5,29.08,23.67,30.95,42.4c1.56,15.66-4.02,31.03-15.19,42.06c15.1,8.2,25.18,23.3,26.89,40.41
					c2.84,28.48-17.95,53.88-46.44,56.73c-13.9,1.39-27.67-2.85-38.38-11.8c-0.11,0.14-0.22,0.27-0.33,0.4
					c-8.4,10.27-20.73,17.33-34.97,18.75c-12.64,1.26-24.69-2.14-34.43-8.82c-9.05-6.2-16.09-15.22-19.77-25.94
					c-14.62,2.27-29.36-1.73-40.82-11.1c-9.45-7.73-16.19-18.78-18.31-31.6c-1.15,0.19-2.31,0.35-3.48,0.47
					c-28.49,2.85-53.9-17.94-56.74-46.42c-2.84-28.48,17.95-53.88,46.44-56.73c14.25-1.42,27.72,3.06,37.99,11.46
					c9.45,7.73,16.19,18.79,18.31,31.6c25-4.2,49.47,10.26,57.68,34.29c14.8-2.3,29.7,1.82,41.21,11.43
					c1.26-1.57,2.61-3.06,4.03-4.47c-15.11-8.2-25.18-23.26-26.89-40.43c-1.58-15.79,4.16-31.36,15.54-42.39
					c-17.21-7.48-29.08-23.64-30.95-42.41c-1.44-14.45,3.19-28.7,12.82-39.55c-15.36-8.41-25.68-24.26-26.87-41.8
					c-17.63-10.33-27.53-29.98-25.37-50.2c-8.55-0.5-16.83-3.11-24.13-7.61c-7.99,15.82-23.44,26.49-41.16,28.26
					C206.95-18.98,182.51-37.34,177.65-63.82L177.65-63.82z M207.91-118.09c-2.46-24.63-24.43-42.6-49.06-40.14
					s-42.62,24.42-40.16,49.05c2.46,24.63,24.43,42.6,49.06,40.14C192.39-71.5,210.37-93.46,207.91-118.09L207.91-118.09z
					 M261.6-113.24c16.65,13.7,23.08,36.45,16.11,56.78c8.58,5.58,18.69,8.02,28.87,7c24.64-2.46,42.62-24.42,40.16-49.05
					c-1.23-12.32-7.34-22.97-16.21-30.23C308.09-147.09,274.09-139.55,261.6-113.24L261.6-113.24z M337.37,214.32
					c0.31,1.59,0.55,3.21,0.72,4.86c2.47,24.72-12.98,47.75-36.73,54.82c3.24,8.96,9.21,16.5,16.83,21.72
					c8.41,5.76,18.83,8.69,29.79,7.6c12.32-1.23,22.97-7.34,30.24-16.21c7.27-8.88,11.15-20.52,9.92-32.84
					C385.6,228.85,362.62,210.97,337.37,214.32L337.37,214.32z M242.19,231.21c1.74,11.28,7.62,21.02,15.91,27.8
					c9.75,7.98,22.27,11.46,34.74,9.68c23.66-3.36,40.66-24.83,38.27-48.82c-2.59-25.91-26.93-44.23-52.56-39.66
					C279.25,203.41,264.32,224.32,242.19,231.21L242.19,231.21z M271.33,177.27c-1.23-12.32-7.34-22.97-16.21-30.23
					c-8.88-7.26-20.53-11.14-32.85-9.91c-24.64,2.46-42.62,24.42-40.16,49.05c2.46,24.63,24.43,42.6,49.06,40.14
					S273.79,201.9,271.33,177.27L271.33,177.27z M381.84,223.79c7.27,7.95,12.12,18.23,13.27,29.77
					c1.15,11.54-1.58,22.57-7.12,31.81c9.34,8.01,21.41,11.81,33.66,10.58c24.64-2.46,42.62-24.42,40.16-49.05
					c-1.58-15.81-11.28-29.48-25.68-36.19c-7.23,5.3-15.92,8.8-25.49,9.75c-8.04,0.8-15.83-0.27-22.93-2.87
					C385.56,219.47,383.6,221.54,381.84,223.79L381.84,223.79z M377.02,134.26c-11.61,9.55-17.62,24.12-16.13,39.08
					c2.46,24.63,24.43,42.6,49.06,40.14c24.64-2.46,42.62-24.42,40.16-49.05c-1.75-17.48-13.5-32.31-30.13-37.98
					c-7.07,5-15.5,8.29-24.74,9.21C388.95,136.29,382.8,135.77,377.02,134.26L377.02,134.26z M358.02,52.76
					c-9.28,9.51-13.86,22.56-12.54,35.79c2.46,24.63,24.43,42.6,49.06,40.14c12.32-1.23,22.97-7.34,30.24-16.21
					c7.27-8.88,11.15-20.52,9.92-32.84c-1.55-15.52-11.01-29.06-25.03-35.88c-8.89,7.54-19.91,11.78-31.55,12.23
					C371.07,56.26,364.27,55.1,358.02,52.76L358.02,52.76z M331.93,11.47c3.65,22.23,23.36,38.37,45.91,37.49
					c25.84-1.01,45.5-23.54,42.94-49.25c-1.29-12.89-7.97-24.45-18.49-31.99c-2.18,24.73-21.73,44.49-46.5,46.97
					C347.4,15.53,339.28,14.32,331.93,11.47L331.93,11.47z M353.7-88.59c18.59,1.07,35.19,12.13,43.42,28.75
					c19.32-6.94,31.45-26.21,29.41-46.64c-2.46-24.63-24.43-42.6-49.06-40.14c-14.08,1.41-26.57,9.3-33.91,21.38
					c5.53,7.33,9.19,16.22,10.16,26.03C354.08-95.61,354.06-92.06,353.7-88.59L353.7-88.59z M306.13-42.39
					c-3.46,28.36,20.17,53.01,48.96,50.13c24.64-2.46,42.62-24.42,40.16-49.05c-2.22-22.2-20.47-39.46-42.77-40.34
					C347.14-59.99,328.47-44.12,306.13-42.39z M338.76-130.74c8.63-12.95,22.5-21.31,38.01-22.86c16.51-1.65,32.66,4.65,43.72,16.93
					c5.41-8.51,7.74-18.42,6.74-28.46c-1.99-19.89-16.69-35.43-35.25-39.39c-9.61-2.05-19.85-0.85-28.71,3.39
					c6.15,15.93,4.05,33.96-5.66,48.07c-5.64,8.18-13.59,14.71-23.03,18.58c0.13,0.11,0.26,0.21,0.39,0.32
					C336.29-133.09,337.55-131.95,338.76-130.74L338.76-130.74z M290.78-144.64c12.42-2.77,25.4-0.93,36.54,5.27
					c10.17-2.92,18.74-9.3,24.51-17.67c13.14-19.08,9.4-45.41-8.55-60.09c-30.48-24.94-77-0.88-73.01,39.14
					C271.65-164.3,279.18-152.05,290.78-144.64z M317.35-234.23c11.66,0.38,21.79,4.64,30.38,11.67c4.6,3.76,8.55,8.31,11.64,13.46
					c12.15-1.32,22.65-7.39,29.84-16.17c7.27-8.88,11.15-20.52,9.92-32.84c-2.46-24.63-24.43-42.6-49.06-40.14
					c-24.64,2.46-42.62,24.42-40.16,49.05c0.38,3.85,1.25,7.55,2.57,11.14C313.91-234.19,313.73-234.35,317.35-234.23L317.35-234.23
					z M626.01-118.53c4.5,18.73,22.23,31.25,41.4,29.34c21.23-2.12,36.72-21.04,34.6-42.26c-1.06-10.61-6.32-19.79-13.97-26.05
					c-7.65-6.26-17.69-9.6-28.3-8.54c-8.88,0.89-17,4.69-23.34,10.98c0.12,0.79,0.22,1.6,0.3,2.41
					C637.94-140.25,634.08-127.99,626.01-118.53L626.01-118.53z M708.25-136.98c3.44,0.58,6.85,0.69,10.32,0.35
					c10.61-1.06,19.79-6.32,26.06-13.97c6.26-7.65,9.6-17.68,8.54-28.29c-1.06-10.61-6.32-19.79-13.97-26.05
					c-6.94-5.68-15.85-8.96-25.37-8.72c-11.59,0.29-22.34,5.55-29.52,14.79c-5.83,7.5-8.89,17.19-8.01,27.43
					c5.96,1.73,11.46,4.66,16.19,8.52C700.34-156.5,706.06-147.46,708.25-136.98z"/>
			</g>
		</g>
	</g>
</g>
<g>
</g>
<g>
</g>
<g>
</g>
<g>
</g>
<g>
</g>
<g>
</g>
</svg>
